<?xml version="1.0" encoding="UTF-8" standalone="no"?>
<svg
   xmlns:dc="http://purl.org/dc/elements/1.1/"
   xmlns:cc="http://creativecommons.org/ns#"
   xmlns:rdf="http://www.w3.org/1999/02/22-rdf-syntax-ns#"
   xmlns:svg="http://www.w3.org/2000/svg"
   xmlns="http://www.w3.org/2000/svg"
   xmlns:xlink="http://www.w3.org/1999/xlink"
   xmlns:sodipodi="http://sodipodi.sourceforge.net/DTD/sodipodi-0.dtd"
   xmlns:inkscape="http://www.inkscape.org/namespaces/inkscape"
   version="1.1"
   width="48"
   height="48"
   id="svg5157"
   inkscape:version="1.0.2 (394de47547, 2021-03-26)"
   sodipodi:docname="com.github.slawtul.hamster.svg">
  <metadata
     id="metadata46">
    <rdf:RDF>
      <cc:Work
         rdf:about="">
        <dc:format>image/svg+xml</dc:format>
        <dc:type
           rdf:resource="http://purl.org/dc/dcmitype/StillImage" />
        <dc:title />
      </cc:Work>
    </rdf:RDF>
  </metadata>
  <sodipodi:namedview
     pagecolor="#ffffff"
     bordercolor="#9bdb4d"
     borderopacity="1"
     objecttolerance="10"
     gridtolerance="10"
     guidetolerance="10"
     inkscape:pageopacity="0"
     inkscape:pageshadow="2"
     inkscape:window-width="2471"
     inkscape:window-height="1417"
     id="namedview29"
     showgrid="false"
     inkscape:zoom="12.27157"
     inkscape:cx="-10.090144"
     inkscape:cy="27.401001"
     inkscape:window-x="347"
     inkscape:window-y="407"
     inkscape:window-maximized="0"
     inkscape:current-layer="layer4"
     showguides="true"
     inkscape:object-paths="true"
     inkscape:snap-page="true"
     inkscape:snap-grids="false"
     inkscape:document-rotation="0"
     inkscape:guide-bbox="true"
     inkscape:snap-to-guides="false">
    <inkscape:grid
       type="xygrid"
       id="grid4201"
       originx="0"
       snapvisiblegridlinesonly="true"
       visible="true"
       enabled="true"
       originy="0"
       spacingx="1" />
    <sodipodi:guide
       position="23.982945,10.238514"
       orientation="1,0"
       id="guide900" />
    <sodipodi:guide
       position="-2.7551061,43.662173"
       orientation="0,-1"
       id="guide902" />
    <sodipodi:guide
       position="0,3.0976322"
       orientation="0,-1"
       id="guide904" />
    <sodipodi:guide
       position="5.2171158,10.893996"
       orientation="1,0"
       id="guide906" />
    <sodipodi:guide
       position="42.83279,10.852558"
       orientation="1,0"
       id="guide908" />
  </sodipodi:namedview>
  <defs
     id="defs5159">
    <linearGradient
       id="linearGradient3820-7-2-8-6">
      <stop
         id="stop3822-2-6-5-0"
         style="stop-color:#3d3d3d;stop-opacity:1"
         offset="0" />
      <stop
         id="stop3864-8-7-4-1"
         style="stop-color:#686868;stop-opacity:0.49803922"
         offset="0.5" />
      <stop
         id="stop3824-1-2-6-7"
         style="stop-color:#686868;stop-opacity:0"
         offset="1" />
    </linearGradient>
    <linearGradient
       id="linearGradient4806">
      <stop
         offset="0"
         style="stop-color:#ffffff;stop-opacity:1"
         id="stop4808" />
      <stop
         offset="0.42447853"
         style="stop-color:#ffffff;stop-opacity:0.23529412"
         id="stop4810" />
      <stop
         offset="0.82089913"
         style="stop-color:#ffffff;stop-opacity:0.15686275"
         id="stop4812" />
      <stop
         offset="1"
         style="stop-color:#ffffff;stop-opacity:0.39215687"
         id="stop4814" />
    </linearGradient>
    <linearGradient
       xlink:href="#linearGradient4806"
       id="linearGradient3118"
       gradientUnits="userSpaceOnUse"
       gradientTransform="matrix(4.16388,0,0,4.16388,-236.03265,-50.036246)"
       x1="71.204407"
       y1="15.369057"
       x2="71.204407"
       y2="40.495617" />
    <radialGradient
       xlink:href="#linearGradient3820-7-2-8-6"
       id="radialGradient3163"
       gradientUnits="userSpaceOnUse"
       gradientTransform="matrix(0.6869404,0,0,0.21461693,-4.02174,68.573331)"
       cx="99.157013"
       cy="186.17059"
       fx="99.157013"
       fy="186.17059"
       r="62.769119" />
    <radialGradient
       cx="7.4605465"
       cy="9.9571075"
       r="12.671875"
       fx="6.9303164"
       fy="9.9571075"
       id="radialGradient5521-1"
       xlink:href="#linearGradient2867-449-88-871-390-598-476-591-434-148-57-177-3-8-8-9"
       gradientUnits="userSpaceOnUse"
       gradientTransform="matrix(0,46.861858,-92.320077,0,985.84907,-380.50601)" />
    <linearGradient
       id="linearGradient2867-449-88-871-390-598-476-591-434-148-57-177-3-8-8-9">
      <stop
         offset="0"
         style="stop-color:#9bdb4d;stop-opacity:1"
         id="stop3750-8-9-0" />
      <stop
         offset="1"
         style="stop-color:#d1ff82;stop-opacity:1"
         id="stop3756-9-3-05" />
    </linearGradient>
    <linearGradient
       xlink:href="#linearGradient4806"
       id="linearGradient3118-3"
       gradientUnits="userSpaceOnUse"
       gradientTransform="matrix(4.16388,0,0,4.16388,-43.447904,-61.108816)"
       x1="71.204407"
       y1="15.369057"
       x2="71.204407"
       y2="40.495617" />
    <radialGradient
       cx="7.4605465"
       cy="9.9571075"
       r="12.671875"
       fx="6.9303164"
       fy="9.9571075"
       id="radialGradient5521-1-5"
       xlink:href="#linearGradient2867-449-88-871-390-598-476-591-434-148-57-177-3-8-8-9"
       gradientUnits="userSpaceOnUse"
       gradientTransform="matrix(0,46.861858,-92.320077,0,1178.4338,-391.57858)" />
    <radialGradient
       xlink:href="#linearGradient3820-7-2-8-6"
       id="radialGradient3163-2"
       gradientUnits="userSpaceOnUse"
       gradientTransform="matrix(0.6869404,0,0,0.21461693,188.56301,57.500761)"
       cx="99.157013"
       cy="186.17059"
       fx="99.157013"
       fy="186.17059"
       r="62.769119" />
    <clipPath
       clipPathUnits="userSpaceOnUse"
       id="clipPath925">
      <path
         inkscape:connector-curvature="0"
         d="m 99.053475,103.4609 c 8.715415,-8.868351 14.104475,-21.018879 14.104475,-34.436268 0,-27.149324 -22.008623,-49.156181 -49.157948,-49.156181 -27.149324,0 -49.157948,22.00525 -49.157948,49.156181 0,13.419156 5.390828,25.567917 14.106082,34.438038 l -4.447027,4.44526 c -2.452114,2.45227 -2.452114,6.42459 -0.0016,8.87686 1.224451,1.22622 2.833169,1.84005 4.438353,1.84005 1.605183,0 3.212456,-0.61383 4.436745,-1.83828 l 5.542158,-5.54039 c 7.348149,4.37731 15.907094,6.93657 25.083244,6.93657 9.176151,0 17.735096,-2.55926 25.086619,-6.93818 l 5.541996,5.54216 c 1.226218,1.22445 2.831401,1.83828 4.436746,1.83828 1.60535,0 3.21407,-0.61383 4.43852,-1.84005 2.4505,-2.45227 2.4505,-6.42459 -0.002,-8.87686 z m -35.05524,-5.520149 c -1.746392,0 -3.16137,1.418191 -3.16137,3.164739 v 4.26148 C 43.23109,103.84501 29.1777,89.791616 27.657338,72.187448 h 4.261641 c 1.746553,0 3.164744,-1.41819 3.164744,-3.162976 0,-1.746393 -1.418352,-3.162816 -3.164744,-3.162816 H 27.657338 C 29.1777,48.257488 43.23109,34.20233 60.836865,32.683735 v 4.263248 c 0,1.746553 1.414978,3.16137 3.16137,3.16137 1.746553,0 3.162977,-1.414817 3.162977,-3.16137 v -4.263248 c 17.605935,1.518595 31.657397,15.573592 33.179528,33.177921 h -4.263249 c -1.746553,0 -3.162976,1.416423 -3.162976,3.162816 0,1.744786 1.416423,3.162976 3.162976,3.162976 h 4.263249 C 98.820376,89.791616 84.768753,103.84501 67.162979,105.36697 v -4.25971 c 0,-1.748157 -1.416584,-3.166509 -3.164744,-3.166509 z"
         id="path927"
         style="fill:url(#linearGradient929);fill-opacity:1;stroke:#91e317;stroke-width:1;stroke-miterlimit:4;stroke-dasharray:none;stroke-opacity:0.66857144" />
    </clipPath>
    <linearGradient
       inkscape:collect="always"
       xlink:href="#linearGradient2867-449-88-871-390-598-476-591-434-148-57-177-3-8-8-9"
       id="linearGradient929"
       gradientUnits="userSpaceOnUse"
       x1="62.842052"
       y1="127.49673"
       x2="64.657951"
       y2="18.246727" />
    <clipPath
       clipPathUnits="userSpaceOnUse"
       id="clipPath959">
      <path
         style="fill:#ffe16b;fill-opacity:1;stroke:none;stroke-width:1;stroke-linecap:round;stroke-linejoin:round;stroke-miterlimit:4;stroke-dasharray:none;stroke-opacity:0.54857142"
         id="path961"
         d="m 111.2787,44.419312 c 1.12228,-2.700474 1.7464,-5.659429 1.7464,-8.762967 0.002,-12.633432 -10.2406,-22.875956 -22.874033,-22.875956 -5.076121,0 -9.749339,1.673459 -13.541408,4.47257 15.070124,3.671424 27.645881,13.728562 34.669041,27.166353 z"
         inkscape:connector-curvature="0" />
    </clipPath>
    <clipPath
       clipPathUnits="userSpaceOnUse"
       id="clipPath997">
      <path
         style="fill:#ffe16b;fill-opacity:1;stroke-width:0.09803922"
         id="path999"
         d="m 51.390346,17.249425 c -3.792231,-2.795577 -8.468822,-4.469036 -13.541569,-4.469036 -12.633432,0 -22.875796,10.242524 -22.875796,22.875796 0,3.105304 0.624113,6.064259 1.746553,8.762966 7.023161,-13.441164 19.59876,-23.496374 34.670812,-27.169726 z"
         inkscape:connector-curvature="0" />
    </clipPath>
  </defs>
  <g
     inkscape:groupmode="layer"
     id="layer4"
     inkscape:label="Layer">
    <path
       id="path2335"
       style="opacity:0.92;mix-blend-mode:normal;fill:#b1671f;fill-opacity:0.992157;fill-rule:evenodd;stroke:#000000;stroke-width:0.389253;stroke-linejoin:round;stroke-miterlimit:4;stroke-dasharray:none"
       d="m 16.599874,6.9879878 a 3.1403919,3.61926 0 0 0 -0.01245,-0.027179 3.1403919,3.61926 0 0 0 -0.01511,-0.032026 3.1403919,3.61926 0 0 0 -0.0153,-0.031835 3.1403919,3.61926 0 0 0 -0.01568,-0.031741 3.1403919,3.61926 0 0 0 -0.01597,-0.031455 3.1403919,3.61926 0 0 0 -0.01625,-0.031361 3.1403919,3.61926 0 0 0 -0.01644,-0.031076 3.1403919,3.61926 0 0 0 -0.01673,-0.03098 3.1403919,3.61926 0 0 0 -0.01711,-0.030696 3.1403919,3.61926 0 0 0 -0.0173,-0.030601 3.1403919,3.61926 0 0 0 -0.01749,-0.030315 3.1403919,3.61926 0 0 0 -0.01786,-0.030125 3.1403919,3.61926 0 0 0 -0.01806,-0.029935 3.1403919,3.61926 0 0 0 -0.01834,-0.029745 3.1403919,3.61926 0 0 0 -0.01862,-0.02946 3.1403919,3.61926 0 0 0 -0.01891,-0.02927 3.1403919,3.61926 0 0 0 -0.0191,-0.02908 3.1403919,3.61926 0 0 0 -0.01939,-0.028795 3.1403919,3.61926 0 0 0 -0.01958,-0.028604 3.1403919,3.61926 0 0 0 -0.01986,-0.028415 3.1403919,3.61926 0 0 0 -0.02015,-0.028129 3.1403919,3.61926 0 0 0 -0.02034,-0.027939 3.1403919,3.61926 0 0 0 -0.02062,-0.027655 3.1403919,3.61926 0 0 0 -0.02091,-0.027464 3.1403919,3.61926 0 0 0 -0.0211,-0.027179 3.1403919,3.61926 0 0 0 -0.02129,-0.026989 3.1403919,3.61926 0 0 0 -0.02157,-0.026609 3.1403919,3.61926 0 0 0 -0.02176,-0.026514 3.1403919,3.61926 0 0 0 -0.02205,-0.026134 3.1403919,3.61926 0 0 0 -0.02224,-0.025944 3.1403919,3.61926 0 0 0 -0.02252,-0.025659 3.1403919,3.61926 0 0 0 -0.02262,-0.025469 3.1403919,3.61926 0 0 0 -0.023,-0.025088 3.1403919,3.61926 0 0 0 -0.02309,-0.024898 3.1403919,3.61926 0 0 0 -0.02338,-0.024613 3.1403919,3.61926 0 0 0 -0.02357,-0.024328 3.1403919,3.61926 0 0 0 -0.02376,-0.024043 3.1403919,3.61926 0 0 0 -0.02404,-0.023854 3.1403919,3.61926 0 0 0 -0.02414,-0.023473 3.1403919,3.61926 0 0 0 -0.02442,-0.023188 3.1403919,3.61926 0 0 0 -0.02461,-0.022998 3.1403919,3.61926 0 0 0 -0.0248,-0.022618 3.1403919,3.61926 0 0 0 -0.02499,-0.022332 3.1403919,3.61926 0 0 0 -0.02518,-0.022143 3.1403919,3.61926 0 0 0 -0.02537,-0.021762 3.1403919,3.61926 0 0 0 -0.02556,-0.021477 3.1403919,3.61926 0 0 0 -0.02575,-0.021192 3.1403919,3.61926 0 0 0 -0.02594,-0.020812 3.1403919,3.61926 0 0 0 -0.02613,-0.020622 3.1403919,3.61926 0 0 0 -0.02632,-0.020242 3.1403919,3.61926 0 0 0 -0.02651,-0.019957 3.1403919,3.61926 0 0 0 -0.02661,-0.019671 3.1403919,3.61926 0 0 0 -0.0268,-0.019387 3.1403919,3.61926 0 0 0 -0.02699,-0.019006 3.1403919,3.61926 0 0 0 -0.02718,-0.018721 3.1403919,3.61926 0 0 0 -0.02737,-0.018437 3.1403919,3.61926 0 0 0 -0.02746,-0.018055 3.1403919,3.61926 0 0 0 -0.02756,-0.01777 3.1403919,3.61926 0 0 0 -0.02784,-0.017487 3.1403919,3.61926 0 0 0 -0.02794,-0.017106 3.1403919,3.61926 0 0 0 -0.02804,-0.016821 3.1403919,3.61926 0 0 0 -0.02832,-0.016441 3.1403919,3.61926 0 0 0 -0.02832,-0.016155 3.1403919,3.61926 0 0 0 -0.02851,-0.015775 3.1403919,3.61926 0 0 0 -0.0287,-0.01549 3.1403919,3.61926 0 0 0 -0.0288,-0.015205 3.1403919,3.61926 0 0 0 -0.02889,-0.01473 3.1403919,3.61926 0 0 0 -0.02908,-0.014539 3.1403919,3.61926 0 0 0 -0.02918,-0.01416 3.1403919,3.61926 0 0 0 -0.02927,-0.01378 3.1403919,3.61926 0 0 0 -0.02937,-0.013399 3.1403919,3.61926 0 0 0 -0.02955,-0.013114 3.1403919,3.61926 0 0 0 -0.02965,-0.012829 3.1403919,3.61926 0 0 0 -0.02975,-0.012354 3.1403919,3.61926 0 0 0 -0.02984,-0.012165 3.1403919,3.61926 0 0 0 -0.03003,-0.011689 3.1403919,3.61926 0 0 0 -0.03003,-0.011404 3.1403919,3.61926 0 0 0 -0.03012,-0.011023 3.1403919,3.61926 0 0 0 -0.03031,-0.010644 3.1403919,3.61926 0 0 0 -0.03031,-0.010359 3.1403919,3.61926 0 0 0 -0.03041,-0.00998 3.1403919,3.61926 0 0 0 -0.0305,-0.0096 3.1403919,3.61926 0 0 0 -0.0307,-0.00931 3.1403919,3.61926 0 0 0 -0.0306,-0.00893 3.1403919,3.61926 0 0 0 -0.03079,-0.00855 3.1403919,3.61926 0 0 0 -0.03088,-0.00817 3.1403919,3.61926 0 0 0 -0.03088,-0.00779 3.1403919,3.61926 0 0 0 -0.03098,-0.00751 3.1403919,3.61926 0 0 0 -0.03098,-0.00713 3.1403919,3.61926 0 0 0 -0.03117,-0.00675 3.1403919,3.61926 0 0 0 -0.03108,-0.00637 3.1403919,3.61926 0 0 0 -0.03127,-0.00608 3.1403919,3.61926 0 0 0 -0.03127,-0.0057 3.1403919,3.61926 0 0 0 -0.03127,-0.00532 3.1403919,3.61926 0 0 0 -0.03136,-0.00494 3.1403919,3.61926 0 0 0 -0.03136,-0.00456 3.1403919,3.61926 0 0 0 -0.03146,-0.00418 3.1403919,3.61926 0 0 0 -0.03146,-0.0039 3.1403919,3.61926 0 0 0 -0.03155,-0.00342 3.1403919,3.61926 0 0 0 -0.03155,-0.00314 3.1403919,3.61926 0 0 0 -0.03155,-0.00276 3.1403919,3.61926 0 0 0 -0.03155,-0.00238 3.1403919,3.61926 0 0 0 -0.03155,-0.00209 3.1403919,3.61926 0 0 0 -0.03165,-0.00162 3.1403919,3.61926 0 0 0 -0.03165,-0.00123 3.1403919,3.61926 0 0 0 -0.03165,-9.563e-4 3.1403919,3.61926 0 0 0 -0.03164,-5.701e-4 3.1403919,3.61926 0 0 0 -0.03165,-1.839e-4 3.1403919,3.61926 0 0 0 -0.02784,1.839e-4 3.1403919,3.61926 0 0 0 -0.03165,4.782e-4 3.1403919,3.61926 0 0 0 -0.03165,8.643e-4 3.1403919,3.61926 0 0 0 -0.03165,0.00123 3.1403919,3.61926 0 0 0 -0.03165,0.00162 3.1403919,3.61926 0 0 0 -0.03155,0.002 3.1403919,3.61926 0 0 0 -0.03165,0.00238 3.1403919,3.61926 0 0 0 -0.03155,0.00266 3.1403919,3.61926 0 0 0 -0.03146,0.00314 3.1403919,3.61926 0 0 0 -0.03155,0.00342 3.1403919,3.61926 0 0 0 -0.03146,0.0038 3.1403919,3.61926 0 0 0 -0.03145,0.00418 3.1403919,3.61926 0 0 0 -0.03136,0.00456 3.1403919,3.61926 0 0 0 -0.03136,0.00485 3.1403919,3.61926 0 0 0 -0.03136,0.00532 3.1403919,3.61926 0 0 0 -0.03127,0.00561 3.1403919,3.61926 0 0 0 -0.03117,0.00599 3.1403919,3.61926 0 0 0 -0.03117,0.00637 3.1403919,3.61926 0 0 0 -0.03107,0.00665 3.1403919,3.61926 0 0 0 -0.03108,0.00713 3.1403919,3.61926 0 0 0 -0.03098,0.00741 3.1403919,3.61926 0 0 0 -0.03088,0.00779 3.1403919,3.61926 0 0 0 -0.03089,0.00817 3.1403919,3.61926 0 0 0 -0.03079,0.00855 3.1403919,3.61926 0 0 0 -0.0307,0.00884 3.1403919,3.61926 0 0 0 -0.0306,0.00922 3.1403919,3.61926 0 0 0 -0.03051,0.0096 3.1403919,3.61926 0 0 0 -0.0305,0.00998 3.1403919,3.61926 0 0 0 -0.03031,0.010263 3.1403919,3.61926 0 0 0 -0.03031,0.010644 3.1403919,3.61926 0 0 0 -0.03013,0.010929 3.1403919,3.61926 0 0 0 -0.03012,0.011404 3.1403919,3.61926 0 0 0 -0.02994,0.011689 3.1403919,3.61926 0 0 0 -0.02984,0.011974 3.1403919,3.61926 0 0 0 -0.02975,0.01245 3.1403919,3.61926 0 0 0 -0.02975,0.012735 3.1403919,3.61926 0 0 0 -0.02946,0.01302 3.1403919,3.61926 0 0 0 -0.02946,0.013399 3.1403919,3.61926 0 0 0 -0.02927,0.01378 3.1403919,3.61926 0 0 0 -0.02927,0.01416 3.1403919,3.61926 0 0 0 -0.02898,0.01435 3.1403919,3.61926 0 0 0 -0.02899,0.014826 3.1403919,3.61926 0 0 0 -0.02879,0.015111 3.1403919,3.61926 0 0 0 -0.0287,0.015394 3.1403919,3.61926 0 0 0 -0.02851,0.015775 3.1403919,3.61926 0 0 0 -0.02841,0.016155 3.1403919,3.61926 0 0 0 -0.02823,0.016441 3.1403919,3.61926 0 0 0 -0.02813,0.016726 3.1403919,3.61926 0 0 0 -0.02794,0.017106 3.1403919,3.61926 0 0 0 -0.02775,0.017391 3.1403919,3.61926 0 0 0 -0.02766,0.01777 3.1403919,3.61926 0 0 0 -0.02756,0.017961 3.1403919,3.61926 0 0 0 -0.02727,0.018437 3.1403919,3.61926 0 0 0 -0.02718,0.018626 3.1403919,3.61926 0 0 0 -0.02708,0.019007 3.1403919,3.61926 0 0 0 -0.0268,0.019386 3.1403919,3.61926 0 0 0 -0.0267,0.019577 3.1403919,3.61926 0 0 0 -0.02651,0.019957 3.1403919,3.61926 0 0 0 -0.02632,0.020242 3.1403919,3.61926 0 0 0 -0.02613,0.020526 3.1403919,3.61926 0 0 0 -0.02594,0.020812 3.1403919,3.61926 0 0 0 -0.02575,0.021192 3.1403919,3.61926 0 0 0 -0.02566,0.021478 3.1403919,3.61926 0 0 0 -0.02537,0.021667 3.1403919,3.61926 0 0 0 -0.02518,0.022048 3.1403919,3.61926 0 0 0 -0.02509,0.022332 3.1403919,3.61926 0 0 0 -0.0248,0.022618 3.1403919,3.61926 0 0 0 -0.02461,0.022903 3.1403919,3.61926 0 0 0 -0.02442,0.023188 3.1403919,3.61926 0 0 0 -0.02423,0.023473 3.1403919,3.61926 0 0 0 -0.02404,0.023759 3.1403919,3.61926 0 0 0 -0.02376,0.024043 3.1403919,3.61926 0 0 0 -0.02357,0.024328 3.1403919,3.61926 0 0 0 -0.02338,0.024518 3.1403919,3.61926 0 0 0 -0.02319,0.024899 3.1403919,3.61926 0 0 0 -0.023,0.025089 3.1403919,3.61926 0 0 0 -0.02271,0.025373 3.1403919,3.61926 0 0 0 -0.02243,0.025659 3.1403919,3.61926 0 0 0 -0.02233,0.025849 3.1403919,3.61926 0 0 0 -0.02205,0.026229 3.1403919,3.61926 0 0 0 -0.02176,0.026419 3.1403919,3.61926 0 0 0 -0.02167,0.026609 3.1403919,3.61926 0 0 0 -0.02129,0.026989 3.1403919,3.61926 0 0 0 -0.0211,0.027084 3.1403919,3.61926 0 0 0 -0.02091,0.027464 3.1403919,3.61926 0 0 0 -0.02062,0.027654 3.1403919,3.61926 0 0 0 -0.02043,0.027845 3.1403919,3.61926 0 0 0 -0.02015,0.028129 3.1403919,3.61926 0 0 0 -0.01986,0.02832 3.1403919,3.61926 0 0 0 -0.01967,0.028605 3.1403919,3.61926 0 0 0 -0.01939,0.028795 3.1403919,3.61926 0 0 0 -0.0192,0.02908 3.1403919,3.61926 0 0 0 -0.01891,0.02927 3.1403919,3.61926 0 0 0 -0.01863,0.02946 3.1403919,3.61926 0 0 0 -0.01834,0.02965 3.1403919,3.61926 0 0 0 -0.01815,0.029936 3.1403919,3.61926 0 0 0 -0.01787,0.030125 3.1403919,3.61926 0 0 0 -0.01758,0.030315 3.1403919,3.61926 0 0 0 -0.0173,0.030505 3.1403919,3.61926 0 0 0 -0.01711,0.030696 3.1403919,3.61926 0 0 0 -0.01672,0.030885 3.1403919,3.61926 0 0 0 -0.01654,0.031171 3.1403919,3.61926 0 0 0 -0.01625,0.031266 3.1403919,3.61926 0 0 0 -0.01597,0.031455 3.1403919,3.61926 0 0 0 -0.01568,0.03174 3.1403919,3.61926 0 0 0 -0.01549,0.031836 3.1403919,3.61926 0 0 0 -0.01511,0.032026 3.1403919,3.61926 0 0 0 -0.01483,0.032216 3.1403919,3.61926 0 0 0 -0.01463,0.032311 3.1403919,3.61926 0 0 0 -0.01425,0.032596 3.1403919,3.61926 0 0 0 -0.01397,0.032691 3.1403919,3.61926 0 0 0 -0.01378,0.032881 3.1403919,3.61926 0 0 0 -0.0134,0.032977 3.1403919,3.61926 0 0 0 -0.01311,0.033166 3.1403919,3.61926 0 0 0 -0.01293,0.033357 3.1403919,3.61926 0 0 0 -0.01254,0.033451 3.1403919,3.61926 0 0 0 -0.01226,0.033641 3.1403919,3.61926 0 0 0 -0.01197,0.033737 3.1403919,3.61926 0 0 0 -0.01169,0.033927 3.1403919,3.61926 0 0 0 -0.01131,0.034022 3.1403919,3.61926 0 0 0 -0.01112,0.034117 3.1403919,3.61926 0 0 0 -0.01074,0.034307 3.1403919,3.61926 0 0 0 -0.01055,0.034402 3.1403919,3.61926 0 0 0 -0.01017,0.034591 3.1403919,3.61926 0 0 0 -0.0099,0.034592 3.1403919,3.61926 0 0 0 -0.0096,0.034782 3.1403919,3.61926 0 0 0 -0.0092,0.034877 3.1403919,3.61926 0 0 0 -0.0089,0.034972 3.1403919,3.61926 0 0 0 -0.0087,0.035067 3.1403919,3.61926 0 0 0 -0.0083,0.035162 3.1403919,3.61926 0 0 0 -0.0081,0.035352 3.1403919,3.61926 0 0 0 -0.0077,0.035352 3.1403919,3.61926 0 0 0 -0.0075,0.035447 3.1403919,3.61926 0 0 0 -0.007,0.035542 3.1403919,3.61926 0 0 0 -0.0068,0.035542 3.1403919,3.61926 0 0 0 -0.0065,0.035732 3.1403919,3.61926 0 0 0 -0.0062,0.035732 3.1403919,3.61926 0 0 0 -0.0059,0.035922 3.1403919,3.61926 0 0 0 -0.0055,0.035827 3.1403919,3.61926 0 0 0 -0.0052,0.036017 3.1403919,3.61926 0 0 0 -0.0049,0.036018 3.1403919,3.61926 0 0 0 -0.0047,0.036112 3.1403919,3.61926 0 0 0 -0.0043,0.036112 3.1403919,3.61926 0 0 0 -0.004,0.036207 3.1403919,3.61926 0 0 0 -0.0036,0.036208 3.1403919,3.61926 0 0 0 -0.0033,0.036207 3.1403919,3.61926 0 0 0 -0.003,0.036302 3.1403919,3.61926 0 0 0 -0.0028,0.036397 3.1403919,3.61926 0 0 0 -0.0024,0.036302 3.1403919,3.61926 0 0 0 -0.0021,0.036398 3.1403919,3.61926 0 0 0 -0.0017,0.036492 3.1403919,3.61926 0 0 0 -0.0014,0.036397 3.1403919,3.61926 0 0 0 -0.0011,0.036492 3.1403919,3.61926 0 0 0 -7.54e-4,0.036398 3.1403919,3.61926 0 0 0 -4.78e-4,0.036492 3.1403919,3.61926 0 0 0 -1.84e-4,0.036492 3.1403919,3.61926 0 0 0 9.5e-5,0.032121 3.1403919,3.61926 0 0 0 4.78e-4,0.036492 3.1403919,3.61926 0 0 0 7.54e-4,0.036493 3.1403919,3.61926 0 0 0 0.001,0.036397 3.1403919,3.61926 0 0 0 0.0014,0.036492 3.1403919,3.61926 0 0 0 0.0017,0.036398 3.1403919,3.61926 0 0 0 0.002,0.036397 3.1403919,3.61926 0 0 0 0.0024,0.036397 3.1403919,3.61926 0 0 0 0.0027,0.036303 3.1403919,3.61926 0 0 0 0.003,0.036302 3.1403919,3.61926 0 0 0 0.0032,0.036302 3.1403919,3.61926 0 0 0 0.0037,0.036207 3.1403919,3.61926 0 0 0 0.0039,0.036207 3.1403919,3.61926 0 0 0 0.0043,0.036112 3.1403919,3.61926 0 0 0 0.0046,0.036112 3.1403919,3.61926 0 0 0 0.0048,0.036017 3.1403919,3.61926 0 0 0 0.0052,0.035922 3.1403919,3.61926 0 0 0 0.0055,0.035922 3.1403919,3.61926 0 0 0 0.0058,0.035922 3.1403919,3.61926 0 0 0 0.0062,0.035732 3.1403919,3.61926 0 0 0 0.0065,0.035732 3.1403919,3.61926 0 0 0 0.0067,0.035637 3.1403919,3.61926 0 0 0 0.0071,0.035542 3.1403919,3.61926 0 0 0 0.0073,0.035447 3.1403919,3.61926 0 0 0 0.0077,0.035352 3.1403919,3.61926 0 0 0 0.0081,0.035257 3.1403919,3.61926 0 0 0 0.0083,0.035257 3.1403919,3.61926 0 0 0 0.0086,0.035067 3.1403919,3.61926 0 0 0 0.0089,0.034972 3.1403919,3.61926 0 0 0 0.0092,0.034877 3.1403919,3.61926 0 0 0 0.0095,0.034782 3.1403919,3.61926 0 0 0 0.0099,0.034687 3.1403919,3.61926 0 0 0 0.01007,0.034497 3.1403919,3.61926 0 0 0 0.01045,0.034496 3.1403919,3.61926 0 0 0 0.01074,0.034307 3.1403919,3.61926 0 0 0 0.01112,0.034116 3.1403919,3.61926 0 0 0 0.01131,0.034022 3.1403919,3.61926 0 0 0 0.01169,0.033926 3.1403919,3.61926 0 0 0 0.01188,0.03383 3.1403919,3.61926 0 0 0 0.01226,0.03364 3.1403919,3.61926 0 0 0 0.01254,0.03345 3.1403919,3.61926 0 0 0 0.01283,0.03336 3.1403919,3.61926 0 0 0 0.01302,0.03317 3.1403919,3.61926 0 0 0 0.0134,0.03307 3.1403919,3.61926 0 0 0 0.01368,0.03288 3.1403919,3.61926 0 0 0 0.01397,0.03269 3.1403919,3.61926 0 0 0 0.01435,0.0326 3.1403919,3.61926 0 0 0 0.01454,0.03241 3.1403919,3.61926 0 0 0 0.01483,0.03222 3.1403919,3.61926 0 0 0 0.01501,0.03203 3.1403919,3.61926 0 0 0 0.0154,0.03184 3.1403919,3.61926 0 0 0 0.01568,0.03174 3.1403919,3.61926 0 0 0 0.01597,0.03146 3.1403919,3.61926 0 0 0 0.01615,0.03136 3.1403919,3.61926 0 0 0 0.01654,0.03117 3.1403919,3.61926 0 0 0 0.01673,0.03089 3.1403919,3.61926 0 0 0 0.01701,0.03079 3.1403919,3.61926 0 0 0 0.0173,0.03051 3.1403919,3.61926 0 0 0 0.01758,0.03031 3.1403919,3.61926 0 0 0 0.01787,0.03012 3.1403919,3.61926 0 0 0 0.01806,0.02994 3.1403919,3.61926 0 0 0 0.01663,0.02699 14.37445,13.48413 0 0 1 5.330555,-3.7951152 z"
       inkscape:export-xdpi="96"
       inkscape:export-ydpi="96" />
    <path
       id="path932"
       style="opacity:0.92;mix-blend-mode:normal;fill:#f7c454;fill-opacity:1;fill-rule:evenodd;stroke:#000000;stroke-width:0.389253;stroke-linejoin:round;stroke-miterlimit:4;stroke-dasharray:none"
       d="m 13.450503,4.5804494 a 3.7931184,4.7188611 0 0 0 -3.7856118,4.7188292 3.7931184,4.7188611 0 0 0 0.6713078,2.6801964 14.374443,13.48413 0 0 1 0.933123,-1.196362 3.1403902,3.61926 0 0 1 -0.01663,-0.02699 3.1403902,3.61926 0 0 1 -0.01806,-0.02994 3.1403902,3.61926 0 0 1 -0.01787,-0.03012 3.1403902,3.61926 0 0 1 -0.01758,-0.03031 3.1403902,3.61926 0 0 1 -0.0173,-0.03051 3.1403902,3.61926 0 0 1 -0.01701,-0.03079 3.1403902,3.61926 0 0 1 -0.01673,-0.03089 3.1403902,3.61926 0 0 1 -0.01654,-0.03117 3.1403902,3.61926 0 0 1 -0.01615,-0.03136 3.1403902,3.61926 0 0 1 -0.01597,-0.03146 3.1403902,3.61926 0 0 1 -0.01568,-0.03174 3.1403902,3.61926 0 0 1 -0.0154,-0.03184 3.1403902,3.61926 0 0 1 -0.01501,-0.03203 3.1403902,3.61926 0 0 1 -0.01483,-0.03222 3.1403902,3.61926 0 0 1 -0.01454,-0.03241 3.1403902,3.61926 0 0 1 -0.01435,-0.0326 3.1403902,3.61926 0 0 1 -0.01397,-0.03269 3.1403902,3.61926 0 0 1 -0.01368,-0.03288 3.1403902,3.61926 0 0 1 -0.0134,-0.03307 3.1403902,3.61926 0 0 1 -0.01302,-0.03317 3.1403902,3.61926 0 0 1 -0.01283,-0.03336 3.1403902,3.61926 0 0 1 -0.01254,-0.03345 3.1403902,3.61926 0 0 1 -0.01226,-0.03364 3.1403902,3.61926 0 0 1 -0.01188,-0.03383 3.1403902,3.61926 0 0 1 -0.01169,-0.033926 3.1403902,3.61926 0 0 1 -0.01131,-0.034022 3.1403902,3.61926 0 0 1 -0.01112,-0.034116 3.1403902,3.61926 0 0 1 -0.01074,-0.034307 3.1403902,3.61926 0 0 1 -0.01045,-0.034496 3.1403902,3.61926 0 0 1 -0.01007,-0.034497 3.1403902,3.61926 0 0 1 -0.0099,-0.034687 3.1403902,3.61926 0 0 1 -0.0095,-0.034782 3.1403902,3.61926 0 0 1 -0.0092,-0.034877 3.1403902,3.61926 0 0 1 -0.0089,-0.034972 3.1403902,3.61926 0 0 1 -0.0086,-0.035067 3.1403902,3.61926 0 0 1 -0.0083,-0.035257 3.1403902,3.61926 0 0 1 -0.0081,-0.035257 3.1403902,3.61926 0 0 1 -0.0077,-0.035352 3.1403902,3.61926 0 0 1 -0.0073,-0.035447 3.1403902,3.61926 0 0 1 -0.0071,-0.035542 3.1403902,3.61926 0 0 1 -0.0067,-0.035637 3.1403902,3.61926 0 0 1 -0.0065,-0.035732 3.1403902,3.61926 0 0 1 -0.0062,-0.035732 3.1403902,3.61926 0 0 1 -0.0058,-0.035922 3.1403902,3.61926 0 0 1 -0.0055,-0.035922 3.1403902,3.61926 0 0 1 -0.0052,-0.035922 3.1403902,3.61926 0 0 1 -0.0048,-0.036017 3.1403902,3.61926 0 0 1 -0.0046,-0.036112 3.1403902,3.61926 0 0 1 -0.0043,-0.036112 3.1403902,3.61926 0 0 1 -0.0039,-0.036207 3.1403902,3.61926 0 0 1 -0.0037,-0.036207 3.1403902,3.61926 0 0 1 -0.0032,-0.036302 3.1403902,3.61926 0 0 1 -0.003,-0.036302 3.1403902,3.61926 0 0 1 -0.0027,-0.036303 3.1403902,3.61926 0 0 1 -0.0024,-0.036397 3.1403902,3.61926 0 0 1 -0.002,-0.036397 3.1403902,3.61926 0 0 1 -0.0017,-0.036398 3.1403902,3.61926 0 0 1 -0.0014,-0.036492 3.1403902,3.61926 0 0 1 -10e-4,-0.036397 3.1403902,3.61926 0 0 1 -7.54e-4,-0.036493 3.1403902,3.61926 0 0 1 -4.78e-4,-0.036492 3.1403902,3.61926 0 0 1 -9.5e-5,-0.032121 3.1403902,3.61926 0 0 1 1.84e-4,-0.036492 3.1403902,3.61926 0 0 1 4.78e-4,-0.036492 3.1403902,3.61926 0 0 1 7.54e-4,-0.036398 3.1403902,3.61926 0 0 1 0.0011,-0.036492 3.1403902,3.61926 0 0 1 0.0014,-0.036397 3.1403902,3.61926 0 0 1 0.0017,-0.036492 3.1403902,3.61926 0 0 1 0.0021,-0.036398 3.1403902,3.61926 0 0 1 0.0024,-0.036302 3.1403902,3.61926 0 0 1 0.0028,-0.036397 3.1403902,3.61926 0 0 1 0.003,-0.036302 3.1403902,3.61926 0 0 1 0.0033,-0.036207 3.1403902,3.61926 0 0 1 0.0036,-0.036208 3.1403902,3.61926 0 0 1 0.004,-0.036207 3.1403902,3.61926 0 0 1 0.0043,-0.036112 3.1403902,3.61926 0 0 1 0.0047,-0.036112 3.1403902,3.61926 0 0 1 0.0049,-0.036018 3.1403902,3.61926 0 0 1 0.0052,-0.036017 3.1403902,3.61926 0 0 1 0.0055,-0.035827 3.1403902,3.61926 0 0 1 0.0059,-0.035922 3.1403902,3.61926 0 0 1 0.0062,-0.035732 3.1403902,3.61926 0 0 1 0.0065,-0.035732 3.1403902,3.61926 0 0 1 0.0068,-0.035542 3.1403902,3.61926 0 0 1 0.007,-0.035542 3.1403902,3.61926 0 0 1 0.0075,-0.035447 3.1403902,3.61926 0 0 1 0.0077,-0.035352 3.1403902,3.61926 0 0 1 0.0081,-0.035352 3.1403902,3.61926 0 0 1 0.0083,-0.035162 3.1403902,3.61926 0 0 1 0.0087,-0.035067 3.1403902,3.61926 0 0 1 0.0089,-0.034972 3.1403902,3.61926 0 0 1 0.0092,-0.034877 3.1403902,3.61926 0 0 1 0.0096,-0.034782 3.1403902,3.61926 0 0 1 0.0099,-0.034592 3.1403902,3.61926 0 0 1 0.01017,-0.034591 3.1403902,3.61926 0 0 1 0.01055,-0.034402 3.1403902,3.61926 0 0 1 0.01074,-0.034307 3.1403902,3.61926 0 0 1 0.01112,-0.034117 3.1403902,3.61926 0 0 1 0.01131,-0.034022 3.1403902,3.61926 0 0 1 0.01169,-0.033927 3.1403902,3.61926 0 0 1 0.01197,-0.033737 3.1403902,3.61926 0 0 1 0.01226,-0.033641 3.1403902,3.61926 0 0 1 0.01254,-0.033451 3.1403902,3.61926 0 0 1 0.01293,-0.033357 3.1403902,3.61926 0 0 1 0.01311,-0.033166 3.1403902,3.61926 0 0 1 0.0134,-0.032977 3.1403902,3.61926 0 0 1 0.01378,-0.032881 3.1403902,3.61926 0 0 1 0.01397,-0.032691 3.1403902,3.61926 0 0 1 0.01425,-0.032596 3.1403902,3.61926 0 0 1 0.01463,-0.032311 3.1403902,3.61926 0 0 1 0.01483,-0.032216 3.1403902,3.61926 0 0 1 0.01511,-0.032026 3.1403902,3.61926 0 0 1 0.01549,-0.031836 3.1403902,3.61926 0 0 1 0.01568,-0.03174 3.1403902,3.61926 0 0 1 0.01597,-0.031455 3.1403902,3.61926 0 0 1 0.01625,-0.031266 3.1403902,3.61926 0 0 1 0.01654,-0.031171 3.1403902,3.61926 0 0 1 0.01672,-0.030885 3.1403902,3.61926 0 0 1 0.01711,-0.030696 3.1403902,3.61926 0 0 1 0.0173,-0.030505 3.1403902,3.61926 0 0 1 0.01758,-0.030315 3.1403902,3.61926 0 0 1 0.01787,-0.030125 3.1403902,3.61926 0 0 1 0.01815,-0.029936 3.1403902,3.61926 0 0 1 0.01834,-0.02965 3.1403902,3.61926 0 0 1 0.01863,-0.02946 3.1403902,3.61926 0 0 1 0.01891,-0.02927 3.1403902,3.61926 0 0 1 0.0192,-0.02908 3.1403902,3.61926 0 0 1 0.01939,-0.028795 3.1403902,3.61926 0 0 1 0.01967,-0.028605 3.1403902,3.61926 0 0 1 0.01986,-0.02832 3.1403902,3.61926 0 0 1 0.02015,-0.028129 3.1403902,3.61926 0 0 1 0.02043,-0.027845 3.1403902,3.61926 0 0 1 0.02062,-0.027654 3.1403902,3.61926 0 0 1 0.02091,-0.027464 3.1403902,3.61926 0 0 1 0.0211,-0.027084 3.1403902,3.61926 0 0 1 0.02129,-0.026989 3.1403902,3.61926 0 0 1 0.02167,-0.026609 3.1403902,3.61926 0 0 1 0.02176,-0.026419 3.1403902,3.61926 0 0 1 0.02205,-0.026229 3.1403902,3.61926 0 0 1 0.02233,-0.025849 3.1403902,3.61926 0 0 1 0.02243,-0.025659 3.1403902,3.61926 0 0 1 0.02271,-0.025373 3.1403902,3.61926 0 0 1 0.023,-0.025089 3.1403902,3.61926 0 0 1 0.02319,-0.024899 3.1403902,3.61926 0 0 1 0.02338,-0.024518 3.1403902,3.61926 0 0 1 0.02357,-0.024328 3.1403902,3.61926 0 0 1 0.02376,-0.024043 3.1403902,3.61926 0 0 1 0.02404,-0.023759 3.1403902,3.61926 0 0 1 0.02423,-0.023473 3.1403902,3.61926 0 0 1 0.02442,-0.023188 3.1403902,3.61926 0 0 1 0.02461,-0.022903 3.1403902,3.61926 0 0 1 0.0248,-0.022618 3.1403902,3.61926 0 0 1 0.02509,-0.022332 3.1403902,3.61926 0 0 1 0.02518,-0.022048 3.1403902,3.61926 0 0 1 0.02537,-0.021667 3.1403902,3.61926 0 0 1 0.02566,-0.021478 3.1403902,3.61926 0 0 1 0.02575,-0.021192 3.1403902,3.61926 0 0 1 0.02594,-0.020812 3.1403902,3.61926 0 0 1 0.02613,-0.020526 3.1403902,3.61926 0 0 1 0.02632,-0.020242 3.1403902,3.61926 0 0 1 0.02651,-0.019957 3.1403902,3.61926 0 0 1 0.0267,-0.019577 3.1403902,3.61926 0 0 1 0.0268,-0.019386 3.1403902,3.61926 0 0 1 0.02708,-0.019007 3.1403902,3.61926 0 0 1 0.02718,-0.018626 3.1403902,3.61926 0 0 1 0.02727,-0.018437 3.1403902,3.61926 0 0 1 0.02756,-0.017961 3.1403902,3.61926 0 0 1 0.02765,-0.01777 3.1403902,3.61926 0 0 1 0.02775,-0.017391 3.1403902,3.61926 0 0 1 0.02794,-0.017106 3.1403902,3.61926 0 0 1 0.02813,-0.016726 3.1403902,3.61926 0 0 1 0.02822,-0.016441 3.1403902,3.61926 0 0 1 0.02842,-0.016155 3.1403902,3.61926 0 0 1 0.02851,-0.015775 3.1403902,3.61926 0 0 1 0.0287,-0.015394 3.1403902,3.61926 0 0 1 0.02879,-0.015111 3.1403902,3.61926 0 0 1 0.02899,-0.014826 3.1403902,3.61926 0 0 1 0.02899,-0.01435 3.1403902,3.61926 0 0 1 0.02927,-0.01416 3.1403902,3.61926 0 0 1 0.02927,-0.01378 3.1403902,3.61926 0 0 1 0.02946,-0.013399 3.1403902,3.61926 0 0 1 0.02946,-0.01302 3.1403902,3.61926 0 0 1 0.02975,-0.012735 3.1403902,3.61926 0 0 1 0.02975,-0.01245 3.1403902,3.61926 0 0 1 0.02984,-0.011974 3.1403902,3.61926 0 0 1 0.02994,-0.011689 3.1403902,3.61926 0 0 1 0.03013,-0.011404 3.1403902,3.61926 0 0 1 0.03012,-0.010929 3.1403902,3.61926 0 0 1 0.03031,-0.010644 3.1403902,3.61926 0 0 1 0.03032,-0.010263 3.1403902,3.61926 0 0 1 0.0305,-0.00998 3.1403902,3.61926 0 0 1 0.03051,-0.0096 3.1403902,3.61926 0 0 1 0.0306,-0.00922 3.1403902,3.61926 0 0 1 0.0307,-0.00884 3.1403902,3.61926 0 0 1 0.03079,-0.00855 3.1403902,3.61926 0 0 1 0.03089,-0.00817 3.1403902,3.61926 0 0 1 0.03089,-0.00779 3.1403902,3.61926 0 0 1 0.03098,-0.00741 3.1403902,3.61926 0 0 1 0.03108,-0.00713 3.1403902,3.61926 0 0 1 0.03108,-0.00665 3.1403902,3.61926 0 0 1 0.03117,-0.00637 3.1403902,3.61926 0 0 1 0.03117,-0.00599 3.1403902,3.61926 0 0 1 0.03127,-0.00561 3.1403902,3.61926 0 0 1 0.03136,-0.00532 3.1403902,3.61926 0 0 1 0.03136,-0.00485 3.1403902,3.61926 0 0 1 0.03136,-0.00456 3.1403902,3.61926 0 0 1 0.03146,-0.00418 3.1403902,3.61926 0 0 1 0.03146,-0.0038 3.1403902,3.61926 0 0 1 0.03155,-0.00342 3.1403902,3.61926 0 0 1 0.03146,-0.00314 3.1403902,3.61926 0 0 1 0.03155,-0.00266 3.1403902,3.61926 0 0 1 0.03165,-0.00238 3.1403902,3.61926 0 0 1 0.03155,-0.002 3.1403902,3.61926 0 0 1 0.03165,-0.00162 3.1403902,3.61926 0 0 1 0.03165,-0.00123 3.1403902,3.61926 0 0 1 0.03164,-8.643e-4 3.1403902,3.61926 0 0 1 0.03165,-4.782e-4 3.1403902,3.61926 0 0 1 0.02784,-1.839e-4 3.1403902,3.61926 0 0 1 0.03165,1.839e-4 3.1403902,3.61926 0 0 1 0.03165,5.701e-4 3.1403902,3.61926 0 0 1 0.03165,9.563e-4 3.1403902,3.61926 0 0 1 0.03165,0.00123 3.1403902,3.61926 0 0 1 0.03165,0.00162 3.1403902,3.61926 0 0 1 0.03155,0.00209 3.1403902,3.61926 0 0 1 0.03155,0.00238 3.1403902,3.61926 0 0 1 0.03155,0.00276 3.1403902,3.61926 0 0 1 0.03155,0.00314 3.1403902,3.61926 0 0 1 0.03155,0.00342 3.1403902,3.61926 0 0 1 0.03146,0.0039 3.1403902,3.61926 0 0 1 0.03146,0.00418 3.1403902,3.61926 0 0 1 0.03136,0.00456 3.1403902,3.61926 0 0 1 0.03136,0.00494 3.1403902,3.61926 0 0 1 0.03126,0.00532 3.1403902,3.61926 0 0 1 0.03127,0.0057 3.1403902,3.61926 0 0 1 0.03127,0.00608 3.1403902,3.61926 0 0 1 0.03108,0.00637 3.1403902,3.61926 0 0 1 0.03117,0.00675 3.1403902,3.61926 0 0 1 0.03098,0.00713 3.1403902,3.61926 0 0 1 0.03098,0.00751 3.1403902,3.61926 0 0 1 0.03088,0.00779 3.1403902,3.61926 0 0 1 0.03089,0.00817 3.1403902,3.61926 0 0 1 0.03079,0.00855 3.1403902,3.61926 0 0 1 0.0306,0.00893 3.1403902,3.61926 0 0 1 0.0307,0.00931 3.1403902,3.61926 0 0 1 0.0305,0.0096 3.1403902,3.61926 0 0 1 0.03041,0.00998 3.1403902,3.61926 0 0 1 0.03031,0.010359 3.1403902,3.61926 0 0 1 0.03031,0.010644 3.1403902,3.61926 0 0 1 0.03012,0.011023 3.1403902,3.61926 0 0 1 0.03003,0.011404 3.1403902,3.61926 0 0 1 0.03003,0.011689 3.1403902,3.61926 0 0 1 0.02984,0.012165 3.1403902,3.61926 0 0 1 0.02975,0.012354 3.1403902,3.61926 0 0 1 0.02965,0.012829 3.1403902,3.61926 0 0 1 0.02956,0.013114 3.1403902,3.61926 0 0 1 0.02936,0.013399 3.1403902,3.61926 0 0 1 0.02927,0.01378 3.1403902,3.61926 0 0 1 0.02918,0.01416 3.1403902,3.61926 0 0 1 0.02908,0.014539 3.1403902,3.61926 0 0 1 0.02889,0.01473 3.1403902,3.61926 0 0 1 0.02879,0.015205 3.1403902,3.61926 0 0 1 0.0287,0.01549 3.1403902,3.61926 0 0 1 0.02851,0.015775 3.1403902,3.61926 0 0 1 0.02832,0.016155 3.1403902,3.61926 0 0 1 0.02832,0.016441 3.1403902,3.61926 0 0 1 0.02803,0.016821 3.1403902,3.61926 0 0 1 0.02794,0.017106 3.1403902,3.61926 0 0 1 0.02785,0.017487 3.1403902,3.61926 0 0 1 0.02756,0.01777 3.1403902,3.61926 0 0 1 0.02746,0.018055 3.1403902,3.61926 0 0 1 0.02737,0.018437 3.1403902,3.61926 0 0 1 0.02718,0.018721 3.1403902,3.61926 0 0 1 0.02699,0.019006 3.1403902,3.61926 0 0 1 0.0268,0.019387 3.1403902,3.61926 0 0 1 0.02661,0.019671 3.1403902,3.61926 0 0 1 0.02651,0.019957 3.1403902,3.61926 0 0 1 0.02632,0.020242 3.1403902,3.61926 0 0 1 0.02613,0.020622 3.1403902,3.61926 0 0 1 0.02594,0.020812 3.1403902,3.61926 0 0 1 0.02575,0.021192 3.1403902,3.61926 0 0 1 0.02556,0.021477 3.1403902,3.61926 0 0 1 0.02537,0.021762 3.1403902,3.61926 0 0 1 0.02518,0.022143 3.1403902,3.61926 0 0 1 0.02499,0.022332 3.1403902,3.61926 0 0 1 0.0248,0.022618 3.1403902,3.61926 0 0 1 0.02461,0.022998 3.1403902,3.61926 0 0 1 0.02442,0.023188 3.1403902,3.61926 0 0 1 0.02414,0.023473 3.1403902,3.61926 0 0 1 0.02404,0.023854 3.1403902,3.61926 0 0 1 0.02376,0.024043 3.1403902,3.61926 0 0 1 0.02357,0.024328 3.1403902,3.61926 0 0 1 0.02338,0.024613 3.1403902,3.61926 0 0 1 0.02309,0.024898 3.1403902,3.61926 0 0 1 0.023,0.025088 3.1403902,3.61926 0 0 1 0.02262,0.025469 3.1403902,3.61926 0 0 1 0.02252,0.025659 3.1403902,3.61926 0 0 1 0.02224,0.025944 3.1403902,3.61926 0 0 1 0.02205,0.026134 3.1403902,3.61926 0 0 1 0.02176,0.026514 3.1403902,3.61926 0 0 1 0.02157,0.026609 3.1403902,3.61926 0 0 1 0.02129,0.026989 3.1403902,3.61926 0 0 1 0.0211,0.027179 3.1403902,3.61926 0 0 1 0.02091,0.027464 3.1403902,3.61926 0 0 1 0.02062,0.027655 3.1403902,3.61926 0 0 1 0.02034,0.027939 3.1403902,3.61926 0 0 1 0.02015,0.028129 3.1403902,3.61926 0 0 1 0.01986,0.028415 3.1403902,3.61926 0 0 1 0.01958,0.028604 3.1403902,3.61926 0 0 1 0.01939,0.028795 3.1403902,3.61926 0 0 1 0.0191,0.02908 3.1403902,3.61926 0 0 1 0.01891,0.02927 3.1403902,3.61926 0 0 1 0.01863,0.02946 3.1403902,3.61926 0 0 1 0.01834,0.029745 3.1403902,3.61926 0 0 1 0.01806,0.029935 3.1403902,3.61926 0 0 1 0.01786,0.030125 3.1403902,3.61926 0 0 1 0.01749,0.030315 3.1403902,3.61926 0 0 1 0.0173,0.030601 3.1403902,3.61926 0 0 1 0.01711,0.030696 3.1403902,3.61926 0 0 1 0.01673,0.03098 3.1403902,3.61926 0 0 1 0.01644,0.031076 3.1403902,3.61926 0 0 1 0.01625,0.031361 3.1403902,3.61926 0 0 1 0.01597,0.031455 3.1403902,3.61926 0 0 1 0.01568,0.031741 3.1403902,3.61926 0 0 1 0.0153,0.031835 3.1403902,3.61926 0 0 1 0.01511,0.032026 3.1403902,3.61926 0 0 1 0.01245,0.027179 14.374443,13.48413 0 0 1 0.139127,-0.056639 3.7931184,4.7188611 0 0 0 -3.28099,-2.3509094 3.7931184,4.7188611 0 0 0 -0.0075,0 z"
       inkscape:export-xdpi="96"
       inkscape:export-ydpi="96" />
    <path
       id="path861-6-7-6-9"
       style="display:inline;opacity:1;mix-blend-mode:normal;fill:#f5b22c;fill-opacity:0.93000001;fill-rule:evenodd;stroke:#000000;stroke-width:0.389253;stroke-miterlimit:4;stroke-dasharray:none;stroke-opacity:1"
       d="M 22.786731,6.3886432 A 14.374444,13.484131 0 0 0 8.4224086,19.872764 14.374444,13.484131 0 0 0 9.0438263,23.794272 c -0.4201314,0.934886 -0.8257035,1.847879 -1.2212605,2.711085 -0.7422797,1.661459 -1.1279099,3.483725 -1.1279393,5.329982 3.7e-6,6.750502 1.9943451,11.538872 8.1394235,12.524404 0.503462,0.08074 4.252789,0.437624 4.252789,0.437624 4.562105,0.192809 3.281379,0.16476 5.046215,0.164786 1.27929,-9e-6 5.630445,-0.06148 6.507721,-0.268658 4.143095,-0.986874 10.421691,-7.699055 10.579758,-14.305973 -8e-6,-1.872995 -0.289472,-3.727762 -0.851965,-5.459038 -1.12571,-3.565138 -2.368627,-6.583275 -3.834268,-9.0253 -1.5e-5,-2.4e-5 1.2e-5,-5e-5 0,-9.8e-5 a 14.374444,13.484131 0 0 0 -13.737493,-9.5144454 14.374444,13.484131 0 0 0 -0.01008,0 z"
       inkscape:export-xdpi="96"
       inkscape:export-ydpi="96" />
    <path
       id="path1123"
       style="display:inline;opacity:0.92;mix-blend-mode:normal;fill:#ffffff;fill-opacity:0.988235;fill-rule:evenodd;stroke:none;stroke-width:0.393576;stroke-miterlimit:4;stroke-dasharray:none;stroke-opacity:1"
       d="m 15.190785,8.6219736 a 5.3615506,6.4450083 53.268459 0 0 -0.0024,0.021978 5.3615506,6.4450083 53.268459 0 0 -0.0045,0.044048 5.3615506,6.4450083 53.268459 0 0 -0.0042,0.044045 5.3615506,6.4450083 53.268459 0 0 -0.0038,0.044041 5.3615506,6.4450083 53.268459 0 0 -0.0034,0.044037 5.3615506,6.4450083 53.268459 0 0 -0.0031,0.043939 5.3615506,6.4450083 53.268459 0 0 -0.0027,0.043935 5.3615506,6.4450083 53.268459 0 0 -0.0024,0.043931 5.3615506,6.4450083 53.268459 0 0 -0.0021,0.043834 5.3615506,6.4450083 53.268459 0 0 -0.0017,0.04383 5.3615506,6.4450083 53.268459 0 0 -0.0014,0.043731 5.3615506,6.4450083 53.268459 0 0 -10e-4,0.043727 5.3615506,6.4450083 53.268459 0 0 -6.25e-4,0.043629 5.3615506,6.4450083 53.268459 0 0 -2.58e-4,0.04353 5.3615506,6.4450083 53.268459 0 0 6.8e-5,0.043621 5.3615506,6.4450083 53.268459 0 0 4.78e-4,0.043428 5.3615506,6.4450083 53.268459 0 0 8.46e-4,0.043424 5.3615506,6.4450083 53.268459 0 0 0.0012,0.043325 5.3615506,6.4450083 53.268459 0 0 0.0016,0.043321 5.3615506,6.4450083 53.268459 0 0 0.0019,0.043127 5.3615506,6.4450083 53.268459 0 0 0.0023,0.043124 5.3615506,6.4450083 53.268459 0 0 0.0026,0.04312 5.3615506,6.4450083 53.268459 0 0 0.003,0.042927 5.3615506,6.4450083 53.268459 0 0 0.0033,0.042924 5.3615506,6.4450083 53.268459 0 0 0.0036,0.042825 5.3615506,6.4450083 53.268459 0 0 0.004,0.042726 5.3615506,6.4450083 53.268459 0 0 0.0043,0.042628 5.3615506,6.4450083 53.268459 0 0 0.0048,0.042528 5.3615506,6.4450083 53.268459 0 0 0.005,0.042431 5.3615506,6.4450083 53.268459 0 0 0.0055,0.042331 5.3615506,6.4450083 53.268459 0 0 0.0058,0.042233 5.3615506,6.4450083 53.268459 0 0 0.0062,0.042229 5.3615506,6.4450083 53.268459 0 0 0.0065,0.042036 5.3615506,6.4450083 53.268459 0 0 0.0068,0.04194 5.3615506,6.4450083 53.268459 0 0 0.0072,0.04184 5.3615506,6.4450083 53.268459 0 0 0.0075,0.04164 5.3615506,6.4450083 53.268459 0 0 0.0079,0.04164 5.3615506,6.4450083 53.268459 0 0 0.0083,0.04145 5.3615506,6.4450083 53.268459 0 0 0.0086,0.04144 5.3615506,6.4450083 53.268459 0 0 0.009,0.04125 5.3615506,6.4450083 53.268459 0 0 0.0094,0.04106 5.3615506,6.4450083 53.268459 0 0 0.0097,0.04105 5.3615506,6.4450083 53.268459 0 0 0.01004,0.04086 5.3615506,6.4450083 53.268459 0 0 0.01034,0.04076 5.3615506,6.4450083 53.268459 0 0 0.01073,0.04057 5.3615506,6.4450083 53.268459 0 0 0.01102,0.04047 5.3615506,6.4450083 53.268459 0 0 0.0114,0.04037 5.3615506,6.4450083 53.268459 0 0 0.01179,0.04018 5.3615506,6.4450083 53.268459 0 0 0.01209,0.04008 5.3615506,6.4450083 53.268459 0 0 0.01245,0.03988 5.3615506,6.4450083 53.268459 0 0 0.01275,0.03979 5.3615506,6.4450083 53.268459 0 0 0.01314,0.03959 5.3615506,6.4450083 53.268459 0 0 0.01352,0.03949 5.3615506,6.4450083 53.268459 0 0 0.01372,0.0393 5.3615506,6.4450083 53.268459 0 0 0.01421,0.03911 5.3615506,6.4450083 53.268459 0 0 0.0145,0.03901 5.3615506,6.4450083 53.268459 0 0 0.01477,0.03881 5.3615506,6.4450083 53.268459 0 0 0.01516,0.03862 5.3615506,6.4450083 53.268459 0 0 0.01556,0.03852 5.3615506,6.4450083 53.268459 0 0 0.01584,0.03833 5.3615506,6.4450083 53.268459 0 0 0.01614,0.03814 5.3615506,6.4450083 53.268459 0 0 0.01652,0.03804 5.3615506,6.4450083 53.268459 0 0 0.01682,0.03775 5.3615506,6.4450083 53.268459 0 0 0.0172,0.03765 5.3615506,6.4450083 53.268459 0 0 0.0175,0.03746 5.3615506,6.4450083 53.268459 0 0 0.01788,0.03726 5.3615506,6.4450083 53.268459 0 0 0.01816,0.03716 5.3615506,6.4450083 53.268459 0 0 0.01845,0.03688 5.3615506,6.4450083 53.268459 0 0 0.01883,0.03668 5.3615506,6.4450083 53.268459 0 0 0.01913,0.03659 5.3615506,6.4450083 53.268459 0 0 0.01951,0.0363 5.3615506,6.4450083 53.268459 0 0 0.01971,0.0361 5.3615506,6.4450083 53.268459 0 0 0.02019,0.036 5.3615506,6.4450083 53.268459 0 0 0.02038,0.03572 5.3615506,6.4450083 53.268459 0 0 0.02077,0.03552 5.3615506,6.4450083 53.268459 0 0 0.02106,0.03543 5.3615506,6.4450083 53.268459 0 0 0.02145,0.03514 5.3615506,6.4450083 53.268459 0 0 0.02164,0.03485 5.3615506,6.4450083 53.268459 0 0 0.02203,0.03475 5.3615506,6.4450083 53.268459 0 0 0.02241,0.03456 5.3615506,6.4450083 53.268459 0 0 0.0226,0.03427 5.3615506,6.4450083 53.268459 0 0 0.02299,0.03407 5.3615506,6.4450083 53.268459 0 0 0.02328,0.03388 5.3615506,6.4450083 53.268459 0 0 0.02357,0.03359 5.3615506,6.4450083 53.268459 0 0 0.02386,0.0335 5.3615506,6.4450083 53.268459 0 0 0.02424,0.03321 5.3615506,6.4450083 53.268459 0 0 0.02443,0.03292 5.3615506,6.4450083 53.268459 0 0 0.02482,0.03282 5.3615506,6.4450083 53.268459 0 0 0.02511,0.03244 5.3615506,6.4450083 53.268459 0 0 0.0254,0.03234 5.3615506,6.4450083 53.268459 0 0 0.02569,0.03205 5.3615506,6.4450083 53.268459 0 0 0.02598,0.03186 5.3615506,6.4450083 53.268459 0 0 0.02636,0.03157 5.3615506,6.4450083 53.268459 0 0 0.02656,0.03138 5.3615506,6.4450083 53.268459 0 0 0.02684,0.03109 5.3615506,6.4450083 53.268459 0 0 0.02723,0.0309 5.3615506,6.4450083 53.268459 0 0 0.02742,0.03061 5.3615506,6.4450083 53.268459 0 0 0.02771,0.03032 5.3615506,6.4450083 53.268459 0 0 0.0281,0.03013 5.3615506,6.4450083 53.268459 0 0 0.02829,0.02993 5.3615506,6.4450083 53.268459 0 0 0.02858,0.02965 5.3615506,6.4450083 53.268459 0 0 0.02887,0.02936 5.3615506,6.4450083 53.268459 0 0 0.02916,0.02916 5.3615506,6.4450083 53.268459 0 0 0.02944,0.02888 5.3615506,6.4450083 53.268459 0 0 0.02973,0.02859 5.3615506,6.4450083 53.268459 0 0 0.03002,0.0283 5.3615506,6.4450083 53.268459 0 0 0.03021,0.02811 5.3615506,6.4450083 53.268459 0 0 0.0305,0.02782 5.3615506,6.4450083 53.268459 0 0 0.03079,0.02763 5.3615506,6.4450083 53.268459 0 0 0.03108,0.02725 5.3615506,6.4450083 53.268459 0 0 0.03137,0.02705 5.3615506,6.4450083 53.268459 0 0 0.03156,0.02677 5.3615506,6.4450083 53.268459 0 0 0.03185,0.02648 5.3615506,6.4450083 53.268459 0 0 0.03214,0.02628 5.3615506,6.4450083 53.268459 0 0 0.03233,0.0259 5.3615506,6.4450083 53.268459 0 0 0.03272,0.02571 5.3615506,6.4450083 53.268459 0 0 0.03281,0.02533 5.3615506,6.4450083 53.268459 0 0 0.0332,0.02513 5.3615506,6.4450083 53.268459 0 0 0.03339,0.02485 5.3615506,6.4450083 53.268459 0 0 0.03358,0.02456 5.3615506,6.4450083 53.268459 0 0 0.03387,0.02427 5.3615506,6.4450083 53.268459 0 0 0.03416,0.02398 5.3615506,6.4450083 53.268459 0 0 0.03435,0.0237 5.3615506,6.4450083 53.268459 0 0 0.03463,0.02341 5.3615506,6.4450083 53.268459 0 0 0.03483,0.02312 5.3615506,6.4450083 53.268459 0 0 0.03502,0.02293 5.3615506,6.4450083 53.268459 0 0 0.03531,0.02255 5.3615506,6.4450083 53.268459 0 0 0.03559,0.02226 5.3615506,6.4450083 53.268459 0 0 0.03579,0.02187 5.3615506,6.4450083 53.268459 0 0 0.03598,0.02168 5.3615506,6.4450083 53.268459 0 0 0.03627,0.0214 5.3615506,6.4450083 53.268459 0 0 0.03636,0.02111 5.3615506,6.4450083 53.268459 0 0 0.03675,0.02073 5.3615506,6.4450083 53.268459 0 0 0.03684,0.02053 5.3615506,6.4450083 53.268459 0 0 0.03713,0.02015 5.3615506,6.4450083 53.268459 0 0 0.03732,0.01986 5.3615506,6.4450083 53.268459 0 0 0.03751,0.01958 5.3615506,6.4450083 53.268459 0 0 0.0378,0.01929 5.3615506,6.4450083 53.268459 0 0 0.03789,0.01891 5.3615506,6.4450083 53.268459 0 0 0.03818,0.01872 5.3615506,6.4450083 53.268459 0 0 0.03837,0.01833 5.3615506,6.4450083 53.268459 0 0 0.03856,0.01804 5.3615506,6.4450083 53.268459 0 0 0.03875,0.01766 5.3615506,6.4450083 53.268459 0 0 0.03894,0.01747 5.3615506,6.4450083 53.268459 0 0 0.03914,0.01709 5.3615506,6.4450083 53.268459 0 0 0.03933,0.0168 5.3615506,6.4450083 53.268459 0 0 0.03952,0.01642 5.3615506,6.4450083 53.268459 0 0 0.03981,0.01623 5.3615506,6.4450083 53.268459 0 0 0.0399,0.01584 5.3615506,6.4450083 53.268459 0 0 0.04009,0.01546 5.3615506,6.4450083 53.268459 0 0 0.04029,0.01527 5.3615506,6.4450083 53.268459 0 0 0.04038,0.01489 5.3615506,6.4450083 53.268459 0 0 0.04067,0.01451 5.3615506,6.4450083 53.268459 0 0 0.04076,0.01432 5.3615506,6.4450083 53.268459 0 0 0.04095,0.01393 5.3615506,6.4450083 53.268459 0 0 0.04114,0.01355 5.3615506,6.4450083 53.268459 0 0 0.04133,0.01327 5.3615506,6.4450083 53.268459 0 0 1.83e-4,9.3e-5 5.3615506,6.4450083 53.268459 0 0 0.04143,0.01298 5.3615506,6.4450083 53.268459 0 0 0.04162,0.0126 5.3615506,6.4450083 53.268459 0 0 0.04181,0.01231 5.3615506,6.4450083 53.268459 0 0 0.042,0.01202 5.3615506,6.4450083 53.268459 0 0 0.0421,0.01164 5.3615506,6.4450083 53.268459 0 0 0.04219,0.01136 5.3615506,6.4450083 53.268459 0 0 0.04247,0.01097 5.3615506,6.4450083 53.268459 0 0 0.04247,0.01069 5.3615506,6.4450083 53.268459 0 0 0.04276,0.0103 5.3615506,6.4450083 53.268459 0 0 0.04275,0.01002 5.3615506,6.4450083 53.268459 0 0 0.04305,0.0097 5.3615506,6.4450083 53.268459 0 0 0.04304,0.0094 5.3615506,6.4450083 53.268459 0 0 0.04333,0.009 5.3615506,6.4450083 53.268459 0 0 0.04332,0.0088 5.3615506,6.4450083 53.268459 0 0 0.04352,0.0083 5.3615506,6.4450083 53.268459 0 0 0.04361,0.008 5.3615506,6.4450083 53.268459 0 0 0.0438,0.0077 5.3615506,6.4450083 53.268459 0 0 0.0438,0.0074 5.3615506,6.4450083 53.268459 0 0 0.04399,0.0071 5.3615506,6.4450083 53.268459 0 0 0.04418,0.0067 5.3615506,6.4450083 53.268459 0 0 0.04418,0.0063 5.3615506,6.4450083 53.268459 0 0 0.04437,0.006 5.3615506,6.4450083 53.268459 0 0 0.04446,0.0057 5.3615506,6.4450083 53.268459 0 0 0.04456,0.0053 5.3615506,6.4450083 53.268459 0 0 0.04464,0.005 5.3615506,6.4450083 53.268459 0 0 0.04474,0.0047 5.3615506,6.4450083 53.268459 0 0 0.04483,0.0044 5.3615506,6.4450083 53.268459 0 0 0.04493,0.004 5.3615506,6.4450083 53.268459 0 0 0.04503,0.0036 5.3615506,6.4450083 53.268459 0 0 0.04511,0.0033 5.3615506,6.4450083 53.268459 0 0 0.04521,0.003 5.3615506,6.4450083 53.268459 0 0 0.0453,0.0027 5.3615506,6.4450083 53.268459 0 0 0.0454,0.0023 5.3615506,6.4450083 53.268459 0 0 0.04549,0.0019 5.3615506,6.4450083 53.268459 0 0 0.04549,0.0016 5.3615506,6.4450083 53.268459 0 0 0.04568,0.0013 5.3615506,6.4450083 53.268459 0 0 0.04567,9.74e-4 5.3615506,6.4450083 53.268459 0 0 0.04567,5.89e-4 5.3615506,6.4450083 53.268459 0 0 0.04586,2.94e-4 5.3615506,6.4450083 53.268459 0 0 0.04585,-7.7e-5 5.3615506,6.4450083 53.268459 0 0 0.04596,-3.87e-4 5.3615506,6.4450083 53.268459 0 0 0.04604,-7.54e-4 5.3615506,6.4450083 53.268459 0 0 0.04604,-0.001 5.3615506,6.4450083 53.268459 0 0 0.04604,-0.0014 5.3615506,6.4450083 53.268459 0 0 0.04623,-0.0018 5.3615506,6.4450083 53.268459 0 0 0.04613,-0.0021 5.3615506,6.4450083 53.268459 0 0 0.04632,-0.0025 5.3615506,6.4450083 53.268459 0 0 0.04622,-0.0027 5.3615506,6.4450083 53.268459 0 0 0.04631,-0.0031 5.3615506,6.4450083 53.268459 0 0 0.04641,-0.0034 5.3615506,6.4450083 53.268459 0 0 0.0464,-0.0038 5.3615506,6.4450083 53.268459 0 0 0.0464,-0.0041 5.3615506,6.4450083 53.268459 0 0 0.04649,-0.0045 5.3615506,6.4450083 53.268459 0 0 0.04649,-0.0048 5.3615506,6.4450083 53.268459 0 0 0.04649,-0.0051 5.3615506,6.4450083 53.268459 0 0 0.04648,-0.0055 5.3615506,6.4450083 53.268459 0 0 0.04658,-0.0058 5.3615506,6.4450083 53.268459 0 0 0.04658,-0.0061 5.3615506,6.4450083 53.268459 0 0 0.04657,-0.0066 5.3615506,6.4450083 53.268459 0 0 0.04657,-0.0067 5.3615506,6.4450083 53.268459 0 0 0.04656,-0.0072 5.3615506,6.4450083 53.268459 0 0 0.04656,-0.0074 5.3615506,6.4450083 53.268459 0 0 0.04655,-0.0079 5.3615506,6.4450083 53.268459 0 0 0.04665,-0.0081 5.3615506,6.4450083 53.268459 0 0 0.04655,-0.0086 5.3615506,6.4450083 53.268459 0 0 0.04655,-0.0087 5.3615506,6.4450083 53.268459 0 0 0.04654,-0.0092 5.3615506,6.4450083 53.268459 0 0 0.04654,-0.0094 5.3615506,6.4450083 53.268459 0 0 0.04653,-0.0099 5.3615506,6.4450083 53.268459 0 0 0.04653,-0.01007 5.3615506,6.4450083 53.268459 0 0 0.04653,-0.01055 5.3615506,6.4450083 53.268459 0 0 0.04643,-0.01074 5.3615506,6.4450083 53.268459 0 0 0.04642,-0.01112 5.3615506,6.4450083 53.268459 0 0 0.04642,-0.0115 5.3615506,6.4450083 53.268459 0 0 0.04642,-0.01178 5.3615506,6.4450083 53.268459 0 0 0.04632,-0.01207 5.3615506,6.4450083 53.268459 0 0 0.04631,-0.01245 5.3615506,6.4450083 53.268459 0 0 0.04631,-0.01273 5.3615506,6.4450083 53.268459 0 0 0.04621,-0.01311 5.3615506,6.4450083 53.268459 0 0 0.04611,-0.01339 5.3615506,6.4450083 53.268459 0 0 0.04621,-0.01378 5.3615506,6.4450083 53.268459 0 0 0.04601,-0.01406 5.3615506,6.4450083 53.268459 0 0 0.0461,-0.01435 5.3615506,6.4450083 53.268459 0 0 0.0459,-0.01472 5.3615506,6.4450083 53.268459 0 0 0.04589,-0.01501 5.3615506,6.4450083 53.268459 0 0 0.0459,-0.01529 5.3615506,6.4450083 53.268459 0 0 0.04579,-0.01567 5.3615506,6.4450083 53.268459 0 0 0.0457,-0.01596 5.3615506,6.4450083 53.268459 0 0 0.04559,-0.01624 5.3615506,6.4450083 53.268459 0 0 0.04559,-0.01662 5.3615506,6.4450083 53.268459 0 0 0.04549,-0.01691 5.3615506,6.4450083 53.268459 0 0 0.0454,-0.01719 5.3615506,6.4450083 53.268459 0 0 0.04538,-0.01757 5.3615506,6.4450083 53.268459 0 0 0.04529,-0.01785 5.3615506,6.4450083 53.268459 0 0 0.04509,-0.01814 5.3615506,6.4450083 53.268459 0 0 0.04509,-0.01842 5.3615506,6.4450083 53.268459 0 0 0.04499,-0.0188 5.3615506,6.4450083 53.268459 0 0 0.04489,-0.01908 5.3615506,6.4450083 53.268459 0 0 0.04488,-0.01937 5.3615506,6.4450083 53.268459 0 0 0.04469,-0.01965 5.3615506,6.4450083 53.268459 0 0 0.04458,-0.02003 5.3615506,6.4450083 53.268459 0 0 0.04448,-0.02032 5.3615506,6.4450083 53.268459 0 0 0.04439,-0.0206 5.3615506,6.4450083 53.268459 0 0 0.04429,-0.02088 5.3615506,6.4450083 53.268459 0 0 0.04418,-0.02117 5.3615506,6.4450083 53.268459 0 0 0.04399,-0.02145 5.3615506,6.4450083 53.268459 0 0 0.04398,-0.02183 5.3615506,6.4450083 53.268459 0 0 0.04378,-0.02202 5.3615506,6.4450083 53.268459 0 0 0.04369,-0.0224 5.3615506,6.4450083 53.268459 0 0 0.04358,-0.02259 5.3615506,6.4450083 53.268459 0 0 0.04339,-0.02296 5.3615506,6.4450083 53.268459 0 0 0.04329,-0.02325 5.3615506,6.4450083 53.268459 0 0 0.04319,-0.02353 5.3615506,6.4450083 53.268459 0 0 0.04309,-0.02382 5.3615506,6.4450083 53.268459 0 0 0.04289,-0.0241 5.3615506,6.4450083 53.268459 0 0 0.04269,-0.02438 5.3615506,6.4450083 53.268459 0 0 0.04259,-0.02467 5.3615506,6.4450083 53.268459 0 0 0.0425,-0.02495 5.3615506,6.4450083 53.268459 0 0 0.04239,-0.02524 5.3615506,6.4450083 53.268459 0 0 0.0421,-0.02542 5.3615506,6.4450083 53.268459 0 0 0.042,-0.0258 5.3615506,6.4450083 53.268459 0 0 0.0419,-0.02609 5.3615506,6.4450083 53.268459 0 0 0.0417,-0.02627 5.3615506,6.4450083 53.268459 0 0 0.04151,-0.02665 5.3615506,6.4450083 53.268459 0 0 0.0414,-0.02684 5.3615506,6.4450083 53.268459 0 0 0.04121,-0.02712 5.3615506,6.4450083 53.268459 0 0 0.04111,-0.02741 5.3615506,6.4450083 53.268459 0 0 0.04082,-0.0276 5.3615506,6.4450083 53.268459 0 0 0.04071,-0.02797 5.3615506,6.4450083 53.268459 0 0 0.04052,-0.02816 5.3615506,6.4450083 53.268459 0 0 0.04042,-0.02845 5.3615506,6.4450083 53.268459 0 0 0.04012,-0.02873 5.3615506,6.4450083 53.268459 0 0 0.04002,-0.02901 5.3615506,6.4450083 53.268459 0 0 0.03983,-0.0292 5.3615506,6.4450083 53.268459 0 0 0.03963,-0.02948 5.3615506,6.4450083 53.268459 0 0 0.03943,-0.02967 5.3615506,6.4450083 53.268459 0 0 0.03923,-0.02996 5.3615506,6.4450083 53.268459 0 0 0.03904,-0.03024 5.3615506,6.4450083 53.268459 0 0 0.03884,-0.03052 5.3615506,6.4450083 53.268459 0 0 0.03865,-0.03071 5.3615506,6.4450083 53.268459 0 0 0.03845,-0.03099 5.3615506,6.4450083 53.268459 0 0 0.03825,-0.03118 5.3615506,6.4450083 53.268459 0 0 0.03806,-0.03137 5.3615506,6.4450083 53.268459 0 0 0.03785,-0.03175 5.3615506,6.4450083 53.268459 0 0 0.03766,-0.03184 5.3615506,6.4450083 53.268459 0 0 0.03737,-0.03222 5.3615506,6.4450083 53.268459 0 0 0.03726,-0.03231 5.3615506,6.4450083 53.268459 0 0 0.03698,-0.03269 5.3615506,6.4450083 53.268459 0 0 0.03678,-0.03278 5.3615506,6.4450083 53.268459 0 0 0.03658,-0.03306 5.3615506,6.4450083 53.268459 0 0 0.03628,-0.03325 5.3615506,6.4450083 53.268459 0 0 0.03609,-0.03353 5.3615506,6.4450083 53.268459 0 0 0.03589,-0.03372 5.3615506,6.4450083 53.268459 0 0 0.0357,-0.03401 5.3615506,6.4450083 53.268459 0 0 0.0354,-0.0341 5.3615506,6.4450083 53.268459 0 0 0.03521,-0.03438 5.3615506,6.4450083 53.268459 0 0 0.03491,-0.03466 5.3615506,6.4450083 53.268459 0 0 0.03472,-0.03476 5.3615506,6.4450083 53.268459 0 0 0.03442,-0.03504 5.3615506,6.4450083 53.268459 0 0 0.03423,-0.03523 5.3615506,6.4450083 53.268459 0 0 0.03403,-0.03541 5.3615506,6.4450083 53.268459 0 0 0.03374,-0.0356 5.3615506,6.4450083 53.268459 0 0 0.03354,-0.03579 5.3615506,6.4450083 53.268459 0 0 0.03325,-0.03598 5.3615506,6.4450083 53.268459 0 0 0.03295,-0.03626 5.3615506,6.4450083 53.268459 0 0 0.03276,-0.03645 5.3615506,6.4450083 53.268459 0 0 0.03247,-0.03654 5.3615506,6.4450083 53.268459 0 0 0.03227,-0.03682 5.3615506,6.4450083 53.268459 0 0 0.03197,-0.03691 5.3615506,6.4450083 53.268459 0 0 0.03178,-0.0372 5.3615506,6.4450083 53.268459 0 0 0.03139,-0.03738 5.3615506,6.4450083 53.268459 0 0 0.03119,-0.03748 5.3615506,6.4450083 53.268459 0 0 0.0309,-0.03776 5.3615506,6.4450083 53.268459 0 0 0.0307,-0.03785 5.3615506,6.4450083 53.268459 0 0 0.03041,-0.03804 5.3615506,6.4450083 53.268459 0 0 0.03012,-0.03823 5.3615506,6.4450083 53.268459 0 0 0.02981,-0.03841 5.3615506,6.4450083 53.268459 0 0 0.02953,-0.03851 5.3615506,6.4450083 53.268459 0 0 0.02933,-0.03879 5.3615506,6.4450083 53.268459 0 0 0.02904,-0.03888 5.3615506,6.4450083 53.268459 0 0 0.02865,-0.03897 5.3615506,6.4450083 53.268459 0 0 0.02845,-0.03925 5.3615506,6.4450083 53.268459 0 0 0.02816,-0.03935 5.3615506,6.4450083 53.268459 0 0 0.02796,-0.03953 5.3615506,6.4450083 53.268459 0 0 0.02757,-0.03963 5.3615506,6.4450083 53.268459 0 0 0.02728,-0.03981 5.3615506,6.4450083 53.268459 0 0 0.02698,-0.04 5.3615506,6.4450083 53.268459 0 0 0.02679,-0.04009 5.3615506,6.4450083 53.268459 0 0 0.0264,-0.04028 5.3615506,6.4450083 53.268459 0 0 0.02611,-0.04037 5.3615506,6.4450083 53.268459 0 0 0.02582,-0.04046 5.3615506,6.4450083 53.268459 0 0 0.02562,-0.04065 5.3615506,6.4450083 53.268459 0 0 0.02523,-0.04084 5.3615506,6.4450083 53.268459 0 0 0.02494,-0.04093 5.3615506,6.4450083 53.268459 0 0 0.02464,-0.04102 5.3615506,6.4450083 53.268459 0 0 0.02425,-0.04121 5.3615506,6.4450083 53.268459 0 0 0.02406,-0.0413 5.3615506,6.4450083 53.268459 0 0 0.02377,-0.04139 5.3615506,6.4450083 53.268459 0 0 0.02338,-0.04148 5.3615506,6.4450083 53.268459 0 0 0.02309,-0.04167 5.3615506,6.4450083 53.268459 0 0 0.02279,-0.04176 5.3615506,6.4450083 53.268459 0 0 0.0225,-0.04185 5.3615506,6.4450083 53.268459 0 0 0.02221,-0.04204 5.3615506,6.4450083 53.268459 0 0 0.02182,-0.042038 5.3615506,6.4450083 53.268459 0 0 0.02162,-0.042226 5.3615506,6.4450083 53.268459 0 1 0,-9.49e-5 5.3615506,6.4450083 53.268459 0 0 0.02123,-0.042318 5.3615506,6.4450083 53.268459 0 0 0.02094,-0.042409 5.3615506,6.4450083 53.268459 0 0 0.02055,-0.0425 5.3615506,6.4450083 53.268459 0 0 0.02026,-0.042593 5.3615506,6.4450083 53.268459 0 0 0.01997,-0.042589 5.3615506,6.4450083 53.268459 0 0 0.01967,-0.042777 5.3615506,6.4450083 53.268459 0 0 0.01928,-0.042867 5.3615506,6.4450083 53.268459 0 0 0.0189,-0.042864 5.3615506,6.4450083 53.268459 0 0 0.01868,-0.043052 5.3615506,6.4450083 53.268459 0 0 0.01832,-0.043048 5.3615506,6.4450083 53.268459 0 0 0.018,-0.04314 5.3615506,6.4450083 53.268459 0 0 0.01762,-0.043231 5.3615506,6.4450083 53.268459 0 0 0.01734,-0.043323 5.3615506,6.4450083 53.268459 0 0 0.01694,-0.043414 5.3615506,6.4450083 53.268459 0 0 0.01664,-0.043411 5.3615506,6.4450083 53.268459 0 0 0.01637,-0.043503 5.3615506,6.4450083 53.268459 0 0 0.01596,-0.043499 5.3615506,6.4450083 53.268459 0 0 0.01569,-0.043686 5.3615506,6.4450083 53.268459 0 0 0.0153,-0.043682 5.3615506,6.4450083 53.268459 0 0 0.01499,-0.04368 5.3615506,6.4450083 53.268459 0 0 0.01462,-0.04377 5.3615506,6.4450083 53.268459 0 0 0.01429,-0.043863 5.3615506,6.4450083 53.268459 0 0 0.01401,-0.04386 5.3615506,6.4450083 53.268459 0 0 0.01363,-0.043856 5.3615506,6.4450083 53.268459 0 0 0.01324,-0.043947 5.3615506,6.4450083 53.268459 0 0 0.01295,-0.044039 5.3615506,6.4450083 53.268459 0 0 0.01256,-0.04394 5.3615506,6.4450083 53.268459 0 0 0.01227,-0.044127 5.3615506,6.4450083 53.268459 0 0 0.01188,-0.044028 5.3615506,6.4450083 53.268459 0 0 0.01157,-0.04412 5.3615506,6.4450083 53.268459 0 0 0.01118,-0.044116 5.3615506,6.4450083 53.268459 0 0 0.01079,-0.044112 5.3615506,6.4450083 53.268459 0 0 0.01054,-0.044204 5.3615506,6.4450083 53.268459 0 0 0.01021,-0.044201 5.3615506,6.4450083 53.268459 0 0 0.0097,-0.044196 5.3615506,6.4450083 53.268459 0 0 0.0096,-0.044194 5.3615506,6.4450083 53.268459 0 0 0.0091,-0.044285 5.3615506,6.4450083 53.268459 0 0 0.0088,-0.044187 5.3615506,6.4450083 53.268459 0 0 0.0085,-0.044183 5.3615506,6.4450083 53.268459 0 0 0.008,-0.044273 5.3615506,6.4450083 53.268459 0 0 0.0078,-0.044177 5.3615506,6.4450083 53.268459 0 0 0.0073,-0.044266 5.3615506,6.4450083 53.268459 0 0 0.007,-0.044264 5.3615506,6.4450083 53.268459 0 0 0.0066,-0.044164 5.3615506,6.4450083 53.268459 0 0 0.0063,-0.044162 5.3615506,6.4450083 53.268459 0 0 0.0059,-0.044253 5.3615506,6.4450083 53.268459 0 0 0.0056,-0.044154 5.3615506,6.4450083 53.268459 0 0 0.0053,-0.044151 5.3615506,6.4450083 53.268459 0 0 0.0049,-0.044052 5.3615506,6.4450083 53.268459 0 0 0.0045,-0.044143 5.3615506,6.4450083 53.268459 0 0 0.0042,-0.044045 5.3615506,6.4450083 53.268459 0 0 0.0038,-0.044041 5.3615506,6.4450083 53.268459 0 0 0.0034,-0.044037 5.3615506,6.4450083 53.268459 0 0 0.0031,-0.043939 5.3615506,6.4450083 53.268459 0 0 0.0027,-0.043936 5.3615506,6.4450083 53.268459 0 0 0.0025,-0.04393 5.3615506,6.4450083 53.268459 0 0 0.002,-0.043833 5.3615506,6.4450083 53.268459 0 0 0.0017,-0.043733 5.3615506,6.4450083 53.268459 0 0 0.0017,-0.043824 5.3615506,6.4450083 53.268459 0 0 0.0011,-0.043628 5.3615506,6.4450083 53.268459 0 0 7.36e-4,-0.043722 5.3615506,6.4450083 53.268459 0 0 1.84e-4,-0.039825 13.484141,14.695462 89.458251 0 0 -4.553514,-0.6153504 13.484141,14.695462 89.458251 0 0 -0.0103,1.122e-4 13.484141,14.695462 89.458251 0 0 -7.561971,2.0161241 z"
       inkscape:export-xdpi="96"
       inkscape:export-ydpi="96" />
    <path
       id="path861-6-7"
       style="display:inline;opacity:0.92;mix-blend-mode:normal;fill:#ffffff;fill-opacity:1;fill-rule:evenodd;stroke:none;stroke-width:0.389253;stroke-miterlimit:4;stroke-dasharray:none;stroke-opacity:1"
       d="m 23.358953,17.139445 a 6.8496629,6.5590437 0 0 0 -4.259539,1.433657 5.9741341,5.7206618 0 0 0 -3.42696,-1.034806 5.9741341,5.7206618 0 0 0 -5.9741112,5.72066 5.9741341,5.7206618 0 0 0 2.5106592,4.661144 12.021942,11.200046 0 0 0 -3.0487324,7.453574 12.021942,11.200046 0 0 0 4.1214564,8.441911 c 0.492924,0.151698 1.018276,0.273544 1.578582,0.363404 0.503461,0.08074 4.25279,0.437624 4.25279,0.437624 4.562105,0.192808 3.281381,0.16476 5.046217,0.164786 0.678923,-6e-6 2.221872,-0.0176 3.652757,-0.06481 a 12.021942,11.200046 0 0 0 5.392038,-9.342912 12.021942,11.200046 0 0 0 -3.95477,-8.304018 6.8496629,6.5590437 0 0 0 0.973987,-3.371177 6.8496629,6.5590437 0 0 0 -6.84974,-6.559034 6.8496629,6.5590437 0 0 0 -0.01464,0 z"
       inkscape:export-xdpi="96"
       inkscape:export-ydpi="96" />
    <ellipse
       style="opacity:0.92;mix-blend-mode:normal;fill:#3c211c;fill-opacity:1;fill-rule:evenodd;stroke:none;stroke-width:0.360059;stroke-linejoin:round;stroke-miterlimit:4;stroke-dasharray:none;stroke-opacity:1"
       id="path1091"
       cx="18.758005"
       cy="19.595049"
       rx="2.3457167"
       ry="1.9575163"
       inkscape:export-xdpi="96"
       inkscape:export-ydpi="96" />
    <ellipse
       style="opacity:0.92;mix-blend-mode:normal;fill:#3c211c;fill-opacity:1;fill-rule:evenodd;stroke:none;stroke-width:0.183899"
       id="path2302"
       cx="14.139276"
       cy="16.549103"
       rx="1.7029791"
       ry="1.9462618"
       inkscape:export-xdpi="96"
       inkscape:export-ydpi="96" />
    <ellipse
       style="opacity:0.92;mix-blend-mode:normal;fill:#3c211c;fill-opacity:1;fill-rule:evenodd;stroke:none;stroke-width:0.192218"
       id="path2302-3"
       cx="24.622389"
       cy="16.411594"
       rx="1.8645256"
       ry="1.9421022"
       inkscape:export-xdpi="96"
       inkscape:export-ydpi="96" />
    <circle
       style="opacity:0.92;mix-blend-mode:normal;fill:#ffffff;fill-opacity:1;fill-rule:evenodd;stroke:none;stroke-width:0.183899"
       id="path2339"
       cx="13.784064"
       cy="15.828363"
       r="0.72984815"
       inkscape:export-xdpi="96"
       inkscape:export-ydpi="96" />
    <circle
       style="display:inline;opacity:0.92;mix-blend-mode:normal;fill:#ffffff;fill-opacity:1;fill-rule:evenodd;stroke:none;stroke-width:0.183899"
       id="path2339-6"
       cx="23.95788"
       cy="15.716784"
       r="0.72984815"
       inkscape:export-xdpi="96"
       inkscape:export-ydpi="96" />
    <path
       id="path2335-92"
       style="display:inline;opacity:0.92;mix-blend-mode:normal;fill:#b1671f;fill-opacity:0.992157;fill-rule:evenodd;stroke:#000000;stroke-width:0.389253;stroke-linejoin:round;stroke-miterlimit:4;stroke-dasharray:none"
       d="m 28.970796,7.007007 a 3.1403902,3.61926 0 0 1 0.01245,-0.027179 3.1403902,3.61926 0 0 1 0.01512,-0.032026 3.1403902,3.61926 0 0 1 0.0153,-0.031835 3.1403902,3.61926 0 0 1 0.01569,-0.031741 3.1403902,3.61926 0 0 1 0.01596,-0.031456 3.1403902,3.61926 0 0 1 0.01626,-0.031361 3.1403902,3.61926 0 0 1 0.01644,-0.031076 3.1403902,3.61926 0 0 1 0.01672,-0.03098 3.1403902,3.61926 0 0 1 0.0171,-0.030695 3.1403902,3.61926 0 0 1 0.01731,-0.030601 3.1403902,3.61926 0 0 1 0.01749,-0.030315 3.1403902,3.61926 0 0 1 0.01786,-0.030125 3.1403902,3.61926 0 0 1 0.01806,-0.029935 3.1403902,3.61926 0 0 1 0.01834,-0.029745 3.1403902,3.61926 0 0 1 0.01862,-0.02946 3.1403902,3.61926 0 0 1 0.01891,-0.02927 3.1403902,3.61926 0 0 1 0.0191,-0.02908 3.1403902,3.61926 0 0 1 0.01939,-0.028795 3.1403902,3.61926 0 0 1 0.01958,-0.028605 3.1403902,3.61926 0 0 1 0.01986,-0.028415 3.1403902,3.61926 0 0 1 0.02015,-0.028129 3.1403902,3.61926 0 0 1 0.02034,-0.02794 3.1403902,3.61926 0 0 1 0.02062,-0.027654 3.1403902,3.61926 0 0 1 0.02091,-0.027464 3.1403902,3.61926 0 0 1 0.0211,-0.027179 3.1403902,3.61926 0 0 1 0.02129,-0.026989 3.1403902,3.61926 0 0 1 0.02157,-0.026609 3.1403902,3.61926 0 0 1 0.02176,-0.026514 3.1403902,3.61926 0 0 1 0.02205,-0.026134 3.1403902,3.61926 0 0 1 0.02224,-0.025944 3.1403902,3.61926 0 0 1 0.02252,-0.025658 3.1403902,3.61926 0 0 1 0.02262,-0.025469 3.1403902,3.61926 0 0 1 0.023,-0.025088 3.1403902,3.61926 0 0 1 0.02309,-0.024898 3.1403902,3.61926 0 0 1 0.02338,-0.024613 3.1403902,3.61926 0 0 1 0.02357,-0.024329 3.1403902,3.61926 0 0 1 0.02376,-0.024043 3.1403902,3.61926 0 0 1 0.02405,-0.023854 3.1403902,3.61926 0 0 1 0.02414,-0.023473 3.1403902,3.61926 0 0 1 0.02442,-0.023188 3.1403902,3.61926 0 0 1 0.02461,-0.022998 3.1403902,3.61926 0 0 1 0.0248,-0.022617 3.1403902,3.61926 0 0 1 0.02499,-0.022333 3.1403902,3.61926 0 0 1 0.02518,-0.022143 3.1403902,3.61926 0 0 1 0.02537,-0.021763 3.1403902,3.61926 0 0 1 0.02556,-0.021477 3.1403902,3.61926 0 0 1 0.02575,-0.021192 3.1403902,3.61926 0 0 1 0.02595,-0.020812 3.1403902,3.61926 0 0 1 0.02613,-0.020622 3.1403902,3.61926 0 0 1 0.02632,-0.020242 3.1403902,3.61926 0 0 1 0.02651,-0.019957 3.1403902,3.61926 0 0 1 0.02661,-0.019672 3.1403902,3.61926 0 0 1 0.0268,-0.019387 3.1403902,3.61926 0 0 1 0.02699,-0.019006 3.1403902,3.61926 0 0 1 0.02718,-0.018721 3.1403902,3.61926 0 0 1 0.02737,-0.018437 3.1403902,3.61926 0 0 1 0.02747,-0.018055 3.1403902,3.61926 0 0 1 0.02756,-0.01777 3.1403902,3.61926 0 0 1 0.02784,-0.017487 3.1403902,3.61926 0 0 1 0.02794,-0.017106 3.1403902,3.61926 0 0 1 0.02803,-0.016821 3.1403902,3.61926 0 0 1 0.02832,-0.016441 3.1403902,3.61926 0 0 1 0.02832,-0.016155 3.1403902,3.61926 0 0 1 0.02851,-0.015775 3.1403902,3.61926 0 0 1 0.0287,-0.01549 3.1403902,3.61926 0 0 1 0.02879,-0.015205 3.1403902,3.61926 0 0 1 0.02889,-0.01473 3.1403902,3.61926 0 0 1 0.02908,-0.014539 3.1403902,3.61926 0 0 1 0.02917,-0.01416 3.1403902,3.61926 0 0 1 0.02927,-0.01378 3.1403902,3.61926 0 0 1 0.02937,-0.013399 3.1403902,3.61926 0 0 1 0.02955,-0.013114 3.1403902,3.61926 0 0 1 0.02965,-0.012829 3.1403902,3.61926 0 0 1 0.02975,-0.012354 3.1403902,3.61926 0 0 1 0.02984,-0.012165 3.1403902,3.61926 0 0 1 0.03003,-0.011689 3.1403902,3.61926 0 0 1 0.03003,-0.011404 3.1403902,3.61926 0 0 1 0.03012,-0.011023 3.1403902,3.61926 0 0 1 0.03032,-0.010644 3.1403902,3.61926 0 0 1 0.03032,-0.010359 3.1403902,3.61926 0 0 1 0.03041,-0.00998 3.1403902,3.61926 0 0 1 0.03051,-0.0096 3.1403902,3.61926 0 0 1 0.0307,-0.00931 3.1403902,3.61926 0 0 1 0.0306,-0.00893 3.1403902,3.61926 0 0 1 0.03079,-0.00855 3.1403902,3.61926 0 0 1 0.03089,-0.00817 3.1403902,3.61926 0 0 1 0.03088,-0.00779 3.1403902,3.61926 0 0 1 0.03098,-0.00751 3.1403902,3.61926 0 0 1 0.03098,-0.00713 3.1403902,3.61926 0 0 1 0.03117,-0.00675 3.1403902,3.61926 0 0 1 0.03108,-0.00637 3.1403902,3.61926 0 0 1 0.03127,-0.00608 3.1403902,3.61926 0 0 1 0.03126,-0.0057 3.1403902,3.61926 0 0 1 0.03127,-0.00532 3.1403902,3.61926 0 0 1 0.03136,-0.00494 3.1403902,3.61926 0 0 1 0.03136,-0.00456 3.1403902,3.61926 0 0 1 0.03145,-0.00418 3.1403902,3.61926 0 0 1 0.03146,-0.0039 3.1403902,3.61926 0 0 1 0.03155,-0.00342 3.1403902,3.61926 0 0 1 0.03155,-0.00314 3.1403902,3.61926 0 0 1 0.03155,-0.00276 3.1403902,3.61926 0 0 1 0.03155,-0.00238 3.1403902,3.61926 0 0 1 0.03155,-0.00209 3.1403902,3.61926 0 0 1 0.03164,-0.00162 3.1403902,3.61926 0 0 1 0.03165,-0.00123 3.1403902,3.61926 0 0 1 0.03165,-9.563e-4 3.1403902,3.61926 0 0 1 0.03164,-5.701e-4 3.1403902,3.61926 0 0 1 0.03165,-1.839e-4 3.1403902,3.61926 0 0 1 0.02784,1.839e-4 3.1403902,3.61926 0 0 1 0.03165,4.781e-4 3.1403902,3.61926 0 0 1 0.03164,8.644e-4 3.1403902,3.61926 0 0 1 0.03165,0.00123 3.1403902,3.61926 0 0 1 0.03165,0.00162 3.1403902,3.61926 0 0 1 0.03155,0.002 3.1403902,3.61926 0 0 1 0.03165,0.00238 3.1403902,3.61926 0 0 1 0.03155,0.00266 3.1403902,3.61926 0 0 1 0.03146,0.00314 3.1403902,3.61926 0 0 1 0.03155,0.00342 3.1403902,3.61926 0 0 1 0.03146,0.0038 3.1403902,3.61926 0 0 1 0.03145,0.00418 3.1403902,3.61926 0 0 1 0.03136,0.00456 3.1403902,3.61926 0 0 1 0.03136,0.00485 3.1403902,3.61926 0 0 1 0.03136,0.00532 3.1403902,3.61926 0 0 1 0.03127,0.00561 3.1403902,3.61926 0 0 1 0.03117,0.00599 3.1403902,3.61926 0 0 1 0.03117,0.00637 3.1403902,3.61926 0 0 1 0.03108,0.00665 3.1403902,3.61926 0 0 1 0.03108,0.00713 3.1403902,3.61926 0 0 1 0.03098,0.00741 3.1403902,3.61926 0 0 1 0.03089,0.00779 3.1403902,3.61926 0 0 1 0.03089,0.00817 3.1403902,3.61926 0 0 1 0.03079,0.00855 3.1403902,3.61926 0 0 1 0.0307,0.00884 3.1403902,3.61926 0 0 1 0.0306,0.00922 3.1403902,3.61926 0 0 1 0.03051,0.0096 3.1403902,3.61926 0 0 1 0.0305,0.00998 3.1403902,3.61926 0 0 1 0.03032,0.010263 3.1403902,3.61926 0 0 1 0.03031,0.010644 3.1403902,3.61926 0 0 1 0.03013,0.010929 3.1403902,3.61926 0 0 1 0.03012,0.011404 3.1403902,3.61926 0 0 1 0.02994,0.011689 3.1403902,3.61926 0 0 1 0.02984,0.011974 3.1403902,3.61926 0 0 1 0.02974,0.01245 3.1403902,3.61926 0 0 1 0.02975,0.012735 3.1403902,3.61926 0 0 1 0.02946,0.01302 3.1403902,3.61926 0 0 1 0.02946,0.013399 3.1403902,3.61926 0 0 1 0.02927,0.01378 3.1403902,3.61926 0 0 1 0.02927,0.01416 3.1403902,3.61926 0 0 1 0.02898,0.01435 3.1403902,3.61926 0 0 1 0.02899,0.014826 3.1403902,3.61926 0 0 1 0.0288,0.015111 3.1403902,3.61926 0 0 1 0.0287,0.015394 3.1403902,3.61926 0 0 1 0.02851,0.015775 3.1403902,3.61926 0 0 1 0.02841,0.016155 3.1403902,3.61926 0 0 1 0.02822,0.016441 3.1403902,3.61926 0 0 1 0.02813,0.016726 3.1403902,3.61926 0 0 1 0.02794,0.017106 3.1403902,3.61926 0 0 1 0.02775,0.017391 3.1403902,3.61926 0 0 1 0.02765,0.01777 3.1403902,3.61926 0 0 1 0.02756,0.017961 3.1403902,3.61926 0 0 1 0.02727,0.018437 3.1403902,3.61926 0 0 1 0.02718,0.018626 3.1403902,3.61926 0 0 1 0.02708,0.019007 3.1403902,3.61926 0 0 1 0.0268,0.019386 3.1403902,3.61926 0 0 1 0.0267,0.019577 3.1403902,3.61926 0 0 1 0.02651,0.019957 3.1403902,3.61926 0 0 1 0.02632,0.020242 3.1403902,3.61926 0 0 1 0.02613,0.020527 3.1403902,3.61926 0 0 1 0.02595,0.020812 3.1403902,3.61926 0 0 1 0.02575,0.021192 3.1403902,3.61926 0 0 1 0.02566,0.021478 3.1403902,3.61926 0 0 1 0.02537,0.021667 3.1403902,3.61926 0 0 1 0.02518,0.022048 3.1403902,3.61926 0 0 1 0.02509,0.022332 3.1403902,3.61926 0 0 1 0.02481,0.022618 3.1403902,3.61926 0 0 1 0.02461,0.022902 3.1403902,3.61926 0 0 1 0.02442,0.023188 3.1403902,3.61926 0 0 1 0.02423,0.023473 3.1403902,3.61926 0 0 1 0.02404,0.023759 3.1403902,3.61926 0 0 1 0.02376,0.024043 3.1403902,3.61926 0 0 1 0.02357,0.024328 3.1403902,3.61926 0 0 1 0.02338,0.024518 3.1403902,3.61926 0 0 1 0.02319,0.024899 3.1403902,3.61926 0 0 1 0.023,0.025089 3.1403902,3.61926 0 0 1 0.02271,0.025373 3.1403902,3.61926 0 0 1 0.02243,0.025659 3.1403902,3.61926 0 0 1 0.02233,0.025849 3.1403902,3.61926 0 0 1 0.02205,0.026229 3.1403902,3.61926 0 0 1 0.02176,0.026419 3.1403902,3.61926 0 0 1 0.02167,0.026609 3.1403902,3.61926 0 0 1 0.02129,0.026989 3.1403902,3.61926 0 0 1 0.0211,0.027084 3.1403902,3.61926 0 0 1 0.02091,0.027464 3.1403902,3.61926 0 0 1 0.02062,0.027655 3.1403902,3.61926 0 0 1 0.02043,0.027845 3.1403902,3.61926 0 0 1 0.02015,0.028129 3.1403902,3.61926 0 0 1 0.01986,0.028319 3.1403902,3.61926 0 0 1 0.01967,0.028605 3.1403902,3.61926 0 0 1 0.01939,0.028795 3.1403902,3.61926 0 0 1 0.0192,0.02908 3.1403902,3.61926 0 0 1 0.01891,0.02927 3.1403902,3.61926 0 0 1 0.01863,0.02946 3.1403902,3.61926 0 0 1 0.01833,0.02965 3.1403902,3.61926 0 0 1 0.01815,0.029936 3.1403902,3.61926 0 0 1 0.01786,0.030125 3.1403902,3.61926 0 0 1 0.01758,0.030315 3.1403902,3.61926 0 0 1 0.01731,0.030505 3.1403902,3.61926 0 0 1 0.0171,0.030695 3.1403902,3.61926 0 0 1 0.01672,0.030885 3.1403902,3.61926 0 0 1 0.01653,0.031171 3.1403902,3.61926 0 0 1 0.01626,0.031266 3.1403902,3.61926 0 0 1 0.01596,0.031456 3.1403902,3.61926 0 0 1 0.01569,0.031741 3.1403902,3.61926 0 0 1 0.01548,0.031836 3.1403902,3.61926 0 0 1 0.01512,0.032026 3.1403902,3.61926 0 0 1 0.01482,0.032216 3.1403902,3.61926 0 0 1 0.01464,0.032311 3.1403902,3.61926 0 0 1 0.01425,0.032596 3.1403902,3.61926 0 0 1 0.01398,0.032691 3.1403902,3.61926 0 0 1 0.01377,0.032881 3.1403902,3.61926 0 0 1 0.01341,0.032977 3.1403902,3.61926 0 0 1 0.01311,0.033166 3.1403902,3.61926 0 0 1 0.01293,0.033357 3.1403902,3.61926 0 0 1 0.01254,0.033451 3.1403902,3.61926 0 0 1 0.01227,0.033641 3.1403902,3.61926 0 0 1 0.01197,0.033737 3.1403902,3.61926 0 0 1 0.0117,0.033927 3.1403902,3.61926 0 0 1 0.01131,0.034022 3.1403902,3.61926 0 0 1 0.01113,0.034117 3.1403902,3.61926 0 0 1 0.01074,0.034307 3.1403902,3.61926 0 0 1 0.01056,0.034402 3.1403902,3.61926 0 0 1 0.01017,0.034591 3.1403902,3.61926 0 0 1 0.0099,0.034592 3.1403902,3.61926 0 0 1 0.0096,0.034782 3.1403902,3.61926 0 0 1 0.0092,0.034877 3.1403902,3.61926 0 0 1 0.0089,0.034972 3.1403902,3.61926 0 0 1 0.0087,0.035067 3.1403902,3.61926 0 0 1 0.0083,0.035162 3.1403902,3.61926 0 0 1 0.0081,0.035352 3.1403902,3.61926 0 0 1 0.0077,0.035352 3.1403902,3.61926 0 0 1 0.0075,0.035447 3.1403902,3.61926 0 0 1 0.007,0.035542 3.1403902,3.61926 0 0 1 0.0068,0.035542 3.1403902,3.61926 0 0 1 0.0065,0.035732 3.1403902,3.61926 0 0 1 0.0062,0.035732 3.1403902,3.61926 0 0 1 0.0059,0.035922 3.1403902,3.61926 0 0 1 0.0055,0.035827 3.1403902,3.61926 0 0 1 0.0052,0.036017 3.1403902,3.61926 0 0 1 0.0049,0.036018 3.1403902,3.61926 0 0 1 0.0047,0.036112 3.1403902,3.61926 0 0 1 0.0043,0.036112 3.1403902,3.61926 0 0 1 0.004,0.036207 3.1403902,3.61926 0 0 1 0.0036,0.036208 3.1403902,3.61926 0 0 1 0.0033,0.036207 3.1403902,3.61926 0 0 1 0.003,0.036302 3.1403902,3.61926 0 0 1 0.0028,0.036397 3.1403902,3.61926 0 0 1 0.0024,0.036302 3.1403902,3.61926 0 0 1 0.0021,0.036398 3.1403902,3.61926 0 0 1 0.0017,0.036492 3.1403902,3.61926 0 0 1 0.0015,0.036397 3.1403902,3.61926 0 0 1 0.0011,0.036492 3.1403902,3.61926 0 0 1 7.35e-4,0.036398 3.1403902,3.61926 0 0 1 5.52e-4,0.036492 3.1403902,3.61926 0 0 1 1.84e-4,0.036492 3.1403902,3.61926 0 0 1 -9.7e-5,0.032121 3.1403902,3.61926 0 0 1 -5.52e-4,0.036492 3.1403902,3.61926 0 0 1 -7.36e-4,0.036492 3.1403902,3.61926 0 0 1 -0.0011,0.036397 3.1403902,3.61926 0 0 1 -0.0015,0.036492 3.1403902,3.61926 0 0 1 -0.0017,0.036398 3.1403902,3.61926 0 0 1 -0.002,0.036397 3.1403902,3.61926 0 0 1 -0.0024,0.036397 3.1403902,3.61926 0 0 1 -0.0027,0.036303 3.1403902,3.61926 0 0 1 -0.003,0.036302 3.1403902,3.61926 0 0 1 -0.0032,0.036303 3.1403902,3.61926 0 0 1 -0.0037,0.036207 3.1403902,3.61926 0 0 1 -0.0039,0.036207 3.1403902,3.61926 0 0 1 -0.0043,0.036112 3.1403902,3.61926 0 0 1 -0.0046,0.036112 3.1403902,3.61926 0 0 1 -0.0049,0.036017 3.1403902,3.61926 0 0 1 -0.0052,0.035922 3.1403902,3.61926 0 0 1 -0.0055,0.035922 3.1403902,3.61926 0 0 1 -0.0058,0.035922 3.1403902,3.61926 0 0 1 -0.0062,0.035732 3.1403902,3.61926 0 0 1 -0.0065,0.035732 3.1403902,3.61926 0 0 1 -0.0067,0.035637 3.1403902,3.61926 0 0 1 -0.0071,0.035542 3.1403902,3.61926 0 0 1 -0.0073,0.035447 3.1403902,3.61926 0 0 1 -0.0077,0.035352 3.1403902,3.61926 0 0 1 -0.0081,0.035257 3.1403902,3.61926 0 0 1 -0.0083,0.035257 3.1403902,3.61926 0 0 1 -0.0086,0.035067 3.1403902,3.61926 0 0 1 -0.0089,0.034972 3.1403902,3.61926 0 0 1 -0.0092,0.034877 3.1403902,3.61926 0 0 1 -0.0095,0.034782 3.1403902,3.61926 0 0 1 -0.0099,0.034687 3.1403902,3.61926 0 0 1 -0.01008,0.034497 3.1403902,3.61926 0 0 1 -0.01044,0.034496 3.1403902,3.61926 0 0 1 -0.01074,0.034307 3.1403902,3.61926 0 0 1 -0.01113,0.034116 3.1403902,3.61926 0 0 1 -0.01131,0.034022 3.1403902,3.61926 0 0 1 -0.0117,0.03393 3.1403902,3.61926 0 0 1 -0.01188,0.03383 3.1403902,3.61926 0 0 1 -0.01227,0.03364 3.1403902,3.61926 0 0 1 -0.01254,0.03345 3.1403902,3.61926 0 0 1 -0.01284,0.03336 3.1403902,3.61926 0 0 1 -0.01302,0.03317 3.1403902,3.61926 0 0 1 -0.01341,0.03307 3.1403902,3.61926 0 0 1 -0.01368,0.03288 3.1403902,3.61926 0 0 1 -0.01398,0.03269 3.1403902,3.61926 0 0 1 -0.01434,0.0326 3.1403902,3.61926 0 0 1 -0.01455,0.03241 3.1403902,3.61926 0 0 1 -0.01482,0.03222 3.1403902,3.61926 0 0 1 -0.01501,0.03203 3.1403902,3.61926 0 0 1 -0.01539,0.03184 3.1403902,3.61926 0 0 1 -0.01569,0.03174 3.1403902,3.61926 0 0 1 -0.01596,0.03146 3.1403902,3.61926 0 0 1 -0.01617,0.03136 3.1403902,3.61926 0 0 1 -0.01653,0.03117 3.1403902,3.61926 0 0 1 -0.01672,0.03088 3.1403902,3.61926 0 0 1 -0.01701,0.03079 3.1403902,3.61926 0 0 1 -0.01731,0.03051 3.1403902,3.61926 0 0 1 -0.01758,0.03031 3.1403902,3.61926 0 0 1 -0.01786,0.03013 3.1403902,3.61926 0 0 1 -0.01806,0.02994 3.1403902,3.61926 0 0 1 -0.01662,0.02699 14.374443,13.48413 0 0 0 -5.330552,-3.7951158 z"
       inkscape:export-xdpi="96"
       inkscape:export-ydpi="96" />
    <path
       id="path932-0"
       style="display:inline;opacity:0.92;mix-blend-mode:normal;fill:#f7c454;fill-opacity:1;fill-rule:evenodd;stroke:#000000;stroke-width:0.389253;stroke-linejoin:round;stroke-miterlimit:4;stroke-dasharray:none"
       d="m 32.120167,4.5994687 a 3.7931184,4.7188611 0 0 1 3.785613,4.7188293 3.7931184,4.7188611 0 0 1 -0.671308,2.680197 14.374443,13.48413 0 0 0 -0.933123,-1.196362 3.1403902,3.61926 0 0 0 0.01662,-0.02699 3.1403902,3.61926 0 0 0 0.01806,-0.02994 3.1403902,3.61926 0 0 0 0.01786,-0.03013 3.1403902,3.61926 0 0 0 0.01758,-0.03031 3.1403902,3.61926 0 0 0 0.01731,-0.03051 3.1403902,3.61926 0 0 0 0.01701,-0.03079 3.1403902,3.61926 0 0 0 0.01672,-0.03088 3.1403902,3.61926 0 0 0 0.01653,-0.03117 3.1403902,3.61926 0 0 0 0.01617,-0.03136 3.1403902,3.61926 0 0 0 0.01596,-0.03146 3.1403902,3.61926 0 0 0 0.01569,-0.03174 3.1403902,3.61926 0 0 0 0.01539,-0.03184 3.1403902,3.61926 0 0 0 0.01501,-0.03203 3.1403902,3.61926 0 0 0 0.01482,-0.03222 3.1403902,3.61926 0 0 0 0.01455,-0.03241 3.1403902,3.61926 0 0 0 0.01434,-0.0326 3.1403902,3.61926 0 0 0 0.01398,-0.03269 3.1403902,3.61926 0 0 0 0.01368,-0.03288 3.1403902,3.61926 0 0 0 0.01341,-0.03307 3.1403902,3.61926 0 0 0 0.01302,-0.03317 3.1403902,3.61926 0 0 0 0.01284,-0.03336 3.1403902,3.61926 0 0 0 0.01254,-0.03345 3.1403902,3.61926 0 0 0 0.01227,-0.03364 3.1403902,3.61926 0 0 0 0.01188,-0.03383 3.1403902,3.61926 0 0 0 0.0117,-0.03393 3.1403902,3.61926 0 0 0 0.01131,-0.034022 3.1403902,3.61926 0 0 0 0.01112,-0.034116 3.1403902,3.61926 0 0 0 0.01074,-0.034307 3.1403902,3.61926 0 0 0 0.01045,-0.034496 3.1403902,3.61926 0 0 0 0.01008,-0.034497 3.1403902,3.61926 0 0 0 0.0099,-0.034687 3.1403902,3.61926 0 0 0 0.0095,-0.034782 3.1403902,3.61926 0 0 0 0.0092,-0.034877 3.1403902,3.61926 0 0 0 0.0089,-0.034972 3.1403902,3.61926 0 0 0 0.0086,-0.035067 3.1403902,3.61926 0 0 0 0.0083,-0.035257 3.1403902,3.61926 0 0 0 0.0081,-0.035257 3.1403902,3.61926 0 0 0 0.0077,-0.035352 3.1403902,3.61926 0 0 0 0.0073,-0.035447 3.1403902,3.61926 0 0 0 0.0071,-0.035542 3.1403902,3.61926 0 0 0 0.0067,-0.035637 3.1403902,3.61926 0 0 0 0.0065,-0.035732 3.1403902,3.61926 0 0 0 0.0062,-0.035732 3.1403902,3.61926 0 0 0 0.0058,-0.035922 3.1403902,3.61926 0 0 0 0.0055,-0.035922 3.1403902,3.61926 0 0 0 0.0052,-0.035922 3.1403902,3.61926 0 0 0 0.0049,-0.036017 3.1403902,3.61926 0 0 0 0.0046,-0.036112 3.1403902,3.61926 0 0 0 0.0043,-0.036112 3.1403902,3.61926 0 0 0 0.0039,-0.036207 3.1403902,3.61926 0 0 0 0.0037,-0.036207 3.1403902,3.61926 0 0 0 0.0032,-0.036303 3.1403902,3.61926 0 0 0 0.003,-0.036302 3.1403902,3.61926 0 0 0 0.0027,-0.036303 3.1403902,3.61926 0 0 0 0.0024,-0.036397 3.1403902,3.61926 0 0 0 0.002,-0.036397 3.1403902,3.61926 0 0 0 0.0017,-0.036398 3.1403902,3.61926 0 0 0 0.0015,-0.036492 3.1403902,3.61926 0 0 0 0.0011,-0.036397 3.1403902,3.61926 0 0 0 7.36e-4,-0.036492 3.1403902,3.61926 0 0 0 5.52e-4,-0.036492 3.1403902,3.61926 0 0 0 9.7e-5,-0.032121 3.1403902,3.61926 0 0 0 -1.84e-4,-0.036492 3.1403902,3.61926 0 0 0 -5.51e-4,-0.036492 3.1403902,3.61926 0 0 0 -7.36e-4,-0.036398 3.1403902,3.61926 0 0 0 -0.0011,-0.036492 3.1403902,3.61926 0 0 0 -0.0015,-0.036397 3.1403902,3.61926 0 0 0 -0.0017,-0.036492 3.1403902,3.61926 0 0 0 -0.0021,-0.036398 3.1403902,3.61926 0 0 0 -0.0024,-0.036302 3.1403902,3.61926 0 0 0 -0.0028,-0.036397 3.1403902,3.61926 0 0 0 -0.003,-0.036302 3.1403902,3.61926 0 0 0 -0.0033,-0.036207 3.1403902,3.61926 0 0 0 -0.0036,-0.036208 3.1403902,3.61926 0 0 0 -0.004,-0.036207 3.1403902,3.61926 0 0 0 -0.0043,-0.036112 3.1403902,3.61926 0 0 0 -0.0047,-0.036112 3.1403902,3.61926 0 0 0 -0.0049,-0.036018 3.1403902,3.61926 0 0 0 -0.0052,-0.036017 3.1403902,3.61926 0 0 0 -0.0055,-0.035827 3.1403902,3.61926 0 0 0 -0.0059,-0.035922 3.1403902,3.61926 0 0 0 -0.0062,-0.035732 3.1403902,3.61926 0 0 0 -0.0065,-0.035732 3.1403902,3.61926 0 0 0 -0.0068,-0.035542 3.1403902,3.61926 0 0 0 -0.007,-0.035542 3.1403902,3.61926 0 0 0 -0.0075,-0.035447 3.1403902,3.61926 0 0 0 -0.0077,-0.035352 3.1403902,3.61926 0 0 0 -0.0081,-0.035352 3.1403902,3.61926 0 0 0 -0.0083,-0.035162 3.1403902,3.61926 0 0 0 -0.0087,-0.035067 3.1403902,3.61926 0 0 0 -0.0089,-0.034972 3.1403902,3.61926 0 0 0 -0.0092,-0.034877 3.1403902,3.61926 0 0 0 -0.0096,-0.034782 3.1403902,3.61926 0 0 0 -0.0099,-0.034592 3.1403902,3.61926 0 0 0 -0.01017,-0.034591 3.1403902,3.61926 0 0 0 -0.01056,-0.034402 3.1403902,3.61926 0 0 0 -0.01074,-0.034307 3.1403902,3.61926 0 0 0 -0.01113,-0.034117 3.1403902,3.61926 0 0 0 -0.01131,-0.034022 3.1403902,3.61926 0 0 0 -0.0117,-0.033927 3.1403902,3.61926 0 0 0 -0.01197,-0.033737 3.1403902,3.61926 0 0 0 -0.01227,-0.033641 3.1403902,3.61926 0 0 0 -0.01254,-0.033451 3.1403902,3.61926 0 0 0 -0.01293,-0.033357 3.1403902,3.61926 0 0 0 -0.01311,-0.033166 3.1403902,3.61926 0 0 0 -0.01341,-0.032977 3.1403902,3.61926 0 0 0 -0.01377,-0.032881 3.1403902,3.61926 0 0 0 -0.01398,-0.032691 3.1403902,3.61926 0 0 0 -0.01425,-0.032596 3.1403902,3.61926 0 0 0 -0.01464,-0.032311 3.1403902,3.61926 0 0 0 -0.01482,-0.032216 3.1403902,3.61926 0 0 0 -0.01512,-0.032026 3.1403902,3.61926 0 0 0 -0.01548,-0.031836 3.1403902,3.61926 0 0 0 -0.01569,-0.031741 3.1403902,3.61926 0 0 0 -0.01596,-0.031456 3.1403902,3.61926 0 0 0 -0.01626,-0.031266 3.1403902,3.61926 0 0 0 -0.01653,-0.031171 3.1403902,3.61926 0 0 0 -0.01674,-0.030885 3.1403902,3.61926 0 0 0 -0.0171,-0.030695 3.1403902,3.61926 0 0 0 -0.01729,-0.030505 3.1403902,3.61926 0 0 0 -0.01758,-0.030315 3.1403902,3.61926 0 0 0 -0.01786,-0.030125 3.1403902,3.61926 0 0 0 -0.01815,-0.029936 3.1403902,3.61926 0 0 0 -0.01834,-0.02965 3.1403902,3.61926 0 0 0 -0.01863,-0.02946 3.1403902,3.61926 0 0 0 -0.01891,-0.02927 3.1403902,3.61926 0 0 0 -0.01919,-0.02908 3.1403902,3.61926 0 0 0 -0.01939,-0.028795 3.1403902,3.61926 0 0 0 -0.01967,-0.028605 3.1403902,3.61926 0 0 0 -0.01986,-0.028319 3.1403902,3.61926 0 0 0 -0.02015,-0.028129 3.1403902,3.61926 0 0 0 -0.02043,-0.027845 3.1403902,3.61926 0 0 0 -0.02062,-0.027655 3.1403902,3.61926 0 0 0 -0.02091,-0.027464 3.1403902,3.61926 0 0 0 -0.0211,-0.027084 3.1403902,3.61926 0 0 0 -0.02129,-0.026989 3.1403902,3.61926 0 0 0 -0.02167,-0.026609 3.1403902,3.61926 0 0 0 -0.02176,-0.026419 3.1403902,3.61926 0 0 0 -0.02205,-0.026229 3.1403902,3.61926 0 0 0 -0.02233,-0.025849 3.1403902,3.61926 0 0 0 -0.02243,-0.025659 3.1403902,3.61926 0 0 0 -0.02271,-0.025374 3.1403902,3.61926 0 0 0 -0.023,-0.025088 3.1403902,3.61926 0 0 0 -0.02319,-0.024899 3.1403902,3.61926 0 0 0 -0.02338,-0.024518 3.1403902,3.61926 0 0 0 -0.02357,-0.024328 3.1403902,3.61926 0 0 0 -0.02376,-0.024043 3.1403902,3.61926 0 0 0 -0.02404,-0.023759 3.1403902,3.61926 0 0 0 -0.02423,-0.023473 3.1403902,3.61926 0 0 0 -0.02442,-0.023188 3.1403902,3.61926 0 0 0 -0.02461,-0.022903 3.1403902,3.61926 0 0 0 -0.0248,-0.022618 3.1403902,3.61926 0 0 0 -0.02509,-0.022332 3.1403902,3.61926 0 0 0 -0.02518,-0.022048 3.1403902,3.61926 0 0 0 -0.02537,-0.021667 3.1403902,3.61926 0 0 0 -0.02566,-0.021478 3.1403902,3.61926 0 0 0 -0.02575,-0.021192 3.1403902,3.61926 0 0 0 -0.02594,-0.020812 3.1403902,3.61926 0 0 0 -0.02613,-0.020527 3.1403902,3.61926 0 0 0 -0.02632,-0.020242 3.1403902,3.61926 0 0 0 -0.02651,-0.019957 3.1403902,3.61926 0 0 0 -0.0267,-0.019577 3.1403902,3.61926 0 0 0 -0.0268,-0.019386 3.1403902,3.61926 0 0 0 -0.02708,-0.019007 3.1403902,3.61926 0 0 0 -0.02718,-0.018626 3.1403902,3.61926 0 0 0 -0.02727,-0.018437 3.1403902,3.61926 0 0 0 -0.02756,-0.017961 3.1403902,3.61926 0 0 0 -0.02766,-0.01777 3.1403902,3.61926 0 0 0 -0.02775,-0.017391 3.1403902,3.61926 0 0 0 -0.02794,-0.017106 3.1403902,3.61926 0 0 0 -0.02813,-0.016726 3.1403902,3.61926 0 0 0 -0.02822,-0.01644 3.1403902,3.61926 0 0 0 -0.02841,-0.016155 3.1403902,3.61926 0 0 0 -0.02851,-0.015775 3.1403902,3.61926 0 0 0 -0.0287,-0.015394 3.1403902,3.61926 0 0 0 -0.02879,-0.015111 3.1403902,3.61926 0 0 0 -0.02899,-0.014826 3.1403902,3.61926 0 0 0 -0.02898,-0.01435 3.1403902,3.61926 0 0 0 -0.02927,-0.01416 3.1403902,3.61926 0 0 0 -0.02927,-0.01378 3.1403902,3.61926 0 0 0 -0.02946,-0.013399 3.1403902,3.61926 0 0 0 -0.02946,-0.01302 3.1403902,3.61926 0 0 0 -0.02975,-0.012735 3.1403902,3.61926 0 0 0 -0.02974,-0.01245 3.1403902,3.61926 0 0 0 -0.02984,-0.011974 3.1403902,3.61926 0 0 0 -0.02994,-0.011689 3.1403902,3.61926 0 0 0 -0.03013,-0.011404 3.1403902,3.61926 0 0 0 -0.03012,-0.010929 3.1403902,3.61926 0 0 0 -0.03032,-0.010644 3.1403902,3.61926 0 0 0 -0.03031,-0.010263 3.1403902,3.61926 0 0 0 -0.0305,-0.00998 3.1403902,3.61926 0 0 0 -0.03051,-0.0096 3.1403902,3.61926 0 0 0 -0.0306,-0.00922 3.1403902,3.61926 0 0 0 -0.0307,-0.00884 3.1403902,3.61926 0 0 0 -0.03079,-0.00855 3.1403902,3.61926 0 0 0 -0.03088,-0.00817 3.1403902,3.61926 0 0 0 -0.03089,-0.00779 3.1403902,3.61926 0 0 0 -0.03098,-0.00741 3.1403902,3.61926 0 0 0 -0.03108,-0.00713 3.1403902,3.61926 0 0 0 -0.03108,-0.00665 3.1403902,3.61926 0 0 0 -0.03117,-0.00637 3.1403902,3.61926 0 0 0 -0.03117,-0.00599 3.1403902,3.61926 0 0 0 -0.03126,-0.00561 3.1403902,3.61926 0 0 0 -0.03136,-0.00532 3.1403902,3.61926 0 0 0 -0.03136,-0.00485 3.1403902,3.61926 0 0 0 -0.03136,-0.00456 3.1403902,3.61926 0 0 0 -0.03145,-0.00418 3.1403902,3.61926 0 0 0 -0.03146,-0.0038 3.1403902,3.61926 0 0 0 -0.03155,-0.00342 3.1403902,3.61926 0 0 0 -0.03146,-0.00314 3.1403902,3.61926 0 0 0 -0.03155,-0.00266 3.1403902,3.61926 0 0 0 -0.03164,-0.00238 3.1403902,3.61926 0 0 0 -0.03155,-0.002 3.1403902,3.61926 0 0 0 -0.03165,-0.00162 3.1403902,3.61926 0 0 0 -0.03164,-0.00123 3.1403902,3.61926 0 0 0 -0.03165,-8.643e-4 3.1403902,3.61926 0 0 0 -0.03165,-4.782e-4 3.1403902,3.61926 0 0 0 -0.02784,-1.839e-4 3.1403902,3.61926 0 0 0 -0.03165,1.839e-4 3.1403902,3.61926 0 0 0 -0.03165,5.701e-4 3.1403902,3.61926 0 0 0 -0.03165,9.563e-4 3.1403902,3.61926 0 0 0 -0.03165,0.00123 3.1403902,3.61926 0 0 0 -0.03165,0.00162 3.1403902,3.61926 0 0 0 -0.03155,0.00209 3.1403902,3.61926 0 0 0 -0.03155,0.00238 3.1403902,3.61926 0 0 0 -0.03155,0.00276 3.1403902,3.61926 0 0 0 -0.03155,0.00314 3.1403902,3.61926 0 0 0 -0.03155,0.00342 3.1403902,3.61926 0 0 0 -0.03146,0.0039 3.1403902,3.61926 0 0 0 -0.03145,0.00418 3.1403902,3.61926 0 0 0 -0.03136,0.00456 3.1403902,3.61926 0 0 0 -0.03136,0.00494 3.1403902,3.61926 0 0 0 -0.03127,0.00532 3.1403902,3.61926 0 0 0 -0.03126,0.0057 3.1403902,3.61926 0 0 0 -0.03127,0.00608 3.1403902,3.61926 0 0 0 -0.03108,0.00637 3.1403902,3.61926 0 0 0 -0.03117,0.00675 3.1403902,3.61926 0 0 0 -0.03098,0.00713 3.1403902,3.61926 0 0 0 -0.03098,0.00751 3.1403902,3.61926 0 0 0 -0.03089,0.00779 3.1403902,3.61926 0 0 0 -0.03089,0.00817 3.1403902,3.61926 0 0 0 -0.03079,0.00855 3.1403902,3.61926 0 0 0 -0.0306,0.00893 3.1403902,3.61926 0 0 0 -0.03069,0.00931 3.1403902,3.61926 0 0 0 -0.03051,0.0096 3.1403902,3.61926 0 0 0 -0.03041,0.00998 3.1403902,3.61926 0 0 0 -0.03031,0.010359 3.1403902,3.61926 0 0 0 -0.03032,0.010644 3.1403902,3.61926 0 0 0 -0.03012,0.011023 3.1403902,3.61926 0 0 0 -0.03003,0.011404 3.1403902,3.61926 0 0 0 -0.03003,0.011689 3.1403902,3.61926 0 0 0 -0.02984,0.012165 3.1403902,3.61926 0 0 0 -0.02975,0.012354 3.1403902,3.61926 0 0 0 -0.02965,0.012829 3.1403902,3.61926 0 0 0 -0.02955,0.013114 3.1403902,3.61926 0 0 0 -0.02937,0.013399 3.1403902,3.61926 0 0 0 -0.02927,0.01378 3.1403902,3.61926 0 0 0 -0.02918,0.01416 3.1403902,3.61926 0 0 0 -0.02908,0.014539 3.1403902,3.61926 0 0 0 -0.02889,0.01473 3.1403902,3.61926 0 0 0 -0.0288,0.015205 3.1403902,3.61926 0 0 0 -0.0287,0.01549 3.1403902,3.61926 0 0 0 -0.02851,0.015775 3.1403902,3.61926 0 0 0 -0.02832,0.016155 3.1403902,3.61926 0 0 0 -0.02832,0.016441 3.1403902,3.61926 0 0 0 -0.02803,0.016821 3.1403902,3.61926 0 0 0 -0.02794,0.017106 3.1403902,3.61926 0 0 0 -0.02784,0.017487 3.1403902,3.61926 0 0 0 -0.02756,0.01777 3.1403902,3.61926 0 0 0 -0.02746,0.018055 3.1403902,3.61926 0 0 0 -0.02737,0.018437 3.1403902,3.61926 0 0 0 -0.02718,0.018721 3.1403902,3.61926 0 0 0 -0.02699,0.019006 3.1403902,3.61926 0 0 0 -0.0268,0.019387 3.1403902,3.61926 0 0 0 -0.02661,0.019671 3.1403902,3.61926 0 0 0 -0.02651,0.019957 3.1403902,3.61926 0 0 0 -0.02632,0.020242 3.1403902,3.61926 0 0 0 -0.02614,0.020622 3.1403902,3.61926 0 0 0 -0.02594,0.020812 3.1403902,3.61926 0 0 0 -0.02576,0.021192 3.1403902,3.61926 0 0 0 -0.02556,0.021477 3.1403902,3.61926 0 0 0 -0.02537,0.021763 3.1403902,3.61926 0 0 0 -0.02518,0.022143 3.1403902,3.61926 0 0 0 -0.02499,0.022333 3.1403902,3.61926 0 0 0 -0.0248,0.022617 3.1403902,3.61926 0 0 0 -0.02461,0.022998 3.1403902,3.61926 0 0 0 -0.02442,0.023188 3.1403902,3.61926 0 0 0 -0.02414,0.023473 3.1403902,3.61926 0 0 0 -0.02404,0.023853 3.1403902,3.61926 0 0 0 -0.02376,0.024043 3.1403902,3.61926 0 0 0 -0.02357,0.024329 3.1403902,3.61926 0 0 0 -0.02338,0.024613 3.1403902,3.61926 0 0 0 -0.02309,0.024899 3.1403902,3.61926 0 0 0 -0.023,0.025088 3.1403902,3.61926 0 0 0 -0.02262,0.025469 3.1403902,3.61926 0 0 0 -0.02252,0.025659 3.1403902,3.61926 0 0 0 -0.02224,0.025944 3.1403902,3.61926 0 0 0 -0.02205,0.026134 3.1403902,3.61926 0 0 0 -0.02176,0.026514 3.1403902,3.61926 0 0 0 -0.02157,0.026609 3.1403902,3.61926 0 0 0 -0.02129,0.02699 3.1403902,3.61926 0 0 0 -0.0211,0.027179 3.1403902,3.61926 0 0 0 -0.02091,0.027464 3.1403902,3.61926 0 0 0 -0.02062,0.027655 3.1403902,3.61926 0 0 0 -0.02034,0.02794 3.1403902,3.61926 0 0 0 -0.02015,0.028129 3.1403902,3.61926 0 0 0 -0.01986,0.028415 3.1403902,3.61926 0 0 0 -0.01958,0.028605 3.1403902,3.61926 0 0 0 -0.01939,0.028795 3.1403902,3.61926 0 0 0 -0.0191,0.02908 3.1403902,3.61926 0 0 0 -0.01891,0.02927 3.1403902,3.61926 0 0 0 -0.01863,0.02946 3.1403902,3.61926 0 0 0 -0.01834,0.029745 3.1403902,3.61926 0 0 0 -0.01806,0.029935 3.1403902,3.61926 0 0 0 -0.01786,0.030125 3.1403902,3.61926 0 0 0 -0.01749,0.030315 3.1403902,3.61926 0 0 0 -0.01729,0.030601 3.1403902,3.61926 0 0 0 -0.0171,0.030695 3.1403902,3.61926 0 0 0 -0.01674,0.03098 3.1403902,3.61926 0 0 0 -0.01644,0.031076 3.1403902,3.61926 0 0 0 -0.01626,0.031361 3.1403902,3.61926 0 0 0 -0.01596,0.031455 3.1403902,3.61926 0 0 0 -0.01569,0.031741 3.1403902,3.61926 0 0 0 -0.0153,0.031835 3.1403902,3.61926 0 0 0 -0.01512,0.032026 3.1403902,3.61926 0 0 0 -0.01245,0.027179 14.374443,13.48413 0 0 0 -0.139129,-0.056639 3.7931184,4.7188611 0 0 1 3.280991,-2.3509094 3.7931184,4.7188611 0 0 1 0.0075,0 z"
       inkscape:export-xdpi="96"
       inkscape:export-ydpi="96" />
    <path
       style="fill:none;stroke:#4b312d;stroke-width:0.291939;stroke-linecap:round;stroke-linejoin:miter;stroke-miterlimit:4;stroke-dasharray:none;stroke-opacity:1"
       d="m 14.168477,20.070275 c 0,0 -0.725313,-0.34895 -1.683728,-0.513595 -0.958416,-0.164642 -2.192831,-0.115161 -2.192831,-0.115161"
       id="path1840"
       sodipodi:nodetypes="czc"
       inkscape:export-xdpi="96"
       inkscape:export-ydpi="96" />
    <path
       style="display:inline;fill:none;stroke:#4b312d;stroke-width:0.291939;stroke-linecap:round;stroke-linejoin:miter;stroke-miterlimit:4;stroke-dasharray:none;stroke-opacity:1"
       d="m 14.127915,20.726431 c 0,0 -0.787172,-0.167942 -1.757374,-0.101777 -0.970201,0.06617 -2.158078,0.405541 -2.158078,0.405541"
       id="path1840-2"
       sodipodi:nodetypes="czc"
       inkscape:export-xdpi="96"
       inkscape:export-ydpi="96" />
    <path
       style="display:inline;fill:none;stroke:#4b312d;stroke-width:0.275841;stroke-linecap:round;stroke-linejoin:miter;stroke-miterlimit:4;stroke-dasharray:none;stroke-opacity:1"
       d="m 14.283275,21.448543 c 0,0 -0.804582,0.04975 -1.720695,0.34499 -0.916113,0.295238 -1.966312,0.877962 -1.966312,0.877962"
       id="path1840-2-3"
       sodipodi:nodetypes="czc"
       inkscape:export-xdpi="96"
       inkscape:export-ydpi="96" />
    <g
       id="g1920"
       transform="matrix(0.23269985,0,0,0.20669644,-7.3333263,-4.2915669)"
       inkscape:export-xdpi="96"
       inkscape:export-ydpi="96">
      <path
         style="display:inline;opacity:1;fill:none;stroke:#4b312d;stroke-width:1.5875;stroke-linecap:round;stroke-linejoin:miter;stroke-miterlimit:4;stroke-dasharray:none;stroke-opacity:1"
         d="m 132.82349,115.35156 c 0,0 3.94408,-1.89751 9.15573,-2.79281 5.21165,-0.89529 11.92411,-0.62622 11.92411,-0.62622"
         id="path1840-7"
         sodipodi:nodetypes="czc" />
      <path
         style="display:inline;opacity:1;fill:none;stroke:#4b312d;stroke-width:1.5875;stroke-linecap:round;stroke-linejoin:miter;stroke-miterlimit:4;stroke-dasharray:none;stroke-opacity:1"
         d="m 133.04405,118.91959 c 0,0 4.28047,-0.91323 9.5562,-0.55344 5.27574,0.3598 11.73515,2.20524 11.73515,2.20524"
         id="path1840-2-5"
         sodipodi:nodetypes="czc" />
      <path
         style="display:inline;opacity:1;fill:none;stroke:#4b312d;stroke-width:1.49996;stroke-linecap:round;stroke-linejoin:miter;stroke-miterlimit:4;stroke-dasharray:none;stroke-opacity:1"
         d="m 132.19924,122.84627 c 0,0 4.37513,0.27055 9.35675,1.87598 4.98161,1.60544 10.69236,4.77416 10.69236,4.77416"
         id="path1840-2-3-9"
         sodipodi:nodetypes="czc" />
    </g>
    <path
       style="display:inline;mix-blend-mode:normal;fill:none;fill-opacity:0.858824;stroke:#492c20;stroke-width:0.389253;stroke-linecap:round;stroke-linejoin:round;stroke-miterlimit:4;stroke-dasharray:none;stroke-opacity:0.988235"
       d="m 16.331539,22.263339 c 1.570349,1.485898 2.441003,-0.370172 2.260832,-0.80169"
       id="path1922-2"
       sodipodi:nodetypes="cc"
       inkscape:export-xdpi="96"
       inkscape:export-ydpi="96" />
    <path
       style="display:inline;mix-blend-mode:normal;fill:none;fill-opacity:0.858824;stroke:#492c20;stroke-width:0.389253;stroke-linecap:round;stroke-linejoin:round;stroke-miterlimit:4;stroke-dasharray:none;stroke-opacity:0.988235"
       d="m 20.950515,22.263339 c -1.570348,1.485898 -2.441002,-0.370172 -2.260831,-0.80169"
       id="path1922-2-2"
       sodipodi:nodetypes="cc"
       inkscape:export-xdpi="96"
       inkscape:export-ydpi="96" />
    <ellipse
       style="opacity:0.92;fill:#ffffff;fill-opacity:1;fill-rule:nonzero;stroke:none;stroke-width:0.389253;stroke-linecap:round;stroke-linejoin:round;stroke-miterlimit:4;stroke-dasharray:none;stroke-opacity:0.858824;paint-order:stroke fill markers"
       id="path2221"
       cx="18.095922"
       cy="19.007792"
       rx="0.82215524"
       ry="0.50126326"
       inkscape:export-xdpi="96"
       inkscape:export-ydpi="96" />
  </g>
</svg>
