<?xml version="1.0" encoding="UTF-8" standalone="no"?>
<svg
   xmlns:dc="http://purl.org/dc/elements/1.1/"
   xmlns:cc="http://creativecommons.org/ns#"
   xmlns:rdf="http://www.w3.org/1999/02/22-rdf-syntax-ns#"
   xmlns:svg="http://www.w3.org/2000/svg"
   xmlns="http://www.w3.org/2000/svg"
   xmlns:xlink="http://www.w3.org/1999/xlink"
   xmlns:sodipodi="http://sodipodi.sourceforge.net/DTD/sodipodi-0.dtd"
   xmlns:inkscape="http://www.inkscape.org/namespaces/inkscape"
   version="1.1"
   width="128"
   height="128"
   id="svg5157"
   inkscape:version="1.0.2 (394de47547, 2021-03-26)"
   sodipodi:docname="com.github.slawtul.hamster.svg">
  <metadata
     id="metadata46">
    <rdf:RDF>
      <cc:Work
         rdf:about="">
        <dc:format>image/svg+xml</dc:format>
        <dc:type
           rdf:resource="http://purl.org/dc/dcmitype/StillImage" />
        <dc:title />
      </cc:Work>
    </rdf:RDF>
  </metadata>
  <sodipodi:namedview
     pagecolor="#ffffff"
     bordercolor="#9bdb4d"
     borderopacity="1"
     objecttolerance="10"
     gridtolerance="10"
     guidetolerance="10"
     inkscape:pageopacity="0"
     inkscape:pageshadow="2"
     inkscape:window-width="3840"
     inkscape:window-height="2097"
     id="namedview29"
     showgrid="false"
     inkscape:zoom="9.2734106"
     inkscape:cx="60.563645"
     inkscape:cy="65.701916"
     inkscape:window-x="0"
     inkscape:window-y="30"
     inkscape:window-maximized="1"
     inkscape:current-layer="layer4"
     showguides="true"
     inkscape:object-paths="true"
     inkscape:document-rotation="0"
     inkscape:guide-bbox="true">
    <inkscape:grid
       type="xygrid"
       id="grid4201"
       originx="0"
       snapvisiblegridlinesonly="true"
       visible="true"
       enabled="true"
       originy="0"
       spacingx="1" />
    <sodipodi:guide
       position="14.208042,82.754152"
       orientation="1,0"
       id="guide907" />
    <sodipodi:guide
       position="113.57976,49.686626"
       orientation="1,0"
       id="guide909" />
    <sodipodi:guide
       position="-15.053759,115.56796"
       orientation="0,-1"
       id="guide911" />
    <sodipodi:guide
       position="-5.5817307,8.8385061"
       orientation="0,-1"
       id="guide913" />
    <sodipodi:guide
       position="64.02076,41.906032"
       orientation="1,0"
       id="guide915" />
  </sodipodi:namedview>
  <defs
     id="defs5159">
    <linearGradient
       id="linearGradient3820-7-2-8-6">
      <stop
         id="stop3822-2-6-5-0"
         style="stop-color:#3d3d3d;stop-opacity:1"
         offset="0" />
      <stop
         id="stop3864-8-7-4-1"
         style="stop-color:#686868;stop-opacity:0.49803922"
         offset="0.5" />
      <stop
         id="stop3824-1-2-6-7"
         style="stop-color:#686868;stop-opacity:0"
         offset="1" />
    </linearGradient>
    <linearGradient
       id="linearGradient4806">
      <stop
         offset="0"
         style="stop-color:#ffffff;stop-opacity:1"
         id="stop4808" />
      <stop
         offset="0.42447853"
         style="stop-color:#ffffff;stop-opacity:0.23529412"
         id="stop4810" />
      <stop
         offset="0.82089913"
         style="stop-color:#ffffff;stop-opacity:0.15686275"
         id="stop4812" />
      <stop
         offset="1"
         style="stop-color:#ffffff;stop-opacity:0.39215687"
         id="stop4814" />
    </linearGradient>
    <linearGradient
       xlink:href="#linearGradient4806"
       id="linearGradient3118"
       gradientUnits="userSpaceOnUse"
       gradientTransform="matrix(4.16388,0,0,4.16388,-236.03265,-50.036246)"
       x1="71.204407"
       y1="15.369057"
       x2="71.204407"
       y2="40.495617" />
    <radialGradient
       xlink:href="#linearGradient3820-7-2-8-6"
       id="radialGradient3163"
       gradientUnits="userSpaceOnUse"
       gradientTransform="matrix(0.6869404,0,0,0.21461693,-4.02174,68.573331)"
       cx="99.157013"
       cy="186.17059"
       fx="99.157013"
       fy="186.17059"
       r="62.769119" />
    <radialGradient
       cx="7.4605465"
       cy="9.9571075"
       r="12.671875"
       fx="6.9303164"
       fy="9.9571075"
       id="radialGradient5521-1"
       xlink:href="#linearGradient2867-449-88-871-390-598-476-591-434-148-57-177-3-8-8-9"
       gradientUnits="userSpaceOnUse"
       gradientTransform="matrix(0,46.861858,-92.320077,0,985.84907,-380.50601)" />
    <linearGradient
       id="linearGradient2867-449-88-871-390-598-476-591-434-148-57-177-3-8-8-9">
      <stop
         offset="0"
         style="stop-color:#9bdb4d;stop-opacity:1"
         id="stop3750-8-9-0" />
      <stop
         offset="1"
         style="stop-color:#d1ff82;stop-opacity:1"
         id="stop3756-9-3-05" />
    </linearGradient>
    <linearGradient
       xlink:href="#linearGradient4806"
       id="linearGradient3118-3"
       gradientUnits="userSpaceOnUse"
       gradientTransform="matrix(4.16388,0,0,4.16388,-43.447904,-61.108816)"
       x1="71.204407"
       y1="15.369057"
       x2="71.204407"
       y2="40.495617" />
    <radialGradient
       cx="7.4605465"
       cy="9.9571075"
       r="12.671875"
       fx="6.9303164"
       fy="9.9571075"
       id="radialGradient5521-1-5"
       xlink:href="#linearGradient2867-449-88-871-390-598-476-591-434-148-57-177-3-8-8-9"
       gradientUnits="userSpaceOnUse"
       gradientTransform="matrix(0,46.861858,-92.320077,0,1178.4338,-391.57858)" />
    <radialGradient
       xlink:href="#linearGradient3820-7-2-8-6"
       id="radialGradient3163-2"
       gradientUnits="userSpaceOnUse"
       gradientTransform="matrix(0.6869404,0,0,0.21461693,188.56301,57.500761)"
       cx="99.157013"
       cy="186.17059"
       fx="99.157013"
       fy="186.17059"
       r="62.769119" />
    <clipPath
       clipPathUnits="userSpaceOnUse"
       id="clipPath925">
      <path
         inkscape:connector-curvature="0"
         d="m 99.053475,103.4609 c 8.715415,-8.868351 14.104475,-21.018879 14.104475,-34.436268 0,-27.149324 -22.008623,-49.156181 -49.157948,-49.156181 -27.149324,0 -49.157948,22.00525 -49.157948,49.156181 0,13.419156 5.390828,25.567917 14.106082,34.438038 l -4.447027,4.44526 c -2.452114,2.45227 -2.452114,6.42459 -0.0016,8.87686 1.224451,1.22622 2.833169,1.84005 4.438353,1.84005 1.605183,0 3.212456,-0.61383 4.436745,-1.83828 l 5.542158,-5.54039 c 7.348149,4.37731 15.907094,6.93657 25.083244,6.93657 9.176151,0 17.735096,-2.55926 25.086619,-6.93818 l 5.541996,5.54216 c 1.226218,1.22445 2.831401,1.83828 4.436746,1.83828 1.60535,0 3.21407,-0.61383 4.43852,-1.84005 2.4505,-2.45227 2.4505,-6.42459 -0.002,-8.87686 z m -35.05524,-5.520149 c -1.746392,0 -3.16137,1.418191 -3.16137,3.164739 v 4.26148 C 43.23109,103.84501 29.1777,89.791616 27.657338,72.187448 h 4.261641 c 1.746553,0 3.164744,-1.41819 3.164744,-3.162976 0,-1.746393 -1.418352,-3.162816 -3.164744,-3.162816 H 27.657338 C 29.1777,48.257488 43.23109,34.20233 60.836865,32.683735 v 4.263248 c 0,1.746553 1.414978,3.16137 3.16137,3.16137 1.746553,0 3.162977,-1.414817 3.162977,-3.16137 v -4.263248 c 17.605935,1.518595 31.657397,15.573592 33.179528,33.177921 h -4.263249 c -1.746553,0 -3.162976,1.416423 -3.162976,3.162816 0,1.744786 1.416423,3.162976 3.162976,3.162976 h 4.263249 C 98.820376,89.791616 84.768753,103.84501 67.162979,105.36697 v -4.25971 c 0,-1.748157 -1.416584,-3.166509 -3.164744,-3.166509 z"
         id="path927"
         style="fill:url(#linearGradient929);fill-opacity:1;stroke:#91e317;stroke-width:1;stroke-miterlimit:4;stroke-dasharray:none;stroke-opacity:0.66857144" />
    </clipPath>
    <linearGradient
       inkscape:collect="always"
       xlink:href="#linearGradient2867-449-88-871-390-598-476-591-434-148-57-177-3-8-8-9"
       id="linearGradient929"
       gradientUnits="userSpaceOnUse"
       x1="62.842052"
       y1="127.49673"
       x2="64.657951"
       y2="18.246727" />
    <clipPath
       clipPathUnits="userSpaceOnUse"
       id="clipPath959">
      <path
         style="fill:#ffe16b;fill-opacity:1;stroke:none;stroke-width:1;stroke-linecap:round;stroke-linejoin:round;stroke-miterlimit:4;stroke-dasharray:none;stroke-opacity:0.54857142"
         id="path961"
         d="m 111.2787,44.419312 c 1.12228,-2.700474 1.7464,-5.659429 1.7464,-8.762967 0.002,-12.633432 -10.2406,-22.875956 -22.874033,-22.875956 -5.076121,0 -9.749339,1.673459 -13.541408,4.47257 15.070124,3.671424 27.645881,13.728562 34.669041,27.166353 z"
         inkscape:connector-curvature="0" />
    </clipPath>
    <clipPath
       clipPathUnits="userSpaceOnUse"
       id="clipPath997">
      <path
         style="fill:#ffe16b;fill-opacity:1;stroke-width:0.09803922"
         id="path999"
         d="m 51.390346,17.249425 c -3.792231,-2.795577 -8.468822,-4.469036 -13.541569,-4.469036 -12.633432,0 -22.875796,10.242524 -22.875796,22.875796 0,3.105304 0.624113,6.064259 1.746553,8.762966 7.023161,-13.441164 19.59876,-23.496374 34.670812,-27.169726 z"
         inkscape:connector-curvature="0" />
    </clipPath>
  </defs>
  <g
     inkscape:groupmode="layer"
     id="layer4"
     inkscape:label="Layer">
    <path
       id="path2335"
       style="opacity:0.92;mix-blend-mode:normal;fill:#b1671f;fill-opacity:0.992157;fill-rule:evenodd;stroke:#000000;stroke-width:1.02695;stroke-linejoin:round;stroke-miterlimit:4;stroke-dasharray:none"
       d="m 44.645984,20.785237 a 8.2851362,9.5485096 0 0 0 -0.03284,-0.07171 8.2851362,9.5485096 0 0 0 -0.03987,-0.08449 8.2851362,9.5485096 0 0 0 -0.04037,-0.08399 8.2851362,9.5485096 0 0 0 -0.04137,-0.08374 8.2851362,9.5485096 0 0 0 -0.04212,-0.08299 8.2851362,9.5485096 0 0 0 -0.04287,-0.08274 8.2851362,9.5485096 0 0 0 -0.04337,-0.08199 8.2851362,9.5485096 0 0 0 -0.04413,-0.08173 8.2851362,9.5485096 0 0 0 -0.04513,-0.08098 8.2851362,9.5485096 0 0 0 -0.04563,-0.08073 8.2851362,9.5485096 0 0 0 -0.04613,-0.07998 8.2851362,9.5485096 0 0 0 -0.04713,-0.07948 8.2851362,9.5485096 0 0 0 -0.04764,-0.07898 8.2851362,9.5485096 0 0 0 -0.04839,-0.07848 8.2851362,9.5485096 0 0 0 -0.04913,-0.07772 8.2851362,9.5485096 0 0 0 -0.04989,-0.07722 8.2851362,9.5485096 0 0 0 -0.05039,-0.07672 8.2851362,9.5485096 0 0 0 -0.05115,-0.07597 8.2851362,9.5485096 0 0 0 -0.05165,-0.07547 8.2851362,9.5485096 0 0 0 -0.0524,-0.07497 8.2851362,9.5485096 0 0 0 -0.05315,-0.07421 8.2851362,9.5485096 0 0 0 -0.05365,-0.07371 8.2851362,9.5485096 0 0 0 -0.05441,-0.07296 8.2851362,9.5485096 0 0 0 -0.05516,-0.07246 8.2851362,9.5485096 0 0 0 -0.05566,-0.07171 8.2851362,9.5485096 0 0 0 -0.05616,-0.07121 8.2851362,9.5485096 0 0 0 -0.05691,-0.0702 8.2851362,9.5485096 0 0 0 -0.05741,-0.06995 8.2851362,9.5485096 0 0 0 -0.05817,-0.06895 8.2851362,9.5485096 0 0 0 -0.05867,-0.06845 8.2851362,9.5485096 0 0 0 -0.05942,-0.06769 8.2851362,9.5485096 0 0 0 -0.05967,-0.06719 8.2851362,9.5485096 0 0 0 -0.06068,-0.06619 8.2851362,9.5485096 0 0 0 -0.06092,-0.06569 8.2851362,9.5485096 0 0 0 -0.06168,-0.06494 8.2851362,9.5485096 0 0 0 -0.06218,-0.06418 8.2851362,9.5485096 0 0 0 -0.06268,-0.06343 8.2851362,9.5485096 0 0 0 -0.06343,-0.06293 8.2851362,9.5485096 0 0 0 -0.06368,-0.06193 8.2851362,9.5485096 0 0 0 -0.06443,-0.06117 8.2851362,9.5485096 0 0 0 -0.06494,-0.06067 8.2851362,9.5485096 0 0 0 -0.06544,-0.05967 8.2851362,9.5485096 0 0 0 -0.06594,-0.05892 8.2851362,9.5485096 0 0 0 -0.06644,-0.05842 8.2851362,9.5485096 0 0 0 -0.06694,-0.05742 8.2851362,9.5485096 0 0 0 -0.06744,-0.05666 8.2851362,9.5485096 0 0 0 -0.06794,-0.05591 8.2851362,9.5485096 0 0 0 -0.06845,-0.05491 8.2851362,9.5485096 0 0 0 -0.06895,-0.05441 8.2851362,9.5485096 0 0 0 -0.06945,-0.0534 8.2851362,9.5485096 0 0 0 -0.06995,-0.05265 8.2851362,9.5485096 0 0 0 -0.0702,-0.0519 8.2851362,9.5485096 0 0 0 -0.0707,-0.05115 8.2851362,9.5485096 0 0 0 -0.0712,-0.05014 8.2851362,9.5485096 0 0 0 -0.07171,-0.04939 8.2851362,9.5485096 0 0 0 -0.07221,-0.04864 8.2851362,9.5485096 0 0 0 -0.07246,-0.04763 8.2851362,9.5485096 0 0 0 -0.07271,-0.04688 8.2851362,9.5485096 0 0 0 -0.07346,-0.04613 8.2851362,9.5485096 0 0 0 -0.07371,-0.04513 8.2851362,9.5485096 0 0 0 -0.07396,-0.04438 8.2851362,9.5485096 0 0 0 -0.07471,-0.04337 8.2851362,9.5485096 0 0 0 -0.07471,-0.04262 8.2851362,9.5485096 0 0 0 -0.07522,-0.04162 8.2851362,9.5485096 0 0 0 -0.07572,-0.04087 8.2851362,9.5485096 0 0 0 -0.07597,-0.04011 8.2851362,9.5485096 0 0 0 -0.07622,-0.03886 8.2851362,9.5485096 0 0 0 -0.07672,-0.03836 8.2851362,9.5485096 0 0 0 -0.07697,-0.03736 8.2851362,9.5485096 0 0 0 -0.07722,-0.03635 8.2851362,9.5485096 0 0 0 -0.07747,-0.03535 8.2851362,9.5485096 0 0 0 -0.07797,-0.0346 8.2851362,9.5485096 0 0 0 -0.07822,-0.03384 8.2851362,9.5485096 0 0 0 -0.07847,-0.03259 8.2851362,9.5485096 0 0 0 -0.07873,-0.03209 8.2851362,9.5485096 0 0 0 -0.07923,-0.03084 8.2851362,9.5485096 0 0 0 -0.07923,-0.03009 8.2851362,9.5485096 0 0 0 -0.07948,-0.02908 8.2851362,9.5485096 0 0 0 -0.07998,-0.02808 8.2851362,9.5485096 0 0 0 -0.07998,-0.02733 8.2851362,9.5485096 0 0 0 -0.08023,-0.02633 8.2851362,9.5485096 0 0 0 -0.08048,-0.02532 8.2851362,9.5485096 0 0 0 -0.08098,-0.02457 8.2851362,9.5485096 0 0 0 -0.08073,-0.02356 8.2851362,9.5485096 0 0 0 -0.08123,-0.02257 8.2851362,9.5485096 0 0 0 -0.08148,-0.02156 8.2851362,9.5485096 0 0 0 -0.08148,-0.02056 8.2851362,9.5485096 0 0 0 -0.08173,-0.01981 8.2851362,9.5485096 0 0 0 -0.08173,-0.0188 8.2851362,9.5485096 0 0 0 -0.08224,-0.0178 8.2851362,9.5485096 0 0 0 -0.08199,-0.0168 8.2851362,9.5485096 0 0 0 -0.08249,-0.01604 8.2851362,9.5485096 0 0 0 -0.08248,-0.01505 8.2851362,9.5485096 0 0 0 -0.08249,-0.01404 8.2851362,9.5485096 0 0 0 -0.08274,-0.01304 8.2851362,9.5485096 0 0 0 -0.08274,-0.01204 8.2851362,9.5485096 0 0 0 -0.08299,-0.01103 8.2851362,9.5485096 0 0 0 -0.08299,-0.01028 8.2851362,9.5485096 0 0 0 -0.08324,-0.009 8.2851362,9.5485096 0 0 0 -0.08324,-0.0083 8.2851362,9.5485096 0 0 0 -0.08324,-0.0073 8.2851362,9.5485096 0 0 0 -0.08324,-0.0063 8.2851362,9.5485096 0 0 0 -0.08324,-0.0055 8.2851362,9.5485096 0 0 0 -0.08349,-0.0043 8.2851362,9.5485096 0 0 0 -0.08349,-0.0033 8.2851362,9.5485096 0 0 0 -0.08349,-0.0025 8.2851362,9.5485096 0 0 0 -0.08349,-0.0015 8.2851362,9.5485096 0 0 0 -0.08349,-4.86e-4 8.2851362,9.5485096 0 0 0 -0.07346,4.86e-4 8.2851362,9.5485096 0 0 0 -0.08349,0.0013 8.2851362,9.5485096 0 0 0 -0.08349,0.0023 8.2851362,9.5485096 0 0 0 -0.08349,0.0033 8.2851362,9.5485096 0 0 0 -0.08349,0.0043 8.2851362,9.5485096 0 0 0 -0.08324,0.0053 8.2851362,9.5485096 0 0 0 -0.08349,0.0063 8.2851362,9.5485096 0 0 0 -0.08324,0.007 8.2851362,9.5485096 0 0 0 -0.08299,0.0083 8.2851362,9.5485096 0 0 0 -0.08324,0.009 8.2851362,9.5485096 0 0 0 -0.08299,0.01003 8.2851362,9.5485096 0 0 0 -0.08299,0.01103 8.2851362,9.5485096 0 0 0 -0.08274,0.01204 8.2851362,9.5485096 0 0 0 -0.08274,0.01278 8.2851362,9.5485096 0 0 0 -0.08274,0.01404 8.2851362,9.5485096 0 0 0 -0.08249,0.01479 8.2851362,9.5485096 0 0 0 -0.08224,0.01579 8.2851362,9.5485096 0 0 0 -0.08224,0.0168 8.2851362,9.5485096 0 0 0 -0.08198,0.01755 8.2851362,9.5485096 0 0 0 -0.08199,0.01881 8.2851362,9.5485096 0 0 0 -0.08174,0.01956 8.2851362,9.5485096 0 0 0 -0.08148,0.02056 8.2851362,9.5485096 0 0 0 -0.08148,0.02156 8.2851362,9.5485096 0 0 0 -0.08123,0.02257 8.2851362,9.5485096 0 0 0 -0.08098,0.02332 8.2851362,9.5485096 0 0 0 -0.08073,0.02432 8.2851362,9.5485096 0 0 0 -0.08048,0.02532 8.2851362,9.5485096 0 0 0 -0.08048,0.02633 8.2851362,9.5485096 0 0 0 -0.07998,0.02708 8.2851362,9.5485096 0 0 0 -0.07998,0.02808 8.2851362,9.5485096 0 0 0 -0.07948,0.02883 8.2851362,9.5485096 0 0 0 -0.07948,0.03008 8.2851362,9.5485096 0 0 0 -0.07898,0.03084 8.2851362,9.5485096 0 0 0 -0.07873,0.03159 8.2851362,9.5485096 0 0 0 -0.07847,0.03285 8.2851362,9.5485096 0 0 0 -0.07848,0.0336 8.2851362,9.5485096 0 0 0 -0.07772,0.03435 8.2851362,9.5485096 0 0 0 -0.07772,0.03535 8.2851362,9.5485096 0 0 0 -0.07722,0.03635 8.2851362,9.5485096 0 0 0 -0.07722,0.03736 8.2851362,9.5485096 0 0 0 -0.07647,0.03786 8.2851362,9.5485096 0 0 0 -0.07647,0.03911 8.2851362,9.5485096 0 0 0 -0.07597,0.03987 8.2851362,9.5485096 0 0 0 -0.07572,0.04061 8.2851362,9.5485096 0 0 0 -0.07521,0.04162 8.2851362,9.5485096 0 0 0 -0.07497,0.04262 8.2851362,9.5485096 0 0 0 -0.07446,0.04337 8.2851362,9.5485096 0 0 0 -0.07421,0.04413 8.2851362,9.5485096 0 0 0 -0.07371,0.04513 8.2851362,9.5485096 0 0 0 -0.07321,0.04588 8.2851362,9.5485096 0 0 0 -0.07296,0.04688 8.2851362,9.5485096 0 0 0 -0.07271,0.04739 8.2851362,9.5485096 0 0 0 -0.07196,0.04864 8.2851362,9.5485096 0 0 0 -0.07171,0.04914 8.2851362,9.5485096 0 0 0 -0.07146,0.05014 8.2851362,9.5485096 0 0 0 -0.0707,0.05115 8.2851362,9.5485096 0 0 0 -0.07045,0.05165 8.2851362,9.5485096 0 0 0 -0.06995,0.05265 8.2851362,9.5485096 0 0 0 -0.06945,0.0534 8.2851362,9.5485096 0 0 0 -0.06895,0.05415 8.2851362,9.5485096 0 0 0 -0.06845,0.05491 8.2851362,9.5485096 0 0 0 -0.06795,0.05591 8.2851362,9.5485096 0 0 0 -0.06769,0.05666 8.2851362,9.5485096 0 0 0 -0.06694,0.05716 8.2851362,9.5485096 0 0 0 -0.06644,0.05817 8.2851362,9.5485096 0 0 0 -0.06619,0.05892 8.2851362,9.5485096 0 0 0 -0.06544,0.05967 8.2851362,9.5485096 0 0 0 -0.06494,0.06042 8.2851362,9.5485096 0 0 0 -0.06443,0.06117 8.2851362,9.5485096 0 0 0 -0.06393,0.06193 8.2851362,9.5485096 0 0 0 -0.06343,0.06268 8.2851362,9.5485096 0 0 0 -0.06268,0.06343 8.2851362,9.5485096 0 0 0 -0.06218,0.06418 8.2851362,9.5485096 0 0 0 -0.06168,0.06469 8.2851362,9.5485096 0 0 0 -0.06118,0.06569 8.2851362,9.5485096 0 0 0 -0.06067,0.06619 8.2851362,9.5485096 0 0 0 -0.05992,0.06694 8.2851362,9.5485096 0 0 0 -0.05917,0.06769 8.2851362,9.5485096 0 0 0 -0.05892,0.0682 8.2851362,9.5485096 0 0 0 -0.05817,0.0692 8.2851362,9.5485096 0 0 0 -0.05741,0.0697 8.2851362,9.5485096 0 0 0 -0.05717,0.0702 8.2851362,9.5485096 0 0 0 -0.05616,0.0712 8.2851362,9.5485096 0 0 0 -0.05566,0.07146 8.2851362,9.5485096 0 0 0 -0.05516,0.07246 8.2851362,9.5485096 0 0 0 -0.05441,0.07296 8.2851362,9.5485096 0 0 0 -0.05391,0.07346 8.2851362,9.5485096 0 0 0 -0.05315,0.07421 8.2851362,9.5485096 0 0 0 -0.0524,0.07471 8.2851362,9.5485096 0 0 0 -0.0519,0.07547 8.2851362,9.5485096 0 0 0 -0.05115,0.07597 8.2851362,9.5485096 0 0 0 -0.05064,0.07672 8.2851362,9.5485096 0 0 0 -0.04989,0.07722 8.2851362,9.5485096 0 0 0 -0.04914,0.07772 8.2851362,9.5485096 0 0 0 -0.04839,0.07822 8.2851362,9.5485096 0 0 0 -0.04789,0.07898 8.2851362,9.5485096 0 0 0 -0.04714,0.07948 8.2851362,9.5485096 0 0 0 -0.04638,0.07998 8.2851362,9.5485096 0 0 0 -0.04563,0.08048 8.2851362,9.5485096 0 0 0 -0.04513,0.08098 8.2851362,9.5485096 0 0 0 -0.04413,0.08148 8.2851362,9.5485096 0 0 0 -0.04363,0.08224 8.2851362,9.5485096 0 0 0 -0.04287,0.08249 8.2851362,9.5485096 0 0 0 -0.04212,0.08299 8.2851362,9.5485096 0 0 0 -0.04137,0.08374 8.2851362,9.5485096 0 0 0 -0.04087,0.08399 8.2851362,9.5485096 0 0 0 -0.03987,0.08449 8.2851362,9.5485096 0 0 0 -0.03911,0.08499 8.2851362,9.5485096 0 0 0 -0.03861,0.08525 8.2851362,9.5485096 0 0 0 -0.03761,0.086 8.2851362,9.5485096 0 0 0 -0.03685,0.08625 8.2851362,9.5485096 0 0 0 -0.03635,0.08675 8.2851362,9.5485096 0 0 0 -0.03535,0.087 8.2851362,9.5485096 0 0 0 -0.0346,0.0875 8.2851362,9.5485096 0 0 0 -0.0341,0.088 8.2851362,9.5485096 0 0 0 -0.0331,0.08825 8.2851362,9.5485096 0 0 0 -0.03234,0.08875 8.2851362,9.5485096 0 0 0 -0.03159,0.08901 8.2851362,9.5485096 0 0 0 -0.03084,0.08951 8.2851362,9.5485096 0 0 0 -0.02983,0.08976 8.2851362,9.5485096 0 0 0 -0.02933,0.09001 8.2851362,9.5485096 0 0 0 -0.02833,0.09051 8.2851362,9.5485096 0 0 0 -0.02783,0.09076 8.2851362,9.5485096 0 0 0 -0.02683,0.09126 8.2851362,9.5485096 0 0 0 -0.02607,0.09126 8.2851362,9.5485096 0 0 0 -0.02532,0.09176 8.2851362,9.5485096 0 0 0 -0.02432,0.09201 8.2851362,9.5485096 0 0 0 -0.02357,0.09226 8.2851362,9.5485096 0 0 0 -0.02306,0.09252 8.2851362,9.5485096 0 0 0 -0.02181,0.09276 8.2851362,9.5485096 0 0 0 -0.02131,0.09327 8.2851362,9.5485096 0 0 0 -0.02031,0.09327 8.2851362,9.5485096 0 0 0 -0.01981,0.09352 8.2851362,9.5485096 0 0 0 -0.01855,0.09377 8.2851362,9.5485096 0 0 0 -0.01805,0.09377 8.2851362,9.5485096 0 0 0 -0.01705,0.09427 8.2851362,9.5485096 0 0 0 -0.0163,0.09427 8.2851362,9.5485096 0 0 0 -0.01554,0.09477 8.2851362,9.5485096 0 0 0 -0.01454,0.09452 8.2851362,9.5485096 0 0 0 -0.01379,0.09502 8.2851362,9.5485096 0 0 0 -0.01304,0.09502 8.2851362,9.5485096 0 0 0 -0.01229,0.09527 8.2851362,9.5485096 0 0 0 -0.01128,0.09527 8.2851362,9.5485096 0 0 0 -0.01053,0.09552 8.2851362,9.5485096 0 0 0 -0.0095,0.09552 8.2851362,9.5485096 0 0 0 -0.0088,0.09552 8.2851362,9.5485096 0 0 0 -0.008,0.09577 8.2851362,9.5485096 0 0 0 -0.0073,0.09603 8.2851362,9.5485096 0 0 0 -0.0063,0.09577 8.2851362,9.5485096 0 0 0 -0.0055,0.09603 8.2851362,9.5485096 0 0 0 -0.0045,0.09628 8.2851362,9.5485096 0 0 0 -0.0038,0.09602 8.2851362,9.5485096 0 0 0 -0.003,0.09628 8.2851362,9.5485096 0 0 0 -0.002,0.09603 8.2851362,9.5485096 0 0 0 -0.0013,0.09628 8.2851362,9.5485096 0 0 0 -4.85e-4,0.09628 8.2851362,9.5485096 0 0 0 2.5e-4,0.08474 8.2851362,9.5485096 0 0 0 0.0013,0.09628 8.2851362,9.5485096 0 0 0 0.002,0.09628 8.2851362,9.5485096 0 0 0 0.0028,0.09602 8.2851362,9.5485096 0 0 0 0.0038,0.09628 8.2851362,9.5485096 0 0 0 0.0045,0.09603 8.2851362,9.5485096 0 0 0 0.0053,0.09603 8.2851362,9.5485096 0 0 0 0.0063,0.09602 8.2851362,9.5485096 0 0 0 0.007,0.09578 8.2851362,9.5485096 0 0 0 0.008,0.09577 8.2851362,9.5485096 0 0 0 0.0085,0.09577 8.2851362,9.5485096 0 0 0 0.0098,0.09552 8.2851362,9.5485096 0 0 0 0.01028,0.09552 8.2851362,9.5485096 0 0 0 0.01128,0.09527 8.2851362,9.5485096 0 0 0 0.01204,0.09527 8.2851362,9.5485096 0 0 0 0.01278,0.09502 8.2851362,9.5485096 0 0 0 0.01379,0.09477 8.2851362,9.5485096 0 0 0 0.01454,0.09477 8.2851362,9.5485096 0 0 0 0.01529,0.09477 8.2851362,9.5485096 0 0 0 0.0163,0.09427 8.2851362,9.5485096 0 0 0 0.01705,0.09427 8.2851362,9.5485096 0 0 0 0.0178,0.09402 8.2851362,9.5485096 0 0 0 0.01881,0.09377 8.2851362,9.5485096 0 0 0 0.0193,0.09352 8.2851362,9.5485096 0 0 0 0.02031,0.09327 8.2851362,9.5485096 0 0 0 0.02131,0.09302 8.2851362,9.5485096 0 0 0 0.02181,0.09302 8.2851362,9.5485096 0 0 0 0.02282,0.09251 8.2851362,9.5485096 0 0 0 0.02357,0.09226 8.2851362,9.5485096 0 0 0 0.02432,0.09201 8.2851362,9.5485096 0 0 0 0.02507,0.09176 8.2851362,9.5485096 0 0 0 0.02607,0.09151 8.2851362,9.5485096 0 0 0 0.02658,0.09101 8.2851362,9.5485096 0 0 0 0.02758,0.09101 8.2851362,9.5485096 0 0 0 0.02833,0.09051 8.2851362,9.5485096 0 0 0 0.02933,0.09001 8.2851362,9.5485096 0 0 0 0.02983,0.08976 8.2851362,9.5485096 0 0 0 0.03084,0.08951 8.2851362,9.5485096 0 0 0 0.03134,0.08926 8.2851362,9.5485096 0 0 0 0.03235,0.08875 8.2851362,9.5485096 0 0 0 0.03309,0.08825 8.2851362,9.5485096 0 0 0 0.03384,0.088 8.2851362,9.5485096 0 0 0 0.03435,0.0875 8.2851362,9.5485096 0 0 0 0.03535,0.08725 8.2851362,9.5485096 0 0 0 0.03611,0.08675 8.2851362,9.5485096 0 0 0 0.03685,0.08625 8.2851362,9.5485096 0 0 0 0.03786,0.086 8.2851362,9.5485096 0 0 0 0.03836,0.08549 8.2851362,9.5485096 0 0 0 0.03911,0.08499 8.2851362,9.5485096 0 0 0 0.03961,0.08449 8.2851362,9.5485096 0 0 0 0.04062,0.08399 8.2851362,9.5485096 0 0 0 0.04136,0.08374 8.2851362,9.5485096 0 0 0 0.04212,0.08299 8.2851362,9.5485096 0 0 0 0.04262,0.08274 8.2851362,9.5485096 0 0 0 0.04363,0.08224 8.2851362,9.5485096 0 0 0 0.04413,0.08148 8.2851362,9.5485096 0 0 0 0.04488,0.08123 8.2851362,9.5485096 0 0 0 0.04563,0.08048 8.2851362,9.5485096 0 0 0 0.04638,0.07998 8.2851362,9.5485096 0 0 0 0.04713,0.07948 8.2851362,9.5485096 0 0 0 0.04763,0.07898 8.2851362,9.5485096 0 0 0 0.04387,0.07121 37.923381,35.574494 0 0 1 14.063332,-10.012461 z"
       inkscape:export-xdpi="96"
       inkscape:export-ydpi="96" />
    <path
       id="path932"
       style="opacity:0.92;mix-blend-mode:normal;fill:#f7c454;fill-opacity:1;fill-rule:evenodd;stroke:#000000;stroke-width:1.02695;stroke-linejoin:round;stroke-miterlimit:4;stroke-dasharray:none"
       d="m 36.337159,14.43355 a 10.007191,12.449531 0 0 0 -9.987387,12.449448 10.007191,12.449531 0 0 0 1.771077,7.071026 37.923362,35.574494 0 0 1 2.46181,-3.1563 8.2851318,9.5485096 0 0 1 -0.04387,-0.07121 8.2851318,9.5485096 0 0 1 -0.04763,-0.07898 8.2851318,9.5485096 0 0 1 -0.04713,-0.07948 8.2851318,9.5485096 0 0 1 -0.04638,-0.07998 8.2851318,9.5485096 0 0 1 -0.04563,-0.08048 8.2851318,9.5485096 0 0 1 -0.04488,-0.08123 8.2851318,9.5485096 0 0 1 -0.04413,-0.08148 8.2851318,9.5485096 0 0 1 -0.04363,-0.08224 8.2851318,9.5485096 0 0 1 -0.04262,-0.08274 8.2851318,9.5485096 0 0 1 -0.04212,-0.08299 8.2851318,9.5485096 0 0 1 -0.04136,-0.08374 8.2851318,9.5485096 0 0 1 -0.04062,-0.08399 8.2851318,9.5485096 0 0 1 -0.03961,-0.08449 8.2851318,9.5485096 0 0 1 -0.03911,-0.08499 8.2851318,9.5485096 0 0 1 -0.03836,-0.08549 8.2851318,9.5485096 0 0 1 -0.03786,-0.086 8.2851318,9.5485096 0 0 1 -0.03685,-0.08625 8.2851318,9.5485096 0 0 1 -0.03611,-0.08675 8.2851318,9.5485096 0 0 1 -0.03535,-0.08725 8.2851318,9.5485096 0 0 1 -0.03435,-0.0875 8.2851318,9.5485096 0 0 1 -0.03384,-0.088 8.2851318,9.5485096 0 0 1 -0.03309,-0.08825 8.2851318,9.5485096 0 0 1 -0.03235,-0.08875 8.2851318,9.5485096 0 0 1 -0.03134,-0.08926 8.2851318,9.5485096 0 0 1 -0.03084,-0.08951 8.2851318,9.5485096 0 0 1 -0.02983,-0.08976 8.2851318,9.5485096 0 0 1 -0.02933,-0.09001 8.2851318,9.5485096 0 0 1 -0.02833,-0.09051 8.2851318,9.5485096 0 0 1 -0.02758,-0.09101 8.2851318,9.5485096 0 0 1 -0.02658,-0.09101 8.2851318,9.5485096 0 0 1 -0.02607,-0.09151 8.2851318,9.5485096 0 0 1 -0.02507,-0.09176 8.2851318,9.5485096 0 0 1 -0.02432,-0.09201 8.2851318,9.5485096 0 0 1 -0.02357,-0.09226 8.2851318,9.5485096 0 0 1 -0.02282,-0.09251 8.2851318,9.5485096 0 0 1 -0.02181,-0.09302 8.2851318,9.5485096 0 0 1 -0.02131,-0.09302 8.2851318,9.5485096 0 0 1 -0.02031,-0.09327 8.2851318,9.5485096 0 0 1 -0.0193,-0.09352 8.2851318,9.5485096 0 0 1 -0.01881,-0.09377 8.2851318,9.5485096 0 0 1 -0.0178,-0.09402 8.2851318,9.5485096 0 0 1 -0.01705,-0.09427 8.2851318,9.5485096 0 0 1 -0.0163,-0.09427 8.2851318,9.5485096 0 0 1 -0.01529,-0.09477 8.2851318,9.5485096 0 0 1 -0.01454,-0.09477 8.2851318,9.5485096 0 0 1 -0.01379,-0.09477 8.2851318,9.5485096 0 0 1 -0.01278,-0.09502 8.2851318,9.5485096 0 0 1 -0.01204,-0.09527 8.2851318,9.5485096 0 0 1 -0.01128,-0.09527 8.2851318,9.5485096 0 0 1 -0.01028,-0.09552 8.2851318,9.5485096 0 0 1 -0.0098,-0.09552 8.2851318,9.5485096 0 0 1 -0.0085,-0.09577 8.2851318,9.5485096 0 0 1 -0.008,-0.09577 8.2851318,9.5485096 0 0 1 -0.007,-0.09578 8.2851318,9.5485096 0 0 1 -0.0063,-0.09602 8.2851318,9.5485096 0 0 1 -0.0053,-0.09603 8.2851318,9.5485096 0 0 1 -0.0045,-0.09603 8.2851318,9.5485096 0 0 1 -0.0038,-0.09628 8.2851318,9.5485096 0 0 1 -0.0028,-0.09602 8.2851318,9.5485096 0 0 1 -0.002,-0.09628 8.2851318,9.5485096 0 0 1 -0.0013,-0.09628 8.2851318,9.5485096 0 0 1 -2.5e-4,-0.08474 8.2851318,9.5485096 0 0 1 4.85e-4,-0.09628 8.2851318,9.5485096 0 0 1 0.0013,-0.09628 8.2851318,9.5485096 0 0 1 0.002,-0.09603 8.2851318,9.5485096 0 0 1 0.003,-0.09628 8.2851318,9.5485096 0 0 1 0.0038,-0.09602 8.2851318,9.5485096 0 0 1 0.0045,-0.09628 8.2851318,9.5485096 0 0 1 0.0055,-0.09603 8.2851318,9.5485096 0 0 1 0.0063,-0.09577 8.2851318,9.5485096 0 0 1 0.0073,-0.09603 8.2851318,9.5485096 0 0 1 0.008,-0.09577 8.2851318,9.5485096 0 0 1 0.0088,-0.09552 8.2851318,9.5485096 0 0 1 0.0095,-0.09552 8.2851318,9.5485096 0 0 1 0.01053,-0.09552 8.2851318,9.5485096 0 0 1 0.01128,-0.09527 8.2851318,9.5485096 0 0 1 0.01229,-0.09527 8.2851318,9.5485096 0 0 1 0.01304,-0.09502 8.2851318,9.5485096 0 0 1 0.01379,-0.09502 8.2851318,9.5485096 0 0 1 0.01454,-0.09452 8.2851318,9.5485096 0 0 1 0.01554,-0.09477 8.2851318,9.5485096 0 0 1 0.0163,-0.09427 8.2851318,9.5485096 0 0 1 0.01705,-0.09427 8.2851318,9.5485096 0 0 1 0.01805,-0.09377 8.2851318,9.5485096 0 0 1 0.01855,-0.09377 8.2851318,9.5485096 0 0 1 0.01981,-0.09352 8.2851318,9.5485096 0 0 1 0.02031,-0.09327 8.2851318,9.5485096 0 0 1 0.02131,-0.09327 8.2851318,9.5485096 0 0 1 0.02181,-0.09276 8.2851318,9.5485096 0 0 1 0.02306,-0.09252 8.2851318,9.5485096 0 0 1 0.02357,-0.09226 8.2851318,9.5485096 0 0 1 0.02432,-0.09201 8.2851318,9.5485096 0 0 1 0.02532,-0.09176 8.2851318,9.5485096 0 0 1 0.02607,-0.09126 8.2851318,9.5485096 0 0 1 0.02683,-0.09126 8.2851318,9.5485096 0 0 1 0.02783,-0.09076 8.2851318,9.5485096 0 0 1 0.02833,-0.09051 8.2851318,9.5485096 0 0 1 0.02933,-0.09001 8.2851318,9.5485096 0 0 1 0.02983,-0.08976 8.2851318,9.5485096 0 0 1 0.03084,-0.08951 8.2851318,9.5485096 0 0 1 0.03159,-0.08901 8.2851318,9.5485096 0 0 1 0.03234,-0.08875 8.2851318,9.5485096 0 0 1 0.0331,-0.08825 8.2851318,9.5485096 0 0 1 0.0341,-0.088 8.2851318,9.5485096 0 0 1 0.0346,-0.0875 8.2851318,9.5485096 0 0 1 0.03535,-0.087 8.2851318,9.5485096 0 0 1 0.03635,-0.08675 8.2851318,9.5485096 0 0 1 0.03685,-0.08625 8.2851318,9.5485096 0 0 1 0.03761,-0.086 8.2851318,9.5485096 0 0 1 0.03861,-0.08525 8.2851318,9.5485096 0 0 1 0.03911,-0.08499 8.2851318,9.5485096 0 0 1 0.03987,-0.08449 8.2851318,9.5485096 0 0 1 0.04087,-0.08399 8.2851318,9.5485096 0 0 1 0.04137,-0.08374 8.2851318,9.5485096 0 0 1 0.04212,-0.08299 8.2851318,9.5485096 0 0 1 0.04287,-0.08249 8.2851318,9.5485096 0 0 1 0.04363,-0.08224 8.2851318,9.5485096 0 0 1 0.04413,-0.08148 8.2851318,9.5485096 0 0 1 0.04513,-0.08098 8.2851318,9.5485096 0 0 1 0.04563,-0.08048 8.2851318,9.5485096 0 0 1 0.04638,-0.07998 8.2851318,9.5485096 0 0 1 0.04714,-0.07948 8.2851318,9.5485096 0 0 1 0.04789,-0.07898 8.2851318,9.5485096 0 0 1 0.04839,-0.07822 8.2851318,9.5485096 0 0 1 0.04914,-0.07772 8.2851318,9.5485096 0 0 1 0.04989,-0.07722 8.2851318,9.5485096 0 0 1 0.05064,-0.07672 8.2851318,9.5485096 0 0 1 0.05115,-0.07597 8.2851318,9.5485096 0 0 1 0.0519,-0.07547 8.2851318,9.5485096 0 0 1 0.0524,-0.07471 8.2851318,9.5485096 0 0 1 0.05315,-0.07421 8.2851318,9.5485096 0 0 1 0.05391,-0.07346 8.2851318,9.5485096 0 0 1 0.05441,-0.07296 8.2851318,9.5485096 0 0 1 0.05516,-0.07246 8.2851318,9.5485096 0 0 1 0.05566,-0.07146 8.2851318,9.5485096 0 0 1 0.05616,-0.0712 8.2851318,9.5485096 0 0 1 0.05716,-0.0702 8.2851318,9.5485096 0 0 1 0.05741,-0.0697 8.2851318,9.5485096 0 0 1 0.05817,-0.0692 8.2851318,9.5485096 0 0 1 0.05892,-0.0682 8.2851318,9.5485096 0 0 1 0.05917,-0.06769 8.2851318,9.5485096 0 0 1 0.05992,-0.06694 8.2851318,9.5485096 0 0 1 0.06067,-0.06619 8.2851318,9.5485096 0 0 1 0.06118,-0.06569 8.2851318,9.5485096 0 0 1 0.06168,-0.06469 8.2851318,9.5485096 0 0 1 0.06218,-0.06418 8.2851318,9.5485096 0 0 1 0.06268,-0.06343 8.2851318,9.5485096 0 0 1 0.06343,-0.06268 8.2851318,9.5485096 0 0 1 0.06393,-0.06193 8.2851318,9.5485096 0 0 1 0.06443,-0.06117 8.2851318,9.5485096 0 0 1 0.06494,-0.06042 8.2851318,9.5485096 0 0 1 0.06544,-0.05967 8.2851318,9.5485096 0 0 1 0.06619,-0.05892 8.2851318,9.5485096 0 0 1 0.06644,-0.05817 8.2851318,9.5485096 0 0 1 0.06694,-0.05716 8.2851318,9.5485096 0 0 1 0.06769,-0.05666 8.2851318,9.5485096 0 0 1 0.06794,-0.05591 8.2851318,9.5485096 0 0 1 0.06845,-0.05491 8.2851318,9.5485096 0 0 1 0.06895,-0.05415 8.2851318,9.5485096 0 0 1 0.06945,-0.0534 8.2851318,9.5485096 0 0 1 0.06995,-0.05265 8.2851318,9.5485096 0 0 1 0.07045,-0.05165 8.2851318,9.5485096 0 0 1 0.0707,-0.05115 8.2851318,9.5485096 0 0 1 0.07146,-0.05014 8.2851318,9.5485096 0 0 1 0.07171,-0.04914 8.2851318,9.5485096 0 0 1 0.07196,-0.04864 8.2851318,9.5485096 0 0 1 0.07271,-0.04739 8.2851318,9.5485096 0 0 1 0.07296,-0.04688 8.2851318,9.5485096 0 0 1 0.07321,-0.04588 8.2851318,9.5485096 0 0 1 0.07371,-0.04513 8.2851318,9.5485096 0 0 1 0.07421,-0.04413 8.2851318,9.5485096 0 0 1 0.07446,-0.04337 8.2851318,9.5485096 0 0 1 0.07497,-0.04262 8.2851318,9.5485096 0 0 1 0.07522,-0.04162 8.2851318,9.5485096 0 0 1 0.07572,-0.04061 8.2851318,9.5485096 0 0 1 0.07597,-0.03987 8.2851318,9.5485096 0 0 1 0.07647,-0.03911 8.2851318,9.5485096 0 0 1 0.07647,-0.03786 8.2851318,9.5485096 0 0 1 0.07722,-0.03736 8.2851318,9.5485096 0 0 1 0.07722,-0.03635 8.2851318,9.5485096 0 0 1 0.07772,-0.03535 8.2851318,9.5485096 0 0 1 0.07772,-0.03435 8.2851318,9.5485096 0 0 1 0.07847,-0.0336 8.2851318,9.5485096 0 0 1 0.07847,-0.03285 8.2851318,9.5485096 0 0 1 0.07873,-0.03159 8.2851318,9.5485096 0 0 1 0.07898,-0.03084 8.2851318,9.5485096 0 0 1 0.07948,-0.03008 8.2851318,9.5485096 0 0 1 0.07948,-0.02883 8.2851318,9.5485096 0 0 1 0.07998,-0.02808 8.2851318,9.5485096 0 0 1 0.07998,-0.02708 8.2851318,9.5485096 0 0 1 0.08048,-0.02633 8.2851318,9.5485096 0 0 1 0.08048,-0.02532 8.2851318,9.5485096 0 0 1 0.08073,-0.02432 8.2851318,9.5485096 0 0 1 0.08098,-0.02332 8.2851318,9.5485096 0 0 1 0.08123,-0.02257 8.2851318,9.5485096 0 0 1 0.08148,-0.02156 8.2851318,9.5485096 0 0 1 0.08148,-0.02056 8.2851318,9.5485096 0 0 1 0.08173,-0.01956 8.2851318,9.5485096 0 0 1 0.08198,-0.01881 8.2851318,9.5485096 0 0 1 0.08198,-0.01755 8.2851318,9.5485096 0 0 1 0.08224,-0.0168 8.2851318,9.5485096 0 0 1 0.08224,-0.01579 8.2851318,9.5485096 0 0 1 0.08249,-0.01479 8.2851318,9.5485096 0 0 1 0.08274,-0.01404 8.2851318,9.5485096 0 0 1 0.08274,-0.01278 8.2851318,9.5485096 0 0 1 0.08274,-0.01204 8.2851318,9.5485096 0 0 1 0.08299,-0.01103 8.2851318,9.5485096 0 0 1 0.08299,-0.01003 8.2851318,9.5485096 0 0 1 0.08324,-0.009 8.2851318,9.5485096 0 0 1 0.08299,-0.0083 8.2851318,9.5485096 0 0 1 0.08324,-0.007 8.2851318,9.5485096 0 0 1 0.08349,-0.0063 8.2851318,9.5485096 0 0 1 0.08324,-0.0053 8.2851318,9.5485096 0 0 1 0.08349,-0.0043 8.2851318,9.5485096 0 0 1 0.08349,-0.0033 8.2851318,9.5485096 0 0 1 0.08349,-0.0023 8.2851318,9.5485096 0 0 1 0.08349,-0.0013 8.2851318,9.5485096 0 0 1 0.07346,-4.86e-4 8.2851318,9.5485096 0 0 1 0.08349,4.86e-4 8.2851318,9.5485096 0 0 1 0.08349,0.0015 8.2851318,9.5485096 0 0 1 0.08349,0.0025 8.2851318,9.5485096 0 0 1 0.08349,0.0033 8.2851318,9.5485096 0 0 1 0.08349,0.0043 8.2851318,9.5485096 0 0 1 0.08324,0.0055 8.2851318,9.5485096 0 0 1 0.08324,0.0063 8.2851318,9.5485096 0 0 1 0.08324,0.0073 8.2851318,9.5485096 0 0 1 0.08324,0.0083 8.2851318,9.5485096 0 0 1 0.08324,0.009 8.2851318,9.5485096 0 0 1 0.08299,0.01028 8.2851318,9.5485096 0 0 1 0.08299,0.01103 8.2851318,9.5485096 0 0 1 0.08274,0.01204 8.2851318,9.5485096 0 0 1 0.08274,0.01304 8.2851318,9.5485096 0 0 1 0.08249,0.01404 8.2851318,9.5485096 0 0 1 0.08249,0.01505 8.2851318,9.5485096 0 0 1 0.08249,0.01604 8.2851318,9.5485096 0 0 1 0.08198,0.0168 8.2851318,9.5485096 0 0 1 0.08224,0.0178 8.2851318,9.5485096 0 0 1 0.08173,0.0188 8.2851318,9.5485096 0 0 1 0.08173,0.01981 8.2851318,9.5485096 0 0 1 0.08148,0.02056 8.2851318,9.5485096 0 0 1 0.08148,0.02156 8.2851318,9.5485096 0 0 1 0.08123,0.02257 8.2851318,9.5485096 0 0 1 0.08073,0.02356 8.2851318,9.5485096 0 0 1 0.08098,0.02457 8.2851318,9.5485096 0 0 1 0.08048,0.02532 8.2851318,9.5485096 0 0 1 0.08023,0.02633 8.2851318,9.5485096 0 0 1 0.07998,0.02733 8.2851318,9.5485096 0 0 1 0.07998,0.02808 8.2851318,9.5485096 0 0 1 0.07948,0.02908 8.2851318,9.5485096 0 0 1 0.07923,0.03009 8.2851318,9.5485096 0 0 1 0.07923,0.03084 8.2851318,9.5485096 0 0 1 0.07872,0.03209 8.2851318,9.5485096 0 0 1 0.07847,0.03259 8.2851318,9.5485096 0 0 1 0.07822,0.03384 8.2851318,9.5485096 0 0 1 0.07797,0.0346 8.2851318,9.5485096 0 0 1 0.07747,0.03535 8.2851318,9.5485096 0 0 1 0.07722,0.03635 8.2851318,9.5485096 0 0 1 0.07697,0.03736 8.2851318,9.5485096 0 0 1 0.07672,0.03836 8.2851318,9.5485096 0 0 1 0.07622,0.03886 8.2851318,9.5485096 0 0 1 0.07597,0.04011 8.2851318,9.5485096 0 0 1 0.07572,0.04087 8.2851318,9.5485096 0 0 1 0.07522,0.04162 8.2851318,9.5485096 0 0 1 0.07471,0.04262 8.2851318,9.5485096 0 0 1 0.07471,0.04337 8.2851318,9.5485096 0 0 1 0.07396,0.04438 8.2851318,9.5485096 0 0 1 0.07371,0.04513 8.2851318,9.5485096 0 0 1 0.07346,0.04613 8.2851318,9.5485096 0 0 1 0.07271,0.04688 8.2851318,9.5485096 0 0 1 0.07246,0.04763 8.2851318,9.5485096 0 0 1 0.07221,0.04864 8.2851318,9.5485096 0 0 1 0.07171,0.04939 8.2851318,9.5485096 0 0 1 0.0712,0.05014 8.2851318,9.5485096 0 0 1 0.0707,0.05115 8.2851318,9.5485096 0 0 1 0.0702,0.0519 8.2851318,9.5485096 0 0 1 0.06995,0.05265 8.2851318,9.5485096 0 0 1 0.06945,0.0534 8.2851318,9.5485096 0 0 1 0.06895,0.05441 8.2851318,9.5485096 0 0 1 0.06845,0.05491 8.2851318,9.5485096 0 0 1 0.06794,0.05591 8.2851318,9.5485096 0 0 1 0.06744,0.05666 8.2851318,9.5485096 0 0 1 0.06694,0.05742 8.2851318,9.5485096 0 0 1 0.06644,0.05842 8.2851318,9.5485096 0 0 1 0.06594,0.05892 8.2851318,9.5485096 0 0 1 0.06544,0.05967 8.2851318,9.5485096 0 0 1 0.06494,0.06067 8.2851318,9.5485096 0 0 1 0.06443,0.06117 8.2851318,9.5485096 0 0 1 0.06368,0.06193 8.2851318,9.5485096 0 0 1 0.06343,0.06293 8.2851318,9.5485096 0 0 1 0.06268,0.06343 8.2851318,9.5485096 0 0 1 0.06218,0.06418 8.2851318,9.5485096 0 0 1 0.06168,0.06494 8.2851318,9.5485096 0 0 1 0.06092,0.06569 8.2851318,9.5485096 0 0 1 0.06067,0.06619 8.2851318,9.5485096 0 0 1 0.05967,0.06719 8.2851318,9.5485096 0 0 1 0.05942,0.06769 8.2851318,9.5485096 0 0 1 0.05867,0.06845 8.2851318,9.5485096 0 0 1 0.05817,0.06895 8.2851318,9.5485096 0 0 1 0.05741,0.06995 8.2851318,9.5485096 0 0 1 0.05691,0.0702 8.2851318,9.5485096 0 0 1 0.05616,0.07121 8.2851318,9.5485096 0 0 1 0.05566,0.07171 8.2851318,9.5485096 0 0 1 0.05516,0.07246 8.2851318,9.5485096 0 0 1 0.05441,0.07296 8.2851318,9.5485096 0 0 1 0.05365,0.07371 8.2851318,9.5485096 0 0 1 0.05315,0.07421 8.2851318,9.5485096 0 0 1 0.0524,0.07497 8.2851318,9.5485096 0 0 1 0.05165,0.07547 8.2851318,9.5485096 0 0 1 0.05115,0.07597 8.2851318,9.5485096 0 0 1 0.05039,0.07672 8.2851318,9.5485096 0 0 1 0.04989,0.07722 8.2851318,9.5485096 0 0 1 0.04914,0.07772 8.2851318,9.5485096 0 0 1 0.04839,0.07848 8.2851318,9.5485096 0 0 1 0.04764,0.07898 8.2851318,9.5485096 0 0 1 0.04713,0.07948 8.2851318,9.5485096 0 0 1 0.04613,0.07998 8.2851318,9.5485096 0 0 1 0.04563,0.08073 8.2851318,9.5485096 0 0 1 0.04513,0.08098 8.2851318,9.5485096 0 0 1 0.04413,0.08173 8.2851318,9.5485096 0 0 1 0.04337,0.08199 8.2851318,9.5485096 0 0 1 0.04287,0.08274 8.2851318,9.5485096 0 0 1 0.04212,0.08299 8.2851318,9.5485096 0 0 1 0.04137,0.08374 8.2851318,9.5485096 0 0 1 0.04037,0.08399 8.2851318,9.5485096 0 0 1 0.03987,0.08449 8.2851318,9.5485096 0 0 1 0.03284,0.07171 37.923362,35.574494 0 0 1 0.367053,-0.149429 10.007191,12.449531 0 0 0 -8.656071,-6.202284 10.007191,12.449531 0 0 0 -0.0198,0 z"
       inkscape:export-xdpi="96"
       inkscape:export-ydpi="96" />
    <path
       id="path861-6-7-6-9"
       style="display:inline;opacity:1;mix-blend-mode:normal;fill:#f5b22c;fill-opacity:0.93;fill-rule:evenodd;stroke:#000000;stroke-width:1.02695;stroke-miterlimit:4;stroke-dasharray:none;stroke-opacity:1"
       d="m 60.968455,19.204016 a 37.923365,35.574498 0 0 0 -37.896662,35.57447 37.923365,35.574498 0 0 0 1.639455,10.345916 c -1.108412,2.466463 -2.178412,4.875165 -3.22199,7.152518 -1.958319,4.383343 -2.975707,9.190933 -2.975785,14.061819 10e-6,17.809511 5.26158,30.442421 21.473828,33.042501 1.328256,0.21302 11.219917,1.15456 11.219917,1.15456 12.03597,0.50868 8.657096,0.43468 13.313172,0.43475 3.375086,-3e-5 14.854516,-0.1622 17.168989,-0.70879 10.930518,-2.60362 27.495021,-20.312027 27.912041,-37.742721 -2e-5,-4.94143 -0.7637,-9.834765 -2.2477,-14.402303 -2.9699,-9.405723 -6.24903,-17.368321 -10.115755,-23.810991 -3.9e-5,-6.3e-5 3.4e-5,-1.31e-4 0,-2.57e-4 a 37.923365,35.574498 0 0 0 -36.242927,-25.101479 37.923365,35.574498 0 0 0 -0.02659,0 z"
       inkscape:export-xdpi="96"
       inkscape:export-ydpi="96" />
    <path
       id="path1123"
       style="display:inline;opacity:0.92;mix-blend-mode:normal;fill:#ffffff;fill-opacity:0.988235;fill-rule:evenodd;stroke:none;stroke-width:1.03835;stroke-miterlimit:4;stroke-dasharray:none;stroke-opacity:1"
       d="m 40.928456,25.096098 a 14.145106,17.003538 53.268459 0 0 -0.0063,0.05798 14.145106,17.003538 53.268459 0 0 -0.0119,0.11621 14.145106,17.003538 53.268459 0 0 -0.01107,0.116202 14.145106,17.003538 53.268459 0 0 -0.01005,0.116191 14.145106,17.003538 53.268459 0 0 -0.009,0.116181 14.145106,17.003538 53.268459 0 0 -0.0083,0.115922 14.145106,17.003538 53.268459 0 0 -0.0072,0.115912 14.145106,17.003538 53.268459 0 0 -0.0062,0.115902 14.145106,17.003538 53.268459 0 0 -0.0055,0.115645 14.145106,17.003538 53.268459 0 0 -0.0046,0.115633 14.145106,17.003538 53.268459 0 0 -0.0036,0.115375 14.145106,17.003538 53.268459 0 0 -0.0027,0.115363 14.145106,17.003538 53.268459 0 0 -0.0016,0.115104 14.145106,17.003538 53.268459 0 0 -6.79e-4,0.114843 14.145106,17.003538 53.268459 0 0 1.79e-4,0.115083 14.145106,17.003538 53.268459 0 0 0.0013,0.114573 14.145106,17.003538 53.268459 0 0 0.0022,0.114563 14.145106,17.003538 53.268459 0 0 0.0032,0.114303 14.145106,17.003538 53.268459 0 0 0.0042,0.114291 14.145106,17.003538 53.268459 0 0 0.0051,0.11378 14.145106,17.003538 53.268459 0 0 0.0061,0.113772 14.145106,17.003538 53.268459 0 0 0.0068,0.113763 14.145106,17.003538 53.268459 0 0 0.0079,0.113251 14.145106,17.003538 53.268459 0 0 0.0086,0.113244 14.145106,17.003538 53.268459 0 0 0.0096,0.112981 14.145106,17.003538 53.268459 0 0 0.01062,0.112722 14.145106,17.003538 53.268459 0 0 0.0114,0.112463 14.145106,17.003538 53.268459 0 0 0.01266,0.112199 14.145106,17.003538 53.268459 0 0 0.0132,0.111943 14.145106,17.003538 53.268459 0 0 0.01446,0.111679 14.145106,17.003538 53.268459 0 0 0.01523,0.111422 14.145106,17.003538 53.268459 0 0 0.01626,0.11141 14.145106,17.003538 53.268459 0 0 0.01703,0.110901 14.145106,17.003538 53.268459 0 0 0.01805,0.110639 14.145106,17.003538 53.268459 0 0 0.01907,0.110379 14.145106,17.003538 53.268459 0 0 0.0198,0.10987 14.145106,17.003538 53.268459 0 0 0.02087,0.109859 14.145106,17.003538 53.268459 0 0 0.02189,0.109347 14.145106,17.003538 53.268459 0 0 0.02266,0.10934 14.145106,17.003538 53.268459 0 0 0.02363,0.108828 14.145106,17.003538 53.268459 0 0 0.0247,0.108317 14.145106,17.003538 53.268459 0 0 0.02548,0.108307 14.145106,17.003538 53.268459 0 0 0.02649,0.107797 14.145106,17.003538 53.268459 0 0 0.02728,0.107537 14.145106,17.003538 53.268459 0 0 0.02829,0.107027 14.145106,17.003538 53.268459 0 0 0.02907,0.106766 14.145106,17.003538 53.268459 0 0 0.03009,0.106506 14.145106,17.003538 53.268459 0 0 0.03111,0.105995 14.145106,17.003538 53.268459 0 0 0.03189,0.105735 14.145106,17.003538 53.268459 0 0 0.03285,0.105225 14.145106,17.003538 53.268459 0 0 0.03364,0.104965 14.145106,17.003538 53.268459 0 0 0.03466,0.104454 14.145106,17.003538 53.268459 0 0 0.03567,0.104192 14.145106,17.003538 53.268459 0 0 0.03621,0.103686 14.145106,17.003538 53.268459 0 0 0.03748,0.103172 14.145106,17.003538 53.268459 0 0 0.03825,0.102911 14.145106,17.003538 53.268459 0 0 0.03897,0.102404 14.145106,17.003538 53.268459 0 0 0.03999,0.101894 14.145106,17.003538 53.268459 0 0 0.04106,0.10163 14.145106,17.003538 53.268459 0 0 0.04179,0.101122 14.145106,17.003538 53.268459 0 0 0.04257,0.100613 14.145106,17.003538 53.268459 0 0 0.04359,0.10035 14.145106,17.003538 53.268459 0 0 0.04436,0.09959 14.145106,17.003538 53.268459 0 0 0.04539,0.09933 14.145106,17.003538 53.268459 0 0 0.04616,0.09882 14.145106,17.003538 53.268459 0 0 0.04718,0.09831 14.145106,17.003538 53.268459 0 0 0.04791,0.09805 14.145106,17.003538 53.268459 0 0 0.04867,0.09729 14.145106,17.003538 53.268459 0 0 0.04969,0.09678 14.145106,17.003538 53.268459 0 0 0.05047,0.09652 14.145106,17.003538 53.268459 0 0 0.05148,0.09576 14.145106,17.003538 53.268459 0 0 0.05199,0.09525 14.145106,17.003538 53.268459 0 0 0.05327,0.09499 14.145106,17.003538 53.268459 0 0 0.05378,0.09423 14.145106,17.003538 53.268459 0 0 0.0548,0.09372 14.145106,17.003538 53.268459 0 0 0.05556,0.09346 14.145106,17.003538 53.268459 0 0 0.05658,0.0927 14.145106,17.003538 53.268459 0 0 0.05709,0.09194 14.145106,17.003538 53.268459 0 0 0.05811,0.09168 14.145106,17.003538 53.268459 0 0 0.05913,0.09117 14.145106,17.003538 53.268459 0 0 0.05963,0.09041 14.145106,17.003538 53.268459 0 0 0.06065,0.0899 14.145106,17.003538 53.268459 0 0 0.06141,0.08939 14.145106,17.003538 53.268459 0 0 0.06218,0.08863 14.145106,17.003538 53.268459 0 0 0.06294,0.08837 14.145106,17.003538 53.268459 0 0 0.06396,0.08761 14.145106,17.003538 53.268459 0 0 0.06446,0.08685 14.145106,17.003538 53.268459 0 0 0.06549,0.08659 14.145106,17.003538 53.268459 0 0 0.06624,0.08558 14.145106,17.003538 53.268459 0 0 0.06702,0.08532 14.145106,17.003538 53.268459 0 0 0.06777,0.08456 14.145106,17.003538 53.268459 0 0 0.06854,0.08405 14.145106,17.003538 53.268459 0 0 0.06956,0.08329 14.145106,17.003538 53.268459 0 0 0.07007,0.08278 14.145106,17.003538 53.268459 0 0 0.07082,0.08202 14.145106,17.003538 53.268459 0 0 0.07185,0.08151 14.145106,17.003538 53.268459 0 0 0.07234,0.08075 14.145106,17.003538 53.268459 0 0 0.07311,0.07999 14.145106,17.003538 53.268459 0 0 0.07413,0.07948 14.145106,17.003538 53.268459 0 0 0.07463,0.07897 14.145106,17.003538 53.268459 0 0 0.07541,0.07822 14.145106,17.003538 53.268459 0 0 0.07615,0.07745 14.145106,17.003538 53.268459 0 0 0.07693,0.07695 14.145106,17.003538 53.268459 0 0 0.07768,0.07619 14.145106,17.003538 53.268459 0 0 0.07845,0.07542 14.145106,17.003538 53.268459 0 0 0.07921,0.07467 14.145106,17.003538 53.268459 0 0 0.07972,0.07416 14.145106,17.003538 53.268459 0 0 0.08047,0.0734 14.145106,17.003538 53.268459 0 0 0.08124,0.07289 14.145106,17.003538 53.268459 0 0 0.082,0.07188 14.145106,17.003538 53.268459 0 0 0.08276,0.07137 14.145106,17.003538 53.268459 0 0 0.08327,0.07061 14.145106,17.003538 53.268459 0 0 0.08402,0.06985 14.145106,17.003538 53.268459 0 0 0.08479,0.06934 14.145106,17.003538 53.268459 0 0 0.08529,0.06833 14.145106,17.003538 53.268459 0 0 0.08632,0.06782 14.145106,17.003538 53.268459 0 0 0.08656,0.06682 14.145106,17.003538 53.268459 0 0 0.08758,0.06631 14.145106,17.003538 53.268459 0 0 0.08809,0.06555 14.145106,17.003538 53.268459 0 0 0.08859,0.06479 14.145106,17.003538 53.268459 0 0 0.08935,0.06403 14.145106,17.003538 53.268459 0 0 0.09011,0.06327 14.145106,17.003538 53.268459 0 0 0.09062,0.06251 14.145106,17.003538 53.268459 0 0 0.09137,0.06175 14.145106,17.003538 53.268459 0 0 0.09188,0.061 14.145106,17.003538 53.268459 0 0 0.09239,0.06049 14.145106,17.003538 53.268459 0 0 0.09315,0.05948 14.145106,17.003538 53.268459 0 0 0.09391,0.05872 14.145106,17.003538 53.268459 0 0 0.09441,0.05771 14.145106,17.003538 53.268459 0 0 0.09492,0.0572 14.145106,17.003538 53.268459 0 0 0.09568,0.05645 14.145106,17.003538 53.268459 0 0 0.09593,0.05569 14.145106,17.003538 53.268459 0 0 0.09695,0.05468 14.145106,17.003538 53.268459 0 0 0.09718,0.05417 14.145106,17.003538 53.268459 0 0 0.09796,0.05316 14.145106,17.003538 53.268459 0 0 0.09846,0.0524 14.145106,17.003538 53.268459 0 0 0.09897,0.05165 14.145106,17.003538 53.268459 0 0 0.09972,0.05089 14.145106,17.003538 53.268459 0 0 0.09997,0.04988 14.145106,17.003538 53.268459 0 0 0.100736,0.04937 14.145106,17.003538 53.268459 0 0 0.101231,0.04836 14.145106,17.003538 53.268459 0 0 0.101745,0.04761 14.145106,17.003538 53.268459 0 0 0.10224,0.0466 14.145106,17.003538 53.268459 0 0 0.102745,0.0461 14.145106,17.003538 53.268459 0 0 0.103264,0.04509 14.145106,17.003538 53.268459 0 0 0.103754,0.04433 14.145106,17.003538 53.268459 0 0 0.104268,0.04333 14.145106,17.003538 53.268459 0 0 0.10502,0.04281 14.145106,17.003538 53.268459 0 0 0.105272,0.0418 14.145106,17.003538 53.268459 0 0 0.105767,0.0408 14.145106,17.003538 53.268459 0 0 0.106291,0.04029 14.145106,17.003538 53.268459 0 0 0.10652,0.03929 14.145106,17.003538 53.268459 0 0 0.107285,0.03828 14.145106,17.003538 53.268459 0 0 0.107534,0.03777 14.145106,17.003538 53.268459 0 0 0.108042,0.03676 14.145106,17.003538 53.268459 0 0 0.108538,0.03576 14.145106,17.003538 53.268459 0 0 0.109047,0.035 14.145106,17.003538 53.268459 0 0 4.8e-4,2.46e-4 14.145106,17.003538 53.268459 0 0 0.109299,0.03424 14.145106,17.003538 53.268459 0 0 0.109799,0.03323 14.145106,17.003538 53.268459 0 0 0.110299,0.03248 14.145106,17.003538 53.268459 0 0 0.110794,0.03172 14.145106,17.003538 53.268459 0 0 0.111065,0.03071 14.145106,17.003538 53.268459 0 0 0.111298,0.02996 14.145106,17.003538 53.268459 0 0 0.11205,0.02895 14.145106,17.003538 53.268459 0 0 0.112051,0.02819 14.145106,17.003538 53.268459 0 0 0.112816,0.02718 14.145106,17.003538 53.268459 0 0 0.112798,0.02644 14.145106,17.003538 53.268459 0 0 0.113564,0.02567 14.145106,17.003538 53.268459 0 0 0.113549,0.02467 14.145106,17.003538 53.268459 0 0 0.114316,0.02366 14.145106,17.003538 53.268459 0 0 0.114296,0.02316 14.145106,17.003538 53.268459 0 0 0.114826,0.0219 14.145106,17.003538 53.268459 0 0 0.115048,0.02115 14.145106,17.003538 53.268459 0 0 0.115558,0.02039 14.145106,17.003538 53.268459 0 0 0.115544,0.01939 14.145106,17.003538 53.268459 0 0 0.116057,0.01863 14.145106,17.003538 53.268459 0 0 0.116553,0.01762 14.145106,17.003538 53.268459 0 0 0.116552,0.01662 14.145106,17.003538 53.268459 0 0 0.117058,0.01586 14.145106,17.003538 53.268459 0 0 0.11729,0.0151 14.145106,17.003538 53.268459 0 0 0.117552,0.0141 14.145106,17.003538 53.268459 0 0 0.117784,0.01309 14.145106,17.003538 53.268459 0 0 0.118047,0.01234 14.145106,17.003538 53.268459 0 0 0.118285,0.01158 14.145106,17.003538 53.268459 0 0 0.118527,0.01058 14.145106,17.003538 53.268459 0 0 0.118789,0.0096 14.145106,17.003538 53.268459 0 0 0.119022,0.0088 14.145106,17.003538 53.268459 0 0 0.119275,0.0078 14.145106,17.003538 53.268459 0 0 0.119526,0.007 14.145106,17.003538 53.268459 0 0 0.119775,0.0061 14.145106,17.003538 53.268459 0 0 0.120007,0.0051 14.145106,17.003538 53.268459 0 0 0.120011,0.0043 14.145106,17.003538 53.268459 0 0 0.120512,0.0035 14.145106,17.003538 53.268459 0 0 0.120502,0.0026 14.145106,17.003538 53.268459 0 0 0.120492,0.0016 14.145106,17.003538 53.268459 0 0 0.120997,7.76e-4 14.145106,17.003538 53.268459 0 0 0.120977,-2.05e-4 14.145106,17.003538 53.268459 0 0 0.121244,-10e-4 14.145106,17.003538 53.268459 0 0 0.121477,-0.002 14.145106,17.003538 53.268459 0 0 0.121472,-0.0028 14.145106,17.003538 53.268459 0 0 0.121463,-0.0038 14.145106,17.003538 53.268459 0 0 0.121967,-0.0048 14.145106,17.003538 53.268459 0 0 0.121705,-0.0055 14.145106,17.003538 53.268459 0 0 0.122205,-0.0065 14.145106,17.003538 53.268459 0 0 0.121928,-0.0073 14.145106,17.003538 53.268459 0 0 0.122185,-0.0083 14.145106,17.003538 53.268459 0 0 0.122448,-0.009 14.145106,17.003538 53.268459 0 0 0.122413,-0.01002 14.145106,17.003538 53.268459 0 0 0.122423,-0.01078 14.145106,17.003538 53.268459 0 0 0.122652,-0.01178 14.145106,17.003538 53.268459 0 0 0.122651,-0.01278 14.145106,17.003538 53.268459 0 0 0.122641,-0.01354 14.145106,17.003538 53.268459 0 0 0.122632,-0.01454 14.145106,17.003538 53.268459 0 0 0.122884,-0.01529 14.145106,17.003538 53.268459 0 0 0.122889,-0.01604 14.145106,17.003538 53.268459 0 0 0.122855,-0.01729 14.145106,17.003538 53.268459 0 0 0.12286,-0.0178 14.145106,17.003538 53.268459 0 0 0.12284,-0.01905 14.145106,17.003538 53.268459 0 0 0.12284,-0.01955 14.145106,17.003538 53.268459 0 0 0.122821,-0.0208 14.145106,17.003538 53.268459 0 0 0.123078,-0.02131 14.145106,17.003538 53.268459 0 0 0.122807,-0.02256 14.145106,17.003538 53.268459 0 0 0.122806,-0.02306 14.145106,17.003538 53.268459 0 0 0.122787,-0.02432 14.145106,17.003538 53.268459 0 0 0.122782,-0.02481 14.145106,17.003538 53.268459 0 0 0.122768,-0.02607 14.145106,17.003538 53.268459 0 0 0.122758,-0.02657 14.145106,17.003538 53.268459 0 0 0.122753,-0.02783 14.145106,17.003538 53.268459 0 0 0.122496,-0.02833 14.145106,17.003538 53.268459 0 0 0.122481,-0.02933 14.145106,17.003538 53.268459 0 0 0.122467,-0.03033 14.145106,17.003538 53.268459 0 0 0.122467,-0.03108 14.145106,17.003538 53.268459 0 0 0.1222,-0.03184 14.145106,17.003538 53.268459 0 0 0.122185,-0.03283 14.145106,17.003538 53.268459 0 0 0.122181,-0.03358 14.145106,17.003538 53.268459 0 0 0.121913,-0.03459 14.145106,17.003538 53.268459 0 0 0.121652,-0.03533 14.145106,17.003538 53.268459 0 0 0.121899,-0.03634 14.145106,17.003538 53.268459 0 0 0.121375,-0.03709 14.145106,17.003538 53.268459 0 0 0.121623,-0.03785 14.145106,17.003538 53.268459 0 0 0.121108,-0.03884 14.145106,17.003538 53.268459 0 0 0.121079,-0.03959 14.145106,17.003538 53.268459 0 0 0.121094,-0.04035 14.145106,17.003538 53.268459 0 0 0.120813,-0.04135 14.145106,17.003538 53.268459 0 0 0.120569,-0.04209 14.145106,17.003538 53.268459 0 0 0.120279,-0.04284 14.145106,17.003538 53.268459 0 0 0.120284,-0.04384 14.145106,17.003538 53.268459 0 0 0.120011,-0.0446 14.145106,17.003538 53.268459 0 0 0.119765,-0.04534 14.145106,17.003538 53.268459 0 0 0.119735,-0.04635 14.145106,17.003538 53.268459 0 0 0.119478,-0.0471 14.145106,17.003538 53.268459 0 0 0.118954,-0.04785 14.145106,17.003538 53.268459 0 0 0.118945,-0.0486 14.145106,17.003538 53.268459 0 0 0.118687,-0.04959 14.145106,17.003538 53.268459 0 0 0.118425,-0.05035 14.145106,17.003538 53.268459 0 0 0.118411,-0.0511 14.145106,17.003538 53.268459 0 0 0.117892,-0.05185 14.145106,17.003538 53.268459 0 0 0.11762,-0.05285 14.145106,17.003538 53.268459 0 0 0.117358,-0.0536 14.145106,17.003538 53.268459 0 0 0.117105,-0.05434 14.145106,17.003538 53.268459 0 0 0.116839,-0.0551 14.145106,17.003538 53.268459 0 0 0.116558,-0.05584 14.145106,17.003538 53.268459 0 0 0.116052,-0.05659 14.145106,17.003538 53.268459 0 0 0.116039,-0.05759 14.145106,17.003538 53.268459 0 0 0.115514,-0.05809 14.145106,17.003538 53.268459 0 0 0.115257,-0.05909 14.145106,17.003538 53.268459 0 0 0.114986,-0.05959 14.145106,17.003538 53.268459 0 0 0.114471,-0.06059 14.145106,17.003538 53.268459 0 0 0.114204,-0.06134 14.145106,17.003538 53.268459 0 0 0.113943,-0.06209 14.145106,17.003538 53.268459 0 0 0.113675,-0.06284 14.145106,17.003538 53.268459 0 0 0.113156,-0.06358 14.145106,17.003538 53.268459 0 0 0.112638,-0.06433 14.145106,17.003538 53.268459 0 0 0.112365,-0.06508 14.145106,17.003538 53.268459 0 0 0.112113,-0.06583 14.145106,17.003538 53.268459 0 0 0.111847,-0.06658 14.145106,17.003538 53.268459 0 0 0.111065,-0.06707 14.145106,17.003538 53.268459 0 0 0.110808,-0.06807 14.145106,17.003538 53.268459 0 0 0.110537,-0.06882 14.145106,17.003538 53.268459 0 0 0.110017,-0.06932 14.145106,17.003538 53.268459 0 0 0.109503,-0.07032 14.145106,17.003538 53.268459 0 0 0.109231,-0.07081 14.145106,17.003538 53.268459 0 0 0.108722,-0.07156 14.145106,17.003538 53.268459 0 0 0.10845,-0.07231 14.145106,17.003538 53.268459 0 0 0.107689,-0.07281 14.145106,17.003538 53.268459 0 0 0.107397,-0.0738 14.145106,17.003538 53.268459 0 0 0.106898,-0.0743 14.145106,17.003538 53.268459 0 0 0.106631,-0.07505 14.145106,17.003538 53.268459 0 0 0.105854,-0.07579 14.145106,17.003538 53.268459 0 0 0.105588,-0.07654 14.145106,17.003538 53.268459 0 0 0.105069,-0.07704 14.145106,17.003538 53.268459 0 0 0.104554,-0.07779 14.145106,17.003538 53.268459 0 0 0.10403,-0.07828 14.145106,17.003538 53.268459 0 0 0.103511,-0.07903 14.145106,17.003538 53.268459 0 0 0.102997,-0.07978 14.145106,17.003538 53.268459 0 0 0.102464,-0.08052 14.145106,17.003538 53.268459 0 0 0.101963,-0.08102 14.145106,17.003538 53.268459 0 0 0.10144,-0.08177 14.145106,17.003538 53.268459 0 0 0.10091,-0.08226 14.145106,17.003538 53.268459 0 0 0.100406,-0.08276 14.145106,17.003538 53.268459 0 0 0.09986,-0.08376 14.145106,17.003538 53.268459 0 0 0.09937,-0.084 14.145106,17.003538 53.268459 0 0 0.09858,-0.085 14.145106,17.003538 53.268459 0 0 0.09831,-0.08525 14.145106,17.003538 53.268459 0 0 0.09755,-0.08624 14.145106,17.003538 53.268459 0 0 0.09702,-0.08649 14.145106,17.003538 53.268459 0 0 0.09651,-0.08723 14.145106,17.003538 53.268459 0 0 0.09573,-0.08773 14.145106,17.003538 53.268459 0 0 0.09521,-0.08848 14.145106,17.003538 53.268459 0 0 0.0947,-0.08897 14.145106,17.003538 53.268459 0 0 0.09418,-0.08972 14.145106,17.003538 53.268459 0 0 0.09341,-0.08996 14.145106,17.003538 53.268459 0 0 0.09288,-0.09071 14.145106,17.003538 53.268459 0 0 0.0921,-0.09145 14.145106,17.003538 53.268459 0 0 0.0916,-0.0917 14.145106,17.003538 53.268459 0 0 0.09081,-0.09244 14.145106,17.003538 53.268459 0 0 0.0903,-0.09294 14.145106,17.003538 53.268459 0 0 0.08978,-0.09343 14.145106,17.003538 53.268459 0 0 0.08901,-0.09393 14.145106,17.003538 53.268459 0 0 0.08848,-0.09442 14.145106,17.003538 53.268459 0 0 0.08771,-0.09492 14.145106,17.003538 53.268459 0 0 0.08693,-0.09566 14.145106,17.003538 53.268459 0 0 0.08642,-0.09616 14.145106,17.003538 53.268459 0 0 0.08565,-0.0964 14.145106,17.003538 53.268459 0 0 0.08512,-0.09715 14.145106,17.003538 53.268459 0 0 0.08435,-0.09739 14.145106,17.003538 53.268459 0 0 0.08384,-0.09814 14.145106,17.003538 53.268459 0 0 0.0828,-0.09863 14.145106,17.003538 53.268459 0 0 0.08228,-0.09887 14.145106,17.003538 53.268459 0 0 0.08151,-0.09962 14.145106,17.003538 53.268459 0 0 0.081,-0.09986 14.145106,17.003538 53.268459 0 0 0.08022,-0.100356 14.145106,17.003538 53.268459 0 0 0.07946,-0.10085 14.145106,17.003538 53.268459 0 0 0.07866,-0.101343 14.145106,17.003538 53.268459 0 0 0.07791,-0.101587 14.145106,17.003538 53.268459 0 0 0.07738,-0.102333 14.145106,17.003538 53.268459 0 0 0.07661,-0.102577 14.145106,17.003538 53.268459 0 0 0.07559,-0.102815 14.145106,17.003538 53.268459 0 0 0.07507,-0.103563 14.145106,17.003538 53.268459 0 0 0.07429,-0.103808 14.145106,17.003538 53.268459 0 0 0.07377,-0.104302 14.145106,17.003538 53.268459 0 0 0.07274,-0.104543 14.145106,17.003538 53.268459 0 0 0.07198,-0.105035 14.145106,17.003538 53.268459 0 0 0.07119,-0.105531 14.145106,17.003538 53.268459 0 0 0.07069,-0.105775 14.145106,17.003538 53.268459 0 0 0.06965,-0.106265 14.145106,17.003538 53.268459 0 0 0.06888,-0.10651 14.145106,17.003538 53.268459 0 0 0.06811,-0.106753 14.145106,17.003538 53.268459 0 0 0.0676,-0.107247 14.145106,17.003538 53.268459 0 0 0.06656,-0.107741 14.145106,17.003538 53.268459 0 0 0.06579,-0.107982 14.145106,17.003538 53.268459 0 0 0.06502,-0.108225 14.145106,17.003538 53.268459 0 0 0.06399,-0.108717 14.145106,17.003538 53.268459 0 0 0.06348,-0.108961 14.145106,17.003538 53.268459 0 0 0.0627,-0.109204 14.145106,17.003538 53.268459 0 0 0.06168,-0.109445 14.145106,17.003538 53.268459 0 0 0.06091,-0.109938 14.145106,17.003538 53.268459 0 0 0.06012,-0.110182 14.145106,17.003538 53.268459 0 0 0.05936,-0.110425 14.145106,17.003538 53.268459 0 0 0.05858,-0.110917 14.145106,17.003538 53.268459 0 0 0.05756,-0.110907 14.145106,17.003538 53.268459 0 0 0.05704,-0.111404 14.145106,17.003538 53.268459 0 1 0,-2.5e-4 14.145106,17.003538 53.268459 0 0 0.05601,-0.111645 14.145106,17.003538 53.268459 0 0 0.05524,-0.111885 14.145106,17.003538 53.268459 0 0 0.05421,-0.112127 14.145106,17.003538 53.268459 0 0 0.05344,-0.112372 14.145106,17.003538 53.268459 0 0 0.05268,-0.112361 14.145106,17.003538 53.268459 0 0 0.0519,-0.112855 14.145106,17.003538 53.268459 0 0 0.05088,-0.113095 14.145106,17.003538 53.268459 0 0 0.04986,-0.113087 14.145106,17.003538 53.268459 0 0 0.04928,-0.113582 14.145106,17.003538 53.268459 0 0 0.04832,-0.113572 14.145106,17.003538 53.268459 0 0 0.0475,-0.113813 14.145106,17.003538 53.268459 0 0 0.04648,-0.114055 14.145106,17.003538 53.268459 0 0 0.04575,-0.114297 14.145106,17.003538 53.268459 0 0 0.04468,-0.114537 14.145106,17.003538 53.268459 0 0 0.04391,-0.114529 14.145106,17.003538 53.268459 0 0 0.04318,-0.114772 14.145106,17.003538 53.268459 0 0 0.04211,-0.114762 14.145106,17.003538 53.268459 0 0 0.04138,-0.115256 14.145106,17.003538 53.268459 0 0 0.04037,-0.115245 14.145106,17.003538 53.268459 0 0 0.03954,-0.115238 14.145106,17.003538 53.268459 0 0 0.03857,-0.115478 14.145106,17.003538 53.268459 0 0 0.0377,-0.115721 14.145106,17.003538 53.268459 0 0 0.03697,-0.115714 14.145106,17.003538 53.268459 0 0 0.03595,-0.115704 14.145106,17.003538 53.268459 0 0 0.03493,-0.115942 14.145106,17.003538 53.268459 0 0 0.03416,-0.116186 14.145106,17.003538 53.268459 0 0 0.03314,-0.115924 14.145106,17.003538 53.268459 0 0 0.03236,-0.116419 14.145106,17.003538 53.268459 0 0 0.03134,-0.116156 14.145106,17.003538 53.268459 0 0 0.03052,-0.1164 14.145106,17.003538 53.268459 0 0 0.0295,-0.11639 14.145106,17.003538 53.268459 0 0 0.02848,-0.116378 14.145106,17.003538 53.268459 0 0 0.0278,-0.116621 14.145106,17.003538 53.268459 0 0 0.02693,-0.116613 14.145106,17.003538 53.268459 0 0 0.02571,-0.116601 14.145106,17.003538 53.268459 0 0 0.02523,-0.116596 14.145106,17.003538 53.268459 0 0 0.02397,-0.116833 14.145106,17.003538 53.268459 0 0 0.02314,-0.116575 14.145106,17.003538 53.268459 0 0 0.02237,-0.116567 14.145106,17.003538 53.268459 0 0 0.0211,-0.116804 14.145106,17.003538 53.268459 0 0 0.02052,-0.116549 14.145106,17.003538 53.268459 0 0 0.01931,-0.116785 14.145106,17.003538 53.268459 0 0 0.01853,-0.11678 14.145106,17.003538 53.268459 0 0 0.01747,-0.116517 14.145106,17.003538 53.268459 0 0 0.01674,-0.11651 14.145106,17.003538 53.268459 0 0 0.01567,-0.116749 14.145106,17.003538 53.268459 0 0 0.0147,-0.116488 14.145106,17.003538 53.268459 0 0 0.01392,-0.116482 14.145106,17.003538 53.268459 0 0 0.01291,-0.116221 14.145106,17.003538 53.268459 0 0 0.01189,-0.11646 14.145106,17.003538 53.268459 0 0 0.01106,-0.116201 14.145106,17.003538 53.268459 0 0 0.01004,-0.116192 14.145106,17.003538 53.268459 0 0 0.009,-0.116182 14.145106,17.003538 53.268459 0 0 0.0082,-0.115923 14.145106,17.003538 53.268459 0 0 0.0072,-0.115915 14.145106,17.003538 53.268459 0 0 0.0067,-0.115898 14.145106,17.003538 53.268459 0 0 0.0052,-0.115643 14.145106,17.003538 53.268459 0 0 0.0044,-0.115378 14.145106,17.003538 53.268459 0 0 0.0044,-0.115619 14.145106,17.003538 53.268459 0 0 0.0029,-0.115102 14.145106,17.003538 53.268459 0 0 0.0019,-0.11535 14.145106,17.003538 53.268459 0 0 4.85e-4,-0.105069 35.574524,38.77029 89.458251 0 0 -12.013302,-1.623448 35.574524,38.77029 89.458251 0 0 -0.02717,2.96e-4 35.574524,38.77029 89.458251 0 0 -19.950363,5.319038 z"
       inkscape:export-xdpi="96"
       inkscape:export-ydpi="96" />
    <path
       id="path861-6-7"
       style="display:inline;opacity:0.92;mix-blend-mode:normal;fill:#ffffff;fill-opacity:1;fill-rule:evenodd;stroke:none;stroke-width:1.02695;stroke-miterlimit:4;stroke-dasharray:none;stroke-opacity:1"
       d="m 62.478117,47.567311 a 18.071117,17.304391 0 0 0 -11.237723,3.782342 15.761254,15.092531 0 0 0 -9.041175,-2.730075 15.761254,15.092531 0 0 0 -15.761194,15.092526 15.761254,15.092531 0 0 0 6.623743,12.297259 31.716877,29.548513 0 0 0 -8.043314,19.664386 31.716877,29.548513 0 0 0 10.873429,22.271871 c 1.300457,0.40021 2.686465,0.72167 4.164692,0.95875 1.328256,0.21302 11.219921,1.15456 11.219921,1.15456 12.03597,0.50867 8.6571,0.43468 13.313177,0.43474 1.791167,-10e-6 5.861852,-0.0464 9.636883,-0.17099 A 31.716877,29.548513 0 0 0 88.452096,95.673749 31.716877,29.548513 0 0 0 78.018427,73.765681 18.071117,17.304391 0 0 0 80.588046,64.871677 18.071117,17.304391 0 0 0 62.516727,47.567311 a 18.071117,17.304391 0 0 0 -0.03862,0 z"
       inkscape:export-xdpi="96"
       inkscape:export-ydpi="96" />
    <ellipse
       style="opacity:0.92;mix-blend-mode:normal;fill:#3c211c;fill-opacity:1;fill-rule:evenodd;stroke:none;stroke-width:0.949925;stroke-linejoin:round;stroke-miterlimit:4;stroke-dasharray:none;stroke-opacity:1"
       id="path1091"
       cx="50.339668"
       cy="54.04578"
       rx="6.1885848"
       ry="5.1644158"
       inkscape:export-xdpi="96"
       inkscape:export-ydpi="96" />
    <ellipse
       style="opacity:0.92;mix-blend-mode:normal;fill:#3c211c;fill-opacity:1;fill-rule:evenodd;stroke:none;stroke-width:0.485171"
       id="path2302"
       cx="38.154312"
       cy="46.009819"
       rx="4.4928832"
       ry="5.1347232"
       inkscape:export-xdpi="96"
       inkscape:export-ydpi="96" />
    <ellipse
       style="opacity:0.92;mix-blend-mode:normal;fill:#3c211c;fill-opacity:1;fill-rule:evenodd;stroke:none;stroke-width:0.50712"
       id="path2302-3"
       cx="65.811378"
       cy="45.647038"
       rx="4.9190831"
       ry="5.1237497"
       inkscape:export-xdpi="96"
       inkscape:export-ydpi="96" />
    <circle
       style="opacity:0.92;mix-blend-mode:normal;fill:#ffffff;fill-opacity:1;fill-rule:evenodd;stroke:none;stroke-width:0.485171"
       id="path2339"
       cx="37.217178"
       cy="44.10833"
       r="1.9255213"
       inkscape:export-xdpi="96"
       inkscape:export-ydpi="96" />
    <circle
       style="display:inline;opacity:0.92;mix-blend-mode:normal;fill:#ffffff;fill-opacity:1;fill-rule:evenodd;stroke:none;stroke-width:0.485171"
       id="path2339-6"
       cx="64.058235"
       cy="43.813953"
       r="1.9255213"
       inkscape:export-xdpi="96"
       inkscape:export-ydpi="96" />
    <path
       id="path2335-92"
       style="display:inline;opacity:0.92;mix-blend-mode:normal;fill:#b1671f;fill-opacity:0.992157;fill-rule:evenodd;stroke:#000000;stroke-width:1.02695;stroke-linejoin:round;stroke-miterlimit:4;stroke-dasharray:none"
       d="m 77.283558,20.835414 a 8.2851318,9.5485096 0 0 1 0.03285,-0.0717 8.2851318,9.5485096 0 0 1 0.03988,-0.08449 8.2851318,9.5485096 0 0 1 0.04037,-0.08399 8.2851318,9.5485096 0 0 1 0.04138,-0.08374 8.2851318,9.5485096 0 0 1 0.04211,-0.08299 8.2851318,9.5485096 0 0 1 0.04289,-0.08274 8.2851318,9.5485096 0 0 1 0.04337,-0.08199 8.2851318,9.5485096 0 0 1 0.0441,-0.08173 8.2851318,9.5485096 0 0 1 0.04512,-0.08098 8.2851318,9.5485096 0 0 1 0.04565,-0.08073 8.2851318,9.5485096 0 0 1 0.04614,-0.07998 8.2851318,9.5485096 0 0 1 0.04711,-0.07948 8.2851318,9.5485096 0 0 1 0.04764,-0.07898 8.2851318,9.5485096 0 0 1 0.04837,-0.07848 8.2851318,9.5485096 0 0 1 0.04913,-0.07772 8.2851318,9.5485096 0 0 1 0.04989,-0.07722 8.2851318,9.5485096 0 0 1 0.0504,-0.07672 8.2851318,9.5485096 0 0 1 0.05115,-0.07597 8.2851318,9.5485096 0 0 1 0.05165,-0.07547 8.2851318,9.5485096 0 0 1 0.0524,-0.07497 8.2851318,9.5485096 0 0 1 0.05315,-0.07421 8.2851318,9.5485096 0 0 1 0.05366,-0.07371 8.2851318,9.5485096 0 0 1 0.05441,-0.07296 8.2851318,9.5485096 0 0 1 0.05515,-0.07246 8.2851318,9.5485096 0 0 1 0.05566,-0.07171 8.2851318,9.5485096 0 0 1 0.05616,-0.0712 8.2851318,9.5485096 0 0 1 0.05692,-0.0702 8.2851318,9.5485096 0 0 1 0.05741,-0.06995 8.2851318,9.5485096 0 0 1 0.05817,-0.06895 8.2851318,9.5485096 0 0 1 0.05867,-0.06845 8.2851318,9.5485096 0 0 1 0.05942,-0.06769 8.2851318,9.5485096 0 0 1 0.05967,-0.06719 8.2851318,9.5485096 0 0 1 0.06068,-0.06619 8.2851318,9.5485096 0 0 1 0.06092,-0.06569 8.2851318,9.5485096 0 0 1 0.06168,-0.06494 8.2851318,9.5485096 0 0 1 0.06217,-0.06418 8.2851318,9.5485096 0 0 1 0.06268,-0.06343 8.2851318,9.5485096 0 0 1 0.06344,-0.06293 8.2851318,9.5485096 0 0 1 0.06368,-0.06193 8.2851318,9.5485096 0 0 1 0.06444,-0.06118 8.2851318,9.5485096 0 0 1 0.06494,-0.06067 8.2851318,9.5485096 0 0 1 0.06544,-0.05967 8.2851318,9.5485096 0 0 1 0.06594,-0.05892 8.2851318,9.5485096 0 0 1 0.06644,-0.05842 8.2851318,9.5485096 0 0 1 0.06694,-0.05741 8.2851318,9.5485096 0 0 1 0.06744,-0.05666 8.2851318,9.5485096 0 0 1 0.06794,-0.05591 8.2851318,9.5485096 0 0 1 0.06845,-0.05491 8.2851318,9.5485096 0 0 1 0.06895,-0.0544 8.2851318,9.5485096 0 0 1 0.06945,-0.0534 8.2851318,9.5485096 0 0 1 0.06995,-0.05265 8.2851318,9.5485096 0 0 1 0.0702,-0.0519 8.2851318,9.5485096 0 0 1 0.0707,-0.05115 8.2851318,9.5485096 0 0 1 0.0712,-0.05014 8.2851318,9.5485096 0 0 1 0.07171,-0.04939 8.2851318,9.5485096 0 0 1 0.0722,-0.04864 8.2851318,9.5485096 0 0 1 0.07246,-0.04763 8.2851318,9.5485096 0 0 1 0.07271,-0.04688 8.2851318,9.5485096 0 0 1 0.07346,-0.04613 8.2851318,9.5485096 0 0 1 0.07371,-0.04513 8.2851318,9.5485096 0 0 1 0.07396,-0.04438 8.2851318,9.5485096 0 0 1 0.07471,-0.04337 8.2851318,9.5485096 0 0 1 0.07472,-0.04262 8.2851318,9.5485096 0 0 1 0.07522,-0.04162 8.2851318,9.5485096 0 0 1 0.07572,-0.04087 8.2851318,9.5485096 0 0 1 0.07597,-0.04011 8.2851318,9.5485096 0 0 1 0.07621,-0.03886 8.2851318,9.5485096 0 0 1 0.07673,-0.03836 8.2851318,9.5485096 0 0 1 0.07697,-0.03736 8.2851318,9.5485096 0 0 1 0.07722,-0.03635 8.2851318,9.5485096 0 0 1 0.07747,-0.03535 8.2851318,9.5485096 0 0 1 0.07797,-0.0346 8.2851318,9.5485096 0 0 1 0.07822,-0.03385 8.2851318,9.5485096 0 0 1 0.07848,-0.03259 8.2851318,9.5485096 0 0 1 0.07872,-0.03209 8.2851318,9.5485096 0 0 1 0.07923,-0.03084 8.2851318,9.5485096 0 0 1 0.07923,-0.03008 8.2851318,9.5485096 0 0 1 0.07948,-0.02908 8.2851318,9.5485096 0 0 1 0.07998,-0.02808 8.2851318,9.5485096 0 0 1 0.07998,-0.02733 8.2851318,9.5485096 0 0 1 0.08023,-0.02632 8.2851318,9.5485096 0 0 1 0.08048,-0.02532 8.2851318,9.5485096 0 0 1 0.08098,-0.02457 8.2851318,9.5485096 0 0 1 0.08073,-0.02356 8.2851318,9.5485096 0 0 1 0.08124,-0.02257 8.2851318,9.5485096 0 0 1 0.08149,-0.02156 8.2851318,9.5485096 0 0 1 0.08148,-0.02056 8.2851318,9.5485096 0 0 1 0.08174,-0.01981 8.2851318,9.5485096 0 0 1 0.08173,-0.01881 8.2851318,9.5485096 0 0 1 0.08224,-0.0178 8.2851318,9.5485096 0 0 1 0.08199,-0.0168 8.2851318,9.5485096 0 0 1 0.08248,-0.01604 8.2851318,9.5485096 0 0 1 0.08248,-0.01505 8.2851318,9.5485096 0 0 1 0.08249,-0.01404 8.2851318,9.5485096 0 0 1 0.08274,-0.01304 8.2851318,9.5485096 0 0 1 0.08274,-0.01204 8.2851318,9.5485096 0 0 1 0.08298,-0.01103 8.2851318,9.5485096 0 0 1 0.08299,-0.01028 8.2851318,9.5485096 0 0 1 0.08324,-0.009 8.2851318,9.5485096 0 0 1 0.08324,-0.0083 8.2851318,9.5485096 0 0 1 0.08324,-0.0073 8.2851318,9.5485096 0 0 1 0.08324,-0.0063 8.2851318,9.5485096 0 0 1 0.08324,-0.0055 8.2851318,9.5485096 0 0 1 0.08349,-0.0043 8.2851318,9.5485096 0 0 1 0.08349,-0.0033 8.2851318,9.5485096 0 0 1 0.08349,-0.0025 8.2851318,9.5485096 0 0 1 0.08349,-0.0015 8.2851318,9.5485096 0 0 1 0.08349,-4.85e-4 8.2851318,9.5485096 0 0 1 0.07346,4.85e-4 8.2851318,9.5485096 0 0 1 0.08349,0.0013 8.2851318,9.5485096 0 0 1 0.08349,0.0023 8.2851318,9.5485096 0 0 1 0.08349,0.0033 8.2851318,9.5485096 0 0 1 0.08349,0.0043 8.2851318,9.5485096 0 0 1 0.08324,0.0053 8.2851318,9.5485096 0 0 1 0.08349,0.0063 8.2851318,9.5485096 0 0 1 0.08324,0.007 8.2851318,9.5485096 0 0 1 0.08299,0.0083 8.2851318,9.5485096 0 0 1 0.08324,0.009 8.2851318,9.5485096 0 0 1 0.08299,0.01003 8.2851318,9.5485096 0 0 1 0.08298,0.01103 8.2851318,9.5485096 0 0 1 0.08274,0.01204 8.2851318,9.5485096 0 0 1 0.08274,0.01278 8.2851318,9.5485096 0 0 1 0.08274,0.01404 8.2851318,9.5485096 0 0 1 0.08249,0.01479 8.2851318,9.5485096 0 0 1 0.08224,0.01579 8.2851318,9.5485096 0 0 1 0.08223,0.0168 8.2851318,9.5485096 0 0 1 0.08198,0.01755 8.2851318,9.5485096 0 0 1 0.08199,0.0188 8.2851318,9.5485096 0 0 1 0.08173,0.01956 8.2851318,9.5485096 0 0 1 0.08148,0.02056 8.2851318,9.5485096 0 0 1 0.08148,0.02156 8.2851318,9.5485096 0 0 1 0.08123,0.02257 8.2851318,9.5485096 0 0 1 0.08099,0.02332 8.2851318,9.5485096 0 0 1 0.08073,0.02432 8.2851318,9.5485096 0 0 1 0.08048,0.02532 8.2851318,9.5485096 0 0 1 0.08048,0.02632 8.2851318,9.5485096 0 0 1 0.07998,0.02708 8.2851318,9.5485096 0 0 1 0.07998,0.02808 8.2851318,9.5485096 0 0 1 0.07948,0.02883 8.2851318,9.5485096 0 0 1 0.07948,0.03009 8.2851318,9.5485096 0 0 1 0.07898,0.03084 8.2851318,9.5485096 0 0 1 0.07873,0.03159 8.2851318,9.5485096 0 0 1 0.07847,0.03285 8.2851318,9.5485096 0 0 1 0.07848,0.0336 8.2851318,9.5485096 0 0 1 0.07773,0.03435 8.2851318,9.5485096 0 0 1 0.07772,0.03535 8.2851318,9.5485096 0 0 1 0.07722,0.03635 8.2851318,9.5485096 0 0 1 0.07722,0.03736 8.2851318,9.5485096 0 0 1 0.07647,0.03786 8.2851318,9.5485096 0 0 1 0.07647,0.03911 8.2851318,9.5485096 0 0 1 0.07597,0.03987 8.2851318,9.5485096 0 0 1 0.07572,0.04061 8.2851318,9.5485096 0 0 1 0.07522,0.04162 8.2851318,9.5485096 0 0 1 0.07496,0.04262 8.2851318,9.5485096 0 0 1 0.07446,0.04338 8.2851318,9.5485096 0 0 1 0.07421,0.04413 8.2851318,9.5485096 0 0 1 0.07371,0.04513 8.2851318,9.5485096 0 0 1 0.07321,0.04588 8.2851318,9.5485096 0 0 1 0.07295,0.04688 8.2851318,9.5485096 0 0 1 0.07271,0.04739 8.2851318,9.5485096 0 0 1 0.07196,0.04864 8.2851318,9.5485096 0 0 1 0.0717,0.04914 8.2851318,9.5485096 0 0 1 0.07146,0.05014 8.2851318,9.5485096 0 0 1 0.0707,0.05115 8.2851318,9.5485096 0 0 1 0.07045,0.05165 8.2851318,9.5485096 0 0 1 0.06995,0.05265 8.2851318,9.5485096 0 0 1 0.06945,0.0534 8.2851318,9.5485096 0 0 1 0.06895,0.05415 8.2851318,9.5485096 0 0 1 0.06845,0.05491 8.2851318,9.5485096 0 0 1 0.06794,0.05591 8.2851318,9.5485096 0 0 1 0.0677,0.05666 8.2851318,9.5485096 0 0 1 0.06694,0.05716 8.2851318,9.5485096 0 0 1 0.06644,0.05817 8.2851318,9.5485096 0 0 1 0.06619,0.05892 8.2851318,9.5485096 0 0 1 0.06544,0.05967 8.2851318,9.5485096 0 0 1 0.06494,0.06042 8.2851318,9.5485096 0 0 1 0.06443,0.06118 8.2851318,9.5485096 0 0 1 0.06394,0.06193 8.2851318,9.5485096 0 0 1 0.06343,0.06268 8.2851318,9.5485096 0 0 1 0.06268,0.06343 8.2851318,9.5485096 0 0 1 0.06218,0.06418 8.2851318,9.5485096 0 0 1 0.06168,0.06468 8.2851318,9.5485096 0 0 1 0.06118,0.06569 8.2851318,9.5485096 0 0 1 0.06067,0.06619 8.2851318,9.5485096 0 0 1 0.05992,0.06694 8.2851318,9.5485096 0 0 1 0.05917,0.06769 8.2851318,9.5485096 0 0 1 0.05891,0.0682 8.2851318,9.5485096 0 0 1 0.05817,0.0692 8.2851318,9.5485096 0 0 1 0.05741,0.0697 8.2851318,9.5485096 0 0 1 0.05717,0.0702 8.2851318,9.5485096 0 0 1 0.05616,0.0712 8.2851318,9.5485096 0 0 1 0.05566,0.07145 8.2851318,9.5485096 0 0 1 0.05516,0.07246 8.2851318,9.5485096 0 0 1 0.05441,0.07296 8.2851318,9.5485096 0 0 1 0.0539,0.07346 8.2851318,9.5485096 0 0 1 0.05316,0.07421 8.2851318,9.5485096 0 0 1 0.0524,0.07471 8.2851318,9.5485096 0 0 1 0.0519,0.07547 8.2851318,9.5485096 0 0 1 0.05115,0.07597 8.2851318,9.5485096 0 0 1 0.05065,0.07672 8.2851318,9.5485096 0 0 1 0.04989,0.07722 8.2851318,9.5485096 0 0 1 0.04914,0.07772 8.2851318,9.5485096 0 0 1 0.04837,0.07822 8.2851318,9.5485096 0 0 1 0.04789,0.07898 8.2851318,9.5485096 0 0 1 0.04711,0.07948 8.2851318,9.5485096 0 0 1 0.04638,0.07998 8.2851318,9.5485096 0 0 1 0.04565,0.08048 8.2851318,9.5485096 0 0 1 0.04512,0.08098 8.2851318,9.5485096 0 0 1 0.0441,0.08148 8.2851318,9.5485096 0 0 1 0.04362,0.08224 8.2851318,9.5485096 0 0 1 0.04289,0.08249 8.2851318,9.5485096 0 0 1 0.04211,0.08299 8.2851318,9.5485096 0 0 1 0.04139,0.08374 8.2851318,9.5485096 0 0 1 0.04085,0.08399 8.2851318,9.5485096 0 0 1 0.03988,0.08449 8.2851318,9.5485096 0 0 1 0.0391,0.08499 8.2851318,9.5485096 0 0 1 0.03862,0.08525 8.2851318,9.5485096 0 0 1 0.0376,0.086 8.2851318,9.5485096 0 0 1 0.03687,0.08625 8.2851318,9.5485096 0 0 1 0.03634,0.08675 8.2851318,9.5485096 0 0 1 0.03537,0.087 8.2851318,9.5485096 0 0 1 0.03459,0.0875 8.2851318,9.5485096 0 0 1 0.03411,0.088 8.2851318,9.5485096 0 0 1 0.03309,0.08825 8.2851318,9.5485096 0 0 1 0.03236,0.08875 8.2851318,9.5485096 0 0 1 0.03158,0.08901 8.2851318,9.5485096 0 0 1 0.03086,0.08951 8.2851318,9.5485096 0 0 1 0.02984,0.08976 8.2851318,9.5485096 0 0 1 0.02935,0.09001 8.2851318,9.5485096 0 0 1 0.02833,0.09051 8.2851318,9.5485096 0 0 1 0.02785,0.09076 8.2851318,9.5485096 0 0 1 0.02683,0.09126 8.2851318,9.5485096 0 0 1 0.02605,0.09126 8.2851318,9.5485096 0 0 1 0.02533,0.09176 8.2851318,9.5485096 0 0 1 0.02431,0.09201 8.2851318,9.5485096 0 0 1 0.02358,0.09227 8.2851318,9.5485096 0 0 1 0.02305,0.09252 8.2851318,9.5485096 0 0 1 0.02183,0.09276 8.2851318,9.5485096 0 0 1 0.0213,0.09327 8.2851318,9.5485096 0 0 1 0.02033,0.09327 8.2851318,9.5485096 0 0 1 0.0198,0.09352 8.2851318,9.5485096 0 0 1 0.01853,0.09377 8.2851318,9.5485096 0 0 1 0.01805,0.09377 8.2851318,9.5485096 0 0 1 0.01703,0.09427 8.2851318,9.5485096 0 0 1 0.0163,0.09427 8.2851318,9.5485096 0 0 1 0.01553,0.09477 8.2851318,9.5485096 0 0 1 0.01456,0.09452 8.2851318,9.5485096 0 0 1 0.01378,0.09502 8.2851318,9.5485096 0 0 1 0.01305,0.09502 8.2851318,9.5485096 0 0 1 0.01228,0.09527 8.2851318,9.5485096 0 0 1 0.01126,0.09527 8.2851318,9.5485096 0 0 1 0.01053,0.09552 8.2851318,9.5485096 0 0 1 0.0095,0.09553 8.2851318,9.5485096 0 0 1 0.0088,0.09552 8.2851318,9.5485096 0 0 1 0.008,0.09577 8.2851318,9.5485096 0 0 1 0.0073,0.09603 8.2851318,9.5485096 0 0 1 0.0063,0.09577 8.2851318,9.5485096 0 0 1 0.0055,0.09603 8.2851318,9.5485096 0 0 1 0.0044,0.09628 8.2851318,9.5485096 0 0 1 0.0039,0.09602 8.2851318,9.5485096 0 0 1 0.0029,0.09628 8.2851318,9.5485096 0 0 1 0.0019,0.09603 8.2851318,9.5485096 0 0 1 0.0015,0.09628 8.2851318,9.5485096 0 0 1 4.85e-4,0.09628 8.2851318,9.5485096 0 0 1 -2.57e-4,0.08474 8.2851318,9.5485096 0 0 1 -0.0015,0.09628 8.2851318,9.5485096 0 0 1 -0.0019,0.09628 8.2851318,9.5485096 0 0 1 -0.0029,0.09603 8.2851318,9.5485096 0 0 1 -0.0039,0.09627 8.2851318,9.5485096 0 0 1 -0.0044,0.09603 8.2851318,9.5485096 0 0 1 -0.0053,0.09603 8.2851318,9.5485096 0 0 1 -0.0063,0.09602 8.2851318,9.5485096 0 0 1 -0.007,0.09578 8.2851318,9.5485096 0 0 1 -0.008,0.09577 8.2851318,9.5485096 0 0 1 -0.0085,0.09577 8.2851318,9.5485096 0 0 1 -0.0098,0.09553 8.2851318,9.5485096 0 0 1 -0.01029,0.09552 8.2851318,9.5485096 0 0 1 -0.0113,0.09527 8.2851318,9.5485096 0 0 1 -0.01203,0.09527 8.2851318,9.5485096 0 0 1 -0.01281,0.09502 8.2851318,9.5485096 0 0 1 -0.01378,0.09477 8.2851318,9.5485096 0 0 1 -0.01456,0.09477 8.2851318,9.5485096 0 0 1 -0.01528,0.09477 8.2851318,9.5485096 0 0 1 -0.0163,0.09427 8.2851318,9.5485096 0 0 1 -0.01703,0.09427 8.2851318,9.5485096 0 0 1 -0.01781,0.09402 8.2851318,9.5485096 0 0 1 -0.01882,0.09377 8.2851318,9.5485096 0 0 1 -0.01931,0.09352 8.2851318,9.5485096 0 0 1 -0.02033,0.09327 8.2851318,9.5485096 0 0 1 -0.0213,0.09302 8.2851318,9.5485096 0 0 1 -0.02183,0.09302 8.2851318,9.5485096 0 0 1 -0.0228,0.09252 8.2851318,9.5485096 0 0 1 -0.02358,0.09226 8.2851318,9.5485096 0 0 1 -0.02431,0.09201 8.2851318,9.5485096 0 0 1 -0.02508,0.09176 8.2851318,9.5485096 0 0 1 -0.02605,0.09151 8.2851318,9.5485096 0 0 1 -0.02659,0.09101 8.2851318,9.5485096 0 0 1 -0.02756,0.09101 8.2851318,9.5485096 0 0 1 -0.02833,0.09051 8.2851318,9.5485096 0 0 1 -0.02935,0.09001 8.2851318,9.5485096 0 0 1 -0.02984,0.08976 8.2851318,9.5485096 0 0 1 -0.03086,0.08951 8.2851318,9.5485096 0 0 1 -0.03134,0.08926 8.2851318,9.5485096 0 0 1 -0.03236,0.08875 8.2851318,9.5485096 0 0 1 -0.03309,0.08825 8.2851318,9.5485096 0 0 1 -0.03386,0.088 8.2851318,9.5485096 0 0 1 -0.03435,0.0875 8.2851318,9.5485096 0 0 1 -0.03537,0.08725 8.2851318,9.5485096 0 0 1 -0.0361,0.08675 8.2851318,9.5485096 0 0 1 -0.03687,0.08625 8.2851318,9.5485096 0 0 1 -0.03784,0.086 8.2851318,9.5485096 0 0 1 -0.03838,0.08549 8.2851318,9.5485096 0 0 1 -0.03911,0.08499 8.2851318,9.5485096 0 0 1 -0.03959,0.08449 8.2851318,9.5485096 0 0 1 -0.04061,0.08399 8.2851318,9.5485096 0 0 1 -0.04139,0.08374 8.2851318,9.5485096 0 0 1 -0.04211,0.08299 8.2851318,9.5485096 0 0 1 -0.04265,0.08274 8.2851318,9.5485096 0 0 1 -0.04362,0.08224 8.2851318,9.5485096 0 0 1 -0.0441,0.08148 8.2851318,9.5485096 0 0 1 -0.04488,0.08123 8.2851318,9.5485096 0 0 1 -0.04566,0.08048 8.2851318,9.5485096 0 0 1 -0.04638,0.07998 8.2851318,9.5485096 0 0 1 -0.04711,0.07948 8.2851318,9.5485096 0 0 1 -0.04764,0.07898 8.2851318,9.5485096 0 0 1 -0.04386,0.0712 37.923362,35.574494 0 0 0 -14.063323,-10.012461 z"
       inkscape:export-xdpi="96"
       inkscape:export-ydpi="96" />
    <path
       id="path932-0"
       style="display:inline;opacity:0.92;mix-blend-mode:normal;fill:#f7c454;fill-opacity:1;fill-rule:evenodd;stroke:#000000;stroke-width:1.02695;stroke-linejoin:round;stroke-miterlimit:4;stroke-dasharray:none"
       d="m 85.592383,14.483728 a 10.007191,12.449531 0 0 1 9.98739,12.449447 10.007191,12.449531 0 0 1 -1.771077,7.071027 37.923362,35.574494 0 0 0 -2.46181,-3.1563 8.2851318,9.5485096 0 0 0 0.04386,-0.0712 8.2851318,9.5485096 0 0 0 0.04764,-0.07898 8.2851318,9.5485096 0 0 0 0.04711,-0.07948 8.2851318,9.5485096 0 0 0 0.04638,-0.07998 8.2851318,9.5485096 0 0 0 0.04566,-0.08048 8.2851318,9.5485096 0 0 0 0.04488,-0.08123 8.2851318,9.5485096 0 0 0 0.0441,-0.08148 8.2851318,9.5485096 0 0 0 0.04362,-0.08224 8.2851318,9.5485096 0 0 0 0.04265,-0.08274 8.2851318,9.5485096 0 0 0 0.04211,-0.08299 8.2851318,9.5485096 0 0 0 0.04138,-0.08374 8.2851318,9.5485096 0 0 0 0.04061,-0.08399 8.2851318,9.5485096 0 0 0 0.03959,-0.08449 8.2851318,9.5485096 0 0 0 0.03911,-0.08499 8.2851318,9.5485096 0 0 0 0.03838,-0.08549 8.2851318,9.5485096 0 0 0 0.03784,-0.086 8.2851318,9.5485096 0 0 0 0.03687,-0.08625 8.2851318,9.5485096 0 0 0 0.0361,-0.08675 8.2851318,9.5485096 0 0 0 0.03537,-0.08725 8.2851318,9.5485096 0 0 0 0.03435,-0.0875 8.2851318,9.5485096 0 0 0 0.03386,-0.088 8.2851318,9.5485096 0 0 0 0.03309,-0.08825 8.2851318,9.5485096 0 0 0 0.03236,-0.08875 8.2851318,9.5485096 0 0 0 0.03134,-0.08926 8.2851318,9.5485096 0 0 0 0.03086,-0.08951 8.2851318,9.5485096 0 0 0 0.02984,-0.08976 8.2851318,9.5485096 0 0 0 0.02935,-0.09001 8.2851318,9.5485096 0 0 0 0.02833,-0.09051 8.2851318,9.5485096 0 0 0 0.02756,-0.09101 8.2851318,9.5485096 0 0 0 0.02659,-0.09101 8.2851318,9.5485096 0 0 0 0.02605,-0.09151 8.2851318,9.5485096 0 0 0 0.02508,-0.09176 8.2851318,9.5485096 0 0 0 0.02431,-0.09201 8.2851318,9.5485096 0 0 0 0.02358,-0.09226 8.2851318,9.5485096 0 0 0 0.0228,-0.09252 8.2851318,9.5485096 0 0 0 0.02183,-0.09302 8.2851318,9.5485096 0 0 0 0.0213,-0.09302 8.2851318,9.5485096 0 0 0 0.02033,-0.09327 8.2851318,9.5485096 0 0 0 0.01931,-0.09352 8.2851318,9.5485096 0 0 0 0.01882,-0.09377 8.2851318,9.5485096 0 0 0 0.01781,-0.09402 8.2851318,9.5485096 0 0 0 0.01703,-0.09427 8.2851318,9.5485096 0 0 0 0.0163,-0.09427 8.2851318,9.5485096 0 0 0 0.01528,-0.09477 8.2851318,9.5485096 0 0 0 0.01456,-0.09477 8.2851318,9.5485096 0 0 0 0.01378,-0.09477 8.2851318,9.5485096 0 0 0 0.01281,-0.09502 8.2851318,9.5485096 0 0 0 0.01203,-0.09527 8.2851318,9.5485096 0 0 0 0.01126,-0.09527 8.2851318,9.5485096 0 0 0 0.01029,-0.09552 8.2851318,9.5485096 0 0 0 0.0098,-0.09553 8.2851318,9.5485096 0 0 0 0.0085,-0.09577 8.2851318,9.5485096 0 0 0 0.008,-0.09577 8.2851318,9.5485096 0 0 0 0.007,-0.09578 8.2851318,9.5485096 0 0 0 0.0063,-0.09602 8.2851318,9.5485096 0 0 0 0.0053,-0.09603 8.2851318,9.5485096 0 0 0 0.0044,-0.09603 8.2851318,9.5485096 0 0 0 0.0039,-0.09627 8.2851318,9.5485096 0 0 0 0.0029,-0.09603 8.2851318,9.5485096 0 0 0 0.0019,-0.09628 8.2851318,9.5485096 0 0 0 0.0015,-0.09628 8.2851318,9.5485096 0 0 0 2.57e-4,-0.08474 8.2851318,9.5485096 0 0 0 -4.85e-4,-0.09628 8.2851318,9.5485096 0 0 0 -0.0015,-0.09628 8.2851318,9.5485096 0 0 0 -0.0019,-0.09603 8.2851318,9.5485096 0 0 0 -0.0029,-0.09628 8.2851318,9.5485096 0 0 0 -0.0039,-0.09602 8.2851318,9.5485096 0 0 0 -0.0044,-0.09628 8.2851318,9.5485096 0 0 0 -0.0055,-0.09603 8.2851318,9.5485096 0 0 0 -0.0063,-0.09577 8.2851318,9.5485096 0 0 0 -0.0073,-0.09603 8.2851318,9.5485096 0 0 0 -0.008,-0.09577 8.2851318,9.5485096 0 0 0 -0.0088,-0.09552 8.2851318,9.5485096 0 0 0 -0.0095,-0.09553 8.2851318,9.5485096 0 0 0 -0.01053,-0.09552 8.2851318,9.5485096 0 0 0 -0.0113,-0.09527 8.2851318,9.5485096 0 0 0 -0.01228,-0.09527 8.2851318,9.5485096 0 0 0 -0.01305,-0.09502 8.2851318,9.5485096 0 0 0 -0.01378,-0.09502 8.2851318,9.5485096 0 0 0 -0.01456,-0.09452 8.2851318,9.5485096 0 0 0 -0.01553,-0.09477 8.2851318,9.5485096 0 0 0 -0.0163,-0.09427 8.2851318,9.5485096 0 0 0 -0.01703,-0.09427 8.2851318,9.5485096 0 0 0 -0.01805,-0.09377 8.2851318,9.5485096 0 0 0 -0.01853,-0.09377 8.2851318,9.5485096 0 0 0 -0.0198,-0.09352 8.2851318,9.5485096 0 0 0 -0.02033,-0.09327 8.2851318,9.5485096 0 0 0 -0.0213,-0.09327 8.2851318,9.5485096 0 0 0 -0.02183,-0.09276 8.2851318,9.5485096 0 0 0 -0.02305,-0.09252 8.2851318,9.5485096 0 0 0 -0.02358,-0.09227 8.2851318,9.5485096 0 0 0 -0.02431,-0.09201 8.2851318,9.5485096 0 0 0 -0.02533,-0.09176 8.2851318,9.5485096 0 0 0 -0.02605,-0.09126 8.2851318,9.5485096 0 0 0 -0.02683,-0.09126 8.2851318,9.5485096 0 0 0 -0.02785,-0.09076 8.2851318,9.5485096 0 0 0 -0.02833,-0.09051 8.2851318,9.5485096 0 0 0 -0.02935,-0.09001 8.2851318,9.5485096 0 0 0 -0.02984,-0.08976 8.2851318,9.5485096 0 0 0 -0.03086,-0.08951 8.2851318,9.5485096 0 0 0 -0.03159,-0.08901 8.2851318,9.5485096 0 0 0 -0.03236,-0.08875 8.2851318,9.5485096 0 0 0 -0.03309,-0.08825 8.2851318,9.5485096 0 0 0 -0.03411,-0.088 8.2851318,9.5485096 0 0 0 -0.03459,-0.0875 8.2851318,9.5485096 0 0 0 -0.03537,-0.087 8.2851318,9.5485096 0 0 0 -0.03634,-0.08675 8.2851318,9.5485096 0 0 0 -0.03687,-0.08625 8.2851318,9.5485096 0 0 0 -0.0376,-0.086 8.2851318,9.5485096 0 0 0 -0.03862,-0.08525 8.2851318,9.5485096 0 0 0 -0.0391,-0.08499 8.2851318,9.5485096 0 0 0 -0.03988,-0.08449 8.2851318,9.5485096 0 0 0 -0.04085,-0.08399 8.2851318,9.5485096 0 0 0 -0.04139,-0.08374 8.2851318,9.5485096 0 0 0 -0.04211,-0.08299 8.2851318,9.5485096 0 0 0 -0.04289,-0.08249 8.2851318,9.5485096 0 0 0 -0.04362,-0.08224 8.2851318,9.5485096 0 0 0 -0.04415,-0.08148 8.2851318,9.5485096 0 0 0 -0.04512,-0.08098 8.2851318,9.5485096 0 0 0 -0.04561,-0.08048 8.2851318,9.5485096 0 0 0 -0.04638,-0.07998 8.2851318,9.5485096 0 0 0 -0.04711,-0.07948 8.2851318,9.5485096 0 0 0 -0.04789,-0.07898 8.2851318,9.5485096 0 0 0 -0.04837,-0.07822 8.2851318,9.5485096 0 0 0 -0.04914,-0.07772 8.2851318,9.5485096 0 0 0 -0.04989,-0.07722 8.2851318,9.5485096 0 0 0 -0.05064,-0.07672 8.2851318,9.5485096 0 0 0 -0.05115,-0.07597 8.2851318,9.5485096 0 0 0 -0.0519,-0.07547 8.2851318,9.5485096 0 0 0 -0.0524,-0.07471 8.2851318,9.5485096 0 0 0 -0.05315,-0.07421 8.2851318,9.5485096 0 0 0 -0.0539,-0.07346 8.2851318,9.5485096 0 0 0 -0.05441,-0.07296 8.2851318,9.5485096 0 0 0 -0.05516,-0.07246 8.2851318,9.5485096 0 0 0 -0.05566,-0.07145 8.2851318,9.5485096 0 0 0 -0.05616,-0.0712 8.2851318,9.5485096 0 0 0 -0.05716,-0.0702 8.2851318,9.5485096 0 0 0 -0.05741,-0.0697 8.2851318,9.5485096 0 0 0 -0.05817,-0.0692 8.2851318,9.5485096 0 0 0 -0.05892,-0.0682 8.2851318,9.5485096 0 0 0 -0.05917,-0.06769 8.2851318,9.5485096 0 0 0 -0.05992,-0.06694 8.2851318,9.5485096 0 0 0 -0.06067,-0.06619 8.2851318,9.5485096 0 0 0 -0.06118,-0.06569 8.2851318,9.5485096 0 0 0 -0.06167,-0.06468 8.2851318,9.5485096 0 0 0 -0.06218,-0.06418 8.2851318,9.5485096 0 0 0 -0.06268,-0.06343 8.2851318,9.5485096 0 0 0 -0.06343,-0.06268 8.2851318,9.5485096 0 0 0 -0.06394,-0.06193 8.2851318,9.5485096 0 0 0 -0.06443,-0.06118 8.2851318,9.5485096 0 0 0 -0.06494,-0.06042 8.2851318,9.5485096 0 0 0 -0.06544,-0.05967 8.2851318,9.5485096 0 0 0 -0.06619,-0.05892 8.2851318,9.5485096 0 0 0 -0.06644,-0.05817 8.2851318,9.5485096 0 0 0 -0.06694,-0.05716 8.2851318,9.5485096 0 0 0 -0.06769,-0.05666 8.2851318,9.5485096 0 0 0 -0.06795,-0.05591 8.2851318,9.5485096 0 0 0 -0.06844,-0.05491 8.2851318,9.5485096 0 0 0 -0.06895,-0.05415 8.2851318,9.5485096 0 0 0 -0.06945,-0.0534 8.2851318,9.5485096 0 0 0 -0.06995,-0.05265 8.2851318,9.5485096 0 0 0 -0.07045,-0.05165 8.2851318,9.5485096 0 0 0 -0.0707,-0.05115 8.2851318,9.5485096 0 0 0 -0.07146,-0.05014 8.2851318,9.5485096 0 0 0 -0.07171,-0.04914 8.2851318,9.5485096 0 0 0 -0.07196,-0.04864 8.2851318,9.5485096 0 0 0 -0.07271,-0.04739 8.2851318,9.5485096 0 0 0 -0.07296,-0.04688 8.2851318,9.5485096 0 0 0 -0.07321,-0.04588 8.2851318,9.5485096 0 0 0 -0.07371,-0.04513 8.2851318,9.5485096 0 0 0 -0.07421,-0.04413 8.2851318,9.5485096 0 0 0 -0.07446,-0.04337 8.2851318,9.5485096 0 0 0 -0.07496,-0.04262 8.2851318,9.5485096 0 0 0 -0.07522,-0.04162 8.2851318,9.5485096 0 0 0 -0.07572,-0.04061 8.2851318,9.5485096 0 0 0 -0.07596,-0.03987 8.2851318,9.5485096 0 0 0 -0.07647,-0.03912 8.2851318,9.5485096 0 0 0 -0.07647,-0.03786 8.2851318,9.5485096 0 0 0 -0.07722,-0.03736 8.2851318,9.5485096 0 0 0 -0.07722,-0.03635 8.2851318,9.5485096 0 0 0 -0.07772,-0.03535 8.2851318,9.5485096 0 0 0 -0.07772,-0.03435 8.2851318,9.5485096 0 0 0 -0.07848,-0.0336 8.2851318,9.5485096 0 0 0 -0.07848,-0.03285 8.2851318,9.5485096 0 0 0 -0.07872,-0.03159 8.2851318,9.5485096 0 0 0 -0.07898,-0.03084 8.2851318,9.5485096 0 0 0 -0.07948,-0.03009 8.2851318,9.5485096 0 0 0 -0.07948,-0.02883 8.2851318,9.5485096 0 0 0 -0.07998,-0.02808 8.2851318,9.5485096 0 0 0 -0.07998,-0.02708 8.2851318,9.5485096 0 0 0 -0.08048,-0.02632 8.2851318,9.5485096 0 0 0 -0.08048,-0.02532 8.2851318,9.5485096 0 0 0 -0.08073,-0.02432 8.2851318,9.5485096 0 0 0 -0.08098,-0.02332 8.2851318,9.5485096 0 0 0 -0.08123,-0.02257 8.2851318,9.5485096 0 0 0 -0.08149,-0.02156 8.2851318,9.5485096 0 0 0 -0.08148,-0.02056 8.2851318,9.5485096 0 0 0 -0.08174,-0.01956 8.2851318,9.5485096 0 0 0 -0.08198,-0.0188 8.2851318,9.5485096 0 0 0 -0.08198,-0.01755 8.2851318,9.5485096 0 0 0 -0.08224,-0.0168 8.2851318,9.5485096 0 0 0 -0.08224,-0.01579 8.2851318,9.5485096 0 0 0 -0.08248,-0.01479 8.2851318,9.5485096 0 0 0 -0.08274,-0.01404 8.2851318,9.5485096 0 0 0 -0.08274,-0.01278 8.2851318,9.5485096 0 0 0 -0.08274,-0.01204 8.2851318,9.5485096 0 0 0 -0.08298,-0.01103 8.2851318,9.5485096 0 0 0 -0.08299,-0.01003 8.2851318,9.5485096 0 0 0 -0.08324,-0.009 8.2851318,9.5485096 0 0 0 -0.08299,-0.0083 8.2851318,9.5485096 0 0 0 -0.08324,-0.007 8.2851318,9.5485096 0 0 0 -0.08349,-0.0063 8.2851318,9.5485096 0 0 0 -0.08324,-0.0053 8.2851318,9.5485096 0 0 0 -0.08349,-0.0043 8.2851318,9.5485096 0 0 0 -0.08349,-0.0032 8.2851318,9.5485096 0 0 0 -0.08349,-0.0023 8.2851318,9.5485096 0 0 0 -0.08349,-0.0013 8.2851318,9.5485096 0 0 0 -0.07346,-4.85e-4 8.2851318,9.5485096 0 0 0 -0.08349,4.85e-4 8.2851318,9.5485096 0 0 0 -0.08349,0.0015 8.2851318,9.5485096 0 0 0 -0.08349,0.0025 8.2851318,9.5485096 0 0 0 -0.08349,0.0033 8.2851318,9.5485096 0 0 0 -0.08349,0.0043 8.2851318,9.5485096 0 0 0 -0.08324,0.0055 8.2851318,9.5485096 0 0 0 -0.08324,0.0063 8.2851318,9.5485096 0 0 0 -0.08324,0.0073 8.2851318,9.5485096 0 0 0 -0.08324,0.0083 8.2851318,9.5485096 0 0 0 -0.08324,0.009 8.2851318,9.5485096 0 0 0 -0.08299,0.01028 8.2851318,9.5485096 0 0 0 -0.08298,0.01103 8.2851318,9.5485096 0 0 0 -0.08274,0.01204 8.2851318,9.5485096 0 0 0 -0.08274,0.01304 8.2851318,9.5485096 0 0 0 -0.08249,0.01404 8.2851318,9.5485096 0 0 0 -0.08248,0.01505 8.2851318,9.5485096 0 0 0 -0.08249,0.01605 8.2851318,9.5485096 0 0 0 -0.08198,0.0168 8.2851318,9.5485096 0 0 0 -0.08224,0.0178 8.2851318,9.5485096 0 0 0 -0.08173,0.01881 8.2851318,9.5485096 0 0 0 -0.08174,0.01981 8.2851318,9.5485096 0 0 0 -0.08148,0.02056 8.2851318,9.5485096 0 0 0 -0.08149,0.02156 8.2851318,9.5485096 0 0 0 -0.08123,0.02257 8.2851318,9.5485096 0 0 0 -0.08073,0.02356 8.2851318,9.5485096 0 0 0 -0.08098,0.02457 8.2851318,9.5485096 0 0 0 -0.08048,0.02532 8.2851318,9.5485096 0 0 0 -0.08023,0.02632 8.2851318,9.5485096 0 0 0 -0.07998,0.02733 8.2851318,9.5485096 0 0 0 -0.07998,0.02808 8.2851318,9.5485096 0 0 0 -0.07948,0.02908 8.2851318,9.5485096 0 0 0 -0.07923,0.03009 8.2851318,9.5485096 0 0 0 -0.07923,0.03084 8.2851318,9.5485096 0 0 0 -0.07872,0.03209 8.2851318,9.5485096 0 0 0 -0.07848,0.03259 8.2851318,9.5485096 0 0 0 -0.07822,0.03385 8.2851318,9.5485096 0 0 0 -0.07797,0.0346 8.2851318,9.5485096 0 0 0 -0.07748,0.03535 8.2851318,9.5485096 0 0 0 -0.07722,0.03635 8.2851318,9.5485096 0 0 0 -0.07697,0.03736 8.2851318,9.5485096 0 0 0 -0.07672,0.03836 8.2851318,9.5485096 0 0 0 -0.07622,0.03886 8.2851318,9.5485096 0 0 0 -0.07597,0.04011 8.2851318,9.5485096 0 0 0 -0.07572,0.04087 8.2851318,9.5485096 0 0 0 -0.07522,0.04162 8.2851318,9.5485096 0 0 0 -0.07471,0.04262 8.2851318,9.5485096 0 0 0 -0.07472,0.04337 8.2851318,9.5485096 0 0 0 -0.07396,0.04438 8.2851318,9.5485096 0 0 0 -0.07371,0.04513 8.2851318,9.5485096 0 0 0 -0.07346,0.04613 8.2851318,9.5485096 0 0 0 -0.07271,0.04688 8.2851318,9.5485096 0 0 0 -0.07246,0.04763 8.2851318,9.5485096 0 0 0 -0.07221,0.04864 8.2851318,9.5485096 0 0 0 -0.0717,0.04939 8.2851318,9.5485096 0 0 0 -0.0712,0.05014 8.2851318,9.5485096 0 0 0 -0.0707,0.05115 8.2851318,9.5485096 0 0 0 -0.0702,0.0519 8.2851318,9.5485096 0 0 0 -0.06995,0.05265 8.2851318,9.5485096 0 0 0 -0.06945,0.0534 8.2851318,9.5485096 0 0 0 -0.06895,0.05441 8.2851318,9.5485096 0 0 0 -0.06844,0.05491 8.2851318,9.5485096 0 0 0 -0.06795,0.05591 8.2851318,9.5485096 0 0 0 -0.06744,0.05666 8.2851318,9.5485096 0 0 0 -0.06694,0.05741 8.2851318,9.5485096 0 0 0 -0.06644,0.05842 8.2851318,9.5485096 0 0 0 -0.06594,0.05892 8.2851318,9.5485096 0 0 0 -0.06544,0.05967 8.2851318,9.5485096 0 0 0 -0.06493,0.06067 8.2851318,9.5485096 0 0 0 -0.06444,0.06118 8.2851318,9.5485096 0 0 0 -0.06368,0.06193 8.2851318,9.5485096 0 0 0 -0.06343,0.06293 8.2851318,9.5485096 0 0 0 -0.06268,0.06343 8.2851318,9.5485096 0 0 0 -0.06218,0.06418 8.2851318,9.5485096 0 0 0 -0.06167,0.06494 8.2851318,9.5485096 0 0 0 -0.06092,0.06569 8.2851318,9.5485096 0 0 0 -0.06068,0.06619 8.2851318,9.5485096 0 0 0 -0.05967,0.06719 8.2851318,9.5485096 0 0 0 -0.05942,0.06769 8.2851318,9.5485096 0 0 0 -0.05867,0.06845 8.2851318,9.5485096 0 0 0 -0.05817,0.06895 8.2851318,9.5485096 0 0 0 -0.05741,0.06995 8.2851318,9.5485096 0 0 0 -0.05692,0.0702 8.2851318,9.5485096 0 0 0 -0.05616,0.0712 8.2851318,9.5485096 0 0 0 -0.05566,0.07171 8.2851318,9.5485096 0 0 0 -0.05515,0.07246 8.2851318,9.5485096 0 0 0 -0.05441,0.07296 8.2851318,9.5485096 0 0 0 -0.05366,0.07371 8.2851318,9.5485096 0 0 0 -0.05315,0.07421 8.2851318,9.5485096 0 0 0 -0.0524,0.07497 8.2851318,9.5485096 0 0 0 -0.05165,0.07547 8.2851318,9.5485096 0 0 0 -0.05115,0.07597 8.2851318,9.5485096 0 0 0 -0.05039,0.07672 8.2851318,9.5485096 0 0 0 -0.0499,0.07722 8.2851318,9.5485096 0 0 0 -0.04914,0.07772 8.2851318,9.5485096 0 0 0 -0.04837,0.07848 8.2851318,9.5485096 0 0 0 -0.04764,0.07897 8.2851318,9.5485096 0 0 0 -0.04711,0.07948 8.2851318,9.5485096 0 0 0 -0.04614,0.07998 8.2851318,9.5485096 0 0 0 -0.04561,0.08073 8.2851318,9.5485096 0 0 0 -0.04512,0.08098 8.2851318,9.5485096 0 0 0 -0.04415,0.08173 8.2851318,9.5485096 0 0 0 -0.04337,0.08199 8.2851318,9.5485096 0 0 0 -0.04289,0.08274 8.2851318,9.5485096 0 0 0 -0.04211,0.08299 8.2851318,9.5485096 0 0 0 -0.04139,0.08374 8.2851318,9.5485096 0 0 0 -0.04037,0.08399 8.2851318,9.5485096 0 0 0 -0.03988,0.08449 8.2851318,9.5485096 0 0 0 -0.03285,0.0717 37.923362,35.574494 0 0 0 -0.367056,-0.149428 10.007191,12.449531 0 0 1 8.656072,-6.202284 10.007191,12.449531 0 0 1 0.01979,0 z"
       inkscape:export-xdpi="96"
       inkscape:export-ydpi="96" />
    <path
       style="fill:none;stroke:#4b312d;stroke-width:0.770208;stroke-linecap:round;stroke-linejoin:miter;stroke-miterlimit:4;stroke-dasharray:none;stroke-opacity:1"
       d="m 38.231352,55.299569 c 0,0 -1.913555,-0.920616 -4.442094,-1.35499 -2.528539,-0.434368 -5.785232,-0.303823 -5.785232,-0.303823"
       id="path1840"
       sodipodi:nodetypes="czc"
       inkscape:export-xdpi="96"
       inkscape:export-ydpi="96" />
    <path
       style="display:inline;fill:none;stroke:#4b312d;stroke-width:0.770208;stroke-linecap:round;stroke-linejoin:miter;stroke-miterlimit:4;stroke-dasharray:none;stroke-opacity:1"
       d="m 38.124339,57.030673 c 0,0 -2.076756,-0.443073 -4.636388,-0.268513 -2.559632,0.174564 -5.69355,1.069918 -5.69355,1.069918"
       id="path1840-2"
       sodipodi:nodetypes="czc"
       inkscape:export-xdpi="96"
       inkscape:export-ydpi="96" />
    <path
       style="display:inline;fill:none;stroke:#4b312d;stroke-width:0.727737;stroke-linecap:round;stroke-linejoin:miter;stroke-miterlimit:4;stroke-dasharray:none;stroke-opacity:1"
       d="m 38.534219,58.935783 c 0,0 -2.122687,0.131263 -4.539622,0.91017 -2.416934,0.778913 -5.187622,2.316283 -5.187622,2.316283"
       id="path1840-2-3"
       sodipodi:nodetypes="czc"
       inkscape:export-xdpi="96"
       inkscape:export-ydpi="96" />
    <g
       id="g1920"
       transform="matrix(0.61392018,0,0,0.5453167,-18.495761,-8.9730379)"
       inkscape:export-xdpi="96"
       inkscape:export-ydpi="96">
      <path
         style="display:inline;opacity:1;fill:none;stroke:#4b312d;stroke-width:1.5875;stroke-linecap:round;stroke-linejoin:miter;stroke-miterlimit:4;stroke-dasharray:none;stroke-opacity:1"
         d="m 132.82349,115.35156 c 0,0 3.94408,-1.89751 9.15573,-2.79281 5.21165,-0.89529 11.92411,-0.62622 11.92411,-0.62622"
         id="path1840-7"
         sodipodi:nodetypes="czc" />
      <path
         style="display:inline;opacity:1;fill:none;stroke:#4b312d;stroke-width:1.5875;stroke-linecap:round;stroke-linejoin:miter;stroke-miterlimit:4;stroke-dasharray:none;stroke-opacity:1"
         d="m 133.04405,118.91959 c 0,0 4.28047,-0.91323 9.5562,-0.55344 5.27574,0.3598 11.73515,2.20524 11.73515,2.20524"
         id="path1840-2-5"
         sodipodi:nodetypes="czc" />
      <path
         style="display:inline;opacity:1;fill:none;stroke:#4b312d;stroke-width:1.49996;stroke-linecap:round;stroke-linejoin:miter;stroke-miterlimit:4;stroke-dasharray:none;stroke-opacity:1"
         d="m 132.19924,122.84627 c 0,0 4.37513,0.27055 9.35675,1.87598 4.98161,1.60544 10.69236,4.77416 10.69236,4.77416"
         id="path1840-2-3-9"
         sodipodi:nodetypes="czc" />
    </g>
    <path
       style="display:inline;mix-blend-mode:normal;fill:none;fill-opacity:0.858824;stroke:#492c20;stroke-width:1.02695;stroke-linecap:round;stroke-linejoin:round;stroke-miterlimit:4;stroke-dasharray:none;stroke-opacity:0.988235"
       d="m 43.938049,61.085419 c 4.142972,3.92017 6.439974,-0.976605 5.964637,-2.115058"
       id="path1922-2"
       sodipodi:nodetypes="cc"
       inkscape:export-xdpi="96"
       inkscape:export-ydpi="96" />
    <path
       style="display:inline;mix-blend-mode:normal;fill:none;fill-opacity:0.858824;stroke:#492c20;stroke-width:1.02695;stroke-linecap:round;stroke-linejoin:round;stroke-miterlimit:4;stroke-dasharray:none;stroke-opacity:0.988235"
       d="m 56.12406,61.085419 c -4.14297,3.92017 -6.439972,-0.976605 -5.964636,-2.115058"
       id="path1922-2-2"
       sodipodi:nodetypes="cc"
       inkscape:export-xdpi="96"
       inkscape:export-ydpi="96" />
    <ellipse
       style="opacity:0.92;fill:#ffffff;fill-opacity:1;fill-rule:nonzero;stroke:none;stroke-width:1.02695;stroke-linecap:round;stroke-linejoin:round;stroke-miterlimit:4;stroke-dasharray:none;stroke-opacity:0.858824;paint-order:stroke fill markers"
       id="path2221"
       cx="48.592934"
       cy="52.496449"
       rx="2.1690502"
       ry="1.3224573"
       inkscape:export-xdpi="96"
       inkscape:export-ydpi="96" />
  </g>
</svg>
