<?xml version="1.0" encoding="UTF-8" standalone="no"?>
<svg
   xmlns:dc="http://purl.org/dc/elements/1.1/"
   xmlns:cc="http://creativecommons.org/ns#"
   xmlns:rdf="http://www.w3.org/1999/02/22-rdf-syntax-ns#"
   xmlns:svg="http://www.w3.org/2000/svg"
   xmlns="http://www.w3.org/2000/svg"
   xmlns:xlink="http://www.w3.org/1999/xlink"
   xmlns:sodipodi="http://sodipodi.sourceforge.net/DTD/sodipodi-0.dtd"
   xmlns:inkscape="http://www.inkscape.org/namespaces/inkscape"
   version="1.1"
   width="32"
   height="32"
   id="svg5157"
   inkscape:version="1.0.2 (394de47547, 2021-03-26)"
   sodipodi:docname="com.github.slawtul.hamster.svg">
  <metadata
     id="metadata46">
    <rdf:RDF>
      <cc:Work
         rdf:about="">
        <dc:format>image/svg+xml</dc:format>
        <dc:type
           rdf:resource="http://purl.org/dc/dcmitype/StillImage" />
        <dc:title />
      </cc:Work>
    </rdf:RDF>
  </metadata>
  <sodipodi:namedview
     pagecolor="#ffffff"
     bordercolor="#9bdb4d"
     borderopacity="1"
     objecttolerance="10"
     gridtolerance="10"
     guidetolerance="10"
     inkscape:pageopacity="0"
     inkscape:pageshadow="2"
     inkscape:window-width="2398"
     inkscape:window-height="1876"
     id="namedview29"
     showgrid="false"
     inkscape:zoom="17.854759"
     inkscape:cx="0.90188571"
     inkscape:cy="24.813807"
     inkscape:window-x="328"
     inkscape:window-y="178"
     inkscape:window-maximized="0"
     inkscape:current-layer="layer4"
     showguides="true"
     inkscape:object-paths="true"
     inkscape:snap-page="true"
     inkscape:snap-grids="false"
     inkscape:document-rotation="0"
     inkscape:guide-bbox="true">
    <inkscape:grid
       type="xygrid"
       id="grid4201"
       originx="0"
       snapvisiblegridlinesonly="true"
       visible="true"
       enabled="true"
       originy="0"
       spacingx="1" />
    <sodipodi:guide
       position="-11.137663,29.186275"
       orientation="0,-1"
       id="guide900" />
    <sodipodi:guide
       position="-11.518689,1.9869282"
       orientation="0,-1"
       id="guide902" />
    <sodipodi:guide
       position="15.984724,41.858779"
       orientation="1,0"
       id="guide905" />
    <sodipodi:guide
       position="20.267962,14.749284"
       orientation="0,-1"
       id="guide907" />
  </sodipodi:namedview>
  <defs
     id="defs5159">
    <linearGradient
       id="linearGradient3820-7-2-8-6">
      <stop
         id="stop3822-2-6-5-0"
         style="stop-color:#3d3d3d;stop-opacity:1"
         offset="0" />
      <stop
         id="stop3864-8-7-4-1"
         style="stop-color:#686868;stop-opacity:0.49803922"
         offset="0.5" />
      <stop
         id="stop3824-1-2-6-7"
         style="stop-color:#686868;stop-opacity:0"
         offset="1" />
    </linearGradient>
    <linearGradient
       id="linearGradient4806">
      <stop
         offset="0"
         style="stop-color:#ffffff;stop-opacity:1"
         id="stop4808" />
      <stop
         offset="0.42447853"
         style="stop-color:#ffffff;stop-opacity:0.23529412"
         id="stop4810" />
      <stop
         offset="0.82089913"
         style="stop-color:#ffffff;stop-opacity:0.15686275"
         id="stop4812" />
      <stop
         offset="1"
         style="stop-color:#ffffff;stop-opacity:0.39215687"
         id="stop4814" />
    </linearGradient>
    <linearGradient
       xlink:href="#linearGradient4806"
       id="linearGradient3118"
       gradientUnits="userSpaceOnUse"
       gradientTransform="matrix(4.16388,0,0,4.16388,-236.03265,-50.036246)"
       x1="71.204407"
       y1="15.369057"
       x2="71.204407"
       y2="40.495617" />
    <radialGradient
       xlink:href="#linearGradient3820-7-2-8-6"
       id="radialGradient3163"
       gradientUnits="userSpaceOnUse"
       gradientTransform="matrix(0.6869404,0,0,0.21461693,-4.02174,68.573331)"
       cx="99.157013"
       cy="186.17059"
       fx="99.157013"
       fy="186.17059"
       r="62.769119" />
    <radialGradient
       cx="7.4605465"
       cy="9.9571075"
       r="12.671875"
       fx="6.9303164"
       fy="9.9571075"
       id="radialGradient5521-1"
       xlink:href="#linearGradient2867-449-88-871-390-598-476-591-434-148-57-177-3-8-8-9"
       gradientUnits="userSpaceOnUse"
       gradientTransform="matrix(0,46.861858,-92.320077,0,985.84907,-380.50601)" />
    <linearGradient
       id="linearGradient2867-449-88-871-390-598-476-591-434-148-57-177-3-8-8-9">
      <stop
         offset="0"
         style="stop-color:#9bdb4d;stop-opacity:1"
         id="stop3750-8-9-0" />
      <stop
         offset="1"
         style="stop-color:#d1ff82;stop-opacity:1"
         id="stop3756-9-3-05" />
    </linearGradient>
    <linearGradient
       xlink:href="#linearGradient4806"
       id="linearGradient3118-3"
       gradientUnits="userSpaceOnUse"
       gradientTransform="matrix(4.16388,0,0,4.16388,-43.447904,-61.108816)"
       x1="71.204407"
       y1="15.369057"
       x2="71.204407"
       y2="40.495617" />
    <radialGradient
       cx="7.4605465"
       cy="9.9571075"
       r="12.671875"
       fx="6.9303164"
       fy="9.9571075"
       id="radialGradient5521-1-5"
       xlink:href="#linearGradient2867-449-88-871-390-598-476-591-434-148-57-177-3-8-8-9"
       gradientUnits="userSpaceOnUse"
       gradientTransform="matrix(0,46.861858,-92.320077,0,1178.4338,-391.57858)" />
    <radialGradient
       xlink:href="#linearGradient3820-7-2-8-6"
       id="radialGradient3163-2"
       gradientUnits="userSpaceOnUse"
       gradientTransform="matrix(0.6869404,0,0,0.21461693,188.56301,57.500761)"
       cx="99.157013"
       cy="186.17059"
       fx="99.157013"
       fy="186.17059"
       r="62.769119" />
    <clipPath
       clipPathUnits="userSpaceOnUse"
       id="clipPath925">
      <path
         inkscape:connector-curvature="0"
         d="m 99.053475,103.4609 c 8.715415,-8.868351 14.104475,-21.018879 14.104475,-34.436268 0,-27.149324 -22.008623,-49.156181 -49.157948,-49.156181 -27.149324,0 -49.157948,22.00525 -49.157948,49.156181 0,13.419156 5.390828,25.567917 14.106082,34.438038 l -4.447027,4.44526 c -2.452114,2.45227 -2.452114,6.42459 -0.0016,8.87686 1.224451,1.22622 2.833169,1.84005 4.438353,1.84005 1.605183,0 3.212456,-0.61383 4.436745,-1.83828 l 5.542158,-5.54039 c 7.348149,4.37731 15.907094,6.93657 25.083244,6.93657 9.176151,0 17.735096,-2.55926 25.086619,-6.93818 l 5.541996,5.54216 c 1.226218,1.22445 2.831401,1.83828 4.436746,1.83828 1.60535,0 3.21407,-0.61383 4.43852,-1.84005 2.4505,-2.45227 2.4505,-6.42459 -0.002,-8.87686 z m -35.05524,-5.520149 c -1.746392,0 -3.16137,1.418191 -3.16137,3.164739 v 4.26148 C 43.23109,103.84501 29.1777,89.791616 27.657338,72.187448 h 4.261641 c 1.746553,0 3.164744,-1.41819 3.164744,-3.162976 0,-1.746393 -1.418352,-3.162816 -3.164744,-3.162816 H 27.657338 C 29.1777,48.257488 43.23109,34.20233 60.836865,32.683735 v 4.263248 c 0,1.746553 1.414978,3.16137 3.16137,3.16137 1.746553,0 3.162977,-1.414817 3.162977,-3.16137 v -4.263248 c 17.605935,1.518595 31.657397,15.573592 33.179528,33.177921 h -4.263249 c -1.746553,0 -3.162976,1.416423 -3.162976,3.162816 0,1.744786 1.416423,3.162976 3.162976,3.162976 h 4.263249 C 98.820376,89.791616 84.768753,103.84501 67.162979,105.36697 v -4.25971 c 0,-1.748157 -1.416584,-3.166509 -3.164744,-3.166509 z"
         id="path927"
         style="fill:url(#linearGradient929);fill-opacity:1;stroke:#91e317;stroke-width:1;stroke-miterlimit:4;stroke-dasharray:none;stroke-opacity:0.66857144" />
    </clipPath>
    <linearGradient
       inkscape:collect="always"
       xlink:href="#linearGradient2867-449-88-871-390-598-476-591-434-148-57-177-3-8-8-9"
       id="linearGradient929"
       gradientUnits="userSpaceOnUse"
       x1="62.842052"
       y1="127.49673"
       x2="64.657951"
       y2="18.246727" />
    <clipPath
       clipPathUnits="userSpaceOnUse"
       id="clipPath959">
      <path
         style="fill:#ffe16b;fill-opacity:1;stroke:none;stroke-width:1;stroke-linecap:round;stroke-linejoin:round;stroke-miterlimit:4;stroke-dasharray:none;stroke-opacity:0.54857142"
         id="path961"
         d="m 111.2787,44.419312 c 1.12228,-2.700474 1.7464,-5.659429 1.7464,-8.762967 0.002,-12.633432 -10.2406,-22.875956 -22.874033,-22.875956 -5.076121,0 -9.749339,1.673459 -13.541408,4.47257 15.070124,3.671424 27.645881,13.728562 34.669041,27.166353 z"
         inkscape:connector-curvature="0" />
    </clipPath>
    <clipPath
       clipPathUnits="userSpaceOnUse"
       id="clipPath997">
      <path
         style="fill:#ffe16b;fill-opacity:1;stroke-width:0.09803922"
         id="path999"
         d="m 51.390346,17.249425 c -3.792231,-2.795577 -8.468822,-4.469036 -13.541569,-4.469036 -12.633432,0 -22.875796,10.242524 -22.875796,22.875796 0,3.105304 0.624113,6.064259 1.746553,8.762966 7.023161,-13.441164 19.59876,-23.496374 34.670812,-27.169726 z"
         inkscape:connector-curvature="0" />
    </clipPath>
  </defs>
  <g
     inkscape:groupmode="layer"
     id="layer4"
     inkscape:label="Layer"
     style="display:inline">
    <path
       id="path2335"
       style="opacity:0.92;mix-blend-mode:normal;fill:#b1671f;fill-opacity:0.992157;fill-rule:evenodd;stroke:#000000;stroke-width:0.259624;stroke-linejoin:round;stroke-miterlimit:4;stroke-dasharray:none"
       d="m 11.476555,4.5582087 a 2.0945781,2.4139735 0 0 0 -0.0083,-0.018128 2.0945781,2.4139735 0 0 0 -0.01008,-0.021361 2.0945781,2.4139735 0 0 0 -0.01021,-0.021234 2.0945781,2.4139735 0 0 0 -0.01046,-0.021171 2.0945781,2.4139735 0 0 0 -0.01065,-0.02098 2.0945781,2.4139735 0 0 0 -0.01084,-0.020917 2.0945781,2.4139735 0 0 0 -0.01097,-0.020727 2.0945781,2.4139735 0 0 0 -0.01116,-0.020663 2.0945781,2.4139735 0 0 0 -0.01141,-0.020473 2.0945781,2.4139735 0 0 0 -0.01154,-0.02041 2.0945781,2.4139735 0 0 0 -0.01166,-0.02022 2.0945781,2.4139735 0 0 0 -0.01192,-0.020093 2.0945781,2.4139735 0 0 0 -0.01204,-0.019966 2.0945781,2.4139735 0 0 0 -0.01223,-0.019839 2.0945781,2.4139735 0 0 0 -0.01242,-0.019649 2.0945781,2.4139735 0 0 0 -0.01261,-0.019522 2.0945781,2.4139735 0 0 0 -0.01274,-0.019396 2.0945781,2.4139735 0 0 0 -0.01293,-0.019205 2.0945781,2.4139735 0 0 0 -0.01306,-0.019079 2.0945781,2.4139735 0 0 0 -0.01325,-0.018952 2.0945781,2.4139735 0 0 0 -0.01344,-0.018762 2.0945781,2.4139735 0 0 0 -0.01356,-0.018635 2.0945781,2.4139735 0 0 0 -0.01375,-0.018445 2.0945781,2.4139735 0 0 0 -0.01394,-0.018318 2.0945781,2.4139735 0 0 0 -0.01407,-0.018128 2.0945781,2.4139735 0 0 0 -0.0142,-0.018001 2.0945781,2.4139735 0 0 0 -0.01439,-0.017748 2.0945781,2.4139735 0 0 0 -0.01451,-0.017684 2.0945781,2.4139735 0 0 0 -0.0147,-0.017431 2.0945781,2.4139735 0 0 0 -0.01483,-0.017304 2.0945781,2.4139735 0 0 0 -0.01502,-0.017114 2.0945781,2.4139735 0 0 0 -0.01509,-0.016987 2.0945781,2.4139735 0 0 0 -0.01534,-0.016733 2.0945781,2.4139735 0 0 0 -0.0154,-0.016607 2.0945781,2.4139735 0 0 0 -0.01559,-0.016417 2.0945781,2.4139735 0 0 0 -0.01572,-0.016227 2.0945781,2.4139735 0 0 0 -0.01585,-0.016036 2.0945781,2.4139735 0 0 0 -0.01604,-0.01591 2.0945781,2.4139735 0 0 0 -0.0161,-0.015656 2.0945781,2.4139735 0 0 0 -0.01629,-0.015466 2.0945781,2.4139735 0 0 0 -0.01642,-0.015339 2.0945781,2.4139735 0 0 0 -0.01654,-0.015086 2.0945781,2.4139735 0 0 0 -0.01667,-0.014895 2.0945781,2.4139735 0 0 0 -0.0168,-0.014769 2.0945781,2.4139735 0 0 0 -0.01692,-0.014515 2.0945781,2.4139735 0 0 0 -0.01705,-0.014325 2.0945781,2.4139735 0 0 0 -0.01718,-0.014135 2.0945781,2.4139735 0 0 0 -0.0173,-0.013882 2.0945781,2.4139735 0 0 0 -0.01743,-0.013754 2.0945781,2.4139735 0 0 0 -0.01756,-0.013501 2.0945781,2.4139735 0 0 0 -0.01769,-0.013311 2.0945781,2.4139735 0 0 0 -0.01775,-0.01312 2.0945781,2.4139735 0 0 0 -0.01788,-0.012931 2.0945781,2.4139735 0 0 0 -0.018,-0.012677 2.0945781,2.4139735 0 0 0 -0.01813,-0.012487 2.0945781,2.4139735 0 0 0 -0.01825,-0.012297 2.0945781,2.4139735 0 0 0 -0.01832,-0.012043 2.0945781,2.4139735 0 0 0 -0.01838,-0.011852 2.0945781,2.4139735 0 0 0 -0.01857,-0.011663 2.0945781,2.4139735 0 0 0 -0.01863,-0.01141 2.0945781,2.4139735 0 0 0 -0.0187,-0.011219 2.0945781,2.4139735 0 0 0 -0.01889,-0.010965 2.0945781,2.4139735 0 0 0 -0.01889,-0.010775 2.0945781,2.4139735 0 0 0 -0.01901,-0.010522 2.0945781,2.4139735 0 0 0 -0.01914,-0.010331 2.0945781,2.4139735 0 0 0 -0.0192,-0.010141 2.0945781,2.4139735 0 0 0 -0.01927,-0.00982 2.0945781,2.4139735 0 0 0 -0.0194,-0.0097 2.0945781,2.4139735 0 0 0 -0.01946,-0.00944 2.0945781,2.4139735 0 0 0 -0.01952,-0.00919 2.0945781,2.4139735 0 0 0 -0.01959,-0.00894 2.0945781,2.4139735 0 0 0 -0.01971,-0.00875 2.0945781,2.4139735 0 0 0 -0.01978,-0.00856 2.0945781,2.4139735 0 0 0 -0.01984,-0.00824 2.0945781,2.4139735 0 0 0 -0.0199,-0.00811 2.0945781,2.4139735 0 0 0 -0.02003,-0.0078 2.0945781,2.4139735 0 0 0 -0.02003,-0.00761 2.0945781,2.4139735 0 0 0 -0.02009,-0.00735 2.0945781,2.4139735 0 0 0 -0.02022,-0.0071 2.0945781,2.4139735 0 0 0 -0.02022,-0.00691 2.0945781,2.4139735 0 0 0 -0.02028,-0.00666 2.0945781,2.4139735 0 0 0 -0.02035,-0.0064 2.0945781,2.4139735 0 0 0 -0.02047,-0.00621 2.0945781,2.4139735 0 0 0 -0.02041,-0.00596 2.0945781,2.4139735 0 0 0 -0.02054,-0.0057 2.0945781,2.4139735 0 0 0 -0.0206,-0.00545 2.0945781,2.4139735 0 0 0 -0.0206,-0.0052 2.0945781,2.4139735 0 0 0 -0.02066,-0.00501 2.0945781,2.4139735 0 0 0 -0.02066,-0.00475 2.0945781,2.4139735 0 0 0 -0.02079,-0.0045 2.0945781,2.4139735 0 0 0 -0.020727,-0.00425 2.0945781,2.4139735 0 0 0 -0.020854,-0.00406 2.0945781,2.4139735 0 0 0 -0.020853,-0.0038 2.0945781,2.4139735 0 0 0 -0.020854,-0.00355 2.0945781,2.4139735 0 0 0 -0.020917,-0.0033 2.0945781,2.4139735 0 0 0 -0.020917,-0.00304 2.0945781,2.4139735 0 0 0 -0.02098,-0.00279 2.0945781,2.4139735 0 0 0 -0.02098,-0.0026 A 2.0945781,2.4139735 0 0 0 9.812399,3.2776397 2.0945781,2.4139735 0 0 0 9.791355,3.2755497 2.0945781,2.4139735 0 0 0 9.770311,3.2737097 2.0945781,2.4139735 0 0 0 9.749267,3.2721297 2.0945781,2.4139735 0 0 0 9.728223,3.2707397 2.0945781,2.4139735 0 0 0 9.707116,3.2696597 2.0945781,2.4139735 0 0 0 9.686009,3.2688379 2.0945781,2.4139735 0 0 0 9.664902,3.2682001 2.0945781,2.4139735 0 0 0 9.643795,3.2678199 2.0945781,2.4139735 0 0 0 9.622688,3.2676972 2.0945781,2.4139735 0 0 0 9.604117,3.2678199 2.0945781,2.4139735 0 0 0 9.58301,3.2681388 a 2.0945781,2.4139735 0 0 0 -0.021107,5.765e-4 2.0945781,2.4139735 0 0 0 -0.021107,8.218e-4 2.0945781,2.4139735 0 0 0 -0.021107,0.00108 2.0945781,2.4139735 0 0 0 -0.021044,0.00133 2.0945781,2.4139735 0 0 0 -0.021107,0.00158 2.0945781,2.4139735 0 0 0 -0.021044,0.00177 2.0945781,2.4139735 0 0 0 -0.02098,0.00209 2.0945781,2.4139735 0 0 0 -0.021044,0.00228 2.0945781,2.4139735 0 0 0 -0.020981,0.00254 2.0945781,2.4139735 0 0 0 -0.02098,0.00279 2.0945781,2.4139735 0 0 0 -0.020917,0.00304 2.0945781,2.4139735 0 0 0 -0.020917,0.00323 2.0945781,2.4139735 0 0 0 -0.020917,0.00355 2.0945781,2.4139735 0 0 0 -0.020854,0.00374 2.0945781,2.4139735 0 0 0 -0.02079,0.00399 2.0945781,2.4139735 0 0 0 -0.02079,0.00425 2.0945781,2.4139735 0 0 0 -0.020727,0.00444 2.0945781,2.4139735 0 0 0 -0.020727,0.00475 2.0945781,2.4139735 0 0 0 -0.020663,0.00494 2.0945781,2.4139735 0 0 0 -0.0206,0.0052 2.0945781,2.4139735 0 0 0 -0.0206,0.00545 2.0945781,2.4139735 0 0 0 -0.020537,0.0057 2.0945781,2.4139735 0 0 0 -0.020473,0.00589 2.0945781,2.4139735 0 0 0 -0.02041,0.00615 2.0945781,2.4139735 0 0 0 -0.020347,0.0064 2.0945781,2.4139735 0 0 0 -0.020346,0.00666 2.0945781,2.4139735 0 0 0 -0.02022,0.00685 2.0945781,2.4139735 0 0 0 -0.020219,0.0071 2.0945781,2.4139735 0 0 0 -0.020093,0.00729 2.0945781,2.4139735 0 0 0 -0.020093,0.00761 2.0945781,2.4139735 0 0 0 -0.019966,0.0078 2.0945781,2.4139735 0 0 0 -0.019903,0.00799 2.0945781,2.4139735 0 0 0 -0.01984,0.0083 2.0945781,2.4139735 0 0 0 -0.019839,0.00849 2.0945781,2.4139735 0 0 0 -0.019649,0.00868 2.0945781,2.4139735 0 0 0 -0.019649,0.00894 2.0945781,2.4139735 0 0 0 -0.019523,0.00919 2.0945781,2.4139735 0 0 0 -0.019522,0.00944 2.0945781,2.4139735 0 0 0 -0.019332,0.00957 2.0945781,2.4139735 0 0 0 -0.019333,0.00989 2.0945781,2.4139735 0 0 0 -0.019205,0.010079 2.0945781,2.4139735 0 0 0 -0.019142,0.010268 2.0945781,2.4139735 0 0 0 -0.019015,0.010521 2.0945781,2.4139735 0 0 0 -0.018952,0.010775 2.0945781,2.4139735 0 0 0 -0.018825,0.010966 2.0945781,2.4139735 0 0 0 -0.018762,0.011156 2.0945781,2.4139735 0 0 0 -0.018635,0.01141 2.0945781,2.4139735 0 0 0 -0.018508,0.0116 2.0945781,2.4139735 0 0 0 -0.018445,0.011852 2.0945781,2.4139735 0 0 0 -0.018382,0.01198 2.0945781,2.4139735 0 0 0 -0.018191,0.012297 2.0945781,2.4139735 0 0 0 -0.018128,0.012423 2.0945781,2.4139735 0 0 0 -0.018065,0.012677 2.0945781,2.4139735 0 0 0 -0.017875,0.01293 2.0945781,2.4139735 0 0 0 -0.017811,0.013057 2.0945781,2.4139735 0 0 0 -0.017684,0.013311 2.0945781,2.4139735 0 0 0 -0.017558,0.013501 2.0945781,2.4139735 0 0 0 -0.017431,0.013691 2.0945781,2.4139735 0 0 0 -0.017304,0.013881 2.0945781,2.4139735 0 0 0 -0.017177,0.014135 2.0945781,2.4139735 0 0 0 -0.017114,0.014325 2.0945781,2.4139735 0 0 0 -0.016923,0.014452 2.0945781,2.4139735 0 0 0 -0.016797,0.014705 2.0945781,2.4139735 0 0 0 -0.016734,0.014895 2.0945781,2.4139735 0 0 0 -0.016543,0.015086 2.0945781,2.4139735 0 0 0 -0.016417,0.015275 2.0945781,2.4139735 0 0 0 -0.01629,0.015466 2.0945781,2.4139735 0 0 0 -0.016163,0.015656 2.0945781,2.4139735 0 0 0 -0.016036,0.015846 2.0945781,2.4139735 0 0 0 -0.015846,0.016036 2.0945781,2.4139735 0 0 0 -0.01572,0.016226 2.0945781,2.4139735 0 0 0 -0.015593,0.016353 2.0945781,2.4139735 0 0 0 -0.015466,0.016607 2.0945781,2.4139735 0 0 0 -0.015339,0.016734 2.0945781,2.4139735 0 0 0 -0.015149,0.016924 2.0945781,2.4139735 0 0 0 -0.014959,0.017114 2.0945781,2.4139735 0 0 0 -0.014895,0.017241 2.0945781,2.4139735 0 0 0 -0.014705,0.017494 2.0945781,2.4139735 0 0 0 -0.014515,0.017621 2.0945781,2.4139735 0 0 0 -0.014452,0.017748 2.0945781,2.4139735 0 0 0 -0.014198,0.018001 2.0945781,2.4139735 0 0 0 -0.014071,0.018065 2.0945781,2.4139735 0 0 0 -0.013945,0.018318 2.0945781,2.4139735 0 0 0 -0.013755,0.018445 2.0945781,2.4139735 0 0 0 -0.013628,0.018572 2.0945781,2.4139735 0 0 0 -0.013437,0.018762 2.0945781,2.4139735 0 0 0 -0.013247,0.018889 2.0945781,2.4139735 0 0 0 -0.013121,0.019079 2.0945781,2.4139735 0 0 0 -0.012931,0.019206 2.0945781,2.4139735 0 0 0 -0.012804,0.019396 2.0945781,2.4139735 0 0 0 -0.012613,0.019522 2.0945781,2.4139735 0 0 0 -0.012423,0.019649 2.0945781,2.4139735 0 0 0 -0.012234,0.019776 2.0945781,2.4139735 0 0 0 -0.012106,0.019966 2.0945781,2.4139735 0 0 0 -0.011916,0.020093 2.0945781,2.4139735 0 0 0 -0.011726,0.02022 2.0945781,2.4139735 0 0 0 -0.011536,0.020346 2.0945781,2.4139735 0 0 0 -0.01141,0.020473 2.0945781,2.4139735 0 0 0 -0.011156,0.0206 2.0945781,2.4139735 0 0 0 -0.011029,0.02079 2.0945781,2.4139735 0 0 0 -0.010839,0.020854 2.0945781,2.4139735 0 0 0 -0.010649,0.02098 2.0945781,2.4139735 0 0 0 -0.010459,0.02117 2.0945781,2.4139735 0 0 0 -0.010331,0.021234 2.0945781,2.4139735 0 0 0 -0.010079,0.021361 2.0945781,2.4139735 0 0 0 -0.00989,0.021487 2.0945781,2.4139735 0 0 0 -0.00976,0.021551 2.0945781,2.4139735 0 0 0 -0.00951,0.021741 2.0945781,2.4139735 0 0 0 -0.00932,0.021804 2.0945781,2.4139735 0 0 0 -0.00919,0.021931 2.0945781,2.4139735 0 0 0 -0.00894,0.021995 2.0945781,2.4139735 0 0 0 -0.00875,0.022121 2.0945781,2.4139735 0 0 0 -0.00862,0.022248 2.0945781,2.4139735 0 0 0 -0.00837,0.022312 2.0945781,2.4139735 0 0 0 -0.00818,0.022438 2.0945781,2.4139735 0 0 0 -0.00799,0.022502 2.0945781,2.4139735 0 0 0 -0.0078,0.022628 2.0945781,2.4139735 0 0 0 -0.00754,0.022692 2.0945781,2.4139735 0 0 0 -0.00742,0.022755 2.0945781,2.4139735 0 0 0 -0.00716,0.022882 2.0945781,2.4139735 0 0 0 -0.00704,0.022945 2.0945781,2.4139735 0 0 0 -0.00678,0.023072 2.0945781,2.4139735 0 0 0 -0.00659,0.023072 2.0945781,2.4139735 0 0 0 -0.0064,0.023199 2.0945781,2.4139735 0 0 0 -0.00615,0.023262 2.0945781,2.4139735 0 0 0 -0.00596,0.023326 2.0945781,2.4139735 0 0 0 -0.00583,0.023389 2.0945781,2.4139735 0 0 0 -0.00551,0.023452 2.0945781,2.4139735 0 0 0 -0.00539,0.023579 2.0945781,2.4139735 0 0 0 -0.00513,0.023579 2.0945781,2.4139735 0 0 0 -0.00501,0.023642 2.0945781,2.4139735 0 0 0 -0.00469,0.023706 2.0945781,2.4139735 0 0 0 -0.00456,0.023706 2.0945781,2.4139735 0 0 0 -0.00431,0.023833 2.0945781,2.4139735 0 0 0 -0.00412,0.023832 2.0945781,2.4139735 0 0 0 -0.00393,0.023959 2.0945781,2.4139735 0 0 0 -0.00368,0.023896 2.0945781,2.4139735 0 0 0 -0.00349,0.024023 2.0945781,2.4139735 0 0 0 -0.0033,0.024023 2.0945781,2.4139735 0 0 0 -0.00311,0.024086 2.0945781,2.4139735 0 0 0 -0.00285,0.024086 2.0945781,2.4139735 0 0 0 -0.00266,0.02415 2.0945781,2.4139735 0 0 0 -0.00241,0.02415 2.0945781,2.4139735 0 0 0 -0.00222,0.02415 2.0945781,2.4139735 0 0 0 -0.00203,0.024213 2.0945781,2.4139735 0 0 0 -0.00184,0.024276 2.0945781,2.4139735 0 0 0 -0.00158,0.024213 2.0945781,2.4139735 0 0 0 -0.00139,0.024276 2.0945781,2.4139735 0 0 0 -0.00114,0.02434 2.0945781,2.4139735 0 0 0 -9.567e-4,0.024276 2.0945781,2.4139735 0 0 0 -7.605e-4,0.02434 2.0945781,2.4139735 0 0 0 -5.029e-4,0.024277 2.0945781,2.4139735 0 0 0 -3.189e-4,0.02434 2.0945781,2.4139735 0 0 0 -1.226e-4,0.02434 2.0945781,2.4139735 0 0 0 6.33e-5,0.021424 2.0945781,2.4139735 0 0 0 3.189e-4,0.02434 2.0945781,2.4139735 0 0 0 5.029e-4,0.02434 2.0945781,2.4139735 0 0 0 6.991e-4,0.024276 2.0945781,2.4139735 0 0 0 9.567e-4,0.02434 2.0945781,2.4139735 0 0 0 0.00114,0.024277 2.0945781,2.4139735 0 0 0 0.00133,0.024276 2.0945781,2.4139735 0 0 0 0.00158,0.024276 2.0945781,2.4139735 0 0 0 0.00177,0.024213 2.0945781,2.4139735 0 0 0 0.00203,0.024213 2.0945781,2.4139735 0 0 0 0.00216,0.024213 2.0945781,2.4139735 0 0 0 0.00247,0.02415 2.0945781,2.4139735 0 0 0 0.0026,0.02415 2.0945781,2.4139735 0 0 0 0.00285,0.024086 2.0945781,2.4139735 0 0 0 0.00304,0.024086 2.0945781,2.4139735 0 0 0 0.00323,0.024023 2.0945781,2.4139735 0 0 0 0.00349,0.023959 2.0945781,2.4139735 0 0 0 0.00368,0.023959 2.0945781,2.4139735 0 0 0 0.00387,0.023959 2.0945781,2.4139735 0 0 0 0.00412,0.023833 2.0945781,2.4139735 0 0 0 0.00431,0.023833 2.0945781,2.4139735 0 0 0 0.0045,0.023769 2.0945781,2.4139735 0 0 0 0.00475,0.023706 2.0945781,2.4139735 0 0 0 0.00488,0.023643 2.0945781,2.4139735 0 0 0 0.00513,0.023579 2.0945781,2.4139735 0 0 0 0.00539,0.023516 2.0945781,2.4139735 0 0 0 0.00551,0.023516 2.0945781,2.4139735 0 0 0 0.00577,0.023389 2.0945781,2.4139735 0 0 0 0.00596,0.023326 2.0945781,2.4139735 0 0 0 0.00615,0.023262 2.0945781,2.4139735 0 0 0 0.00634,0.023199 2.0945781,2.4139735 0 0 0 0.00659,0.023135 2.0945781,2.4139735 0 0 0 0.00672,0.023009 2.0945781,2.4139735 0 0 0 0.00697,0.023008 2.0945781,2.4139735 0 0 0 0.00716,0.022882 2.0945781,2.4139735 0 0 0 0.00742,0.022755 2.0945781,2.4139735 0 0 0 0.00754,0.022692 2.0945781,2.4139735 0 0 0 0.0078,0.022628 2.0945781,2.4139735 0 0 0 0.00792,0.022565 2.0945781,2.4139735 0 0 0 0.00818,0.022438 2.0945781,2.4139735 0 0 0 0.00837,0.022311 2.0945781,2.4139735 0 0 0 0.00856,0.022248 2.0945781,2.4139735 0 0 0 0.00868,0.022121 2.0945781,2.4139735 0 0 0 0.00894,0.022058 2.0945781,2.4139735 0 0 0 0.00913,0.021931 2.0945781,2.4139735 0 0 0 0.00932,0.021804 2.0945781,2.4139735 0 0 0 0.00957,0.021741 2.0945781,2.4139735 0 0 0 0.0097,0.021614 2.0945781,2.4139735 0 0 0 0.00989,0.021488 2.0945781,2.4139735 0 0 0 0.010015,0.021361 2.0945781,2.4139735 0 0 0 0.010269,0.021234 2.0945781,2.4139735 0 0 0 0.010458,0.021171 2.0945781,2.4139735 0 0 0 0.010649,0.02098 2.0945781,2.4139735 0 0 0 0.010775,0.020917 2.0945781,2.4139735 0 0 0 0.011029,0.02079 2.0945781,2.4139735 0 0 0 0.011156,0.0206 2.0945781,2.4139735 0 0 0 0.011346,0.020536 2.0945781,2.4139735 0 0 0 0.011536,0.020347 2.0945781,2.4139735 0 0 0 0.011726,0.02022 2.0945781,2.4139735 0 0 0 0.011916,0.020093 2.0945781,2.4139735 0 0 0 0.012042,0.019966 2.0945781,2.4139735 0 0 0 0.011092,0.018001 9.5874687,8.9936429 0 0 1 3.5553717,-2.5312656 z"
       inkscape:export-xdpi="96"
       inkscape:export-ydpi="96" />
    <path
       id="path932"
       style="opacity:0.92;mix-blend-mode:normal;fill:#f7c454;fill-opacity:1;fill-rule:evenodd;stroke:#000000;stroke-width:0.259624;stroke-linejoin:round;stroke-miterlimit:4;stroke-dasharray:none"
       d="m 9.3759878,2.9524291 a 2.5299335,3.1473852 0 0 0 -2.5249268,3.147364 2.5299335,3.1473852 0 0 0 0.4477488,1.7876371 9.5874638,8.9936429 0 0 1 0.622374,-0.7979491 2.094577,2.4139735 0 0 1 -0.011092,-0.018001 2.094577,2.4139735 0 0 1 -0.012042,-0.019966 2.094577,2.4139735 0 0 1 -0.011916,-0.020093 2.094577,2.4139735 0 0 1 -0.011726,-0.02022 2.094577,2.4139735 0 0 1 -0.011536,-0.020347 2.094577,2.4139735 0 0 1 -0.011346,-0.020536 2.094577,2.4139735 0 0 1 -0.011156,-0.0206 2.094577,2.4139735 0 0 1 -0.011029,-0.02079 2.094577,2.4139735 0 0 1 -0.010775,-0.020917 2.094577,2.4139735 0 0 1 -0.010649,-0.02098 2.094577,2.4139735 0 0 1 -0.010458,-0.021171 2.094577,2.4139735 0 0 1 -0.010269,-0.021234 2.094577,2.4139735 0 0 1 -0.010015,-0.021361 2.094577,2.4139735 0 0 1 -0.00989,-0.021488 2.094577,2.4139735 0 0 1 -0.0097,-0.021614 2.094577,2.4139735 0 0 1 -0.00957,-0.021741 2.094577,2.4139735 0 0 1 -0.00932,-0.021804 2.094577,2.4139735 0 0 1 -0.00913,-0.021931 2.094577,2.4139735 0 0 1 -0.00894,-0.022058 2.094577,2.4139735 0 0 1 -0.00868,-0.022121 2.094577,2.4139735 0 0 1 -0.00856,-0.022248 2.094577,2.4139735 0 0 1 -0.00837,-0.022311 2.094577,2.4139735 0 0 1 -0.00818,-0.022438 2.094577,2.4139735 0 0 1 -0.00792,-0.022565 2.094577,2.4139735 0 0 1 -0.0078,-0.022628 2.094577,2.4139735 0 0 1 -0.00754,-0.022692 2.094577,2.4139735 0 0 1 -0.00742,-0.022755 2.094577,2.4139735 0 0 1 -0.00716,-0.022882 2.094577,2.4139735 0 0 1 -0.00697,-0.023008 2.094577,2.4139735 0 0 1 -0.00672,-0.023009 2.094577,2.4139735 0 0 1 -0.00659,-0.023135 2.094577,2.4139735 0 0 1 -0.00634,-0.023199 2.094577,2.4139735 0 0 1 -0.00615,-0.023262 2.094577,2.4139735 0 0 1 -0.00596,-0.023326 2.094577,2.4139735 0 0 1 -0.00577,-0.023389 2.094577,2.4139735 0 0 1 -0.00551,-0.023516 2.094577,2.4139735 0 0 1 -0.00539,-0.023516 2.094577,2.4139735 0 0 1 -0.00513,-0.023579 2.094577,2.4139735 0 0 1 -0.00488,-0.023643 2.094577,2.4139735 0 0 1 -0.00475,-0.023706 2.094577,2.4139735 0 0 1 -0.0045,-0.023769 2.094577,2.4139735 0 0 1 -0.00431,-0.023833 2.094577,2.4139735 0 0 1 -0.00412,-0.023833 2.094577,2.4139735 0 0 1 -0.00387,-0.023959 2.094577,2.4139735 0 0 1 -0.00368,-0.023959 2.094577,2.4139735 0 0 1 -0.00349,-0.023959 2.094577,2.4139735 0 0 1 -0.00323,-0.024023 2.094577,2.4139735 0 0 1 -0.00304,-0.024086 2.094577,2.4139735 0 0 1 -0.00285,-0.024086 2.094577,2.4139735 0 0 1 -0.0026,-0.02415 2.094577,2.4139735 0 0 1 -0.00247,-0.02415 2.094577,2.4139735 0 0 1 -0.00216,-0.024213 2.094577,2.4139735 0 0 1 -0.00203,-0.024213 2.094577,2.4139735 0 0 1 -0.00177,-0.024213 2.094577,2.4139735 0 0 1 -0.00158,-0.024276 2.094577,2.4139735 0 0 1 -0.00133,-0.024276 2.094577,2.4139735 0 0 1 -0.00114,-0.024277 2.094577,2.4139735 0 0 1 -9.567e-4,-0.02434 2.094577,2.4139735 0 0 1 -6.991e-4,-0.024276 2.094577,2.4139735 0 0 1 -5.029e-4,-0.02434 2.094577,2.4139735 0 0 1 -3.189e-4,-0.02434 2.094577,2.4139735 0 0 1 -6.33e-5,-0.021424 2.094577,2.4139735 0 0 1 1.226e-4,-0.02434 2.094577,2.4139735 0 0 1 3.189e-4,-0.02434 2.094577,2.4139735 0 0 1 5.029e-4,-0.024277 2.094577,2.4139735 0 0 1 7.605e-4,-0.02434 2.094577,2.4139735 0 0 1 9.567e-4,-0.024276 2.094577,2.4139735 0 0 1 0.00114,-0.02434 2.094577,2.4139735 0 0 1 0.00139,-0.024276 2.094577,2.4139735 0 0 1 0.00158,-0.024213 2.094577,2.4139735 0 0 1 0.00184,-0.024276 2.094577,2.4139735 0 0 1 0.00203,-0.024213 2.094577,2.4139735 0 0 1 0.00222,-0.02415 2.094577,2.4139735 0 0 1 0.00241,-0.02415 2.094577,2.4139735 0 0 1 0.00266,-0.02415 2.094577,2.4139735 0 0 1 0.00285,-0.024086 2.094577,2.4139735 0 0 1 0.00311,-0.024086 2.094577,2.4139735 0 0 1 0.0033,-0.024023 2.094577,2.4139735 0 0 1 0.00349,-0.024023 2.094577,2.4139735 0 0 1 0.00368,-0.023896 2.094577,2.4139735 0 0 1 0.00393,-0.023959 2.094577,2.4139735 0 0 1 0.00412,-0.023832 2.094577,2.4139735 0 0 1 0.00431,-0.023833 2.094577,2.4139735 0 0 1 0.00456,-0.023706 2.094577,2.4139735 0 0 1 0.00469,-0.023706 2.094577,2.4139735 0 0 1 0.00501,-0.023642 2.094577,2.4139735 0 0 1 0.00513,-0.023579 2.094577,2.4139735 0 0 1 0.00539,-0.023579 2.094577,2.4139735 0 0 1 0.00551,-0.023452 2.094577,2.4139735 0 0 1 0.00583,-0.023389 2.094577,2.4139735 0 0 1 0.00596,-0.023326 2.094577,2.4139735 0 0 1 0.00615,-0.023262 2.094577,2.4139735 0 0 1 0.0064,-0.023199 2.094577,2.4139735 0 0 1 0.00659,-0.023072 2.094577,2.4139735 0 0 1 0.00678,-0.023072 2.094577,2.4139735 0 0 1 0.00704,-0.022945 2.094577,2.4139735 0 0 1 0.00716,-0.022882 2.094577,2.4139735 0 0 1 0.00742,-0.022755 2.094577,2.4139735 0 0 1 0.00754,-0.022692 2.094577,2.4139735 0 0 1 0.0078,-0.022628 2.094577,2.4139735 0 0 1 0.00799,-0.022502 2.094577,2.4139735 0 0 1 0.00818,-0.022438 2.094577,2.4139735 0 0 1 0.00837,-0.022312 2.094577,2.4139735 0 0 1 0.00862,-0.022248 2.094577,2.4139735 0 0 1 0.00875,-0.022121 2.094577,2.4139735 0 0 1 0.00894,-0.021995 2.094577,2.4139735 0 0 1 0.00919,-0.021931 2.094577,2.4139735 0 0 1 0.00932,-0.021804 2.094577,2.4139735 0 0 1 0.00951,-0.021741 2.094577,2.4139735 0 0 1 0.00976,-0.021551 2.094577,2.4139735 0 0 1 0.00989,-0.021487 2.094577,2.4139735 0 0 1 0.010079,-0.021361 2.094577,2.4139735 0 0 1 0.010331,-0.021234 2.094577,2.4139735 0 0 1 0.010459,-0.02117 2.094577,2.4139735 0 0 1 0.010649,-0.02098 2.094577,2.4139735 0 0 1 0.010839,-0.020854 2.094577,2.4139735 0 0 1 0.011029,-0.02079 2.094577,2.4139735 0 0 1 0.011156,-0.0206 2.094577,2.4139735 0 0 1 0.01141,-0.020473 2.094577,2.4139735 0 0 1 0.011536,-0.020346 2.094577,2.4139735 0 0 1 0.011726,-0.02022 2.094577,2.4139735 0 0 1 0.011916,-0.020093 2.094577,2.4139735 0 0 1 0.012106,-0.019966 2.094577,2.4139735 0 0 1 0.012234,-0.019776 2.094577,2.4139735 0 0 1 0.012423,-0.019649 2.094577,2.4139735 0 0 1 0.012613,-0.019522 2.094577,2.4139735 0 0 1 0.012804,-0.019396 2.094577,2.4139735 0 0 1 0.012931,-0.019206 2.094577,2.4139735 0 0 1 0.013121,-0.019079 2.094577,2.4139735 0 0 1 0.013247,-0.018889 2.094577,2.4139735 0 0 1 0.013437,-0.018762 2.094577,2.4139735 0 0 1 0.013628,-0.018572 2.094577,2.4139735 0 0 1 0.013755,-0.018445 2.094577,2.4139735 0 0 1 0.013945,-0.018318 2.094577,2.4139735 0 0 1 0.014071,-0.018065 2.094577,2.4139735 0 0 1 0.014198,-0.018001 2.094577,2.4139735 0 0 1 0.014452,-0.017748 2.094577,2.4139735 0 0 1 0.014515,-0.017621 2.094577,2.4139735 0 0 1 0.014705,-0.017494 2.094577,2.4139735 0 0 1 0.014895,-0.017241 2.094577,2.4139735 0 0 1 0.014959,-0.017114 2.094577,2.4139735 0 0 1 0.015149,-0.016924 2.094577,2.4139735 0 0 1 0.015339,-0.016734 2.094577,2.4139735 0 0 1 0.015466,-0.016607 2.094577,2.4139735 0 0 1 0.015593,-0.016353 2.094577,2.4139735 0 0 1 0.01572,-0.016226 2.094577,2.4139735 0 0 1 0.015846,-0.016036 2.094577,2.4139735 0 0 1 0.016036,-0.015846 2.094577,2.4139735 0 0 1 0.016163,-0.015656 2.094577,2.4139735 0 0 1 0.01629,-0.015466 2.094577,2.4139735 0 0 1 0.016417,-0.015275 2.094577,2.4139735 0 0 1 0.016543,-0.015086 2.094577,2.4139735 0 0 1 0.016734,-0.014895 2.094577,2.4139735 0 0 1 0.016797,-0.014705 2.094577,2.4139735 0 0 1 0.016924,-0.014452 2.094577,2.4139735 0 0 1 0.017114,-0.014325 2.094577,2.4139735 0 0 1 0.017177,-0.014135 2.094577,2.4139735 0 0 1 0.017304,-0.013881 2.094577,2.4139735 0 0 1 0.017431,-0.013691 2.094577,2.4139735 0 0 1 0.017558,-0.013501 2.094577,2.4139735 0 0 1 0.017684,-0.013311 2.094577,2.4139735 0 0 1 0.017811,-0.013057 2.094577,2.4139735 0 0 1 0.017874,-0.01293 2.094577,2.4139735 0 0 1 0.018065,-0.012677 2.094577,2.4139735 0 0 1 0.018128,-0.012423 2.094577,2.4139735 0 0 1 0.018191,-0.012297 2.094577,2.4139735 0 0 1 0.018382,-0.01198 2.094577,2.4139735 0 0 1 0.018445,-0.011852 2.094577,2.4139735 0 0 1 0.018508,-0.0116 2.094577,2.4139735 0 0 1 0.018635,-0.01141 2.094577,2.4139735 0 0 1 0.018762,-0.011156 2.094577,2.4139735 0 0 1 0.018825,-0.010966 2.094577,2.4139735 0 0 1 0.018952,-0.010775 2.094577,2.4139735 0 0 1 0.019015,-0.010521 2.094577,2.4139735 0 0 1 0.019142,-0.010268 2.094577,2.4139735 0 0 1 0.019205,-0.010079 2.094577,2.4139735 0 0 1 0.019333,-0.00989 2.094577,2.4139735 0 0 1 0.019332,-0.00957 2.094577,2.4139735 0 0 1 0.019522,-0.00944 2.094577,2.4139735 0 0 1 0.019523,-0.00919 2.094577,2.4139735 0 0 1 0.019649,-0.00894 2.094577,2.4139735 0 0 1 0.019649,-0.00868 2.094577,2.4139735 0 0 1 0.019839,-0.00849 2.094577,2.4139735 0 0 1 0.019839,-0.0083 2.094577,2.4139735 0 0 1 0.019903,-0.00799 2.094577,2.4139735 0 0 1 0.019966,-0.0078 2.094577,2.4139735 0 0 1 0.020093,-0.00761 2.094577,2.4139735 0 0 1 0.020093,-0.00729 2.094577,2.4139735 0 0 1 0.020219,-0.0071 2.094577,2.4139735 0 0 1 0.02022,-0.00685 2.094577,2.4139735 0 0 1 0.020346,-0.00666 2.094577,2.4139735 0 0 1 0.020347,-0.0064 2.094577,2.4139735 0 0 1 0.02041,-0.00615 2.094577,2.4139735 0 0 1 0.020473,-0.00589 2.094577,2.4139735 0 0 1 0.020537,-0.0057 2.094577,2.4139735 0 0 1 0.0206,-0.00545 2.094577,2.4139735 0 0 1 0.0206,-0.0052 2.094577,2.4139735 0 0 1 0.020663,-0.00494 2.094577,2.4139735 0 0 1 0.020727,-0.00475 2.094577,2.4139735 0 0 1 0.020727,-0.00444 2.094577,2.4139735 0 0 1 0.02079,-0.00425 2.094577,2.4139735 0 0 1 0.02079,-0.00399 2.094577,2.4139735 0 0 1 0.020854,-0.00374 2.094577,2.4139735 0 0 1 0.020917,-0.00355 2.094577,2.4139735 0 0 1 0.020917,-0.00323 2.094577,2.4139735 0 0 1 0.020917,-0.00304 2.094577,2.4139735 0 0 1 0.02098,-0.00279 2.094577,2.4139735 0 0 1 0.020981,-0.00254 2.094577,2.4139735 0 0 1 0.021044,-0.00228 2.094577,2.4139735 0 0 1 0.02098,-0.00209 2.094577,2.4139735 0 0 1 0.021044,-0.00177 2.094577,2.4139735 0 0 1 0.021107,-0.00158 2.094577,2.4139735 0 0 1 0.021044,-0.00133 2.094577,2.4139735 0 0 1 0.021107,-0.00108 2.094577,2.4139735 0 0 1 0.021107,-8.218e-4 2.094577,2.4139735 0 0 1 0.021107,-5.765e-4 2.094577,2.4139735 0 0 1 0.021107,-3.189e-4 2.094577,2.4139735 0 0 1 0.018572,-1.227e-4 2.094577,2.4139735 0 0 1 0.021107,1.227e-4 2.094577,2.4139735 0 0 1 0.021107,3.802e-4 2.094577,2.4139735 0 0 1 0.021107,6.378e-4 2.094577,2.4139735 0 0 1 0.021107,8.218e-4 2.094577,2.4139735 0 0 1 0.021107,0.00108 2.094577,2.4139735 0 0 1 0.021044,0.00139 2.094577,2.4139735 0 0 1 0.021043,0.00158 2.094577,2.4139735 0 0 1 0.021044,0.00184 2.094577,2.4139735 0 0 1 0.021044,0.00209 2.094577,2.4139735 0 0 1 0.021044,0.00228 2.094577,2.4139735 0 0 1 0.02098,0.0026 2.094577,2.4139735 0 0 1 0.02098,0.00279 2.094577,2.4139735 0 0 1 0.020917,0.00304 2.094577,2.4139735 0 0 1 0.020917,0.0033 2.094577,2.4139735 0 0 1 0.020854,0.00355 2.094577,2.4139735 0 0 1 0.020853,0.0038 2.094577,2.4139735 0 0 1 0.020854,0.00406 2.094577,2.4139735 0 0 1 0.020728,0.00425 2.094577,2.4139735 0 0 1 0.02079,0.0045 2.094577,2.4139735 0 0 1 0.02066,0.00475 2.094577,2.4139735 0 0 1 0.02066,0.00501 2.094577,2.4139735 0 0 1 0.0206,0.0052 2.094577,2.4139735 0 0 1 0.0206,0.00545 2.094577,2.4139735 0 0 1 0.02054,0.0057 2.094577,2.4139735 0 0 1 0.02041,0.00596 2.094577,2.4139735 0 0 1 0.02047,0.00621 2.094577,2.4139735 0 0 1 0.02035,0.0064 2.094577,2.4139735 0 0 1 0.02028,0.00666 2.094577,2.4139735 0 0 1 0.02022,0.00691 2.094577,2.4139735 0 0 1 0.02022,0.0071 2.094577,2.4139735 0 0 1 0.02009,0.00735 2.094577,2.4139735 0 0 1 0.02003,0.00761 2.094577,2.4139735 0 0 1 0.02003,0.0078 2.094577,2.4139735 0 0 1 0.0199,0.00811 2.094577,2.4139735 0 0 1 0.01984,0.00824 2.094577,2.4139735 0 0 1 0.01978,0.00856 2.094577,2.4139735 0 0 1 0.01971,0.00875 2.094577,2.4139735 0 0 1 0.01959,0.00894 2.094577,2.4139735 0 0 1 0.01952,0.00919 2.094577,2.4139735 0 0 1 0.01946,0.00944 2.094577,2.4139735 0 0 1 0.0194,0.0097 2.094577,2.4139735 0 0 1 0.01927,0.00982 2.094577,2.4139735 0 0 1 0.01921,0.010141 2.094577,2.4139735 0 0 1 0.01914,0.010331 2.094577,2.4139735 0 0 1 0.01902,0.010522 2.094577,2.4139735 0 0 1 0.01889,0.010775 2.094577,2.4139735 0 0 1 0.01889,0.010965 2.094577,2.4139735 0 0 1 0.0187,0.011219 2.094577,2.4139735 0 0 1 0.01863,0.01141 2.094577,2.4139735 0 0 1 0.01857,0.011663 2.094577,2.4139735 0 0 1 0.01838,0.011852 2.094577,2.4139735 0 0 1 0.01832,0.012043 2.094577,2.4139735 0 0 1 0.01825,0.012297 2.094577,2.4139735 0 0 1 0.01813,0.012487 2.094577,2.4139735 0 0 1 0.018,0.012677 2.094577,2.4139735 0 0 1 0.01787,0.012931 2.094577,2.4139735 0 0 1 0.01775,0.01312 2.094577,2.4139735 0 0 1 0.01768,0.013311 2.094577,2.4139735 0 0 1 0.01756,0.013501 2.094577,2.4139735 0 0 1 0.01743,0.013754 2.094577,2.4139735 0 0 1 0.0173,0.013882 2.094577,2.4139735 0 0 1 0.01718,0.014135 2.094577,2.4139735 0 0 1 0.01705,0.014325 2.094577,2.4139735 0 0 1 0.01692,0.014515 2.094577,2.4139735 0 0 1 0.0168,0.014769 2.094577,2.4139735 0 0 1 0.01667,0.014895 2.094577,2.4139735 0 0 1 0.01654,0.015086 2.094577,2.4139735 0 0 1 0.01642,0.015339 2.094577,2.4139735 0 0 1 0.01629,0.015466 2.094577,2.4139735 0 0 1 0.0161,0.015656 2.094577,2.4139735 0 0 1 0.01604,0.01591 2.094577,2.4139735 0 0 1 0.01585,0.016036 2.094577,2.4139735 0 0 1 0.01572,0.016227 2.094577,2.4139735 0 0 1 0.01559,0.016417 2.094577,2.4139735 0 0 1 0.0154,0.016607 2.094577,2.4139735 0 0 1 0.01534,0.016733 2.094577,2.4139735 0 0 1 0.01509,0.016987 2.094577,2.4139735 0 0 1 0.01502,0.017114 2.094577,2.4139735 0 0 1 0.01483,0.017304 2.094577,2.4139735 0 0 1 0.01471,0.017431 2.094577,2.4139735 0 0 1 0.01451,0.017684 2.094577,2.4139735 0 0 1 0.01439,0.017748 2.094577,2.4139735 0 0 1 0.0142,0.018001 2.094577,2.4139735 0 0 1 0.01407,0.018128 2.094577,2.4139735 0 0 1 0.01394,0.018318 2.094577,2.4139735 0 0 1 0.01375,0.018445 2.094577,2.4139735 0 0 1 0.01356,0.018635 2.094577,2.4139735 0 0 1 0.01344,0.018762 2.094577,2.4139735 0 0 1 0.01325,0.018952 2.094577,2.4139735 0 0 1 0.01306,0.019079 2.094577,2.4139735 0 0 1 0.01293,0.019205 2.094577,2.4139735 0 0 1 0.01274,0.019396 2.094577,2.4139735 0 0 1 0.01261,0.019522 2.094577,2.4139735 0 0 1 0.01242,0.019649 2.094577,2.4139735 0 0 1 0.01223,0.019839 2.094577,2.4139735 0 0 1 0.01204,0.019966 2.094577,2.4139735 0 0 1 0.01192,0.020093 2.094577,2.4139735 0 0 1 0.01166,0.02022 2.094577,2.4139735 0 0 1 0.01154,0.02041 2.094577,2.4139735 0 0 1 0.01141,0.020473 2.094577,2.4139735 0 0 1 0.01116,0.020663 2.094577,2.4139735 0 0 1 0.01097,0.020727 2.094577,2.4139735 0 0 1 0.01084,0.020917 2.094577,2.4139735 0 0 1 0.01065,0.02098 2.094577,2.4139735 0 0 1 0.01046,0.021171 2.094577,2.4139735 0 0 1 0.01021,0.021234 2.094577,2.4139735 0 0 1 0.01008,0.021361 2.094577,2.4139735 0 0 1 0.0083,0.018128 9.5874638,8.9936429 0 0 1 0.0928,-0.037777 2.5299335,3.1473852 0 0 0 -2.1883551,-1.5680091 2.5299335,3.1473852 0 0 0 -0.00501,0 z"
       inkscape:export-xdpi="96"
       inkscape:export-ydpi="96" />
    <path
       id="path861-6-7-6-9"
       style="display:inline;opacity:1;mix-blend-mode:normal;fill:#f5b22c;fill-opacity:0.93000001;fill-rule:evenodd;stroke:#000000;stroke-width:0.259624;stroke-miterlimit:4;stroke-dasharray:none;stroke-opacity:1"
       d="m 15.603064,4.1584579 a 9.5874647,8.9936438 0 0 0 -9.5807139,8.9936371 9.5874647,8.9936438 0 0 0 0.4144731,2.615567 c -0.2802192,0.62355 -0.5507276,1.232498 -0.8145562,1.808239 -0.4950856,1.108159 -0.7522931,2.323574 -0.7523128,3.55499 2.5e-6,4.502449 1.3301881,7.696195 5.4288318,8.353525 0.335798,0.05385 2.836525,0.291887 2.836525,0.291887 3.042832,0.128599 2.188613,0.109891 3.365723,0.109909 0.853261,-7e-6 3.755393,-0.04101 4.340519,-0.17919 2.763361,-0.658225 6.951058,-5.135114 7.056485,-9.541795 -5e-6,-1.249251 -0.193072,-2.486342 -0.568243,-3.641069 -0.750826,-2.377875 -1.579827,-4.390912 -2.55738,-6.019693 -10e-6,-1.6e-5 8e-6,-3.3e-5 0,-6.5e-5 a 9.5874647,8.9936438 0 0 0 -9.162631,-6.3459438 9.5874647,8.9936438 0 0 0 -0.0067,0 z"
       inkscape:export-xdpi="96"
       inkscape:export-ydpi="96" />
    <path
       id="path1123"
       style="display:inline;opacity:0.92;mix-blend-mode:normal;fill:#ffffff;fill-opacity:0.988235;fill-rule:evenodd;stroke:none;stroke-width:0.262508;stroke-miterlimit:4;stroke-dasharray:none;stroke-opacity:1"
       d="m 10.536721,5.6480443 a 3.5760462,4.2986906 53.268459 0 0 -0.0016,0.014659 3.5760462,4.2986906 53.268459 0 0 -0.003,0.029379 3.5760462,4.2986906 53.268459 0 0 -0.0028,0.029377 3.5760462,4.2986906 53.268459 0 0 -0.0025,0.029374 3.5760462,4.2986906 53.268459 0 0 -0.0023,0.029372 3.5760462,4.2986906 53.268459 0 0 -0.0021,0.029306 3.5760462,4.2986906 53.268459 0 0 -0.0018,0.029304 3.5760462,4.2986906 53.268459 0 0 -0.0016,0.029301 3.5760462,4.2986906 53.268459 0 0 -0.0014,0.029236 3.5760462,4.2986906 53.268459 0 0 -0.0012,0.029234 3.5760462,4.2986906 53.268459 0 0 -9.08e-4,0.029168 3.5760462,4.2986906 53.268459 0 0 -6.74e-4,0.029165 3.5760462,4.2986906 53.268459 0 0 -4.18e-4,0.0291 3.5760462,4.2986906 53.268459 0 0 -1.71e-4,0.029034 3.5760462,4.2986906 53.268459 0 0 4.5e-5,0.029094 3.5760462,4.2986906 53.268459 0 0 3.19e-4,0.028965 3.5760462,4.2986906 53.268459 0 0 5.64e-4,0.028963 3.5760462,4.2986906 53.268459 0 0 8.1e-4,0.028897 3.5760462,4.2986906 53.268459 0 0 0.0011,0.028894 3.5760462,4.2986906 53.268459 0 0 0.0013,0.028765 3.5760462,4.2986906 53.268459 0 0 0.0015,0.028763 3.5760462,4.2986906 53.268459 0 0 0.0017,0.028761 3.5760462,4.2986906 53.268459 0 0 0.002,0.028631 3.5760462,4.2986906 53.268459 0 0 0.0022,0.028629 3.5760462,4.2986906 53.268459 0 0 0.0024,0.028563 3.5760462,4.2986906 53.268459 0 0 0.0027,0.028497 3.5760462,4.2986906 53.268459 0 0 0.0029,0.028432 3.5760462,4.2986906 53.268459 0 0 0.0032,0.028365 3.5760462,4.2986906 53.268459 0 0 0.0033,0.0283 3.5760462,4.2986906 53.268459 0 0 0.0037,0.028234 3.5760462,4.2986906 53.268459 0 0 0.0039,0.028169 3.5760462,4.2986906 53.268459 0 0 0.0041,0.028166 3.5760462,4.2986906 53.268459 0 0 0.0043,0.028037 3.5760462,4.2986906 53.268459 0 0 0.0046,0.027971 3.5760462,4.2986906 53.268459 0 0 0.0048,0.027905 3.5760462,4.2986906 53.268459 0 0 0.005,0.027776 3.5760462,4.2986906 53.268459 0 0 0.0053,0.027774 3.5760462,4.2986906 53.268459 0 0 0.0055,0.027644 3.5760462,4.2986906 53.268459 0 0 0.0057,0.027642 3.5760462,4.2986906 53.268459 0 0 0.006,0.027513 3.5760462,4.2986906 53.268459 0 0 0.0062,0.027384 3.5760462,4.2986906 53.268459 0 0 0.0064,0.027381 3.5760462,4.2986906 53.268459 0 0 0.0067,0.027252 3.5760462,4.2986906 53.268459 0 0 0.0069,0.027187 3.5760462,4.2986906 53.268459 0 0 0.0072,0.027058 3.5760462,4.2986906 53.268459 0 0 0.0073,0.026992 3.5760462,4.2986906 53.268459 0 0 0.0076,0.026926 3.5760462,4.2986906 53.268459 0 0 0.0079,0.026797 3.5760462,4.2986906 53.268459 0 0 0.0081,0.026731 3.5760462,4.2986906 53.268459 0 0 0.0083,0.026602 3.5760462,4.2986906 53.268459 0 0 0.0085,0.026536 3.5760462,4.2986906 53.268459 0 0 0.0088,0.026407 3.5760462,4.2986906 53.268459 0 0 0.009,0.026341 3.5760462,4.2986906 53.268459 0 0 0.0092,0.026213 3.5760462,4.2986906 53.268459 0 0 0.0095,0.026083 3.5760462,4.2986906 53.268459 0 0 0.0097,0.026017 3.5760462,4.2986906 53.268459 0 0 0.0099,0.025889 3.5760462,4.2986906 53.268459 0 0 0.01011,0.02576 3.5760462,4.2986906 53.268459 0 0 0.01038,0.025693 3.5760462,4.2986906 53.268459 0 0 0.01057,0.025565 3.5760462,4.2986906 53.268459 0 0 0.01076,0.025436 3.5760462,4.2986906 53.268459 0 0 0.01102,0.02537 3.5760462,4.2986906 53.268459 0 0 0.01121,0.025178 3.5760462,4.2986906 53.268459 0 0 0.01147,0.025112 3.5760462,4.2986906 53.268459 0 0 0.01167,0.024983 3.5760462,4.2986906 53.268459 0 0 0.01193,0.024854 3.5760462,4.2986906 53.268459 0 0 0.01211,0.024789 3.5760462,4.2986906 53.268459 0 0 0.01231,0.024596 3.5760462,4.2986906 53.268459 0 0 0.01256,0.024467 3.5760462,4.2986906 53.268459 0 0 0.01276,0.024401 3.5760462,4.2986906 53.268459 0 0 0.01301,0.024208 3.5760462,4.2986906 53.268459 0 0 0.01314,0.024081 3.5760462,4.2986906 53.268459 0 0 0.01347,0.024014 3.5760462,4.2986906 53.268459 0 0 0.0136,0.023822 3.5760462,4.2986906 53.268459 0 0 0.01385,0.023693 3.5760462,4.2986906 53.268459 0 0 0.01405,0.023628 3.5760462,4.2986906 53.268459 0 0 0.0143,0.023435 3.5760462,4.2986906 53.268459 0 0 0.01443,0.023243 3.5760462,4.2986906 53.268459 0 0 0.01469,0.023177 3.5760462,4.2986906 53.268459 0 0 0.01495,0.023048 3.5760462,4.2986906 53.268459 0 0 0.01508,0.022857 3.5760462,4.2986906 53.268459 0 0 0.01533,0.022727 3.5760462,4.2986906 53.268459 0 0 0.01553,0.022598 3.5760462,4.2986906 53.268459 0 0 0.01572,0.022406 3.5760462,4.2986906 53.268459 0 0 0.01591,0.022341 3.5760462,4.2986906 53.268459 0 0 0.01617,0.022148 3.5760462,4.2986906 53.268459 0 0 0.0163,0.021956 3.5760462,4.2986906 53.268459 0 0 0.01656,0.021891 3.5760462,4.2986906 53.268459 0 0 0.01675,0.021635 3.5760462,4.2986906 53.268459 0 0 0.01694,0.02157 3.5760462,4.2986906 53.268459 0 0 0.01713,0.021378 3.5760462,4.2986906 53.268459 0 0 0.01733,0.021249 3.5760462,4.2986906 53.268459 0 0 0.01759,0.021056 3.5760462,4.2986906 53.268459 0 0 0.01771,0.020928 3.5760462,4.2986906 53.268459 0 0 0.0179,0.020736 3.5760462,4.2986906 53.268459 0 0 0.01816,0.020607 3.5760462,4.2986906 53.268459 0 0 0.01829,0.020415 3.5760462,4.2986906 53.268459 0 0 0.01848,0.020223 3.5760462,4.2986906 53.268459 0 0 0.01874,0.020093 3.5760462,4.2986906 53.268459 0 0 0.01887,0.019965 3.5760462,4.2986906 53.268459 0 0 0.01906,0.019774 3.5760462,4.2986906 53.268459 0 0 0.01925,0.019581 3.5760462,4.2986906 53.268459 0 0 0.01945,0.019452 3.5760462,4.2986906 53.268459 0 0 0.01964,0.019261 3.5760462,4.2986906 53.268459 0 0 0.01983,0.019068 3.5760462,4.2986906 53.268459 0 0 0.02002,0.018876 3.5760462,4.2986906 53.268459 0 0 0.02015,0.018748 3.5760462,4.2986906 53.268459 0 0 0.02035,0.018556 3.5760462,4.2986906 53.268459 0 0 0.02054,0.018427 3.5760462,4.2986906 53.268459 0 0 0.02073,0.018172 3.5760462,4.2986906 53.268459 0 0 0.02092,0.018043 3.5760462,4.2986906 53.268459 0 0 0.02105,0.017852 3.5760462,4.2986906 53.268459 0 0 0.02124,0.017659 3.5760462,4.2986906 53.268459 0 0 0.02144,0.01753 3.5760462,4.2986906 53.268459 0 0 0.02156,0.017276 3.5760462,4.2986906 53.268459 0 0 0.02182,0.017146 3.5760462,4.2986906 53.268459 0 0 0.02188,0.016892 3.5760462,4.2986906 53.268459 0 0 0.02214,0.016763 3.5760462,4.2986906 53.268459 0 0 0.02227,0.016571 3.5760462,4.2986906 53.268459 0 0 0.0224,0.01638 3.5760462,4.2986906 53.268459 0 0 0.02259,0.016188 3.5760462,4.2986906 53.268459 0 0 0.02278,0.015996 3.5760462,4.2986906 53.268459 0 0 0.02291,0.015804 3.5760462,4.2986906 53.268459 0 0 0.0231,0.015612 3.5760462,4.2986906 53.268459 0 0 0.02323,0.015421 3.5760462,4.2986906 53.268459 0 0 0.02336,0.015293 3.5760462,4.2986906 53.268459 0 0 0.02355,0.015037 3.5760462,4.2986906 53.268459 0 0 0.02374,0.014845 3.5760462,4.2986906 53.268459 0 0 0.02387,0.014591 3.5760462,4.2986906 53.268459 0 0 0.024,0.014462 3.5760462,4.2986906 53.268459 0 0 0.02419,0.01427 3.5760462,4.2986906 53.268459 0 0 0.02425,0.014079 3.5760462,4.2986906 53.268459 0 0 0.02451,0.013823 3.5760462,4.2986906 53.268459 0 0 0.02457,0.013695 3.5760462,4.2986906 53.268459 0 0 0.02477,0.01344 3.5760462,4.2986906 53.268459 0 0 0.02489,0.013248 3.5760462,4.2986906 53.268459 0 0 0.02502,0.013057 3.5760462,4.2986906 53.268459 0 0 0.02521,0.012865 3.5760462,4.2986906 53.268459 0 0 0.02528,0.01261 3.5760462,4.2986906 53.268459 0 0 0.02547,0.012482 3.5760462,4.2986906 53.268459 0 0 0.02559,0.012226 3.5760462,4.2986906 53.268459 0 0 0.02572,0.012035 3.5760462,4.2986906 53.268459 0 0 0.02585,0.011781 3.5760462,4.2986906 53.268459 0 0 0.02597,0.011654 3.5760462,4.2986906 53.268459 0 0 0.02611,0.011399 3.5760462,4.2986906 53.268459 0 0 0.02623,0.011206 3.5760462,4.2986906 53.268459 0 0 0.02636,0.010953 3.5760462,4.2986906 53.268459 0 0 0.02655,0.010822 3.5760462,4.2986906 53.268459 0 0 0.02661,0.010568 3.5760462,4.2986906 53.268459 0 0 0.02674,0.010314 3.5760462,4.2986906 53.268459 0 0 0.02687,0.010187 3.5760462,4.2986906 53.268459 0 0 0.02693,0.00993 3.5760462,4.2986906 53.268459 0 0 0.02712,0.00968 3.5760462,4.2986906 53.268459 0 0 0.02719,0.00955 3.5760462,4.2986906 53.268459 0 0 0.02731,0.00929 3.5760462,4.2986906 53.268459 0 0 0.02744,0.00904 3.5760462,4.2986906 53.268459 0 0 0.02757,0.00885 3.5760462,4.2986906 53.268459 0 0 1.22e-4,6.25e-5 3.5760462,4.2986906 53.268459 0 0 0.02763,0.00866 3.5760462,4.2986906 53.268459 0 0 0.02776,0.0084 3.5760462,4.2986906 53.268459 0 0 0.02788,0.00821 3.5760462,4.2986906 53.268459 0 0 0.02801,0.00802 3.5760462,4.2986906 53.268459 0 0 0.02808,0.00776 3.5760462,4.2986906 53.268459 0 0 0.02814,0.00758 3.5760462,4.2986906 53.268459 0 0 0.02833,0.00732 3.5760462,4.2986906 53.268459 0 0 0.02833,0.00713 3.5760462,4.2986906 53.268459 0 0 0.02852,0.00687 3.5760462,4.2986906 53.268459 0 0 0.02852,0.00668 3.5760462,4.2986906 53.268459 0 0 0.02871,0.00649 3.5760462,4.2986906 53.268459 0 0 0.02871,0.00624 3.5760462,4.2986906 53.268459 0 0 0.0289,0.00598 3.5760462,4.2986906 53.268459 0 0 0.0289,0.00586 3.5760462,4.2986906 53.268459 0 0 0.02903,0.00554 3.5760462,4.2986906 53.268459 0 0 0.02909,0.00535 3.5760462,4.2986906 53.268459 0 0 0.02921,0.00516 3.5760462,4.2986906 53.268459 0 0 0.02921,0.0049 3.5760462,4.2986906 53.268459 0 0 0.02934,0.00471 3.5760462,4.2986906 53.268459 0 0 0.02947,0.00445 3.5760462,4.2986906 53.268459 0 0 0.02947,0.0042 3.5760462,4.2986906 53.268459 0 0 0.02959,0.00401 3.5760462,4.2986906 53.268459 0 0 0.02965,0.00382 3.5760462,4.2986906 53.268459 0 0 0.02972,0.00357 3.5760462,4.2986906 53.268459 0 0 0.02978,0.00331 3.5760462,4.2986906 53.268459 0 0 0.02984,0.00312 3.5760462,4.2986906 53.268459 0 0 0.0299,0.00293 3.5760462,4.2986906 53.268459 0 0 0.02996,0.00267 3.5760462,4.2986906 53.268459 0 0 0.03003,0.00242 3.5760462,4.2986906 53.268459 0 0 0.03009,0.00223 3.5760462,4.2986906 53.268459 0 0 0.03015,0.00197 3.5760462,4.2986906 53.268459 0 0 0.03022,0.00178 3.5760462,4.2986906 53.268459 0 0 0.03028,0.00153 3.5760462,4.2986906 53.268459 0 0 0.03034,0.00128 3.5760462,4.2986906 53.268459 0 0 0.03034,0.00108 3.5760462,4.2986906 53.268459 0 0 0.03047,8.831e-4 3.5760462,4.2986906 53.268459 0 0 0.03046,6.501e-4 3.5760462,4.2986906 53.268459 0 0 0.03046,3.925e-4 3.5760462,4.2986906 53.268459 0 0 0.03059,1.963e-4 3.5760462,4.2986906 53.268459 0 0 0.03059,-5.18e-5 3.5760462,4.2986906 53.268459 0 0 0.03065,-2.576e-4 3.5760462,4.2986906 53.268459 0 0 0.03071,-5.029e-4 3.5760462,4.2986906 53.268459 0 0 0.03071,-6.991e-4 3.5760462,4.2986906 53.268459 0 0 0.03071,-9.567e-4 3.5760462,4.2986906 53.268459 0 0 0.03084,-0.0012 3.5760462,4.2986906 53.268459 0 0 0.03077,-0.00139 3.5760462,4.2986906 53.268459 0 0 0.03089,-0.00164 3.5760462,4.2986906 53.268459 0 0 0.03083,-0.00183 3.5760462,4.2986906 53.268459 0 0 0.03089,-0.00209 3.5760462,4.2986906 53.268459 0 0 0.03096,-0.00228 3.5760462,4.2986906 53.268459 0 0 0.03095,-0.00253 3.5760462,4.2986906 53.268459 0 0 0.03095,-0.00272 3.5760462,4.2986906 53.268459 0 0 0.03101,-0.00298 3.5760462,4.2986906 53.268459 0 0 0.03101,-0.00323 3.5760462,4.2986906 53.268459 0 0 0.03101,-0.00342 3.5760462,4.2986906 53.268459 0 0 0.031,-0.00367 3.5760462,4.2986906 53.268459 0 0 0.03107,-0.00386 3.5760462,4.2986906 53.268459 0 0 0.03107,-0.00406 3.5760462,4.2986906 53.268459 0 0 0.03106,-0.00437 3.5760462,4.2986906 53.268459 0 0 0.03106,-0.0045 3.5760462,4.2986906 53.268459 0 0 0.03106,-0.00482 3.5760462,4.2986906 53.268459 0 0 0.03106,-0.00494 3.5760462,4.2986906 53.268459 0 0 0.03105,-0.00526 3.5760462,4.2986906 53.268459 0 0 0.03111,-0.00539 3.5760462,4.2986906 53.268459 0 0 0.03105,-0.0057 3.5760462,4.2986906 53.268459 0 0 0.03105,-0.00583 3.5760462,4.2986906 53.268459 0 0 0.03104,-0.00615 3.5760462,4.2986906 53.268459 0 0 0.03104,-0.00627 3.5760462,4.2986906 53.268459 0 0 0.03104,-0.00659 3.5760462,4.2986906 53.268459 0 0 0.03103,-0.00672 3.5760462,4.2986906 53.268459 0 0 0.03103,-0.00704 3.5760462,4.2986906 53.268459 0 0 0.03097,-0.00716 3.5760462,4.2986906 53.268459 0 0 0.03096,-0.00741 3.5760462,4.2986906 53.268459 0 0 0.03096,-0.00767 3.5760462,4.2986906 53.268459 0 0 0.03096,-0.00786 3.5760462,4.2986906 53.268459 0 0 0.03089,-0.00805 3.5760462,4.2986906 53.268459 0 0 0.03089,-0.0083 3.5760462,4.2986906 53.268459 0 0 0.03089,-0.00849 3.5760462,4.2986906 53.268459 0 0 0.03082,-0.00875 3.5760462,4.2986906 53.268459 0 0 0.03075,-0.00893 3.5760462,4.2986906 53.268459 0 0 0.03082,-0.00919 3.5760462,4.2986906 53.268459 0 0 0.03069,-0.00938 3.5760462,4.2986906 53.268459 0 0 0.03075,-0.00957 3.5760462,4.2986906 53.268459 0 0 0.03062,-0.00982 3.5760462,4.2986906 53.268459 0 0 0.03061,-0.010009 3.5760462,4.2986906 53.268459 0 0 0.03061,-0.0102 3.5760462,4.2986906 53.268459 0 0 0.03054,-0.010453 3.5760462,4.2986906 53.268459 0 0 0.03048,-0.010642 3.5760462,4.2986906 53.268459 0 0 0.03041,-0.010831 3.5760462,4.2986906 53.268459 0 0 0.03041,-0.011084 3.5760462,4.2986906 53.268459 0 0 0.03034,-0.011276 3.5760462,4.2986906 53.268459 0 0 0.03028,-0.011463 3.5760462,4.2986906 53.268459 0 0 0.03027,-0.011717 3.5760462,4.2986906 53.268459 0 0 0.03021,-0.011907 3.5760462,4.2986906 53.268459 0 0 0.03007,-0.012096 3.5760462,4.2986906 53.268459 0 0 0.03007,-0.012286 3.5760462,4.2986906 53.268459 0 0 0.03001,-0.012538 3.5760462,4.2986906 53.268459 0 0 0.02994,-0.012729 3.5760462,4.2986906 53.268459 0 0 0.02994,-0.012918 3.5760462,4.2986906 53.268459 0 0 0.0298,-0.013108 3.5760462,4.2986906 53.268459 0 0 0.02974,-0.01336 3.5760462,4.2986906 53.268459 0 0 0.02967,-0.013549 3.5760462,4.2986906 53.268459 0 0 0.02961,-0.013739 3.5760462,4.2986906 53.268459 0 0 0.02954,-0.013929 3.5760462,4.2986906 53.268459 0 0 0.02947,-0.014118 3.5760462,4.2986906 53.268459 0 0 0.02934,-0.014307 3.5760462,4.2986906 53.268459 0 0 0.02934,-0.01456 3.5760462,4.2986906 53.268459 0 0 0.0292,-0.014686 3.5760462,4.2986906 53.268459 0 0 0.02914,-0.014939 3.5760462,4.2986906 53.268459 0 0 0.02907,-0.015065 3.5760462,4.2986906 53.268459 0 0 0.02894,-0.015317 3.5760462,4.2986906 53.268459 0 0 0.02887,-0.015506 3.5760462,4.2986906 53.268459 0 0 0.02881,-0.015696 3.5760462,4.2986906 53.268459 0 0 0.02874,-0.015885 3.5760462,4.2986906 53.268459 0 0 0.02861,-0.016075 3.5760462,4.2986906 53.268459 0 0 0.02848,-0.016263 3.5760462,4.2986906 53.268459 0 0 0.02841,-0.016453 3.5760462,4.2986906 53.268459 0 0 0.02834,-0.016642 3.5760462,4.2986906 53.268459 0 0 0.02828,-0.016832 3.5760462,4.2986906 53.268459 0 0 0.02808,-0.016957 3.5760462,4.2986906 53.268459 0 0 0.02801,-0.017209 3.5760462,4.2986906 53.268459 0 0 0.02794,-0.017399 3.5760462,4.2986906 53.268459 0 0 0.02781,-0.017524 3.5760462,4.2986906 53.268459 0 0 0.02768,-0.017777 3.5760462,4.2986906 53.268459 0 0 0.02761,-0.017903 3.5760462,4.2986906 53.268459 0 0 0.02749,-0.018091 3.5760462,4.2986906 53.268459 0 0 0.02742,-0.018281 3.5760462,4.2986906 53.268459 0 0 0.02723,-0.018406 3.5760462,4.2986906 53.268459 0 0 0.02715,-0.018659 3.5760462,4.2986906 53.268459 0 0 0.02702,-0.018784 3.5760462,4.2986906 53.268459 0 0 0.02696,-0.018974 3.5760462,4.2986906 53.268459 0 0 0.02676,-0.019162 3.5760462,4.2986906 53.268459 0 0 0.02669,-0.019351 3.5760462,4.2986906 53.268459 0 0 0.02656,-0.019476 3.5760462,4.2986906 53.268459 0 0 0.02643,-0.019666 3.5760462,4.2986906 53.268459 0 0 0.0263,-0.019791 3.5760462,4.2986906 53.268459 0 0 0.02617,-0.01998 3.5760462,4.2986906 53.268459 0 0 0.02604,-0.020169 3.5760462,4.2986906 53.268459 0 0 0.0259,-0.020357 3.5760462,4.2986906 53.268459 0 0 0.02578,-0.020482 3.5760462,4.2986906 53.268459 0 0 0.02565,-0.020672 3.5760462,4.2986906 53.268459 0 0 0.02551,-0.020797 3.5760462,4.2986906 53.268459 0 0 0.02538,-0.020923 3.5760462,4.2986906 53.268459 0 0 0.02525,-0.021175 3.5760462,4.2986906 53.268459 0 0 0.02512,-0.021237 3.5760462,4.2986906 53.268459 0 0 0.02492,-0.021488 3.5760462,4.2986906 53.268459 0 0 0.02485,-0.021551 3.5760462,4.2986906 53.268459 0 0 0.02466,-0.021803 3.5760462,4.2986906 53.268459 0 0 0.02453,-0.021865 3.5760462,4.2986906 53.268459 0 0 0.0244,-0.022054 3.5760462,4.2986906 53.268459 0 0 0.0242,-0.022178 3.5760462,4.2986906 53.268459 0 0 0.02407,-0.022367 3.5760462,4.2986906 53.268459 0 0 0.02394,-0.022493 3.5760462,4.2986906 53.268459 0 0 0.02381,-0.022681 3.5760462,4.2986906 53.268459 0 0 0.02361,-0.022743 3.5760462,4.2986906 53.268459 0 0 0.02348,-0.022932 3.5760462,4.2986906 53.268459 0 0 0.02329,-0.02312 3.5760462,4.2986906 53.268459 0 0 0.02316,-0.023182 3.5760462,4.2986906 53.268459 0 0 0.02296,-0.02337 3.5760462,4.2986906 53.268459 0 0 0.02283,-0.023495 3.5760462,4.2986906 53.268459 0 0 0.0227,-0.023621 3.5760462,4.2986906 53.268459 0 0 0.0225,-0.023746 3.5760462,4.2986906 53.268459 0 0 0.02237,-0.023871 3.5760462,4.2986906 53.268459 0 0 0.02218,-0.023996 3.5760462,4.2986906 53.268459 0 0 0.02198,-0.024184 3.5760462,4.2986906 53.268459 0 0 0.02185,-0.02431 3.5760462,4.2986906 53.268459 0 0 0.02165,-0.024371 3.5760462,4.2986906 53.268459 0 0 0.02152,-0.02456 3.5760462,4.2986906 53.268459 0 0 0.02133,-0.024621 3.5760462,4.2986906 53.268459 0 0 0.0212,-0.02481 3.5760462,4.2986906 53.268459 0 0 0.02093,-0.024934 3.5760462,4.2986906 53.268459 0 0 0.0208,-0.024996 3.5760462,4.2986906 53.268459 0 0 0.02061,-0.025184 3.5760462,4.2986906 53.268459 0 0 0.02048,-0.025247 3.5760462,4.2986906 53.268459 0 0 0.02028,-0.025371 3.5760462,4.2986906 53.268459 0 0 0.02009,-0.025496 3.5760462,4.2986906 53.268459 0 0 0.01989,-0.025621 3.5760462,4.2986906 53.268459 0 0 0.0197,-0.025682 3.5760462,4.2986906 53.268459 0 0 0.01956,-0.025871 3.5760462,4.2986906 53.268459 0 0 0.01937,-0.025933 3.5760462,4.2986906 53.268459 0 0 0.01911,-0.025993 3.5760462,4.2986906 53.268459 0 0 0.01898,-0.026182 3.5760462,4.2986906 53.268459 0 0 0.01878,-0.026244 3.5760462,4.2986906 53.268459 0 0 0.01865,-0.026369 3.5760462,4.2986906 53.268459 0 0 0.01839,-0.02643 3.5760462,4.2986906 53.268459 0 0 0.0182,-0.026554 3.5760462,4.2986906 53.268459 0 0 0.018,-0.026679 3.5760462,4.2986906 53.268459 0 0 0.01787,-0.026741 3.5760462,4.2986906 53.268459 0 0 0.01761,-0.026865 3.5760462,4.2986906 53.268459 0 0 0.01741,-0.026927 3.5760462,4.2986906 53.268459 0 0 0.01722,-0.026988 3.5760462,4.2986906 53.268459 0 0 0.01709,-0.027113 3.5760462,4.2986906 53.268459 0 0 0.01683,-0.027238 3.5760462,4.2986906 53.268459 0 0 0.01663,-0.027299 3.5760462,4.2986906 53.268459 0 0 0.01644,-0.02736 3.5760462,4.2986906 53.268459 0 0 0.01618,-0.027485 3.5760462,4.2986906 53.268459 0 0 0.01605,-0.027547 3.5760462,4.2986906 53.268459 0 0 0.01585,-0.027608 3.5760462,4.2986906 53.268459 0 0 0.01559,-0.027669 3.5760462,4.2986906 53.268459 0 0 0.0154,-0.027794 3.5760462,4.2986906 53.268459 0 0 0.0152,-0.027855 3.5760462,4.2986906 53.268459 0 0 0.015,-0.027916 3.5760462,4.2986906 53.268459 0 0 0.01481,-0.028041 3.5760462,4.2986906 53.268459 0 0 0.01455,-0.028039 3.5760462,4.2986906 53.268459 0 0 0.01442,-0.028164 3.5760462,4.2986906 53.268459 0 1 0,-6.33e-5 3.5760462,4.2986906 53.268459 0 0 0.01416,-0.028225 3.5760462,4.2986906 53.268459 0 0 0.01397,-0.028286 3.5760462,4.2986906 53.268459 0 0 0.0137,-0.028347 3.5760462,4.2986906 53.268459 0 0 0.01351,-0.028409 3.5760462,4.2986906 53.268459 0 0 0.01332,-0.028406 3.5760462,4.2986906 53.268459 0 0 0.01312,-0.028531 3.5760462,4.2986906 53.268459 0 0 0.01286,-0.028592 3.5760462,4.2986906 53.268459 0 0 0.01261,-0.02859 3.5760462,4.2986906 53.268459 0 0 0.01246,-0.028715 3.5760462,4.2986906 53.268459 0 0 0.01222,-0.028712 3.5760462,4.2986906 53.268459 0 0 0.01201,-0.028773 3.5760462,4.2986906 53.268459 0 0 0.01175,-0.028834 3.5760462,4.2986906 53.268459 0 0 0.01157,-0.028896 3.5760462,4.2986906 53.268459 0 0 0.0113,-0.028956 3.5760462,4.2986906 53.268459 0 0 0.0111,-0.028954 3.5760462,4.2986906 53.268459 0 0 0.01092,-0.029016 3.5760462,4.2986906 53.268459 0 0 0.01065,-0.029013 3.5760462,4.2986906 53.268459 0 0 0.01046,-0.029138 3.5760462,4.2986906 53.268459 0 0 0.0102,-0.029135 3.5760462,4.2986906 53.268459 0 0 0.01,-0.029134 3.5760462,4.2986906 53.268459 0 0 0.0098,-0.029194 3.5760462,4.2986906 53.268459 0 0 0.0095,-0.029256 3.5760462,4.2986906 53.268459 0 0 0.0093,-0.029254 3.5760462,4.2986906 53.268459 0 0 0.0091,-0.029251 3.5760462,4.2986906 53.268459 0 0 0.0088,-0.029312 3.5760462,4.2986906 53.268459 0 0 0.0086,-0.029373 3.5760462,4.2986906 53.268459 0 0 0.0084,-0.029307 3.5760462,4.2986906 53.268459 0 0 0.0082,-0.029432 3.5760462,4.2986906 53.268459 0 0 0.0079,-0.029366 3.5760462,4.2986906 53.268459 0 0 0.0077,-0.029427 3.5760462,4.2986906 53.268459 0 0 0.0075,-0.029425 3.5760462,4.2986906 53.268459 0 0 0.0072,-0.029422 3.5760462,4.2986906 53.268459 0 0 0.007,-0.029483 3.5760462,4.2986906 53.268459 0 0 0.0068,-0.029481 3.5760462,4.2986906 53.268459 0 0 0.0065,-0.029478 3.5760462,4.2986906 53.268459 0 0 0.0064,-0.029477 3.5760462,4.2986906 53.268459 0 0 0.0061,-0.029537 3.5760462,4.2986906 53.268459 0 0 0.0059,-0.029471 3.5760462,4.2986906 53.268459 0 0 0.0057,-0.029469 3.5760462,4.2986906 53.268459 0 0 0.0053,-0.02953 3.5760462,4.2986906 53.268459 0 0 0.0052,-0.029465 3.5760462,4.2986906 53.268459 0 0 0.0049,-0.029525 3.5760462,4.2986906 53.268459 0 0 0.0047,-0.029523 3.5760462,4.2986906 53.268459 0 0 0.0044,-0.029457 3.5760462,4.2986906 53.268459 0 0 0.0042,-0.029455 3.5760462,4.2986906 53.268459 0 0 0.004,-0.029516 3.5760462,4.2986906 53.268459 0 0 0.0037,-0.02945 3.5760462,4.2986906 53.268459 0 0 0.0035,-0.029448 3.5760462,4.2986906 53.268459 0 0 0.0033,-0.029382 3.5760462,4.2986906 53.268459 0 0 0.003,-0.029443 3.5760462,4.2986906 53.268459 0 0 0.0028,-0.029377 3.5760462,4.2986906 53.268459 0 0 0.0025,-0.029375 3.5760462,4.2986906 53.268459 0 0 0.0023,-0.029372 3.5760462,4.2986906 53.268459 0 0 0.0021,-0.029306 3.5760462,4.2986906 53.268459 0 0 0.0018,-0.029305 3.5760462,4.2986906 53.268459 0 0 0.0017,-0.0293 3.5760462,4.2986906 53.268459 0 0 0.0013,-0.029236 3.5760462,4.2986906 53.268459 0 0 0.0011,-0.029169 3.5760462,4.2986906 53.268459 0 0 0.0011,-0.02923 3.5760462,4.2986906 53.268459 0 0 7.36e-4,-0.029099 3.5760462,4.2986906 53.268459 0 0 4.91e-4,-0.029162 3.5760462,4.2986906 53.268459 0 0 1.22e-4,-0.026563 8.9936504,9.8015769 89.458251 0 0 -3.037101,-0.4104263 8.9936504,9.8015769 89.458251 0 0 -0.0069,7.48e-5 8.9936504,9.8015769 89.458251 0 0 -5.043682,1.3447141 z"
       inkscape:export-xdpi="96"
       inkscape:export-ydpi="96" />
    <path
       id="path861-6-7"
       style="display:inline;opacity:0.919;mix-blend-mode:normal;fill:#ffffff;fill-opacity:1;fill-rule:evenodd;stroke:none;stroke-width:0.259624;stroke-miterlimit:4;stroke-dasharray:none;stroke-opacity:1"
       d="m 15.984724,11.329026 a 4.5685871,4.37475 0 0 0 -2.841026,0.95622 3.984627,3.8155661 0 0 0 -2.285714,-0.690194 3.984627,3.8155661 0 0 0 -3.9846115,3.815564 3.984627,3.8155661 0 0 0 1.6745588,3.108889 8.0183928,7.4702053 0 0 0 -2.0334428,4.971384 8.0183928,7.4702053 0 0 0 2.7489283,5.630585 c 0.3287707,0.101179 0.6791695,0.182448 1.0528822,0.242383 0.335799,0.05385 2.836526,0.291886 2.836526,0.291886 3.042832,0.1286 2.188615,0.109892 3.365724,0.109909 0.452828,-3e-6 1.481944,-0.01174 2.436316,-0.04323 a 8.0183928,7.4702053 0 0 0 3.596381,-6.231534 8.0183928,7.4702053 0 0 0 -2.637752,-5.538612 4.5685871,4.37475 0 0 0 0.649629,-2.248507 4.5685871,4.37475 0 0 0 -4.568638,-4.374744 4.5685871,4.37475 0 0 0 -0.0098,0 z"
       inkscape:export-xdpi="96"
       inkscape:export-ydpi="96" />
    <ellipse
       style="opacity:0.92;mix-blend-mode:normal;fill:#3c211c;fill-opacity:1;fill-rule:evenodd;stroke:none;stroke-width:0.240152;stroke-linejoin:round;stroke-miterlimit:4;stroke-dasharray:none;stroke-opacity:1"
       id="path1091"
       cx="12.915984"
       cy="12.966865"
       rx="1.5645458"
       ry="1.305624"
       inkscape:export-xdpi="96"
       inkscape:export-ydpi="96" />
    <ellipse
       style="opacity:0.92;mix-blend-mode:normal;fill:#3c211c;fill-opacity:1;fill-rule:evenodd;stroke:none;stroke-width:0.122657"
       id="path2302"
       cx="9.8353853"
       cy="10.93528"
       rx="1.1358527"
       ry="1.2981173"
       inkscape:export-xdpi="96"
       inkscape:export-ydpi="96" />
    <ellipse
       style="opacity:0.92;mix-blend-mode:normal;fill:#3c211c;fill-opacity:1;fill-rule:evenodd;stroke:none;stroke-width:0.128206"
       id="path2302-3"
       cx="16.82741"
       cy="10.843565"
       rx="1.243601"
       ry="1.295343"
       inkscape:export-xdpi="96"
       inkscape:export-ydpi="96" />
    <circle
       style="opacity:0.92;mix-blend-mode:normal;fill:#ffffff;fill-opacity:1;fill-rule:evenodd;stroke:none;stroke-width:0.122657"
       id="path2339"
       cx="9.5984669"
       cy="10.454561"
       r="0.48679402"
       inkscape:export-xdpi="96"
       inkscape:export-ydpi="96" />
    <circle
       style="display:inline;opacity:0.92;mix-blend-mode:normal;fill:#ffffff;fill-opacity:1;fill-rule:evenodd;stroke:none;stroke-width:0.122657"
       id="path2339-6"
       cx="16.384195"
       cy="10.38014"
       r="0.48679402"
       inkscape:export-xdpi="96"
       inkscape:export-ydpi="96" />
    <path
       id="path2335-92"
       style="display:inline;opacity:0.92;mix-blend-mode:normal;fill:#b1671f;fill-opacity:0.992157;fill-rule:evenodd;stroke:#000000;stroke-width:0.259624;stroke-linejoin:round;stroke-miterlimit:4;stroke-dasharray:none"
       d="m 19.72771,4.5708941 a 2.094577,2.4139735 0 0 1 0.0083,-0.018128 2.094577,2.4139735 0 0 1 0.01008,-0.021361 2.094577,2.4139735 0 0 1 0.01021,-0.021234 2.094577,2.4139735 0 0 1 0.01046,-0.021171 2.094577,2.4139735 0 0 1 0.01065,-0.02098 2.094577,2.4139735 0 0 1 0.01084,-0.020917 2.094577,2.4139735 0 0 1 0.01097,-0.020727 2.094577,2.4139735 0 0 1 0.01115,-0.020663 2.094577,2.4139735 0 0 1 0.01141,-0.020473 2.094577,2.4139735 0 0 1 0.01154,-0.02041 2.094577,2.4139735 0 0 1 0.01166,-0.02022 2.094577,2.4139735 0 0 1 0.01191,-0.020093 2.094577,2.4139735 0 0 1 0.01205,-0.019966 2.094577,2.4139735 0 0 1 0.01223,-0.019839 2.094577,2.4139735 0 0 1 0.01242,-0.019649 2.094577,2.4139735 0 0 1 0.01261,-0.019522 2.094577,2.4139735 0 0 1 0.01274,-0.019396 2.094577,2.4139735 0 0 1 0.01293,-0.019205 2.094577,2.4139735 0 0 1 0.01306,-0.019079 2.094577,2.4139735 0 0 1 0.01325,-0.018952 2.094577,2.4139735 0 0 1 0.01344,-0.018762 2.094577,2.4139735 0 0 1 0.01356,-0.018635 2.094577,2.4139735 0 0 1 0.01375,-0.018445 2.094577,2.4139735 0 0 1 0.01394,-0.018318 2.094577,2.4139735 0 0 1 0.01407,-0.018128 2.094577,2.4139735 0 0 1 0.0142,-0.018001 2.094577,2.4139735 0 0 1 0.01439,-0.017748 2.094577,2.4139735 0 0 1 0.01451,-0.017684 2.094577,2.4139735 0 0 1 0.01471,-0.017431 2.094577,2.4139735 0 0 1 0.01483,-0.017304 2.094577,2.4139735 0 0 1 0.01502,-0.017114 2.094577,2.4139735 0 0 1 0.01509,-0.016987 2.094577,2.4139735 0 0 1 0.01534,-0.016733 2.094577,2.4139735 0 0 1 0.0154,-0.016607 2.094577,2.4139735 0 0 1 0.01559,-0.016417 2.094577,2.4139735 0 0 1 0.01572,-0.016227 2.094577,2.4139735 0 0 1 0.01585,-0.016036 2.094577,2.4139735 0 0 1 0.01604,-0.01591 2.094577,2.4139735 0 0 1 0.0161,-0.015656 2.094577,2.4139735 0 0 1 0.01629,-0.015466 2.094577,2.4139735 0 0 1 0.01642,-0.015339 2.094577,2.4139735 0 0 1 0.01654,-0.015085 2.094577,2.4139735 0 0 1 0.01667,-0.014895 2.094577,2.4139735 0 0 1 0.0168,-0.014769 2.094577,2.4139735 0 0 1 0.01692,-0.014515 2.094577,2.4139735 0 0 1 0.01705,-0.014325 2.094577,2.4139735 0 0 1 0.01718,-0.014135 2.094577,2.4139735 0 0 1 0.0173,-0.013882 2.094577,2.4139735 0 0 1 0.01743,-0.013754 2.094577,2.4139735 0 0 1 0.01756,-0.013501 2.094577,2.4139735 0 0 1 0.01769,-0.013311 2.094577,2.4139735 0 0 1 0.01775,-0.01312 2.094577,2.4139735 0 0 1 0.01788,-0.01293 2.094577,2.4139735 0 0 1 0.018,-0.012677 2.094577,2.4139735 0 0 1 0.01813,-0.012487 2.094577,2.4139735 0 0 1 0.01825,-0.012297 2.094577,2.4139735 0 0 1 0.01832,-0.012043 2.094577,2.4139735 0 0 1 0.01838,-0.011852 2.094577,2.4139735 0 0 1 0.01857,-0.011663 2.094577,2.4139735 0 0 1 0.01863,-0.01141 2.094577,2.4139735 0 0 1 0.0187,-0.011219 2.094577,2.4139735 0 0 1 0.01889,-0.010966 2.094577,2.4139735 0 0 1 0.01889,-0.010775 2.094577,2.4139735 0 0 1 0.01902,-0.010521 2.094577,2.4139735 0 0 1 0.01914,-0.010331 2.094577,2.4139735 0 0 1 0.0192,-0.010141 2.094577,2.4139735 0 0 1 0.01927,-0.00982 2.094577,2.4139735 0 0 1 0.0194,-0.0097 2.094577,2.4139735 0 0 1 0.01946,-0.00944 2.094577,2.4139735 0 0 1 0.01952,-0.00919 2.094577,2.4139735 0 0 1 0.01959,-0.00894 2.094577,2.4139735 0 0 1 0.01971,-0.00875 2.094577,2.4139735 0 0 1 0.01978,-0.00856 2.094577,2.4139735 0 0 1 0.01984,-0.00824 2.094577,2.4139735 0 0 1 0.0199,-0.00811 2.094577,2.4139735 0 0 1 0.02003,-0.0078 2.094577,2.4139735 0 0 1 0.02003,-0.00761 2.094577,2.4139735 0 0 1 0.02009,-0.00735 2.094577,2.4139735 0 0 1 0.02022,-0.0071 2.094577,2.4139735 0 0 1 0.02022,-0.00691 2.094577,2.4139735 0 0 1 0.02028,-0.00666 2.094577,2.4139735 0 0 1 0.02035,-0.0064 2.094577,2.4139735 0 0 1 0.02047,-0.00621 2.094577,2.4139735 0 0 1 0.02041,-0.00596 2.094577,2.4139735 0 0 1 0.02054,-0.0057 2.094577,2.4139735 0 0 1 0.0206,-0.00545 2.094577,2.4139735 0 0 1 0.0206,-0.0052 2.094577,2.4139735 0 0 1 0.02066,-0.00501 2.094577,2.4139735 0 0 1 0.02066,-0.00475 2.094577,2.4139735 0 0 1 0.02079,-0.0045 2.094577,2.4139735 0 0 1 0.02073,-0.00425 2.094577,2.4139735 0 0 1 0.02085,-0.00406 2.094577,2.4139735 0 0 1 0.02085,-0.0038 2.094577,2.4139735 0 0 1 0.02085,-0.00355 2.094577,2.4139735 0 0 1 0.02092,-0.0033 2.094577,2.4139735 0 0 1 0.02092,-0.00304 2.094577,2.4139735 0 0 1 0.02098,-0.00279 2.094577,2.4139735 0 0 1 0.02098,-0.0026 2.094577,2.4139735 0 0 1 0.02104,-0.00228 2.094577,2.4139735 0 0 1 0.02104,-0.00209 2.094577,2.4139735 0 0 1 0.02104,-0.00184 2.094577,2.4139735 0 0 1 0.02105,-0.00158 2.094577,2.4139735 0 0 1 0.02104,-0.00139 2.094577,2.4139735 0 0 1 0.02111,-0.00108 2.094577,2.4139735 0 0 1 0.02111,-8.218e-4 2.094577,2.4139735 0 0 1 0.02111,-6.379e-4 2.094577,2.4139735 0 0 1 0.02111,-3.802e-4 2.094577,2.4139735 0 0 1 0.02111,-1.227e-4 2.094577,2.4139735 0 0 1 0.01857,1.227e-4 2.094577,2.4139735 0 0 1 0.02111,3.189e-4 2.094577,2.4139735 0 0 1 0.02111,5.765e-4 2.094577,2.4139735 0 0 1 0.02111,8.218e-4 2.094577,2.4139735 0 0 1 0.02111,0.00108 2.094577,2.4139735 0 0 1 0.02104,0.00133 2.094577,2.4139735 0 0 1 0.02111,0.00158 2.094577,2.4139735 0 0 1 0.02104,0.00177 2.094577,2.4139735 0 0 1 0.02098,0.00209 2.094577,2.4139735 0 0 1 0.02104,0.00228 2.094577,2.4139735 0 0 1 0.02098,0.00254 2.094577,2.4139735 0 0 1 0.02098,0.00279 2.094577,2.4139735 0 0 1 0.02092,0.00304 2.094577,2.4139735 0 0 1 0.02092,0.00323 2.094577,2.4139735 0 0 1 0.02092,0.00355 2.094577,2.4139735 0 0 1 0.02085,0.00374 2.094577,2.4139735 0 0 1 0.02079,0.00399 2.094577,2.4139735 0 0 1 0.02079,0.00425 2.094577,2.4139735 0 0 1 0.02073,0.00444 2.094577,2.4139735 0 0 1 0.02073,0.00475 2.094577,2.4139735 0 0 1 0.02066,0.00494 2.094577,2.4139735 0 0 1 0.0206,0.0052 2.094577,2.4139735 0 0 1 0.0206,0.00545 2.094577,2.4139735 0 0 1 0.02054,0.0057 2.094577,2.4139735 0 0 1 0.02047,0.00589 2.094577,2.4139735 0 0 1 0.02041,0.00615 2.094577,2.4139735 0 0 1 0.02035,0.0064 2.094577,2.4139735 0 0 1 0.02035,0.00666 2.094577,2.4139735 0 0 1 0.02022,0.00685 2.094577,2.4139735 0 0 1 0.02022,0.0071 2.094577,2.4139735 0 0 1 0.02009,0.00729 2.094577,2.4139735 0 0 1 0.02009,0.00761 2.094577,2.4139735 0 0 1 0.01997,0.0078 2.094577,2.4139735 0 0 1 0.0199,0.00799 2.094577,2.4139735 0 0 1 0.01984,0.0083 2.094577,2.4139735 0 0 1 0.01984,0.00849 2.094577,2.4139735 0 0 1 0.01965,0.00868 2.094577,2.4139735 0 0 1 0.01965,0.00894 2.094577,2.4139735 0 0 1 0.01952,0.00919 2.094577,2.4139735 0 0 1 0.01952,0.00944 2.094577,2.4139735 0 0 1 0.01933,0.00957 2.094577,2.4139735 0 0 1 0.01933,0.00989 2.094577,2.4139735 0 0 1 0.01921,0.010079 2.094577,2.4139735 0 0 1 0.01914,0.010268 2.094577,2.4139735 0 0 1 0.01902,0.010521 2.094577,2.4139735 0 0 1 0.01895,0.010775 2.094577,2.4139735 0 0 1 0.01882,0.010966 2.094577,2.4139735 0 0 1 0.01876,0.011156 2.094577,2.4139735 0 0 1 0.01863,0.01141 2.094577,2.4139735 0 0 1 0.01851,0.0116 2.094577,2.4139735 0 0 1 0.01844,0.011852 2.094577,2.4139735 0 0 1 0.01838,0.01198 2.094577,2.4139735 0 0 1 0.01819,0.012297 2.094577,2.4139735 0 0 1 0.01813,0.012423 2.094577,2.4139735 0 0 1 0.01807,0.012677 2.094577,2.4139735 0 0 1 0.01788,0.01293 2.094577,2.4139735 0 0 1 0.01781,0.013057 2.094577,2.4139735 0 0 1 0.01768,0.013311 2.094577,2.4139735 0 0 1 0.01756,0.013501 2.094577,2.4139735 0 0 1 0.01743,0.013691 2.094577,2.4139735 0 0 1 0.01731,0.013881 2.094577,2.4139735 0 0 1 0.01718,0.014135 2.094577,2.4139735 0 0 1 0.01712,0.014325 2.094577,2.4139735 0 0 1 0.01692,0.014452 2.094577,2.4139735 0 0 1 0.0168,0.014705 2.094577,2.4139735 0 0 1 0.01673,0.014895 2.094577,2.4139735 0 0 1 0.01654,0.015086 2.094577,2.4139735 0 0 1 0.01642,0.015275 2.094577,2.4139735 0 0 1 0.01629,0.015466 2.094577,2.4139735 0 0 1 0.01616,0.015656 2.094577,2.4139735 0 0 1 0.01604,0.015846 2.094577,2.4139735 0 0 1 0.01585,0.016036 2.094577,2.4139735 0 0 1 0.01572,0.016226 2.094577,2.4139735 0 0 1 0.01559,0.016353 2.094577,2.4139735 0 0 1 0.01547,0.016607 2.094577,2.4139735 0 0 1 0.01534,0.016734 2.094577,2.4139735 0 0 1 0.01515,0.016923 2.094577,2.4139735 0 0 1 0.01496,0.017114 2.094577,2.4139735 0 0 1 0.01489,0.017241 2.094577,2.4139735 0 0 1 0.01471,0.017494 2.094577,2.4139735 0 0 1 0.01452,0.017621 2.094577,2.4139735 0 0 1 0.01445,0.017748 2.094577,2.4139735 0 0 1 0.0142,0.018001 2.094577,2.4139735 0 0 1 0.01407,0.018065 2.094577,2.4139735 0 0 1 0.01394,0.018318 2.094577,2.4139735 0 0 1 0.01375,0.018445 2.094577,2.4139735 0 0 1 0.01363,0.018572 2.094577,2.4139735 0 0 1 0.01344,0.018762 2.094577,2.4139735 0 0 1 0.01325,0.018889 2.094577,2.4139735 0 0 1 0.01312,0.019079 2.094577,2.4139735 0 0 1 0.01293,0.019206 2.094577,2.4139735 0 0 1 0.0128,0.019396 2.094577,2.4139735 0 0 1 0.01261,0.019522 2.094577,2.4139735 0 0 1 0.01242,0.019649 2.094577,2.4139735 0 0 1 0.01223,0.019776 2.094577,2.4139735 0 0 1 0.01211,0.019966 2.094577,2.4139735 0 0 1 0.01191,0.020093 2.094577,2.4139735 0 0 1 0.01173,0.02022 2.094577,2.4139735 0 0 1 0.01154,0.020346 2.094577,2.4139735 0 0 1 0.01141,0.020473 2.094577,2.4139735 0 0 1 0.01115,0.0206 2.094577,2.4139735 0 0 1 0.01103,0.02079 2.094577,2.4139735 0 0 1 0.01084,0.020854 2.094577,2.4139735 0 0 1 0.01065,0.02098 2.094577,2.4139735 0 0 1 0.01046,0.02117 2.094577,2.4139735 0 0 1 0.01033,0.021234 2.094577,2.4139735 0 0 1 0.01008,0.021361 2.094577,2.4139735 0 0 1 0.0099,0.021487 2.094577,2.4139735 0 0 1 0.0098,0.021551 2.094577,2.4139735 0 0 1 0.0095,0.021741 2.094577,2.4139735 0 0 1 0.0093,0.021804 2.094577,2.4139735 0 0 1 0.0092,0.021931 2.094577,2.4139735 0 0 1 0.0089,0.021995 2.094577,2.4139735 0 0 1 0.0087,0.022121 2.094577,2.4139735 0 0 1 0.0086,0.022248 2.094577,2.4139735 0 0 1 0.0084,0.022311 2.094577,2.4139735 0 0 1 0.0082,0.022438 2.094577,2.4139735 0 0 1 0.008,0.022502 2.094577,2.4139735 0 0 1 0.0078,0.022629 2.094577,2.4139735 0 0 1 0.0075,0.022692 2.094577,2.4139735 0 0 1 0.0074,0.022755 2.094577,2.4139735 0 0 1 0.0072,0.022882 2.094577,2.4139735 0 0 1 0.007,0.022945 2.094577,2.4139735 0 0 1 0.0068,0.023072 2.094577,2.4139735 0 0 1 0.0066,0.023072 2.094577,2.4139735 0 0 1 0.0064,0.023199 2.094577,2.4139735 0 0 1 0.0061,0.023262 2.094577,2.4139735 0 0 1 0.006,0.023326 2.094577,2.4139735 0 0 1 0.0058,0.023389 2.094577,2.4139735 0 0 1 0.0055,0.023452 2.094577,2.4139735 0 0 1 0.0054,0.023579 2.094577,2.4139735 0 0 1 0.0051,0.023579 2.094577,2.4139735 0 0 1 0.005,0.023642 2.094577,2.4139735 0 0 1 0.0047,0.023706 2.094577,2.4139735 0 0 1 0.0046,0.023706 2.094577,2.4139735 0 0 1 0.0043,0.023833 2.094577,2.4139735 0 0 1 0.0041,0.023832 2.094577,2.4139735 0 0 1 0.0039,0.023959 2.094577,2.4139735 0 0 1 0.0037,0.023896 2.094577,2.4139735 0 0 1 0.0035,0.024023 2.094577,2.4139735 0 0 1 0.0033,0.024023 2.094577,2.4139735 0 0 1 0.0031,0.024086 2.094577,2.4139735 0 0 1 0.0028,0.024086 2.094577,2.4139735 0 0 1 0.0027,0.02415 2.094577,2.4139735 0 0 1 0.0024,0.02415 2.094577,2.4139735 0 0 1 0.0022,0.02415 2.094577,2.4139735 0 0 1 0.002,0.024213 2.094577,2.4139735 0 0 1 0.0018,0.024276 2.094577,2.4139735 0 0 1 0.0016,0.024213 2.094577,2.4139735 0 0 1 0.0014,0.024276 2.094577,2.4139735 0 0 1 0.0011,0.02434 2.094577,2.4139735 0 0 1 9.81e-4,0.024276 2.094577,2.4139735 0 0 1 7.36e-4,0.02434 2.094577,2.4139735 0 0 1 4.91e-4,0.024276 2.094577,2.4139735 0 0 1 3.68e-4,0.02434 2.094577,2.4139735 0 0 1 1.22e-4,0.02434 2.094577,2.4139735 0 0 1 -6.5e-5,0.021424 2.094577,2.4139735 0 0 1 -3.68e-4,0.02434 2.094577,2.4139735 0 0 1 -4.9e-4,0.02434 2.094577,2.4139735 0 0 1 -7.36e-4,0.024276 2.094577,2.4139735 0 0 1 -9.81e-4,0.02434 2.094577,2.4139735 0 0 1 -0.0011,0.024277 2.094577,2.4139735 0 0 1 -0.0013,0.024276 2.094577,2.4139735 0 0 1 -0.0016,0.024276 2.094577,2.4139735 0 0 1 -0.0018,0.024213 2.094577,2.4139735 0 0 1 -0.002,0.024213 2.094577,2.4139735 0 0 1 -0.0022,0.024213 2.094577,2.4139735 0 0 1 -0.0025,0.02415 2.094577,2.4139735 0 0 1 -0.0026,0.02415 2.094577,2.4139735 0 0 1 -0.0029,0.024086 2.094577,2.4139735 0 0 1 -0.003,0.024086 2.094577,2.4139735 0 0 1 -0.0032,0.024023 2.094577,2.4139735 0 0 1 -0.0035,0.02396 2.094577,2.4139735 0 0 1 -0.0037,0.023959 2.094577,2.4139735 0 0 1 -0.0039,0.023959 2.094577,2.4139735 0 0 1 -0.0041,0.023833 2.094577,2.4139735 0 0 1 -0.0043,0.023833 2.094577,2.4139735 0 0 1 -0.0045,0.023769 2.094577,2.4139735 0 0 1 -0.0048,0.023706 2.094577,2.4139735 0 0 1 -0.0049,0.023643 2.094577,2.4139735 0 0 1 -0.0051,0.023579 2.094577,2.4139735 0 0 1 -0.0054,0.023516 2.094577,2.4139735 0 0 1 -0.0055,0.023516 2.094577,2.4139735 0 0 1 -0.0058,0.023389 2.094577,2.4139735 0 0 1 -0.006,0.023326 2.094577,2.4139735 0 0 1 -0.0061,0.023262 2.094577,2.4139735 0 0 1 -0.0063,0.023199 2.094577,2.4139735 0 0 1 -0.0066,0.023135 2.094577,2.4139735 0 0 1 -0.0067,0.023009 2.094577,2.4139735 0 0 1 -0.007,0.023008 2.094577,2.4139735 0 0 1 -0.0072,0.022882 2.094577,2.4139735 0 0 1 -0.0074,0.022755 2.094577,2.4139735 0 0 1 -0.0075,0.022692 2.094577,2.4139735 0 0 1 -0.0078,0.022629 2.094577,2.4139735 0 0 1 -0.0079,0.022565 2.094577,2.4139735 0 0 1 -0.0082,0.022438 2.094577,2.4139735 0 0 1 -0.0084,0.022311 2.094577,2.4139735 0 0 1 -0.0086,0.022248 2.094577,2.4139735 0 0 1 -0.0087,0.022121 2.094577,2.4139735 0 0 1 -0.0089,0.022058 2.094577,2.4139735 0 0 1 -0.0091,0.021931 2.094577,2.4139735 0 0 1 -0.0093,0.021804 2.094577,2.4139735 0 0 1 -0.0096,0.021741 2.094577,2.4139735 0 0 1 -0.0097,0.021614 2.094577,2.4139735 0 0 1 -0.0099,0.021488 2.094577,2.4139735 0 0 1 -0.01001,0.021361 2.094577,2.4139735 0 0 1 -0.01027,0.021234 2.094577,2.4139735 0 0 1 -0.01046,0.021171 2.094577,2.4139735 0 0 1 -0.01065,0.02098 2.094577,2.4139735 0 0 1 -0.01078,0.020917 2.094577,2.4139735 0 0 1 -0.01103,0.02079 2.094577,2.4139735 0 0 1 -0.01115,0.0206 2.094577,2.4139735 0 0 1 -0.01135,0.020537 2.094577,2.4139735 0 0 1 -0.01154,0.020347 2.094577,2.4139735 0 0 1 -0.01173,0.02022 2.094577,2.4139735 0 0 1 -0.01191,0.020093 2.094577,2.4139735 0 0 1 -0.01205,0.019966 2.094577,2.4139735 0 0 1 -0.01109,0.018001 9.5874637,8.9936428 0 0 0 -3.555371,-2.5312657 z"
       inkscape:export-xdpi="96"
       inkscape:export-ydpi="96" />
    <path
       id="path932-0"
       style="display:inline;opacity:0.92;mix-blend-mode:normal;fill:#f7c454;fill-opacity:1;fill-rule:evenodd;stroke:#000000;stroke-width:0.259624;stroke-linejoin:round;stroke-miterlimit:4;stroke-dasharray:none"
       d="m 21.828277,2.9651146 a 2.5299335,3.1473852 0 0 1 2.524928,3.147364 2.5299335,3.1473852 0 0 1 -0.447749,1.7876372 9.5874637,8.9936428 0 0 0 -0.622374,-0.7979492 2.094577,2.4139735 0 0 0 0.01109,-0.018001 2.094577,2.4139735 0 0 0 0.01205,-0.019966 2.094577,2.4139735 0 0 0 0.01191,-0.020093 2.094577,2.4139735 0 0 0 0.01173,-0.02022 2.094577,2.4139735 0 0 0 0.01154,-0.020347 2.094577,2.4139735 0 0 0 0.01135,-0.020537 2.094577,2.4139735 0 0 0 0.01115,-0.0206 2.094577,2.4139735 0 0 0 0.01103,-0.02079 2.094577,2.4139735 0 0 0 0.01078,-0.020917 2.094577,2.4139735 0 0 0 0.01065,-0.02098 2.094577,2.4139735 0 0 0 0.01046,-0.021171 2.094577,2.4139735 0 0 0 0.01027,-0.021234 2.094577,2.4139735 0 0 0 0.01001,-0.021361 2.094577,2.4139735 0 0 0 0.0099,-0.021488 2.094577,2.4139735 0 0 0 0.0097,-0.021614 2.094577,2.4139735 0 0 0 0.0096,-0.021741 2.094577,2.4139735 0 0 0 0.0093,-0.021804 2.094577,2.4139735 0 0 0 0.0091,-0.021931 2.094577,2.4139735 0 0 0 0.0089,-0.022058 2.094577,2.4139735 0 0 0 0.0087,-0.022121 2.094577,2.4139735 0 0 0 0.0086,-0.022248 2.094577,2.4139735 0 0 0 0.0084,-0.022311 2.094577,2.4139735 0 0 0 0.0082,-0.022438 2.094577,2.4139735 0 0 0 0.0079,-0.022565 2.094577,2.4139735 0 0 0 0.0078,-0.022629 2.094577,2.4139735 0 0 0 0.0075,-0.022692 2.094577,2.4139735 0 0 0 0.0074,-0.022755 2.094577,2.4139735 0 0 0 0.0072,-0.022882 2.094577,2.4139735 0 0 0 0.007,-0.023008 2.094577,2.4139735 0 0 0 0.0067,-0.023009 2.094577,2.4139735 0 0 0 0.0066,-0.023135 2.094577,2.4139735 0 0 0 0.0063,-0.023199 2.094577,2.4139735 0 0 0 0.0061,-0.023262 2.094577,2.4139735 0 0 0 0.006,-0.023326 2.094577,2.4139735 0 0 0 0.0058,-0.023389 2.094577,2.4139735 0 0 0 0.0055,-0.023516 2.094577,2.4139735 0 0 0 0.0054,-0.023516 2.094577,2.4139735 0 0 0 0.0051,-0.023579 2.094577,2.4139735 0 0 0 0.0049,-0.023643 2.094577,2.4139735 0 0 0 0.0048,-0.023706 2.094577,2.4139735 0 0 0 0.0045,-0.023769 2.094577,2.4139735 0 0 0 0.0043,-0.023833 2.094577,2.4139735 0 0 0 0.0041,-0.023833 2.094577,2.4139735 0 0 0 0.0039,-0.023959 2.094577,2.4139735 0 0 0 0.0037,-0.023959 2.094577,2.4139735 0 0 0 0.0035,-0.02396 2.094577,2.4139735 0 0 0 0.0032,-0.024023 2.094577,2.4139735 0 0 0 0.003,-0.024086 2.094577,2.4139735 0 0 0 0.0028,-0.024086 2.094577,2.4139735 0 0 0 0.0026,-0.02415 2.094577,2.4139735 0 0 0 0.0025,-0.02415 2.094577,2.4139735 0 0 0 0.0022,-0.024213 2.094577,2.4139735 0 0 0 0.002,-0.024213 2.094577,2.4139735 0 0 0 0.0018,-0.024213 2.094577,2.4139735 0 0 0 0.0016,-0.024276 2.094577,2.4139735 0 0 0 0.0013,-0.024276 2.094577,2.4139735 0 0 0 0.0011,-0.024277 2.094577,2.4139735 0 0 0 9.82e-4,-0.02434 2.094577,2.4139735 0 0 0 7.36e-4,-0.024276 2.094577,2.4139735 0 0 0 4.9e-4,-0.02434 2.094577,2.4139735 0 0 0 3.68e-4,-0.02434 2.094577,2.4139735 0 0 0 6.5e-5,-0.021424 2.094577,2.4139735 0 0 0 -1.22e-4,-0.02434 2.094577,2.4139735 0 0 0 -3.68e-4,-0.02434 2.094577,2.4139735 0 0 0 -4.91e-4,-0.024276 2.094577,2.4139735 0 0 0 -7.36e-4,-0.02434 2.094577,2.4139735 0 0 0 -9.81e-4,-0.024276 2.094577,2.4139735 0 0 0 -0.0011,-0.02434 2.094577,2.4139735 0 0 0 -0.0014,-0.024276 2.094577,2.4139735 0 0 0 -0.0016,-0.024213 2.094577,2.4139735 0 0 0 -0.0018,-0.024276 2.094577,2.4139735 0 0 0 -0.002,-0.024213 2.094577,2.4139735 0 0 0 -0.0022,-0.02415 2.094577,2.4139735 0 0 0 -0.0024,-0.02415 2.094577,2.4139735 0 0 0 -0.0027,-0.02415 2.094577,2.4139735 0 0 0 -0.0029,-0.024086 2.094577,2.4139735 0 0 0 -0.0031,-0.024086 2.094577,2.4139735 0 0 0 -0.0033,-0.024023 2.094577,2.4139735 0 0 0 -0.0035,-0.024023 2.094577,2.4139735 0 0 0 -0.0037,-0.023896 2.094577,2.4139735 0 0 0 -0.0039,-0.023959 2.094577,2.4139735 0 0 0 -0.0041,-0.023832 2.094577,2.4139735 0 0 0 -0.0043,-0.023833 2.094577,2.4139735 0 0 0 -0.0046,-0.023706 2.094577,2.4139735 0 0 0 -0.0047,-0.023706 2.094577,2.4139735 0 0 0 -0.005,-0.023642 2.094577,2.4139735 0 0 0 -0.0051,-0.023579 2.094577,2.4139735 0 0 0 -0.0054,-0.023579 2.094577,2.4139735 0 0 0 -0.0055,-0.023452 2.094577,2.4139735 0 0 0 -0.0058,-0.023389 2.094577,2.4139735 0 0 0 -0.006,-0.023326 2.094577,2.4139735 0 0 0 -0.0061,-0.023262 2.094577,2.4139735 0 0 0 -0.0064,-0.023199 2.094577,2.4139735 0 0 0 -0.0066,-0.023072 2.094577,2.4139735 0 0 0 -0.0068,-0.023072 2.094577,2.4139735 0 0 0 -0.007,-0.022945 2.094577,2.4139735 0 0 0 -0.0072,-0.022882 2.094577,2.4139735 0 0 0 -0.0074,-0.022755 2.094577,2.4139735 0 0 0 -0.0075,-0.022692 2.094577,2.4139735 0 0 0 -0.0078,-0.022629 2.094577,2.4139735 0 0 0 -0.008,-0.022502 2.094577,2.4139735 0 0 0 -0.0082,-0.022438 2.094577,2.4139735 0 0 0 -0.0084,-0.022311 2.094577,2.4139735 0 0 0 -0.0086,-0.022248 2.094577,2.4139735 0 0 0 -0.0087,-0.022121 2.094577,2.4139735 0 0 0 -0.0089,-0.021995 2.094577,2.4139735 0 0 0 -0.0092,-0.021931 2.094577,2.4139735 0 0 0 -0.0093,-0.021804 2.094577,2.4139735 0 0 0 -0.0095,-0.021741 2.094577,2.4139735 0 0 0 -0.0098,-0.021551 2.094577,2.4139735 0 0 0 -0.0099,-0.021487 2.094577,2.4139735 0 0 0 -0.01008,-0.021361 2.094577,2.4139735 0 0 0 -0.01033,-0.021234 2.094577,2.4139735 0 0 0 -0.01046,-0.02117 2.094577,2.4139735 0 0 0 -0.01065,-0.02098 2.094577,2.4139735 0 0 0 -0.01084,-0.020854 2.094577,2.4139735 0 0 0 -0.01103,-0.02079 2.094577,2.4139735 0 0 0 -0.01116,-0.0206 2.094577,2.4139735 0 0 0 -0.01141,-0.020473 2.094577,2.4139735 0 0 0 -0.01153,-0.020346 2.094577,2.4139735 0 0 0 -0.01173,-0.02022 2.094577,2.4139735 0 0 0 -0.01191,-0.020093 2.094577,2.4139735 0 0 0 -0.01211,-0.019966 2.094577,2.4139735 0 0 0 -0.01223,-0.019776 2.094577,2.4139735 0 0 0 -0.01242,-0.019649 2.094577,2.4139735 0 0 0 -0.01261,-0.019522 2.094577,2.4139735 0 0 0 -0.0128,-0.019396 2.094577,2.4139735 0 0 0 -0.01293,-0.019206 2.094577,2.4139735 0 0 0 -0.01312,-0.019079 2.094577,2.4139735 0 0 0 -0.01325,-0.018889 2.094577,2.4139735 0 0 0 -0.01344,-0.018762 2.094577,2.4139735 0 0 0 -0.01363,-0.018572 2.094577,2.4139735 0 0 0 -0.01375,-0.018445 2.094577,2.4139735 0 0 0 -0.01394,-0.018318 2.094577,2.4139735 0 0 0 -0.01407,-0.018065 2.094577,2.4139735 0 0 0 -0.0142,-0.018001 2.094577,2.4139735 0 0 0 -0.01445,-0.017748 2.094577,2.4139735 0 0 0 -0.01451,-0.017621 2.094577,2.4139735 0 0 0 -0.01471,-0.017494 2.094577,2.4139735 0 0 0 -0.0149,-0.017241 2.094577,2.4139735 0 0 0 -0.01496,-0.017114 2.094577,2.4139735 0 0 0 -0.01515,-0.016924 2.094577,2.4139735 0 0 0 -0.01534,-0.016733 2.094577,2.4139735 0 0 0 -0.01547,-0.016607 2.094577,2.4139735 0 0 0 -0.01559,-0.016353 2.094577,2.4139735 0 0 0 -0.01572,-0.016226 2.094577,2.4139735 0 0 0 -0.01585,-0.016036 2.094577,2.4139735 0 0 0 -0.01604,-0.015847 2.094577,2.4139735 0 0 0 -0.01616,-0.015656 2.094577,2.4139735 0 0 0 -0.01629,-0.015466 2.094577,2.4139735 0 0 0 -0.01642,-0.015276 2.094577,2.4139735 0 0 0 -0.01654,-0.015086 2.094577,2.4139735 0 0 0 -0.01673,-0.014895 2.094577,2.4139735 0 0 0 -0.0168,-0.014705 2.094577,2.4139735 0 0 0 -0.01692,-0.014452 2.094577,2.4139735 0 0 0 -0.01711,-0.014325 2.094577,2.4139735 0 0 0 -0.01718,-0.014134 2.094577,2.4139735 0 0 0 -0.0173,-0.013881 2.094577,2.4139735 0 0 0 -0.01743,-0.013691 2.094577,2.4139735 0 0 0 -0.01756,-0.013501 2.094577,2.4139735 0 0 0 -0.01768,-0.013311 2.094577,2.4139735 0 0 0 -0.01781,-0.013057 2.094577,2.4139735 0 0 0 -0.01787,-0.01293 2.094577,2.4139735 0 0 0 -0.01807,-0.012677 2.094577,2.4139735 0 0 0 -0.01813,-0.012423 2.094577,2.4139735 0 0 0 -0.01819,-0.012297 2.094577,2.4139735 0 0 0 -0.01838,-0.01198 2.094577,2.4139735 0 0 0 -0.01844,-0.011852 2.094577,2.4139735 0 0 0 -0.01851,-0.0116 2.094577,2.4139735 0 0 0 -0.01864,-0.01141 2.094577,2.4139735 0 0 0 -0.01876,-0.011156 2.094577,2.4139735 0 0 0 -0.01883,-0.010965 2.094577,2.4139735 0 0 0 -0.01895,-0.010775 2.094577,2.4139735 0 0 0 -0.01902,-0.010522 2.094577,2.4139735 0 0 0 -0.01914,-0.010268 2.094577,2.4139735 0 0 0 -0.0192,-0.010079 2.094577,2.4139735 0 0 0 -0.01933,-0.00989 2.094577,2.4139735 0 0 0 -0.01933,-0.00957 2.094577,2.4139735 0 0 0 -0.01952,-0.00944 2.094577,2.4139735 0 0 0 -0.01952,-0.00919 2.094577,2.4139735 0 0 0 -0.01965,-0.00894 2.094577,2.4139735 0 0 0 -0.01965,-0.00868 2.094577,2.4139735 0 0 0 -0.01984,-0.00849 2.094577,2.4139735 0 0 0 -0.01984,-0.0083 2.094577,2.4139735 0 0 0 -0.0199,-0.00799 2.094577,2.4139735 0 0 0 -0.01997,-0.0078 2.094577,2.4139735 0 0 0 -0.02009,-0.00761 2.094577,2.4139735 0 0 0 -0.02009,-0.00729 2.094577,2.4139735 0 0 0 -0.02022,-0.0071 2.094577,2.4139735 0 0 0 -0.02022,-0.00685 2.094577,2.4139735 0 0 0 -0.02035,-0.00666 2.094577,2.4139735 0 0 0 -0.02035,-0.0064 2.094577,2.4139735 0 0 0 -0.02041,-0.00615 2.094577,2.4139735 0 0 0 -0.02047,-0.00589 2.094577,2.4139735 0 0 0 -0.02054,-0.0057 2.094577,2.4139735 0 0 0 -0.0206,-0.00545 2.094577,2.4139735 0 0 0 -0.0206,-0.0052 2.094577,2.4139735 0 0 0 -0.02066,-0.00494 2.094577,2.4139735 0 0 0 -0.02073,-0.00475 2.094577,2.4139735 0 0 0 -0.02073,-0.00444 2.094577,2.4139735 0 0 0 -0.02079,-0.00425 2.094577,2.4139735 0 0 0 -0.02079,-0.00399 2.094577,2.4139735 0 0 0 -0.02085,-0.00374 2.094577,2.4139735 0 0 0 -0.02092,-0.00355 2.094577,2.4139735 0 0 0 -0.02092,-0.00323 2.094577,2.4139735 0 0 0 -0.02092,-0.00304 2.094577,2.4139735 0 0 0 -0.02098,-0.00279 2.094577,2.4139735 0 0 0 -0.02098,-0.00254 2.094577,2.4139735 0 0 0 -0.02104,-0.00228 2.094577,2.4139735 0 0 0 -0.02098,-0.00209 2.094577,2.4139735 0 0 0 -0.02104,-0.00177 2.094577,2.4139735 0 0 0 -0.02111,-0.00158 2.094577,2.4139735 0 0 0 -0.02104,-0.00133 2.094577,2.4139735 0 0 0 -0.02111,-0.00108 2.094577,2.4139735 0 0 0 -0.02111,-8.218e-4 2.094577,2.4139735 0 0 0 -0.02111,-5.765e-4 2.094577,2.4139735 0 0 0 -0.02111,-3.189e-4 2.094577,2.4139735 0 0 0 -0.01857,-1.227e-4 2.094577,2.4139735 0 0 0 -0.02111,1.227e-4 2.094577,2.4139735 0 0 0 -0.02111,3.802e-4 2.094577,2.4139735 0 0 0 -0.02111,6.378e-4 2.094577,2.4139735 0 0 0 -0.02111,8.218e-4 2.094577,2.4139735 0 0 0 -0.02111,0.00108 2.094577,2.4139735 0 0 0 -0.02104,0.00139 2.094577,2.4139735 0 0 0 -0.02104,0.00158 2.094577,2.4139735 0 0 0 -0.02104,0.00184 2.094577,2.4139735 0 0 0 -0.02104,0.00209 2.094577,2.4139735 0 0 0 -0.02104,0.00228 2.094577,2.4139735 0 0 0 -0.02098,0.0026 2.094577,2.4139735 0 0 0 -0.02098,0.00279 2.094577,2.4139735 0 0 0 -0.02092,0.00304 2.094577,2.4139735 0 0 0 -0.02092,0.0033 2.094577,2.4139735 0 0 0 -0.02085,0.00355 2.094577,2.4139735 0 0 0 -0.02085,0.0038 2.094577,2.4139735 0 0 0 -0.02085,0.00406 2.094577,2.4139735 0 0 0 -0.02073,0.00425 2.094577,2.4139735 0 0 0 -0.02079,0.0045 2.094577,2.4139735 0 0 0 -0.02066,0.00475 2.094577,2.4139735 0 0 0 -0.02066,0.00501 2.094577,2.4139735 0 0 0 -0.0206,0.0052 2.094577,2.4139735 0 0 0 -0.0206,0.00545 2.094577,2.4139735 0 0 0 -0.02054,0.0057 2.094577,2.4139735 0 0 0 -0.02041,0.00596 2.094577,2.4139735 0 0 0 -0.02047,0.00621 2.094577,2.4139735 0 0 0 -0.02035,0.0064 2.094577,2.4139735 0 0 0 -0.02028,0.00666 2.094577,2.4139735 0 0 0 -0.02022,0.00691 2.094577,2.4139735 0 0 0 -0.02022,0.0071 2.094577,2.4139735 0 0 0 -0.02009,0.00735 2.094577,2.4139735 0 0 0 -0.02003,0.00761 2.094577,2.4139735 0 0 0 -0.02003,0.0078 2.094577,2.4139735 0 0 0 -0.0199,0.00811 2.094577,2.4139735 0 0 0 -0.01984,0.00824 2.094577,2.4139735 0 0 0 -0.01978,0.00856 2.094577,2.4139735 0 0 0 -0.01971,0.00875 2.094577,2.4139735 0 0 0 -0.01959,0.00894 2.094577,2.4139735 0 0 0 -0.01952,0.00919 2.094577,2.4139735 0 0 0 -0.01946,0.00944 2.094577,2.4139735 0 0 0 -0.0194,0.0097 2.094577,2.4139735 0 0 0 -0.01927,0.00982 2.094577,2.4139735 0 0 0 -0.01921,0.010141 2.094577,2.4139735 0 0 0 -0.01914,0.010331 2.094577,2.4139735 0 0 0 -0.01901,0.010522 2.094577,2.4139735 0 0 0 -0.01889,0.010775 2.094577,2.4139735 0 0 0 -0.01889,0.010965 2.094577,2.4139735 0 0 0 -0.0187,0.011219 2.094577,2.4139735 0 0 0 -0.01863,0.01141 2.094577,2.4139735 0 0 0 -0.01857,0.011663 2.094577,2.4139735 0 0 0 -0.01838,0.011852 2.094577,2.4139735 0 0 0 -0.01832,0.012042 2.094577,2.4139735 0 0 0 -0.01825,0.012297 2.094577,2.4139735 0 0 0 -0.01813,0.012487 2.094577,2.4139735 0 0 0 -0.018,0.012677 2.094577,2.4139735 0 0 0 -0.01787,0.012931 2.094577,2.4139735 0 0 0 -0.01775,0.01312 2.094577,2.4139735 0 0 0 -0.01768,0.013311 2.094577,2.4139735 0 0 0 -0.01756,0.013501 2.094577,2.4139735 0 0 0 -0.01743,0.013754 2.094577,2.4139735 0 0 0 -0.0173,0.013882 2.094577,2.4139735 0 0 0 -0.01718,0.014135 2.094577,2.4139735 0 0 0 -0.01705,0.014325 2.094577,2.4139735 0 0 0 -0.01692,0.014515 2.094577,2.4139735 0 0 0 -0.0168,0.014769 2.094577,2.4139735 0 0 0 -0.01667,0.014895 2.094577,2.4139735 0 0 0 -0.01654,0.015085 2.094577,2.4139735 0 0 0 -0.01642,0.015339 2.094577,2.4139735 0 0 0 -0.01629,0.015466 2.094577,2.4139735 0 0 0 -0.0161,0.015656 2.094577,2.4139735 0 0 0 -0.01604,0.01591 2.094577,2.4139735 0 0 0 -0.01585,0.016036 2.094577,2.4139735 0 0 0 -0.01572,0.016227 2.094577,2.4139735 0 0 0 -0.01559,0.016417 2.094577,2.4139735 0 0 0 -0.0154,0.016607 2.094577,2.4139735 0 0 0 -0.01534,0.016733 2.094577,2.4139735 0 0 0 -0.01508,0.016987 2.094577,2.4139735 0 0 0 -0.01502,0.017114 2.094577,2.4139735 0 0 0 -0.01483,0.017304 2.094577,2.4139735 0 0 0 -0.0147,0.017431 2.094577,2.4139735 0 0 0 -0.01451,0.017684 2.094577,2.4139735 0 0 0 -0.01439,0.017748 2.094577,2.4139735 0 0 0 -0.0142,0.018001 2.094577,2.4139735 0 0 0 -0.01407,0.018128 2.094577,2.4139735 0 0 0 -0.01394,0.018318 2.094577,2.4139735 0 0 0 -0.01375,0.018445 2.094577,2.4139735 0 0 0 -0.01356,0.018635 2.094577,2.4139735 0 0 0 -0.01344,0.018762 2.094577,2.4139735 0 0 0 -0.01325,0.018952 2.094577,2.4139735 0 0 0 -0.01306,0.019079 2.094577,2.4139735 0 0 0 -0.01293,0.019205 2.094577,2.4139735 0 0 0 -0.01274,0.019396 2.094577,2.4139735 0 0 0 -0.01261,0.019522 2.094577,2.4139735 0 0 0 -0.01242,0.019649 2.094577,2.4139735 0 0 0 -0.01223,0.01984 2.094577,2.4139735 0 0 0 -0.01204,0.019966 2.094577,2.4139735 0 0 0 -0.01191,0.020093 2.094577,2.4139735 0 0 0 -0.01167,0.02022 2.094577,2.4139735 0 0 0 -0.01153,0.02041 2.094577,2.4139735 0 0 0 -0.01141,0.020473 2.094577,2.4139735 0 0 0 -0.01116,0.020663 2.094577,2.4139735 0 0 0 -0.01097,0.020727 2.094577,2.4139735 0 0 0 -0.01084,0.020917 2.094577,2.4139735 0 0 0 -0.01065,0.02098 2.094577,2.4139735 0 0 0 -0.01046,0.021171 2.094577,2.4139735 0 0 0 -0.0102,0.021234 2.094577,2.4139735 0 0 0 -0.01008,0.021361 2.094577,2.4139735 0 0 0 -0.0083,0.018128 9.5874637,8.9936428 0 0 0 -0.0928,-0.037777 2.5299335,3.1473852 0 0 1 2.188354,-1.5680092 2.5299335,3.1473852 0 0 1 0.005,0 z"
       inkscape:export-xdpi="96"
       inkscape:export-ydpi="96" />
    <path
       style="fill:none;stroke:#4b312d;stroke-width:0.194718;stroke-linecap:round;stroke-linejoin:miter;stroke-miterlimit:4;stroke-dasharray:none;stroke-opacity:1"
       d="m 9.8548616,13.28383 c 0,0 -0.4837687,-0.232742 -1.1230125,-0.342557 -0.639244,-0.109813 -1.4625736,-0.07681 -1.4625736,-0.07681"
       id="path1840"
       sodipodi:nodetypes="czc"
       inkscape:export-xdpi="96"
       inkscape:export-ydpi="96" />
    <path
       style="display:inline;fill:none;stroke:#4b312d;stroke-width:0.194718;stroke-linecap:round;stroke-linejoin:miter;stroke-miterlimit:4;stroke-dasharray:none;stroke-opacity:1"
       d="m 9.8278076,13.721473 c 0,0 -0.5250279,-0.112013 -1.1721324,-0.06788 -0.6471046,0.04413 -1.4393951,0.270488 -1.4393951,0.270488"
       id="path1840-2"
       sodipodi:nodetypes="czc"
       inkscape:export-xdpi="96"
       inkscape:export-ydpi="96" />
    <path
       style="display:inline;fill:none;stroke:#4b312d;stroke-width:0.18398;stroke-linecap:round;stroke-linejoin:miter;stroke-miterlimit:4;stroke-dasharray:none;stroke-opacity:1"
       d="m 9.9314298,14.203107 c 0,0 -0.5366397,0.03319 -1.1476687,0.230102 -0.6110288,0.196918 -1.3114907,0.585583 -1.3114907,0.585583"
       id="path1840-2-3"
       sodipodi:nodetypes="czc"
       inkscape:export-xdpi="96"
       inkscape:export-ydpi="96" />
    <g
       id="g1920"
       transform="matrix(0.15520611,0,0,0.13786236,-4.4864076,-2.9650269)"
       inkscape:export-xdpi="96"
       inkscape:export-ydpi="96">
      <path
         style="display:inline;opacity:1;fill:none;stroke:#4b312d;stroke-width:1.5875;stroke-linecap:round;stroke-linejoin:miter;stroke-miterlimit:4;stroke-dasharray:none;stroke-opacity:1"
         d="m 132.82349,115.35156 c 0,0 3.94408,-1.89751 9.15573,-2.79281 5.21165,-0.89529 11.92411,-0.62622 11.92411,-0.62622"
         id="path1840-7"
         sodipodi:nodetypes="czc" />
      <path
         style="display:inline;opacity:1;fill:none;stroke:#4b312d;stroke-width:1.5875;stroke-linecap:round;stroke-linejoin:miter;stroke-miterlimit:4;stroke-dasharray:none;stroke-opacity:1"
         d="m 133.04405,118.91959 c 0,0 4.28047,-0.91323 9.5562,-0.55344 5.27574,0.3598 11.73515,2.20524 11.73515,2.20524"
         id="path1840-2-5"
         sodipodi:nodetypes="czc" />
      <path
         style="display:inline;opacity:1;fill:none;stroke:#4b312d;stroke-width:1.49996;stroke-linecap:round;stroke-linejoin:miter;stroke-miterlimit:4;stroke-dasharray:none;stroke-opacity:1"
         d="m 132.19924,122.84627 c 0,0 4.37513,0.27055 9.35675,1.87598 4.98161,1.60544 10.69236,4.77416 10.69236,4.77416"
         id="path1840-2-3-9"
         sodipodi:nodetypes="czc" />
    </g>
    <path
       style="display:inline;mix-blend-mode:normal;fill:none;fill-opacity:0.858824;stroke:#492c20;stroke-width:0.259624;stroke-linecap:round;stroke-linejoin:round;stroke-miterlimit:4;stroke-dasharray:none;stroke-opacity:0.988235"
       d="m 11.29758,14.74656 c 1.047392,0.991064 1.6281,-0.246897 1.50793,-0.534711"
       id="path1922-2"
       sodipodi:nodetypes="cc"
       inkscape:export-xdpi="96"
       inkscape:export-ydpi="96" />
    <path
       style="display:inline;mix-blend-mode:normal;fill:none;fill-opacity:0.858824;stroke:#492c20;stroke-width:0.259624;stroke-linecap:round;stroke-linejoin:round;stroke-miterlimit:4;stroke-dasharray:none;stroke-opacity:0.988235"
       d="m 14.378345,14.74656 c -1.047391,0.991064 -1.628099,-0.246897 -1.507929,-0.534711"
       id="path1922-2-2"
       sodipodi:nodetypes="cc"
       inkscape:export-xdpi="96"
       inkscape:export-ydpi="96" />
    <ellipse
       style="opacity:0.92;fill:#ffffff;fill-opacity:1;fill-rule:nonzero;stroke:none;stroke-width:0.259624;stroke-linecap:round;stroke-linejoin:round;stroke-miterlimit:4;stroke-dasharray:none;stroke-opacity:0.858824;paint-order:stroke fill markers"
       id="path2221"
       cx="12.474389"
       cy="12.575175"
       rx="0.54836094"
       ry="0.33433247"
       inkscape:export-xdpi="96"
       inkscape:export-ydpi="96" />
  </g>
</svg>
