<?xml version="1.0" encoding="UTF-8" standalone="no"?>
<svg
   xmlns:dc="http://purl.org/dc/elements/1.1/"
   xmlns:cc="http://creativecommons.org/ns#"
   xmlns:rdf="http://www.w3.org/1999/02/22-rdf-syntax-ns#"
   xmlns:svg="http://www.w3.org/2000/svg"
   xmlns="http://www.w3.org/2000/svg"
   xmlns:xlink="http://www.w3.org/1999/xlink"
   xmlns:sodipodi="http://sodipodi.sourceforge.net/DTD/sodipodi-0.dtd"
   xmlns:inkscape="http://www.inkscape.org/namespaces/inkscape"
   version="1.1"
   width="32"
   height="32"
   id="svg5157"
   inkscape:version="1.0.1 (0767f8302a, 2020-10-17)"
   sodipodi:docname="com.github.slawtul.hamster.svg">
  <metadata
     id="metadata46">
    <rdf:RDF>
      <cc:Work
         rdf:about="">
        <dc:format>image/svg+xml</dc:format>
        <dc:type
           rdf:resource="http://purl.org/dc/dcmitype/StillImage" />
        <dc:title></dc:title>
      </cc:Work>
    </rdf:RDF>
  </metadata>
  <sodipodi:namedview
     pagecolor="#ffffff"
     bordercolor="#9bdb4d"
     borderopacity="1"
     objecttolerance="10"
     gridtolerance="10"
     guidetolerance="10"
     inkscape:pageopacity="0"
     inkscape:pageshadow="2"
     inkscape:window-width="2398"
     inkscape:window-height="1876"
     id="namedview29"
     showgrid="false"
     inkscape:zoom="17.854759"
     inkscape:cx="12.859482"
     inkscape:cy="24.813807"
     inkscape:window-x="1141"
     inkscape:window-y="100"
     inkscape:window-maximized="0"
     inkscape:current-layer="layer4"
     showguides="true"
     inkscape:object-paths="true"
     inkscape:snap-page="true"
     inkscape:snap-grids="false"
     inkscape:document-rotation="0"
     inkscape:guide-bbox="true">
    <inkscape:grid
       type="xygrid"
       id="grid4201"
       originx="0"
       snapvisiblegridlinesonly="true"
       visible="true"
       enabled="true"
       originy="0"
       spacingx="1" />
    <sodipodi:guide
       position="-11.137663,29.186275"
       orientation="0,-1"
       id="guide900" />
    <sodipodi:guide
       position="-11.518689,1.9869282"
       orientation="0,-1"
       id="guide902" />
    <sodipodi:guide
       position="15.984724,41.858779"
       orientation="1,0"
       id="guide905" />
    <sodipodi:guide
       position="-6.5946691,14.707312"
       orientation="0,-1"
       id="guide907" />
  </sodipodi:namedview>
  <defs
     id="defs5159">
    <linearGradient
       id="linearGradient3820-7-2-8-6">
      <stop
         id="stop3822-2-6-5-0"
         style="stop-color:#3d3d3d;stop-opacity:1"
         offset="0" />
      <stop
         id="stop3864-8-7-4-1"
         style="stop-color:#686868;stop-opacity:0.49803922"
         offset="0.5" />
      <stop
         id="stop3824-1-2-6-7"
         style="stop-color:#686868;stop-opacity:0"
         offset="1" />
    </linearGradient>
    <linearGradient
       id="linearGradient4806">
      <stop
         offset="0"
         style="stop-color:#ffffff;stop-opacity:1"
         id="stop4808" />
      <stop
         offset="0.42447853"
         style="stop-color:#ffffff;stop-opacity:0.23529412"
         id="stop4810" />
      <stop
         offset="0.82089913"
         style="stop-color:#ffffff;stop-opacity:0.15686275"
         id="stop4812" />
      <stop
         offset="1"
         style="stop-color:#ffffff;stop-opacity:0.39215687"
         id="stop4814" />
    </linearGradient>
    <linearGradient
       xlink:href="#linearGradient4806"
       id="linearGradient3118"
       gradientUnits="userSpaceOnUse"
       gradientTransform="matrix(4.16388,0,0,4.16388,-236.03265,-50.036246)"
       x1="71.204407"
       y1="15.369057"
       x2="71.204407"
       y2="40.495617" />
    <radialGradient
       xlink:href="#linearGradient3820-7-2-8-6"
       id="radialGradient3163"
       gradientUnits="userSpaceOnUse"
       gradientTransform="matrix(0.6869404,0,0,0.21461693,-4.02174,68.573331)"
       cx="99.157013"
       cy="186.17059"
       fx="99.157013"
       fy="186.17059"
       r="62.769119" />
    <radialGradient
       cx="7.4605465"
       cy="9.9571075"
       r="12.671875"
       fx="6.9303164"
       fy="9.9571075"
       id="radialGradient5521-1"
       xlink:href="#linearGradient2867-449-88-871-390-598-476-591-434-148-57-177-3-8-8-9"
       gradientUnits="userSpaceOnUse"
       gradientTransform="matrix(0,46.861858,-92.320077,0,985.84907,-380.50601)" />
    <linearGradient
       id="linearGradient2867-449-88-871-390-598-476-591-434-148-57-177-3-8-8-9">
      <stop
         offset="0"
         style="stop-color:#9bdb4d;stop-opacity:1"
         id="stop3750-8-9-0" />
      <stop
         offset="1"
         style="stop-color:#d1ff82;stop-opacity:1"
         id="stop3756-9-3-05" />
    </linearGradient>
    <linearGradient
       xlink:href="#linearGradient4806"
       id="linearGradient3118-3"
       gradientUnits="userSpaceOnUse"
       gradientTransform="matrix(4.16388,0,0,4.16388,-43.447904,-61.108816)"
       x1="71.204407"
       y1="15.369057"
       x2="71.204407"
       y2="40.495617" />
    <radialGradient
       cx="7.4605465"
       cy="9.9571075"
       r="12.671875"
       fx="6.9303164"
       fy="9.9571075"
       id="radialGradient5521-1-5"
       xlink:href="#linearGradient2867-449-88-871-390-598-476-591-434-148-57-177-3-8-8-9"
       gradientUnits="userSpaceOnUse"
       gradientTransform="matrix(0,46.861858,-92.320077,0,1178.4338,-391.57858)" />
    <radialGradient
       xlink:href="#linearGradient3820-7-2-8-6"
       id="radialGradient3163-2"
       gradientUnits="userSpaceOnUse"
       gradientTransform="matrix(0.6869404,0,0,0.21461693,188.56301,57.500761)"
       cx="99.157013"
       cy="186.17059"
       fx="99.157013"
       fy="186.17059"
       r="62.769119" />
    <clipPath
       clipPathUnits="userSpaceOnUse"
       id="clipPath925">
      <path
         inkscape:connector-curvature="0"
         d="m 99.053475,103.4609 c 8.715415,-8.868351 14.104475,-21.018879 14.104475,-34.436268 0,-27.149324 -22.008623,-49.156181 -49.157948,-49.156181 -27.149324,0 -49.157948,22.00525 -49.157948,49.156181 0,13.419156 5.390828,25.567917 14.106082,34.438038 l -4.447027,4.44526 c -2.452114,2.45227 -2.452114,6.42459 -0.0016,8.87686 1.224451,1.22622 2.833169,1.84005 4.438353,1.84005 1.605183,0 3.212456,-0.61383 4.436745,-1.83828 l 5.542158,-5.54039 c 7.348149,4.37731 15.907094,6.93657 25.083244,6.93657 9.176151,0 17.735096,-2.55926 25.086619,-6.93818 l 5.541996,5.54216 c 1.226218,1.22445 2.831401,1.83828 4.436746,1.83828 1.60535,0 3.21407,-0.61383 4.43852,-1.84005 2.4505,-2.45227 2.4505,-6.42459 -0.002,-8.87686 z m -35.05524,-5.520149 c -1.746392,0 -3.16137,1.418191 -3.16137,3.164739 v 4.26148 C 43.23109,103.84501 29.1777,89.791616 27.657338,72.187448 h 4.261641 c 1.746553,0 3.164744,-1.41819 3.164744,-3.162976 0,-1.746393 -1.418352,-3.162816 -3.164744,-3.162816 H 27.657338 C 29.1777,48.257488 43.23109,34.20233 60.836865,32.683735 v 4.263248 c 0,1.746553 1.414978,3.16137 3.16137,3.16137 1.746553,0 3.162977,-1.414817 3.162977,-3.16137 v -4.263248 c 17.605935,1.518595 31.657397,15.573592 33.179528,33.177921 h -4.263249 c -1.746553,0 -3.162976,1.416423 -3.162976,3.162816 0,1.744786 1.416423,3.162976 3.162976,3.162976 h 4.263249 C 98.820376,89.791616 84.768753,103.84501 67.162979,105.36697 v -4.25971 c 0,-1.748157 -1.416584,-3.166509 -3.164744,-3.166509 z"
         id="path927"
         style="fill:url(#linearGradient929);fill-opacity:1;stroke:#91e317;stroke-width:1;stroke-miterlimit:4;stroke-dasharray:none;stroke-opacity:0.66857144" />
    </clipPath>
    <linearGradient
       inkscape:collect="always"
       xlink:href="#linearGradient2867-449-88-871-390-598-476-591-434-148-57-177-3-8-8-9"
       id="linearGradient929"
       gradientUnits="userSpaceOnUse"
       x1="62.842052"
       y1="127.49673"
       x2="64.657951"
       y2="18.246727" />
    <clipPath
       clipPathUnits="userSpaceOnUse"
       id="clipPath959">
      <path
         style="fill:#ffe16b;fill-opacity:1;stroke:none;stroke-width:1;stroke-linecap:round;stroke-linejoin:round;stroke-miterlimit:4;stroke-dasharray:none;stroke-opacity:0.54857142"
         id="path961"
         d="m 111.2787,44.419312 c 1.12228,-2.700474 1.7464,-5.659429 1.7464,-8.762967 0.002,-12.633432 -10.2406,-22.875956 -22.874033,-22.875956 -5.076121,0 -9.749339,1.673459 -13.541408,4.47257 15.070124,3.671424 27.645881,13.728562 34.669041,27.166353 z"
         inkscape:connector-curvature="0" />
    </clipPath>
    <clipPath
       clipPathUnits="userSpaceOnUse"
       id="clipPath997">
      <path
         style="fill:#ffe16b;fill-opacity:1;stroke-width:0.09803922"
         id="path999"
         d="m 51.390346,17.249425 c -3.792231,-2.795577 -8.468822,-4.469036 -13.541569,-4.469036 -12.633432,0 -22.875796,10.242524 -22.875796,22.875796 0,3.105304 0.624113,6.064259 1.746553,8.762966 7.023161,-13.441164 19.59876,-23.496374 34.670812,-27.169726 z"
         inkscape:connector-curvature="0" />
    </clipPath>
  </defs>
  <g
     inkscape:groupmode="layer"
     id="layer4"
     inkscape:label="Layer"
     style="display:inline">
    <g
       id="g2444"
       style="display:inline;opacity:1"
       transform="matrix(0.12265676,0,0,0.12265676,-0.2009235,-0.97805244)">
      <path
         id="path2335"
         style="opacity:0.92;mix-blend-mode:normal;fill:#b1671f;fill-opacity:0.992157;fill-rule:evenodd;stroke:#000000;stroke-width:2.11667;stroke-linejoin:round;stroke-miterlimit:4;stroke-dasharray:none"
         d="m 95.204522,45.136209 a 17.076744,19.680721 0 0 0 -0.06769,-0.147793 17.076744,19.680721 0 0 0 -0.08217,-0.174152 17.076744,19.680721 0 0 0 -0.0832,-0.173114 17.076744,19.680721 0 0 0 -0.08527,-0.172601 17.076744,19.680721 0 0 0 -0.08682,-0.171048 17.076744,19.680721 0 0 0 -0.08837,-0.170532 17.076744,19.680721 0 0 0 -0.0894,-0.168984 17.076744,19.680721 0 0 0 -0.09095,-0.168463 17.076744,19.680721 0 0 0 -0.09302,-0.166915 17.076744,19.680721 0 0 0 -0.09405,-0.166399 17.076744,19.680721 0 0 0 -0.09509,-0.164848 17.076744,19.680721 0 0 0 -0.09715,-0.163815 17.076744,19.680721 0 0 0 -0.09819,-0.162779 17.076744,19.680721 0 0 0 -0.09973,-0.161748 17.076744,19.680721 0 0 0 -0.10127,-0.160197 A 17.076744,19.680721 0 0 0 93.749313,42.483658 17.076744,19.680721 0 0 0 93.645445,42.325527 17.076744,19.680721 0 0 0 93.540024,42.168949 17.076744,19.680721 0 0 0 93.433572,42.013404 17.076744,19.680721 0 0 0 93.325566,41.85889 17.076744,19.680721 0 0 0 93.216013,41.705929 17.076744,19.680721 0 0 0 93.105425,41.554 17.076744,19.680721 0 0 0 92.993287,41.403621 17.076744,19.680721 0 0 0 92.879601,41.254277 17.076744,19.680721 0 0 0 92.764877,41.106481 17.076744,19.680721 0 0 0 92.649122,40.959719 17.076744,19.680721 0 0 0 92.531816,40.815026 17.076744,19.680721 0 0 0 92.413479,40.67085 17.076744,19.680721 0 0 0 92.293587,40.528739 17.076744,19.680721 0 0 0 92.172665,40.387661 17.076744,19.680721 0 0 0 92.050192,40.248135 17.076744,19.680721 0 0 0 91.927203,40.109642 17.076744,19.680721 0 0 0 91.802145,39.973217 17.076744,19.680721 0 0 0 91.676571,39.837825 17.076744,19.680721 0 0 0 91.549447,39.703983 17.076744,19.680721 0 0 0 91.42129,39.571691 17.076744,19.680721 0 0 0 91.2921,39.44095 17.076744,19.680721 0 0 0 91.161358,39.31124 17.076744,19.680721 0 0 0 91.030099,39.1836 17.076744,19.680721 0 0 0 90.897291,39.05751 17.076744,19.680721 0 0 0 90.763449,38.932452 17.076744,19.680721 0 0 0 90.628572,38.809463 17.076744,19.680721 0 0 0 90.492664,38.688025 17.076744,19.680721 0 0 0 90.35572,38.567618 a 17.076744,19.680721 0 0 0 -0.137975,-0.11834 17.076744,19.680721 0 0 0 -0.13901,-0.116787 17.076744,19.680721 0 0 0 -0.140044,-0.115239 17.076744,19.680721 0 0 0 -0.141075,-0.113173 17.076744,19.680721 0 0 0 -0.142111,-0.112136 17.076744,19.680721 0 0 0 -0.143145,-0.110072 17.076744,19.680721 0 0 0 -0.144176,-0.108521 17.076744,19.680721 0 0 0 -0.144693,-0.106969 17.076744,19.680721 0 0 0 -0.145727,-0.10542 17.076744,19.680721 0 0 0 -0.146762,-0.103352 17.076744,19.680721 0 0 0 -0.147796,-0.101803 17.076744,19.680721 0 0 0 -0.148828,-0.100254 17.076744,19.680721 0 0 0 -0.149344,-0.09818 17.076744,19.680721 0 0 0 -0.149864,-0.09663 17.076744,19.680721 0 0 0 -0.151411,-0.09509 17.076744,19.680721 0 0 0 -0.151929,-0.09302 17.076744,19.680721 0 0 0 -0.152445,-0.09147 17.076744,19.680721 0 0 0 -0.153995,-0.0894 17.076744,19.680721 0 0 0 -0.153995,-0.08785 17.076744,19.680721 0 0 0 -0.15503,-0.08578 17.076744,19.680721 0 0 0 -0.156065,-0.08423 17.076744,19.680721 0 0 0 -0.156578,-0.08268 17.076744,19.680721 0 0 0 -0.157096,-0.0801 17.076744,19.680721 0 0 0 -0.158131,-0.07906 17.076744,19.680721 0 0 0 -0.158647,-0.077 17.076744,19.680721 0 0 0 -0.159163,-0.07493 17.076744,19.680721 0 0 0 -0.159682,-0.07286 17.076744,19.680721 0 0 0 -0.160713,-0.07131 17.076744,19.680721 0 0 0 -0.161229,-0.06976 17.076744,19.680721 0 0 0 -0.161748,-0.06718 17.076744,19.680721 0 0 0 -0.162263,-0.06615 17.076744,19.680721 0 0 0 -0.163299,-0.06356 17.076744,19.680721 0 0 0 -0.163298,-0.06201 17.076744,19.680721 0 0 0 -0.163814,-0.05994 17.076744,19.680721 0 0 0 -0.164846,-0.05788 17.076744,19.680721 0 0 0 -0.164849,-0.05633 17.076744,19.680721 0 0 0 -0.165364,-0.05426 17.076744,19.680721 0 0 0 -0.165882,-0.05219 17.076744,19.680721 0 0 0 -0.166915,-0.05064 17.076744,19.680721 0 0 0 -0.166399,-0.04857 17.076744,19.680721 0 0 0 -0.167431,-0.04651 17.076744,19.680721 0 0 0 -0.167949,-0.04444 17.076744,19.680721 0 0 0 -0.167947,-0.04238 17.076744,19.680721 0 0 0 -0.168466,-0.04083 17.076744,19.680721 0 0 0 -0.168465,-0.03876 17.076744,19.680721 0 0 0 -0.1695,-0.03669 17.076744,19.680721 0 0 0 -0.168982,-0.03462 17.076744,19.680721 0 0 0 -0.170016,-0.03307 17.076744,19.680721 0 0 0 -0.170013,-0.03101 17.076744,19.680721 0 0 0 -0.170017,-0.02894 17.076744,19.680721 0 0 0 -0.170532,-0.02687 17.076744,19.680721 0 0 0 -0.170534,-0.02481 17.076744,19.680721 0 0 0 -0.171048,-0.02273 17.076744,19.680721 0 0 0 -0.171048,-0.02119 17.076744,19.680721 0 0 0 -0.171566,-0.0186 17.076744,19.680721 0 0 0 -0.171567,-0.01705 17.076744,19.680721 0 0 0 -0.171566,-0.01499 17.076744,19.680721 0 0 0 -0.171564,-0.01292 17.076744,19.680721 0 0 0 -0.171566,-0.01137 17.076744,19.680721 0 0 0 -0.172083,-0.0088 17.076744,19.680721 0 0 0 -0.172083,-0.0067 17.076744,19.680721 0 0 0 -0.172083,-0.0052 17.076744,19.680721 0 0 0 -0.172082,-0.0031 17.076744,19.680721 0 0 0 -0.172085,-0.001 17.076744,19.680721 0 0 0 -0.15141,0.001 17.076744,19.680721 0 0 0 -0.172083,0.0026 17.076744,19.680721 0 0 0 -0.172082,0.0047 17.076744,19.680721 0 0 0 -0.172082,0.0067 17.076744,19.680721 0 0 0 -0.172083,0.0088 17.076744,19.680721 0 0 0 -0.171566,0.01085 17.076744,19.680721 0 0 0 -0.172083,0.01292 17.076744,19.680721 0 0 0 -0.171567,0.01447 17.076744,19.680721 0 0 0 -0.171048,0.01705 17.076744,19.680721 0 0 0 -0.171566,0.01861 17.076744,19.680721 0 0 0 -0.171051,0.02067 17.076744,19.680721 0 0 0 -0.171047,0.02274 17.076744,19.680721 0 0 0 -0.170532,0.02481 17.076744,19.680721 0 0 0 -0.170532,0.02635 17.076744,19.680721 0 0 0 -0.170532,0.02894 17.076744,19.680721 0 0 0 -0.170016,0.03049 17.076744,19.680721 0 0 0 -0.1695,0.03255 17.076744,19.680721 0 0 0 -0.169498,0.03462 17.076744,19.680721 0 0 0 -0.168981,0.03617 17.076744,19.680721 0 0 0 -0.168982,0.03876 17.076744,19.680721 0 0 0 -0.168466,0.04031 17.076744,19.680721 0 0 0 -0.167949,0.04237 17.076744,19.680721 0 0 0 -0.16795,0.04444 17.076744,19.680721 0 0 0 -0.167431,0.04651 17.076744,19.680721 0 0 0 -0.166915,0.04806 17.076744,19.680721 0 0 0 -0.166396,0.05013 17.076744,19.680721 0 0 0 -0.165884,0.05219 17.076744,19.680721 0 0 0 -0.16588,0.05426 17.076744,19.680721 0 0 0 -0.164849,0.05581 17.076744,19.680721 0 0 0 -0.164846,0.05788 17.076744,19.680721 0 0 0 -0.163815,0.05943 17.076744,19.680721 0 0 0 -0.163814,0.06201 17.076744,19.680721 0 0 0 -0.162782,0.06356 17.076744,19.680721 0 0 0 -0.162264,0.06511 17.076744,19.680721 0 0 0 -0.161748,0.0677 17.076744,19.680721 0 0 0 -0.161747,0.06925 17.076744,19.680721 0 0 0 -0.160198,0.0708 17.076744,19.680721 0 0 0 -0.160194,0.07286 17.076744,19.680721 0 0 0 -0.159166,0.07493 17.076744,19.680721 0 0 0 -0.159162,0.077 17.076744,19.680721 0 0 0 -0.157613,0.07803 17.076744,19.680721 0 0 0 -0.157615,0.08062 17.076744,19.680721 0 0 0 -0.156578,0.08217 17.076744,19.680721 0 0 0 -0.156065,0.08371 17.076744,19.680721 0 0 0 -0.155027,0.08578 17.076744,19.680721 0 0 0 -0.154514,0.08785 17.076744,19.680721 0 0 0 -0.15348,0.0894 17.076744,19.680721 0 0 0 -0.152961,0.09095 17.076744,19.680721 0 0 0 -0.151929,0.09302 17.076744,19.680721 0 0 0 -0.150894,0.09457 17.076744,19.680721 0 0 0 -0.150379,0.09663 17.076744,19.680721 0 0 0 -0.149862,0.09767 17.076744,19.680721 0 0 0 -0.14831,0.100254 17.076744,19.680721 0 0 0 -0.147796,0.101285 17.076744,19.680721 0 0 0 -0.147278,0.103354 17.076744,19.680721 0 0 0 -0.145728,0.105418 17.076744,19.680721 0 0 0 -0.145211,0.106455 17.076744,19.680721 0 0 0 -0.144177,0.108519 17.076744,19.680721 0 0 0 -0.143145,0.110072 17.076744,19.680721 0 0 0 -0.14211,0.111619 17.076744,19.680721 0 0 0 -0.141076,0.113173 17.076744,19.680721 0 0 0 -0.140044,0.115237 17.076744,19.680721 0 0 0 -0.139526,0.11679 17.076744,19.680721 0 0 0 -0.137974,0.117821 17.076744,19.680721 0 0 0 -0.136943,0.119891 17.076744,19.680721 0 0 0 -0.136428,0.121438 17.076744,19.680721 0 0 0 -0.134874,0.122992 17.076744,19.680721 0 0 0 -0.133842,0.124539 17.076744,19.680721 0 0 0 -0.132807,0.12609 17.076744,19.680721 0 0 0 -0.131777,0.12764 17.076744,19.680721 0 0 0 -0.130741,0.129194 17.076744,19.680721 0 0 0 -0.129191,0.130741 17.076744,19.680721 0 0 0 -0.128159,0.132292 17.076744,19.680721 0 0 0 -0.127124,0.133323 17.076744,19.680721 0 0 0 -0.12609,0.135393 17.076744,19.680721 0 0 0 -0.125058,0.136427 17.076744,19.680721 0 0 0 -0.123505,0.137975 17.076744,19.680721 0 0 0 -0.121957,0.139525 17.076744,19.680721 0 0 0 -0.121438,0.14056 17.076744,19.680721 0 0 0 -0.119891,0.142629 17.076744,19.680721 0 0 0 -0.118338,0.143661 17.076744,19.680721 0 0 0 -0.117824,0.144693 17.076744,19.680721 0 0 0 -0.115755,0.146761 17.076744,19.680721 0 0 0 -0.114721,0.147278 17.076744,19.680721 0 0 0 -0.113688,0.149344 17.076744,19.680721 0 0 0 -0.11214,0.150379 17.076744,19.680721 0 0 0 -0.111104,0.151413 17.076744,19.680721 0 0 0 -0.109553,0.152961 17.076744,19.680721 0 0 0 -0.108003,0.153995 17.076744,19.680721 0 0 0 -0.106971,0.155546 17.076744,19.680721 0 0 0 -0.105421,0.15658 17.076744,19.680721 0 0 0 -0.104386,0.158131 17.076744,19.680721 0 0 0 -0.102835,0.159163 17.076744,19.680721 0 0 0 -0.101285,0.160197 17.076744,19.680721 0 0 0 -0.09974,0.161229 17.076744,19.680721 0 0 0 -0.0987,0.162783 17.076744,19.680721 0 0 0 -0.09715,0.163814 17.076744,19.680721 0 0 0 -0.0956,0.164848 17.076744,19.680721 0 0 0 -0.09405,0.165881 17.076744,19.680721 0 0 0 -0.09302,0.166915 17.076744,19.680721 0 0 0 -0.09095,0.167947 17.076744,19.680721 0 0 0 -0.08992,0.1695 17.076744,19.680721 0 0 0 -0.08837,0.170016 17.076744,19.680721 0 0 0 -0.08682,0.171048 17.076744,19.680721 0 0 0 -0.08527,0.172598 17.076744,19.680721 0 0 0 -0.08423,0.173117 17.076744,19.680721 0 0 0 -0.08217,0.174149 17.076744,19.680721 0 0 0 -0.08061,0.175183 17.076744,19.680721 0 0 0 -0.07958,0.175702 17.076744,19.680721 0 0 0 -0.07751,0.177249 17.076744,19.680721 0 0 0 -0.07596,0.177766 17.076744,19.680721 0 0 0 -0.07493,0.1788 17.076744,19.680721 0 0 0 -0.07286,0.179319 17.076744,19.680721 0 0 0 -0.07131,0.18035 17.076744,19.680721 0 0 0 -0.07028,0.181385 17.076744,19.680721 0 0 0 -0.06822,0.181902 17.076744,19.680721 0 0 0 -0.06666,0.182932 17.076744,19.680721 0 0 0 -0.06511,0.183452 17.076744,19.680721 0 0 0 -0.06356,0.184486 17.076744,19.680721 0 0 0 -0.06149,0.185002 17.076744,19.680721 0 0 0 -0.06046,0.185518 17.076744,19.680721 0 0 0 -0.0584,0.186552 17.076744,19.680721 0 0 0 -0.05736,0.187069 17.076744,19.680721 0 0 0 -0.0553,0.1881 17.076744,19.680721 0 0 0 -0.05374,0.188103 17.076744,19.680721 0 0 0 -0.05219,0.189137 17.076744,19.680721 0 0 0 -0.05013,0.189651 17.076744,19.680721 0 0 0 -0.04858,0.190169 17.076744,19.680721 0 0 0 -0.04754,0.190688 17.076744,19.680721 0 0 0 -0.04496,0.191201 17.076744,19.680721 0 0 0 -0.04392,0.192238 17.076744,19.680721 0 0 0 -0.04186,0.192236 17.076744,19.680721 0 0 0 -0.04083,0.192752 17.076744,19.680721 0 0 0 -0.03824,0.19327 17.076744,19.680721 0 0 0 -0.03721,0.19327 17.076744,19.680721 0 0 0 -0.03514,0.194305 17.076744,19.680721 0 0 0 -0.03359,0.194302 17.076744,19.680721 0 0 0 -0.03204,0.195336 17.076744,19.680721 0 0 0 -0.02997,0.194821 17.076744,19.680721 0 0 0 -0.02842,0.195852 17.076744,19.680721 0 0 0 -0.02687,0.195856 17.076744,19.680721 0 0 0 -0.02532,0.196371 17.076744,19.680721 0 0 0 -0.02325,0.196368 17.076744,19.680721 0 0 0 -0.0217,0.196887 17.076744,19.680721 0 0 0 -0.01964,0.19689 17.076744,19.680721 0 0 0 -0.01809,0.196887 17.076744,19.680721 0 0 0 -0.01654,0.197403 17.076744,19.680721 0 0 0 -0.01499,0.197921 17.076744,19.680721 0 0 0 -0.01292,0.197403 17.076744,19.680721 0 0 0 -0.01137,0.197922 17.076744,19.680721 0 0 0 -0.0093,0.198438 17.076744,19.680721 0 0 0 -0.0078,0.197918 17.076744,19.680721 0 0 0 -0.0062,0.198438 17.076744,19.680721 0 0 0 -0.0041,0.197922 17.076744,19.680721 0 0 0 -0.0026,0.198437 17.076744,19.680721 0 0 0 -10e-4,0.198437 17.076744,19.680721 0 0 0 5.16e-4,0.174668 17.076744,19.680721 0 0 0 0.0026,0.198437 17.076744,19.680721 0 0 0 0.0041,0.198438 17.076744,19.680721 0 0 0 0.0057,0.197919 17.076744,19.680721 0 0 0 0.0078,0.198437 17.076744,19.680721 0 0 0 0.0093,0.197922 17.076744,19.680721 0 0 0 0.01085,0.197921 17.076744,19.680721 0 0 0 0.01292,0.197919 17.076744,19.680721 0 0 0 0.01447,0.197406 17.076744,19.680721 0 0 0 0.01654,0.197403 17.076744,19.680721 0 0 0 0.01757,0.197405 17.076744,19.680721 0 0 0 0.02015,0.196888 17.076744,19.680721 0 0 0 0.02119,0.196887 17.076744,19.680721 0 0 0 0.02325,0.196368 17.076744,19.680721 0 0 0 0.02481,0.196371 17.076744,19.680721 0 0 0 0.02635,0.195855 17.076744,19.680721 0 0 0 0.02842,0.195337 17.076744,19.680721 0 0 0 0.02997,0.195336 17.076744,19.680721 0 0 0 0.03152,0.195337 17.076744,19.680721 0 0 0 0.03359,0.194302 17.076744,19.680721 0 0 0 0.03514,0.194305 17.076744,19.680721 0 0 0 0.03669,0.193786 17.076744,19.680721 0 0 0 0.03876,0.19327 17.076744,19.680721 0 0 0 0.03979,0.192754 17.076744,19.680721 0 0 0 0.04186,0.192236 17.076744,19.680721 0 0 0 0.04392,0.19172 17.076744,19.680721 0 0 0 0.04496,0.191719 17.076744,19.680721 0 0 0 0.04703,0.190686 17.076744,19.680721 0 0 0 0.04857,0.190169 17.076744,19.680721 0 0 0 0.05013,0.189653 17.076744,19.680721 0 0 0 0.05168,0.189135 17.076744,19.680721 0 0 0 0.05374,0.188619 17.076744,19.680721 0 0 0 0.05478,0.187587 17.076744,19.680721 0 0 0 0.05684,0.187584 17.076744,19.680721 0 0 0 0.05839,0.186552 17.076744,19.680721 0 0 0 0.06046,0.185518 17.076744,19.680721 0 0 0 0.06149,0.185002 17.076744,19.680721 0 0 0 0.06356,0.184486 17.076744,19.680721 0 0 0 0.06459,0.183968 17.076744,19.680721 0 0 0 0.06667,0.182933 17.076744,19.680721 0 0 0 0.06821,0.181901 17.076744,19.680721 0 0 0 0.06976,0.181385 17.076744,19.680721 0 0 0 0.0708,0.18035 17.076744,19.680721 0 0 0 0.07286,0.179835 17.076744,19.680721 0 0 0 0.07442,0.1788 17.076744,19.680721 0 0 0 0.07596,0.177766 17.076744,19.680721 0 0 0 0.07803,0.177252 17.076744,19.680721 0 0 0 0.07906,0.176215 17.076744,19.680721 0 0 0 0.08062,0.175184 17.076744,19.680721 0 0 0 0.08165,0.174151 17.076744,19.680721 0 0 0 0.08372,0.173114 17.076744,19.680721 0 0 0 0.08526,0.172601 17.076744,19.680721 0 0 0 0.08682,0.171048 17.076744,19.680721 0 0 0 0.08785,0.170532 17.076744,19.680721 0 0 0 0.08992,0.1695 17.076744,19.680721 0 0 0 0.09095,0.167947 17.076744,19.680721 0 0 0 0.0925,0.167431 17.076744,19.680721 0 0 0 0.09405,0.165883 17.076744,19.680721 0 0 0 0.0956,0.164846 17.076744,19.680721 0 0 0 0.09715,0.163817 17.076744,19.680721 0 0 0 0.09818,0.162779 17.076744,19.680721 0 0 0 0.09043,0.146762 78.165025,73.323663 0 0 1 28.986357,-20.636984 z"
         inkscape:export-xdpi="96"
         inkscape:export-ydpi="96" />
      <path
         id="path932"
         style="opacity:0.92;mix-blend-mode:normal;fill:#f7c454;fill-opacity:1;fill-rule:evenodd;stroke:#000000;stroke-width:2.11667;stroke-linejoin:round;stroke-miterlimit:4;stroke-dasharray:none"
         d="m 78.078952,32.044557 a 20.626124,25.660104 0 0 0 -20.585305,25.659931 20.626124,25.660104 0 0 0 3.650421,14.574306 78.164985,73.323663 0 0 1 5.074111,-6.505546 17.076735,19.680721 0 0 1 -0.09043,-0.146762 17.076735,19.680721 0 0 1 -0.09818,-0.162779 17.076735,19.680721 0 0 1 -0.09715,-0.163817 17.076735,19.680721 0 0 1 -0.0956,-0.164846 17.076735,19.680721 0 0 1 -0.09405,-0.165883 17.076735,19.680721 0 0 1 -0.0925,-0.167431 17.076735,19.680721 0 0 1 -0.09095,-0.167947 17.076735,19.680721 0 0 1 -0.08992,-0.1695 17.076735,19.680721 0 0 1 -0.08785,-0.170532 17.076735,19.680721 0 0 1 -0.08682,-0.171048 17.076735,19.680721 0 0 1 -0.08526,-0.172601 17.076735,19.680721 0 0 1 -0.08372,-0.173114 17.076735,19.680721 0 0 1 -0.08165,-0.174151 17.076735,19.680721 0 0 1 -0.08062,-0.175184 17.076735,19.680721 0 0 1 -0.07906,-0.176215 17.076735,19.680721 0 0 1 -0.07803,-0.177252 17.076735,19.680721 0 0 1 -0.07596,-0.177766 17.076735,19.680721 0 0 1 -0.07442,-0.1788 17.076735,19.680721 0 0 1 -0.07286,-0.179835 17.076735,19.680721 0 0 1 -0.0708,-0.18035 17.076735,19.680721 0 0 1 -0.06976,-0.181385 17.076735,19.680721 0 0 1 -0.06821,-0.181901 17.076735,19.680721 0 0 1 -0.06667,-0.182933 17.076735,19.680721 0 0 1 -0.06459,-0.183968 17.076735,19.680721 0 0 1 -0.06356,-0.184486 17.076735,19.680721 0 0 1 -0.06149,-0.185002 17.076735,19.680721 0 0 1 -0.06046,-0.185518 17.076735,19.680721 0 0 1 -0.05839,-0.186552 17.076735,19.680721 0 0 1 -0.05684,-0.187584 17.076735,19.680721 0 0 1 -0.05478,-0.187587 17.076735,19.680721 0 0 1 -0.05374,-0.188619 17.076735,19.680721 0 0 1 -0.05168,-0.189135 17.076735,19.680721 0 0 1 -0.05013,-0.189653 17.076735,19.680721 0 0 1 -0.04857,-0.190169 17.076735,19.680721 0 0 1 -0.04703,-0.190686 17.076735,19.680721 0 0 1 -0.04496,-0.191719 17.076735,19.680721 0 0 1 -0.04392,-0.19172 17.076735,19.680721 0 0 1 -0.04186,-0.192236 17.076735,19.680721 0 0 1 -0.03979,-0.192754 17.076735,19.680721 0 0 1 -0.03876,-0.19327 17.076735,19.680721 0 0 1 -0.03669,-0.193786 17.076735,19.680721 0 0 1 -0.03514,-0.194305 17.076735,19.680721 0 0 1 -0.03359,-0.194302 17.076735,19.680721 0 0 1 -0.03152,-0.195337 17.076735,19.680721 0 0 1 -0.02997,-0.195336 17.076735,19.680721 0 0 1 -0.02842,-0.195337 17.076735,19.680721 0 0 1 -0.02635,-0.195855 17.076735,19.680721 0 0 1 -0.02481,-0.196371 17.076735,19.680721 0 0 1 -0.02325,-0.196368 17.076735,19.680721 0 0 1 -0.02119,-0.196887 17.076735,19.680721 0 0 1 -0.02015,-0.196888 17.076735,19.680721 0 0 1 -0.01757,-0.197405 17.076735,19.680721 0 0 1 -0.01654,-0.197403 17.076735,19.680721 0 0 1 -0.01447,-0.197406 17.076735,19.680721 0 0 1 -0.01292,-0.197919 17.076735,19.680721 0 0 1 -0.01085,-0.197921 17.076735,19.680721 0 0 1 -0.0093,-0.197922 17.076735,19.680721 0 0 1 -0.0078,-0.198437 17.076735,19.680721 0 0 1 -0.0057,-0.197919 17.076735,19.680721 0 0 1 -0.0041,-0.198438 17.076735,19.680721 0 0 1 -0.0026,-0.198437 17.076735,19.680721 0 0 1 -5.16e-4,-0.174668 17.076735,19.680721 0 0 1 10e-4,-0.198437 17.076735,19.680721 0 0 1 0.0026,-0.198437 17.076735,19.680721 0 0 1 0.0041,-0.197922 17.076735,19.680721 0 0 1 0.0062,-0.198438 17.076735,19.680721 0 0 1 0.0078,-0.197918 17.076735,19.680721 0 0 1 0.0093,-0.198438 17.076735,19.680721 0 0 1 0.01137,-0.197922 17.076735,19.680721 0 0 1 0.01292,-0.197403 17.076735,19.680721 0 0 1 0.01499,-0.197921 17.076735,19.680721 0 0 1 0.01654,-0.197403 17.076735,19.680721 0 0 1 0.01809,-0.196887 17.076735,19.680721 0 0 1 0.01964,-0.19689 17.076735,19.680721 0 0 1 0.0217,-0.196887 17.076735,19.680721 0 0 1 0.02325,-0.196368 17.076735,19.680721 0 0 1 0.02532,-0.196371 17.076735,19.680721 0 0 1 0.02687,-0.195856 17.076735,19.680721 0 0 1 0.02842,-0.195852 17.076735,19.680721 0 0 1 0.02997,-0.194821 17.076735,19.680721 0 0 1 0.03204,-0.195336 17.076735,19.680721 0 0 1 0.03359,-0.194302 17.076735,19.680721 0 0 1 0.03514,-0.194305 17.076735,19.680721 0 0 1 0.03721,-0.19327 17.076735,19.680721 0 0 1 0.03824,-0.19327 17.076735,19.680721 0 0 1 0.04083,-0.192752 17.076735,19.680721 0 0 1 0.04186,-0.192236 17.076735,19.680721 0 0 1 0.04392,-0.192238 17.076735,19.680721 0 0 1 0.04496,-0.191201 17.076735,19.680721 0 0 1 0.04754,-0.190688 17.076735,19.680721 0 0 1 0.04858,-0.190169 17.076735,19.680721 0 0 1 0.05013,-0.189651 17.076735,19.680721 0 0 1 0.05219,-0.189137 17.076735,19.680721 0 0 1 0.05374,-0.188103 17.076735,19.680721 0 0 1 0.0553,-0.1881 17.076735,19.680721 0 0 1 0.05736,-0.187069 17.076735,19.680721 0 0 1 0.0584,-0.186552 17.076735,19.680721 0 0 1 0.06046,-0.185518 17.076735,19.680721 0 0 1 0.06149,-0.185002 17.076735,19.680721 0 0 1 0.06356,-0.184486 17.076735,19.680721 0 0 1 0.06511,-0.183452 17.076735,19.680721 0 0 1 0.06666,-0.182932 17.076735,19.680721 0 0 1 0.06822,-0.181902 17.076735,19.680721 0 0 1 0.07028,-0.181385 17.076735,19.680721 0 0 1 0.07131,-0.18035 17.076735,19.680721 0 0 1 0.07286,-0.179319 17.076735,19.680721 0 0 1 0.07493,-0.1788 17.076735,19.680721 0 0 1 0.07596,-0.177766 17.076735,19.680721 0 0 1 0.07751,-0.177249 17.076735,19.680721 0 0 1 0.07958,-0.175702 17.076735,19.680721 0 0 1 0.08061,-0.175183 17.076735,19.680721 0 0 1 0.08217,-0.174149 17.076735,19.680721 0 0 1 0.08423,-0.173117 17.076735,19.680721 0 0 1 0.08527,-0.172598 17.076735,19.680721 0 0 1 0.08682,-0.171048 17.076735,19.680721 0 0 1 0.08837,-0.170016 17.076735,19.680721 0 0 1 0.08992,-0.1695 17.076735,19.680721 0 0 1 0.09095,-0.167947 17.076735,19.680721 0 0 1 0.09302,-0.166915 17.076735,19.680721 0 0 1 0.09405,-0.165881 17.076735,19.680721 0 0 1 0.0956,-0.164848 17.076735,19.680721 0 0 1 0.09715,-0.163814 17.076735,19.680721 0 0 1 0.0987,-0.162783 17.076735,19.680721 0 0 1 0.09974,-0.161229 17.076735,19.680721 0 0 1 0.101285,-0.160197 17.076735,19.680721 0 0 1 0.102835,-0.159163 17.076735,19.680721 0 0 1 0.104386,-0.158131 17.076735,19.680721 0 0 1 0.105421,-0.15658 17.076735,19.680721 0 0 1 0.106971,-0.155546 17.076735,19.680721 0 0 1 0.108003,-0.153995 17.076735,19.680721 0 0 1 0.109553,-0.152961 17.076735,19.680721 0 0 1 0.111104,-0.151413 17.076735,19.680721 0 0 1 0.112139,-0.150379 17.076735,19.680721 0 0 1 0.113688,-0.149344 17.076735,19.680721 0 0 1 0.114721,-0.147278 17.076735,19.680721 0 0 1 0.115755,-0.146761 17.076735,19.680721 0 0 1 0.117824,-0.144693 17.076735,19.680721 0 0 1 0.118338,-0.143661 17.076735,19.680721 0 0 1 0.119891,-0.142629 17.076735,19.680721 0 0 1 0.121438,-0.14056 17.076735,19.680721 0 0 1 0.121957,-0.139525 17.076735,19.680721 0 0 1 0.123505,-0.137975 17.076735,19.680721 0 0 1 0.125058,-0.136427 17.076735,19.680721 0 0 1 0.12609,-0.135393 17.076735,19.680721 0 0 1 0.127124,-0.133323 17.076735,19.680721 0 0 1 0.128159,-0.132292 17.076735,19.680721 0 0 1 0.129191,-0.130741 17.076735,19.680721 0 0 1 0.130741,-0.129194 17.076735,19.680721 0 0 1 0.131776,-0.12764 17.076735,19.680721 0 0 1 0.132807,-0.12609 17.076735,19.680721 0 0 1 0.133842,-0.124539 17.076735,19.680721 0 0 1 0.134874,-0.122992 17.076735,19.680721 0 0 1 0.136428,-0.121438 17.076735,19.680721 0 0 1 0.136943,-0.119891 17.076735,19.680721 0 0 1 0.137974,-0.117821 17.076735,19.680721 0 0 1 0.139526,-0.11679 17.076735,19.680721 0 0 1 0.140044,-0.115237 17.076735,19.680721 0 0 1 0.141076,-0.113173 17.076735,19.680721 0 0 1 0.14211,-0.111619 17.076735,19.680721 0 0 1 0.143145,-0.110072 17.076735,19.680721 0 0 1 0.144177,-0.108519 17.076735,19.680721 0 0 1 0.145211,-0.106455 17.076735,19.680721 0 0 1 0.145727,-0.105418 17.076735,19.680721 0 0 1 0.147278,-0.103354 17.076735,19.680721 0 0 1 0.147796,-0.101285 17.076735,19.680721 0 0 1 0.14831,-0.100254 17.076735,19.680721 0 0 1 0.149862,-0.09767 17.076735,19.680721 0 0 1 0.150379,-0.09663 17.076735,19.680721 0 0 1 0.150894,-0.09457 17.076735,19.680721 0 0 1 0.151929,-0.09302 17.076735,19.680721 0 0 1 0.152961,-0.09095 17.076735,19.680721 0 0 1 0.15348,-0.0894 17.076735,19.680721 0 0 1 0.154514,-0.08785 17.076735,19.680721 0 0 1 0.155027,-0.08578 17.076735,19.680721 0 0 1 0.156065,-0.08371 17.076735,19.680721 0 0 1 0.156577,-0.08217 17.076735,19.680721 0 0 1 0.157615,-0.08062 17.076735,19.680721 0 0 1 0.157613,-0.07803 17.076735,19.680721 0 0 1 0.159162,-0.077 17.076735,19.680721 0 0 1 0.159166,-0.07493 17.076735,19.680721 0 0 1 0.160194,-0.07286 17.076735,19.680721 0 0 1 0.160198,-0.0708 17.076735,19.680721 0 0 1 0.161747,-0.06925 17.076735,19.680721 0 0 1 0.161748,-0.0677 17.076735,19.680721 0 0 1 0.162264,-0.06511 17.076735,19.680721 0 0 1 0.162782,-0.06356 17.076735,19.680721 0 0 1 0.163814,-0.06201 17.076735,19.680721 0 0 1 0.163814,-0.05943 17.076735,19.680721 0 0 1 0.164846,-0.05788 17.076735,19.680721 0 0 1 0.164849,-0.05581 17.076735,19.680721 0 0 1 0.16588,-0.05426 17.076735,19.680721 0 0 1 0.165884,-0.05219 17.076735,19.680721 0 0 1 0.166396,-0.05013 17.076735,19.680721 0 0 1 0.166915,-0.04806 17.076735,19.680721 0 0 1 0.167431,-0.04651 17.076735,19.680721 0 0 1 0.16795,-0.04444 17.076735,19.680721 0 0 1 0.167949,-0.04237 17.076735,19.680721 0 0 1 0.168466,-0.04031 17.076735,19.680721 0 0 1 0.168981,-0.03876 17.076735,19.680721 0 0 1 0.168981,-0.03617 17.076735,19.680721 0 0 1 0.169498,-0.03462 17.076735,19.680721 0 0 1 0.1695,-0.03255 17.076735,19.680721 0 0 1 0.170016,-0.03049 17.076735,19.680721 0 0 1 0.170532,-0.02894 17.076735,19.680721 0 0 1 0.170532,-0.02635 17.076735,19.680721 0 0 1 0.170532,-0.02481 17.076735,19.680721 0 0 1 0.171047,-0.02274 17.076735,19.680721 0 0 1 0.171051,-0.02067 17.076735,19.680721 0 0 1 0.171566,-0.01861 17.076735,19.680721 0 0 1 0.171048,-0.01705 17.076735,19.680721 0 0 1 0.171566,-0.01447 17.076735,19.680721 0 0 1 0.172083,-0.01292 17.076735,19.680721 0 0 1 0.171566,-0.01085 17.076735,19.680721 0 0 1 0.172083,-0.0088 17.076735,19.680721 0 0 1 0.172082,-0.0067 17.076735,19.680721 0 0 1 0.172082,-0.0047 17.076735,19.680721 0 0 1 0.172083,-0.0026 17.076735,19.680721 0 0 1 0.15141,-0.001 17.076735,19.680721 0 0 1 0.172085,0.001 17.076735,19.680721 0 0 1 0.172082,0.0031 17.076735,19.680721 0 0 1 0.172083,0.0052 17.076735,19.680721 0 0 1 0.172082,0.0067 17.076735,19.680721 0 0 1 0.172083,0.0088 17.076735,19.680721 0 0 1 0.171566,0.01137 17.076735,19.680721 0 0 1 0.171564,0.01292 17.076735,19.680721 0 0 1 0.171566,0.01499 17.076735,19.680721 0 0 1 0.171567,0.01705 17.076735,19.680721 0 0 1 0.171566,0.0186 17.076735,19.680721 0 0 1 0.171048,0.02119 17.076735,19.680721 0 0 1 0.171048,0.02273 17.076735,19.680721 0 0 1 0.170534,0.02481 17.076735,19.680721 0 0 1 0.170532,0.02687 17.076735,19.680721 0 0 1 0.170016,0.02894 17.076735,19.680721 0 0 1 0.170013,0.03101 17.076735,19.680721 0 0 1 0.170016,0.03307 17.076735,19.680721 0 0 1 0.168982,0.03462 17.076735,19.680721 0 0 1 0.1695,0.03669 17.076735,19.680721 0 0 1 0.168465,0.03876 17.076735,19.680721 0 0 1 0.168466,0.04083 17.076735,19.680721 0 0 1 0.167947,0.04238 17.076735,19.680721 0 0 1 0.167949,0.04444 17.076735,19.680721 0 0 1 0.167431,0.04651 17.076735,19.680721 0 0 1 0.166399,0.04857 17.076735,19.680721 0 0 1 0.166915,0.05064 17.076735,19.680721 0 0 1 0.165881,0.05219 17.076735,19.680721 0 0 1 0.165364,0.05426 17.076735,19.680721 0 0 1 0.164849,0.05633 17.076735,19.680721 0 0 1 0.164846,0.05788 17.076735,19.680721 0 0 1 0.163814,0.05994 17.076735,19.680721 0 0 1 0.163298,0.06201 17.076735,19.680721 0 0 1 0.163299,0.06356 17.076735,19.680721 0 0 1 0.162263,0.06615 17.076735,19.680721 0 0 1 0.161748,0.06718 17.076735,19.680721 0 0 1 0.161229,0.06976 17.076735,19.680721 0 0 1 0.160713,0.07131 17.076735,19.680721 0 0 1 0.159682,0.07286 17.076735,19.680721 0 0 1 0.159162,0.07493 17.076735,19.680721 0 0 1 0.158647,0.077 17.076735,19.680721 0 0 1 0.158131,0.07906 17.076735,19.680721 0 0 1 0.157096,0.0801 17.076735,19.680721 0 0 1 0.156578,0.08268 17.076735,19.680721 0 0 1 0.156065,0.08423 17.076735,19.680721 0 0 1 0.15503,0.08578 17.076735,19.680721 0 0 1 0.153995,0.08785 17.076735,19.680721 0 0 1 0.153995,0.0894 17.076735,19.680721 0 0 1 0.152445,0.09147 17.076735,19.680721 0 0 1 0.151929,0.09302 17.076735,19.680721 0 0 1 0.151411,0.09509 17.076735,19.680721 0 0 1 0.149863,0.09663 17.076735,19.680721 0 0 1 0.149344,0.09818 17.076735,19.680721 0 0 1 0.148828,0.100254 17.076735,19.680721 0 0 1 0.147796,0.101803 17.076735,19.680721 0 0 1 0.146762,0.103352 17.076735,19.680721 0 0 1 0.145727,0.10542 17.076735,19.680721 0 0 1 0.144693,0.106969 17.076735,19.680721 0 0 1 0.144176,0.108521 17.076735,19.680721 0 0 1 0.143145,0.110072 17.076735,19.680721 0 0 1 0.142111,0.112136 17.076735,19.680721 0 0 1 0.141075,0.113173 17.076735,19.680721 0 0 1 0.140044,0.115239 17.076735,19.680721 0 0 1 0.13901,0.116787 17.076735,19.680721 0 0 1 0.137975,0.11834 17.076735,19.680721 0 0 1 0.136943,0.120407 17.076735,19.680721 0 0 1 0.135908,0.121438 17.076735,19.680721 0 0 1 0.134877,0.122989 17.076735,19.680721 0 0 1 0.133842,0.125058 17.076735,19.680721 0 0 1 0.132808,0.12609 17.076735,19.680721 0 0 1 0.131259,0.12764 17.076735,19.680721 0 0 1 0.130742,0.12971 17.076735,19.680721 0 0 1 0.12919,0.130741 17.076735,19.680721 0 0 1 0.128157,0.132292 17.076735,19.680721 0 0 1 0.127124,0.133842 17.076735,19.680721 0 0 1 0.125574,0.135392 17.076735,19.680721 0 0 1 0.125058,0.136425 17.076735,19.680721 0 0 1 0.122989,0.138493 17.076735,19.680721 0 0 1 0.122473,0.139526 17.076735,19.680721 0 0 1 0.120922,0.141078 17.076735,19.680721 0 0 1 0.119891,0.142111 17.076735,19.680721 0 0 1 0.118337,0.144176 17.076735,19.680721 0 0 1 0.117306,0.144693 17.076735,19.680721 0 0 1 0.115755,0.146762 17.076735,19.680721 0 0 1 0.114724,0.147796 17.076735,19.680721 0 0 1 0.113686,0.149344 17.076735,19.680721 0 0 1 0.112138,0.150379 17.076735,19.680721 0 0 1 0.110588,0.151929 17.076735,19.680721 0 0 1 0.109553,0.152961 17.076735,19.680721 0 0 1 0.108006,0.154514 17.076735,19.680721 0 0 1 0.106452,0.155545 17.076735,19.680721 0 0 1 0.105421,0.156578 17.076735,19.680721 0 0 1 0.103868,0.158131 17.076735,19.680721 0 0 1 0.102838,0.159163 17.076735,19.680721 0 0 1 0.101285,0.160197 17.076735,19.680721 0 0 1 0.09973,0.161748 17.076735,19.680721 0 0 1 0.09819,0.162779 17.076735,19.680721 0 0 1 0.09715,0.163815 17.076735,19.680721 0 0 1 0.09509,0.164848 17.076735,19.680721 0 0 1 0.09405,0.166399 17.076735,19.680721 0 0 1 0.09302,0.166915 17.076735,19.680721 0 0 1 0.09095,0.168463 17.076735,19.680721 0 0 1 0.0894,0.168984 17.076735,19.680721 0 0 1 0.08837,0.170532 17.076735,19.680721 0 0 1 0.08682,0.171048 17.076735,19.680721 0 0 1 0.08527,0.172601 17.076735,19.680721 0 0 1 0.0832,0.173114 17.076735,19.680721 0 0 1 0.08217,0.174152 17.076735,19.680721 0 0 1 0.06769,0.147793 78.164985,73.323663 0 0 1 0.756544,-0.307991 20.626124,25.660104 0 0 0 -17.841288,-12.783716 20.626124,25.660104 0 0 0 -0.04082,0 z"
         inkscape:export-xdpi="96"
         inkscape:export-ydpi="96" />
      <path
         id="path861-6-7-6-9"
         style="display:inline;opacity:0.92;mix-blend-mode:normal;fill:#f7c454;fill-opacity:0.932561;fill-rule:evenodd;stroke:#000000;stroke-width:2.11667;stroke-miterlimit:4;stroke-dasharray:none;stroke-opacity:1"
         d="m 128.84726,41.877108 a 78.164992,73.32367 0 0 0 -78.109954,73.323612 78.164992,73.32367 0 0 0 3.37913,21.32428 c -2.28458,5.0837 -4.48999,10.04835 -6.64094,14.74227 -4.03635,9.03464 -6.13332,18.94371 -6.13348,28.98324 2e-5,36.70771 10.8448,62.74579 44.260353,68.10489 2.73771,0.43906 23.125711,2.3797 23.125711,2.3797 24.8077,1.04845 17.8434,0.89593 27.44018,0.89607 6.95649,-5e-5 30.61709,-0.33431 35.38752,-1.4609 22.52922,-5.3664 56.67081,-41.86573 57.53034,-77.79266 -4e-5,-10.18493 -1.57408,-20.27073 -4.63279,-29.68502 -6.12136,-19.38642 -12.88006,-35.79837 -20.84989,-49.077552 -8e-5,-1.3e-4 7e-5,-2.7e-4 0,-5.3e-4 a 78.164992,73.32367 0 0 0 -74.70139,-51.737414 78.164992,73.32367 0 0 0 -0.0548,0 z"
         inkscape:export-xdpi="96"
         inkscape:export-ydpi="96" />
      <path
         id="path1123"
         style="display:inline;opacity:0.92;mix-blend-mode:normal;fill:#ffffff;fill-opacity:0.988235;fill-rule:evenodd;stroke:none;stroke-width:2.14018;stroke-miterlimit:4;stroke-dasharray:none;stroke-opacity:1"
         d="m 87.542214,54.021456 a 29.154905,35.046504 53.268459 0 0 -0.013,0.119511 29.154905,35.046504 53.268459 0 0 -0.02452,0.239525 29.154905,35.046504 53.268459 0 0 -0.02282,0.239507 29.154905,35.046504 53.268459 0 0 -0.02072,0.239485 29.154905,35.046504 53.268459 0 0 -0.01861,0.239464 29.154905,35.046504 53.268459 0 0 -0.01701,0.23893 29.154905,35.046504 53.268459 0 0 -0.01489,0.238911 29.154905,35.046504 53.268459 0 0 -0.01279,0.238889 29.154905,35.046504 53.268459 0 0 -0.01127,0.238358 29.154905,35.046504 53.268459 0 0 -0.0094,0.238336 29.154905,35.046504 53.268459 0 0 -0.0074,0.237802 29.154905,35.046504 53.268459 0 0 -0.0055,0.237779 29.154905,35.046504 53.268459 0 0 -0.0034,0.237243 29.154905,35.046504 53.268459 0 0 -0.0014,0.236707 29.154905,35.046504 53.268459 0 0 3.68e-4,0.237202 29.154905,35.046504 53.268459 0 0 0.0026,0.23615 29.154905,35.046504 53.268459 0 0 0.0046,0.236128 29.154905,35.046504 53.268459 0 0 0.0066,0.235593 29.154905,35.046504 53.268459 0 0 0.0086,0.235569 29.154905,35.046504 53.268459 0 0 0.0105,0.234516 29.154905,35.046504 53.268459 0 0 0.0125,0.234499 29.154905,35.046504 53.268459 0 0 0.01409,0.23448 29.154905,35.046504 53.268459 0 0 0.0162,0.233425 29.154905,35.046504 53.268459 0 0 0.01769,0.23341 29.154905,35.046504 53.268459 0 0 0.0198,0.23287 29.154905,35.046504 53.268459 0 0 0.02189,0.232334 29.154905,35.046504 53.268459 0 0 0.0235,0.2318 29.154905,35.046504 53.268459 0 0 0.0261,0.231257 29.154905,35.046504 53.268459 0 0 0.0272,0.230729 29.154905,35.046504 53.268459 0 0 0.0298,0.230186 29.154905,35.046504 53.268459 0 0 0.0314,0.229655 29.154905,35.046504 53.268459 0 0 0.03351,0.22963 29.154905,35.046504 53.268459 0 0 0.03511,0.228581 29.154905,35.046504 53.268459 0 0 0.0372,0.228043 29.154905,35.046504 53.268459 0 0 0.03931,0.227505 29.154905,35.046504 53.268459 0 0 0.04081,0.226456 29.154905,35.046504 53.268459 0 0 0.04301,0.226434 29.154905,35.046504 53.268459 0 0 0.04511,0.225379 29.154905,35.046504 53.268459 0 0 0.04671,0.225363 29.154905,35.046504 53.268459 0 0 0.04871,0.224308 29.154905,35.046504 53.268459 0 0 0.05091,0.223256 29.154905,35.046504 53.268459 0 0 0.05251,0.223235 29.154905,35.046504 53.268459 0 0 0.05461,0.222184 29.154905,35.046504 53.268459 0 0 0.05622,0.221647 29.154905,35.046504 53.268459 0 0 0.05832,0.220596 29.154905,35.046504 53.268459 0 0 0.05992,0.220059 29.154905,35.046504 53.268459 0 0 0.06202,0.219524 29.154905,35.046504 53.268459 0 0 0.06412,0.218468 29.154905,35.046504 53.268459 0 0 0.06572,0.217934 29.154905,35.046504 53.268459 0 0 0.06772,0.216883 29.154905,35.046504 53.268459 0 0 0.06933,0.216347 29.154905,35.046504 53.268459 0 0 0.07143,0.215293 29.154905,35.046504 53.268459 0 0 0.07352,0.214753 29.154905,35.046504 53.268459 0 0 0.07463,0.213711 29.154905,35.046504 53.268459 0 0 0.07724,0.21265 29.154905,35.046504 53.268459 0 0 0.07883,0.212114 29.154905,35.046504 53.268459 0 0 0.08033,0.211068 29.154905,35.046504 53.268459 0 0 0.08243,0.210016 29.154905,35.046504 53.268459 0 0 0.08464,0.209472 29.154905,35.046504 53.268459 0 0 0.08614,0.208426 29.154905,35.046504 53.268459 0 0 0.08774,0.207376 29.154905,35.046504 53.268459 0 0 0.08984,0.206835 29.154905,35.046504 53.268459 0 0 0.09144,0.20527 29.154905,35.046504 53.268459 0 0 0.09355,0.204733 29.154905,35.046504 53.268459 0 0 0.09515,0.203681 29.154905,35.046504 53.268459 0 0 0.09725,0.202628 29.154905,35.046504 53.268459 0 0 0.09875,0.202097 29.154905,35.046504 53.268459 0 0 0.100323,0.200528 29.154905,35.046504 53.268459 0 0 0.102415,0.199474 29.154905,35.046504 53.268459 0 0 0.104016,0.198941 29.154905,35.046504 53.268459 0 0 0.106108,0.197367 29.154905,35.046504 53.268459 0 0 0.107161,0.196327 29.154905,35.046504 53.268459 0 0 0.109791,0.195781 29.154905,35.046504 53.268459 0 0 0.110844,0.194221 29.154905,35.046504 53.268459 0 0 0.112945,0.193163 29.154905,35.046504 53.268459 0 0 0.114517,0.192633 29.154905,35.046504 53.268459 0 0 0.11661,0.191062 29.154905,35.046504 53.268459 0 0 0.117661,0.189498 29.154905,35.046504 53.268459 0 0 0.119763,0.188962 29.154905,35.046504 53.268459 0 0 0.121876,0.187905 29.154905,35.046504 53.268459 0 0 0.122907,0.186347 29.154905,35.046504 53.268459 0 0 0.125009,0.185293 29.154905,35.046504 53.268459 0 0 0.126581,0.18424 29.154905,35.046504 53.268459 0 0 0.128154,0.182673 29.154905,35.046504 53.268459 0 0 0.129735,0.182143 29.154905,35.046504 53.268459 0 0 0.131828,0.180571 29.154905,35.046504 53.268459 0 0 0.132869,0.179007 29.154905,35.046504 53.268459 0 0 0.134982,0.178472 29.154905,35.046504 53.268459 0 0 0.136534,0.176387 29.154905,35.046504 53.268459 0 0 0.138127,0.175853 29.154905,35.046504 53.268459 0 0 0.139688,0.174291 29.154905,35.046504 53.268459 0 0 0.14126,0.173239 29.154905,35.046504 53.268459 0 0 0.143364,0.171669 29.154905,35.046504 53.268459 0 0 0.144414,0.170621 29.154905,35.046504 53.268459 0 0 0.145968,0.169057 29.154905,35.046504 53.268459 0 0 0.148089,0.168005 29.154905,35.046504 53.268459 0 0 0.149112,0.166439 29.154905,35.046504 53.268459 0 0 0.150695,0.164876 29.154905,35.046504 53.268459 0 0 0.152786,0.163819 29.154905,35.046504 53.268459 0 0 0.153829,0.162773 29.154905,35.046504 53.268459 0 0 0.155421,0.161213 29.154905,35.046504 53.268459 0 0 0.156964,0.159641 29.154905,35.046504 53.268459 0 0 0.158555,0.158593 29.154905,35.046504 53.268459 0 0 0.160109,0.157028 29.154905,35.046504 53.268459 0 0 0.161691,0.155459 29.154905,35.046504 53.268459 0 0 0.163254,0.153895 29.154905,35.046504 53.268459 0 0 0.164305,0.152849 29.154905,35.046504 53.268459 0 0 0.165869,0.151285 29.154905,35.046504 53.268459 0 0 0.167439,0.150234 29.154905,35.046504 53.268459 0 0 0.169014,0.148153 29.154905,35.046504 53.268459 0 0 0.170577,0.1471 29.154905,35.046504 53.268459 0 0 0.171628,0.145541 29.154905,35.046504 53.268459 0 0 0.173181,0.143974 29.154905,35.046504 53.268459 0 0 0.174772,0.142923 29.154905,35.046504 53.268459 0 0 0.175796,0.140847 29.154905,35.046504 53.268459 0 0 0.177909,0.139792 29.154905,35.046504 53.268459 0 0 0.178412,0.13772 29.154905,35.046504 53.268459 0 0 0.180514,0.136665 29.154905,35.046504 53.268459 0 0 0.181556,0.135104 29.154905,35.046504 53.268459 0 0 0.182589,0.133544 29.154905,35.046504 53.268459 0 0 0.184161,0.131976 29.154905,35.046504 53.268459 0 0 0.185734,0.13041 29.154905,35.046504 53.268459 0 0 0.186778,0.12885 29.154905,35.046504 53.268459 0 0 0.188331,0.127281 29.154905,35.046504 53.268459 0 0 0.189381,0.125722 29.154905,35.046504 53.268459 0 0 0.190435,0.124679 29.154905,35.046504 53.268459 0 0 0.191988,0.122593 29.154905,35.046504 53.268459 0 0 0.19356,0.121027 29.154905,35.046504 53.268459 0 0 0.194595,0.118954 29.154905,35.046504 53.268459 0 0 0.195647,0.117904 29.154905,35.046504 53.268459 0 0 0.197208,0.116342 29.154905,35.046504 53.268459 0 0 0.197721,0.114782 29.154905,35.046504 53.268459 0 0 0.199823,0.112698 29.154905,35.046504 53.268459 0 0 0.20031,0.111655 29.154905,35.046504 53.268459 0 0 0.20191,0.109576 29.154905,35.046504 53.268459 0 0 0.20293,0.108012 29.154905,35.046504 53.268459 0 0 0.20399,0.106454 29.154905,35.046504 53.268459 0 0 0.20554,0.104886 29.154905,35.046504 53.268459 0 0 0.20606,0.10281 29.154905,35.046504 53.268459 0 0 0.20763,0.101765 29.154905,35.046504 53.268459 0 0 0.20865,0.09968 29.154905,35.046504 53.268459 0 0 0.20971,0.09812 29.154905,35.046504 53.268459 0 0 0.21073,0.09605 29.154905,35.046504 53.268459 0 0 0.21177,0.09501 29.154905,35.046504 53.268459 0 0 0.21284,0.09293 29.154905,35.046504 53.268459 0 0 0.21385,0.09136 29.154905,35.046504 53.268459 0 0 0.21491,0.0893 29.154905,35.046504 53.268459 0 0 0.21646,0.08823 29.154905,35.046504 53.268459 0 0 0.21698,0.08616 29.154905,35.046504 53.268459 0 0 0.218,0.08409 29.154905,35.046504 53.268459 0 0 0.21908,0.08305 29.154905,35.046504 53.268459 0 0 0.21955,0.08098 29.154905,35.046504 53.268459 0 0 0.22113,0.07889 29.154905,35.046504 53.268459 0 0 0.22164,0.07785 29.154905,35.046504 53.268459 0 0 0.22269,0.07577 29.154905,35.046504 53.268459 0 0 0.22371,0.0737 29.154905,35.046504 53.268459 0 0 0.22476,0.07213 29.154905,35.046504 53.268459 0 0 9.9e-4,5.09e-4 29.154905,35.046504 53.268459 0 0 0.22528,0.07057 29.154905,35.046504 53.268459 0 0 0.22631,0.0685 29.154905,35.046504 53.268459 0 0 0.22734,0.06694 29.154905,35.046504 53.268459 0 0 0.22836,0.06538 29.154905,35.046504 53.268459 0 0 0.22892,0.0633 29.154905,35.046504 53.268459 0 0 0.2294,0.06176 29.154905,35.046504 53.268459 0 0 0.23095,0.05966 29.154905,35.046504 53.268459 0 0 0.23095,0.05811 29.154905,35.046504 53.268459 0 0 0.23253,0.05603 29.154905,35.046504 53.268459 0 0 0.23249,0.05449 29.154905,35.046504 53.268459 0 0 0.23407,0.05291 29.154905,35.046504 53.268459 0 0 0.23404,0.05084 29.154905,35.046504 53.268459 0 0 0.23562,0.04877 29.154905,35.046504 53.268459 0 0 0.23558,0.04774 29.154905,35.046504 53.268459 0 0 0.23667,0.04513 29.154905,35.046504 53.268459 0 0 0.23713,0.04359 29.154905,35.046504 53.268459 0 0 0.23818,0.04203 29.154905,35.046504 53.268459 0 0 0.23815,0.03997 29.154905,35.046504 53.268459 0 0 0.23921,0.0384 29.154905,35.046504 53.268459 0 0 0.24023,0.03631 29.154905,35.046504 53.268459 0 0 0.24023,0.03425 29.154905,35.046504 53.268459 0 0 0.24127,0.03269 29.154905,35.046504 53.268459 0 0 0.24175,0.03112 29.154905,35.046504 53.268459 0 0 0.24229,0.02907 29.154905,35.046504 53.268459 0 0 0.24277,0.02698 29.154905,35.046504 53.268459 0 0 0.24331,0.02544 29.154905,35.046504 53.268459 0 0 0.2438,0.02387 29.154905,35.046504 53.268459 0 0 0.2443,0.0218 29.154905,35.046504 53.268459 0 0 0.24484,0.01974 29.154905,35.046504 53.268459 0 0 0.24532,0.01817 29.154905,35.046504 53.268459 0 0 0.24584,0.01609 29.154905,35.046504 53.268459 0 0 0.24636,0.0145 29.154905,35.046504 53.268459 0 0 0.24687,0.01251 29.154905,35.046504 53.268459 0 0 0.24735,0.01042 29.154905,35.046504 53.268459 0 0 0.24736,0.0088 29.154905,35.046504 53.268459 0 0 0.24839,0.0072 29.154905,35.046504 53.268459 0 0 0.24837,0.0053 29.154905,35.046504 53.268459 0 0 0.24835,0.0032 29.154905,35.046504 53.268459 0 0 0.24939,0.0016 29.154905,35.046504 53.268459 0 0 0.24935,-4.22e-4 29.154905,35.046504 53.268459 0 0 0.2499,-0.0021 29.154905,35.046504 53.268459 0 0 0.25038,-0.0041 29.154905,35.046504 53.268459 0 0 0.25037,-0.0057 29.154905,35.046504 53.268459 0 0 0.25035,-0.0078 29.154905,35.046504 53.268459 0 0 0.25139,-0.0098 29.154905,35.046504 53.268459 0 0 0.25085,-0.01134 29.154905,35.046504 53.268459 0 0 0.25188,-0.01341 29.154905,35.046504 53.268459 0 0 0.25131,-0.01495 29.154905,35.046504 53.268459 0 0 0.25184,-0.01703 29.154905,35.046504 53.268459 0 0 0.25238,-0.01858 29.154905,35.046504 53.268459 0 0 0.25231,-0.02066 29.154905,35.046504 53.268459 0 0 0.25233,-0.02221 29.154905,35.046504 53.268459 0 0 0.2528,-0.02428 29.154905,35.046504 53.268459 0 0 0.2528,-0.02634 29.154905,35.046504 53.268459 0 0 0.25278,-0.0279 29.154905,35.046504 53.268459 0 0 0.25276,-0.02996 29.154905,35.046504 53.268459 0 0 0.25328,-0.03151 29.154905,35.046504 53.268459 0 0 0.25329,-0.03307 29.154905,35.046504 53.268459 0 0 0.25322,-0.03564 29.154905,35.046504 53.268459 0 0 0.25323,-0.03668 29.154905,35.046504 53.268459 0 0 0.25319,-0.03926 29.154905,35.046504 53.268459 0 0 0.25319,-0.04029 29.154905,35.046504 53.268459 0 0 0.25315,-0.04288 29.154905,35.046504 53.268459 0 0 0.25368,-0.04392 29.154905,35.046504 53.268459 0 0 0.25312,-0.0465 29.154905,35.046504 53.268459 0 0 0.25312,-0.04753 29.154905,35.046504 53.268459 0 0 0.25308,-0.05012 29.154905,35.046504 53.268459 0 0 0.25307,-0.05114 29.154905,35.046504 53.268459 0 0 0.25304,-0.05373 29.154905,35.046504 53.268459 0 0 0.25302,-0.05477 29.154905,35.046504 53.268459 0 0 0.25301,-0.05736 29.154905,35.046504 53.268459 0 0 0.25248,-0.05839 29.154905,35.046504 53.268459 0 0 0.25245,-0.06045 29.154905,35.046504 53.268459 0 0 0.25242,-0.06251 29.154905,35.046504 53.268459 0 0 0.25242,-0.06406 29.154905,35.046504 53.268459 0 0 0.25187,-0.06562 29.154905,35.046504 53.268459 0 0 0.25184,-0.06767 29.154905,35.046504 53.268459 0 0 0.25183,-0.06922 29.154905,35.046504 53.268459 0 0 0.25128,-0.0713 29.154905,35.046504 53.268459 0 0 0.25074,-0.07283 29.154905,35.046504 53.268459 0 0 0.25125,-0.0749 29.154905,35.046504 53.268459 0 0 0.25017,-0.07645 29.154905,35.046504 53.268459 0 0 0.25068,-0.07801 29.154905,35.046504 53.268459 0 0 0.24962,-0.08006 29.154905,35.046504 53.268459 0 0 0.24956,-0.0816 29.154905,35.046504 53.268459 0 0 0.24959,-0.08316 29.154905,35.046504 53.268459 0 0 0.24901,-0.08522 29.154905,35.046504 53.268459 0 0 0.24851,-0.08676 29.154905,35.046504 53.268459 0 0 0.24791,-0.0883 29.154905,35.046504 53.268459 0 0 0.24792,-0.09037 29.154905,35.046504 53.268459 0 0 0.24736,-0.09193 29.154905,35.046504 53.268459 0 0 0.24685,-0.09346 29.154905,35.046504 53.268459 0 0 0.24679,-0.09553 29.154905,35.046504 53.268459 0 0 0.24626,-0.09708 29.154905,35.046504 53.268459 0 0 0.24518,-0.09862 29.154905,35.046504 53.268459 0 0 0.24516,-0.100169 29.154905,35.046504 53.268459 0 0 0.24463,-0.102222 29.154905,35.046504 53.268459 0 0 0.24409,-0.103774 29.154905,35.046504 53.268459 0 0 0.24406,-0.105321 29.154905,35.046504 53.268459 0 0 0.24299,-0.106866 29.154905,35.046504 53.268459 0 0 0.24243,-0.108922 29.154905,35.046504 53.268459 0 0 0.24189,-0.110467 29.154905,35.046504 53.268459 0 0 0.24137,-0.112014 29.154905,35.046504 53.268459 0 0 0.24082,-0.113561 29.154905,35.046504 53.268459 0 0 0.24024,-0.115103 29.154905,35.046504 53.268459 0 0 0.2392,-0.116643 29.154905,35.046504 53.268459 0 0 0.23917,-0.118708 29.154905,35.046504 53.268459 0 0 0.23809,-0.119733 29.154905,35.046504 53.268459 0 0 0.23756,-0.121795 29.154905,35.046504 53.268459 0 0 0.237,-0.122823 29.154905,35.046504 53.268459 0 0 0.23594,-0.124879 29.154905,35.046504 53.268459 0 0 0.23539,-0.126421 29.154905,35.046504 53.268459 0 0 0.23485,-0.12797 29.154905,35.046504 53.268459 0 0 0.2343,-0.129512 29.154905,35.046504 53.268459 0 0 0.23323,-0.131053 29.154905,35.046504 53.268459 0 0 0.23216,-0.132593 29.154905,35.046504 53.268459 0 0 0.2316,-0.134135 29.154905,35.046504 53.268459 0 0 0.23108,-0.135683 29.154905,35.046504 53.268459 0 0 0.23053,-0.137226 29.154905,35.046504 53.268459 0 0 0.22892,-0.138246 29.154905,35.046504 53.268459 0 0 0.22839,-0.140304 29.154905,35.046504 53.268459 0 0 0.22783,-0.141848 29.154905,35.046504 53.268459 0 0 0.22676,-0.142874 29.154905,35.046504 53.268459 0 0 0.2257,-0.14493 29.154905,35.046504 53.268459 0 0 0.22514,-0.145959 29.154905,35.046504 53.268459 0 0 0.22409,-0.147493 29.154905,35.046504 53.268459 0 0 0.22353,-0.149043 29.154905,35.046504 53.268459 0 0 0.22196,-0.15006 29.154905,35.046504 53.268459 0 0 0.22136,-0.15212 29.154905,35.046504 53.268459 0 0 0.22033,-0.153143 29.154905,35.046504 53.268459 0 0 0.21978,-0.154689 29.154905,35.046504 53.268459 0 0 0.21818,-0.156223 29.154905,35.046504 53.268459 0 0 0.21763,-0.157765 29.154905,35.046504 53.268459 0 0 0.21656,-0.158789 29.154905,35.046504 53.268459 0 0 0.2155,-0.16033 29.154905,35.046504 53.268459 0 0 0.21442,-0.161352 29.154905,35.046504 53.268459 0 0 0.21335,-0.162891 29.154905,35.046504 53.268459 0 0 0.21229,-0.164434 29.154905,35.046504 53.268459 0 0 0.21119,-0.165971 29.154905,35.046504 53.268459 0 0 0.21016,-0.16699 29.154905,35.046504 53.268459 0 0 0.20908,-0.168534 29.154905,35.046504 53.268459 0 0 0.20799,-0.169554 29.154905,35.046504 53.268459 0 0 0.20695,-0.170578 29.154905,35.046504 53.268459 0 0 0.20583,-0.172634 29.154905,35.046504 53.268459 0 0 0.20481,-0.173141 29.154905,35.046504 53.268459 0 0 0.20319,-0.175191 29.154905,35.046504 53.268459 0 0 0.20263,-0.175702 29.154905,35.046504 53.268459 0 0 0.20107,-0.177756 29.154905,35.046504 53.268459 0 0 0.19998,-0.178258 29.154905,35.046504 53.268459 0 0 0.19892,-0.179799 29.154905,35.046504 53.268459 0 0 0.19731,-0.180815 29.154905,35.046504 53.268459 0 0 0.19625,-0.182357 29.154905,35.046504 53.268459 0 0 0.19518,-0.183379 29.154905,35.046504 53.268459 0 0 0.19411,-0.184916 29.154905,35.046504 53.268459 0 0 0.19252,-0.185418 29.154905,35.046504 53.268459 0 0 0.19144,-0.186959 29.154905,35.046504 53.268459 0 0 0.18984,-0.188493 29.154905,35.046504 53.268459 0 0 0.18879,-0.188998 29.154905,35.046504 53.268459 0 0 0.18717,-0.190531 29.154905,35.046504 53.268459 0 0 0.18612,-0.191554 29.154905,35.046504 53.268459 0 0 0.18505,-0.192577 29.154905,35.046504 53.268459 0 0 0.18346,-0.193596 29.154905,35.046504 53.268459 0 0 0.18237,-0.194617 29.154905,35.046504 53.268459 0 0 0.18079,-0.195636 29.154905,35.046504 53.268459 0 0 0.17918,-0.19717 29.154905,35.046504 53.268459 0 0 0.17812,-0.198192 29.154905,35.046504 53.268459 0 0 0.17654,-0.198692 29.154905,35.046504 53.268459 0 0 0.17545,-0.200232 29.154905,35.046504 53.268459 0 0 0.17386,-0.200731 29.154905,35.046504 53.268459 0 0 0.17281,-0.202272 29.154905,35.046504 53.268459 0 0 0.17067,-0.203283 29.154905,35.046504 53.268459 0 0 0.16959,-0.203791 29.154905,35.046504 53.268459 0 0 0.16801,-0.205324 29.154905,35.046504 53.268459 0 0 0.16695,-0.205831 29.154905,35.046504 53.268459 0 0 0.16535,-0.206847 29.154905,35.046504 53.268459 0 0 0.16377,-0.207866 29.154905,35.046504 53.268459 0 0 0.16213,-0.208881 29.154905,35.046504 53.268459 0 0 0.16059,-0.209383 29.154905,35.046504 53.268459 0 0 0.15949,-0.210922 29.154905,35.046504 53.268459 0 0 0.1579,-0.211424 29.154905,35.046504 53.268459 0 0 0.15579,-0.211916 29.154905,35.046504 53.268459 0 0 0.15473,-0.213457 29.154905,35.046504 53.268459 0 0 0.15313,-0.213961 29.154905,35.046504 53.268459 0 0 0.15205,-0.214981 29.154905,35.046504 53.268459 0 0 0.14993,-0.215476 29.154905,35.046504 53.268459 0 0 0.14836,-0.216492 29.154905,35.046504 53.268459 0 0 0.14674,-0.217512 29.154905,35.046504 53.268459 0 0 0.1457,-0.218017 29.154905,35.046504 53.268459 0 0 0.14355,-0.219026 29.154905,35.046504 53.268459 0 0 0.14197,-0.219531 29.154905,35.046504 53.268459 0 0 0.14039,-0.220031 29.154905,35.046504 53.268459 0 0 0.13933,-0.221051 29.154905,35.046504 53.268459 0 0 0.13718,-0.222068 29.154905,35.046504 53.268459 0 0 0.1356,-0.222564 29.154905,35.046504 53.268459 0 0 0.13401,-0.223065 29.154905,35.046504 53.268459 0 0 0.13189,-0.22408 29.154905,35.046504 53.268459 0 0 0.13083,-0.224584 29.154905,35.046504 53.268459 0 0 0.12923,-0.225084 29.154905,35.046504 53.268459 0 0 0.12713,-0.22558 29.154905,35.046504 53.268459 0 0 0.12554,-0.226596 29.154905,35.046504 53.268459 0 0 0.12391,-0.2271 29.154905,35.046504 53.268459 0 0 0.12234,-0.227599 29.154905,35.046504 53.268459 0 0 0.12075,-0.228616 29.154905,35.046504 53.268459 0 0 0.11863,-0.228594 29.154905,35.046504 53.268459 0 0 0.11757,-0.229617 29.154905,35.046504 53.268459 0 1 0,-5.16e-4 29.154905,35.046504 53.268459 0 0 0.11544,-0.230114 29.154905,35.046504 53.268459 0 0 0.11386,-0.230611 29.154905,35.046504 53.268459 0 0 0.11173,-0.231108 29.154905,35.046504 53.268459 0 0 0.11015,-0.231612 29.154905,35.046504 53.268459 0 0 0.10858,-0.231591 29.154905,35.046504 53.268459 0 0 0.10697,-0.23261 29.154905,35.046504 53.268459 0 0 0.10486,-0.233103 29.154905,35.046504 53.268459 0 0 0.10276,-0.233086 29.154905,35.046504 53.268459 0 0 0.10158,-0.234108 29.154905,35.046504 53.268459 0 0 0.0996,-0.234086 29.154905,35.046504 53.268459 0 0 0.0979,-0.234585 29.154905,35.046504 53.268459 0 0 0.0958,-0.235081 29.154905,35.046504 53.268459 0 0 0.0943,-0.235581 29.154905,35.046504 53.268459 0 0 0.0921,-0.236075 29.154905,35.046504 53.268459 0 0 0.0905,-0.236061 29.154905,35.046504 53.268459 0 0 0.089,-0.236559 29.154905,35.046504 53.268459 0 0 0.0868,-0.23654 29.154905,35.046504 53.268459 0 0 0.0853,-0.237557 29.154905,35.046504 53.268459 0 0 0.0832,-0.237535 29.154905,35.046504 53.268459 0 0 0.0815,-0.237521 29.154905,35.046504 53.268459 0 0 0.0795,-0.238014 29.154905,35.046504 53.268459 0 0 0.0777,-0.238517 29.154905,35.046504 53.268459 0 0 0.0762,-0.238501 29.154905,35.046504 53.268459 0 0 0.0741,-0.238481 29.154905,35.046504 53.268459 0 0 0.072,-0.238972 29.154905,35.046504 53.268459 0 0 0.0704,-0.239474 29.154905,35.046504 53.268459 0 0 0.0683,-0.238935 29.154905,35.046504 53.268459 0 0 0.0667,-0.239954 29.154905,35.046504 53.268459 0 0 0.0646,-0.239414 29.154905,35.046504 53.268459 0 0 0.0629,-0.239915 29.154905,35.046504 53.268459 0 0 0.0608,-0.239894 29.154905,35.046504 53.268459 0 0 0.0587,-0.239871 29.154905,35.046504 53.268459 0 0 0.0573,-0.240371 29.154905,35.046504 53.268459 0 0 0.0555,-0.240355 29.154905,35.046504 53.268459 0 0 0.053,-0.24033 29.154905,35.046504 53.268459 0 0 0.052,-0.240318 29.154905,35.046504 53.268459 0 0 0.0494,-0.24081 29.154905,35.046504 53.268459 0 0 0.0477,-0.240276 29.154905,35.046504 53.268459 0 0 0.0461,-0.240259 29.154905,35.046504 53.268459 0 0 0.0435,-0.240749 29.154905,35.046504 53.268459 0 0 0.0423,-0.240222 29.154905,35.046504 53.268459 0 0 0.0398,-0.240709 29.154905,35.046504 53.268459 0 0 0.0382,-0.240699 29.154905,35.046504 53.268459 0 0 0.036,-0.240156 29.154905,35.046504 53.268459 0 0 0.0345,-0.240142 29.154905,35.046504 53.268459 0 0 0.0323,-0.240636 29.154905,35.046504 53.268459 0 0 0.0303,-0.240097 29.154905,35.046504 53.268459 0 0 0.0287,-0.240085 29.154905,35.046504 53.268459 0 0 0.0266,-0.239545 29.154905,35.046504 53.268459 0 0 0.0245,-0.24004 29.154905,35.046504 53.268459 0 0 0.0228,-0.239506 29.154905,35.046504 53.268459 0 0 0.0207,-0.239487 29.154905,35.046504 53.268459 0 0 0.0186,-0.239466 29.154905,35.046504 53.268459 0 0 0.017,-0.238931 29.154905,35.046504 53.268459 0 0 0.0148,-0.238916 29.154905,35.046504 53.268459 0 0 0.0138,-0.238882 29.154905,35.046504 53.268459 0 0 0.0108,-0.238354 29.154905,35.046504 53.268459 0 0 0.009,-0.23781 29.154905,35.046504 53.268459 0 0 0.009,-0.238306 29.154905,35.046504 53.268459 0 0 0.006,-0.237239 29.154905,35.046504 53.268459 0 0 0.004,-0.237752 29.154905,35.046504 53.268459 0 0 0.001,-0.216561 73.323724,79.910613 89.458251 0 0 -24.76098,-3.346137 73.323724,79.910613 89.458251 0 0 -0.056,6.1e-4 73.323724,79.910613 89.458251 0 0 -41.120295,10.963229 z"
         inkscape:export-xdpi="96"
         inkscape:export-ydpi="96" />
      <path
         id="path861-6-7"
         style="display:inline;opacity:0.92;mix-blend-mode:normal;fill:#ffffff;fill-opacity:1;fill-rule:evenodd;stroke:none;stroke-width:2.11667;stroke-miterlimit:4;stroke-dasharray:none;stroke-opacity:1"
         d="m 131.95887,100.33755 a 37.246925,35.666603 0 0 0 -23.16241,7.7959 32.485996,31.107671 0 0 0 -18.635039,-5.62704 32.485996,31.107671 0 0 0 -32.485872,31.10766 32.485996,31.107671 0 0 0 13.652397,25.34625 65.372612,60.903331 0 0 0 -16.578318,40.53086 65.372612,60.903331 0 0 0 22.411552,45.90521 c 2.680412,0.8249 5.537155,1.48747 8.583972,1.97611 2.73771,0.43906 23.125718,2.3797 23.125718,2.3797 24.8077,1.04845 17.84341,0.89593 27.44019,0.89607 3.69183,-3e-5 12.08204,-0.0957 19.86287,-0.35244 a 65.372612,60.903331 0 0 0 29.32069,-50.80465 65.372612,60.903331 0 0 0 -21.50515,-45.15538 37.246925,35.666603 0 0 0 5.29632,-18.3317 37.246925,35.666603 0 0 0 -37.24734,-35.66655 37.246925,35.666603 0 0 0 -0.0796,0 z"
         inkscape:export-xdpi="96"
         inkscape:export-ydpi="96" />
      <ellipse
         style="opacity:0.92;mix-blend-mode:normal;fill:#3c211c;fill-opacity:1;fill-rule:evenodd;stroke:none;stroke-width:1.95792;stroke-linejoin:round;stroke-miterlimit:4;stroke-dasharray:none;stroke-opacity:1"
         id="path1091"
         cx="106.93995"
         cy="113.69057"
         rx="12.755479"
         ry="10.644533"
         inkscape:export-xdpi="96"
         inkscape:export-ydpi="96" />
      <ellipse
         style="opacity:0.92;mix-blend-mode:normal;fill:#3c211c;fill-opacity:1;fill-rule:evenodd;stroke:none;stroke-width:1"
         id="path2302"
         cx="81.824341"
         cy="97.127403"
         rx="9.260417"
         ry="10.583333"
         inkscape:export-xdpi="96"
         inkscape:export-ydpi="96" />
      <ellipse
         style="opacity:0.92;mix-blend-mode:normal;fill:#3c211c;fill-opacity:1;fill-rule:evenodd;stroke:none;stroke-width:1.04524"
         id="path2302-3"
         cx="138.82915"
         cy="96.379662"
         rx="10.13887"
         ry="10.560715"
         inkscape:export-xdpi="96"
         inkscape:export-ydpi="96" />
      <circle
         style="opacity:0.92;mix-blend-mode:normal;fill:#ffffff;fill-opacity:1;fill-rule:evenodd;stroke:none;stroke-width:1"
         id="path2339"
         cx="79.892784"
         cy="93.208183"
         r="3.96875"
         inkscape:export-xdpi="96"
         inkscape:export-ydpi="96" />
      <circle
         style="display:inline;opacity:0.92;mix-blend-mode:normal;fill:#ffffff;fill-opacity:1;fill-rule:evenodd;stroke:none;stroke-width:1"
         id="path2339-6"
         cx="135.2157"
         cy="92.60144"
         r="3.96875"
         inkscape:export-xdpi="96"
         inkscape:export-ydpi="96" />
      <path
         id="path2335-92"
         style="display:inline;opacity:0.92;mix-blend-mode:normal;fill:#b1671f;fill-opacity:0.992157;fill-rule:evenodd;stroke:#000000;stroke-width:2.11667;stroke-linejoin:round;stroke-miterlimit:4;stroke-dasharray:none"
         d="m 162.47481,45.239631 a 17.076735,19.680721 0 0 1 0.0677,-0.147793 17.076735,19.680721 0 0 1 0.0822,-0.174152 17.076735,19.680721 0 0 1 0.0832,-0.173114 17.076735,19.680721 0 0 1 0.0853,-0.172601 17.076735,19.680721 0 0 1 0.0868,-0.171048 17.076735,19.680721 0 0 1 0.0884,-0.170532 17.076735,19.680721 0 0 1 0.0894,-0.168984 17.076735,19.680721 0 0 1 0.0909,-0.168463 17.076735,19.680721 0 0 1 0.093,-0.166915 17.076735,19.680721 0 0 1 0.0941,-0.166399 17.076735,19.680721 0 0 1 0.0951,-0.164848 17.076735,19.680721 0 0 1 0.0971,-0.163815 17.076735,19.680721 0 0 1 0.0982,-0.162779 17.076735,19.680721 0 0 1 0.0997,-0.161747 17.076735,19.680721 0 0 1 0.10127,-0.160198 17.076735,19.680721 0 0 1 0.10284,-0.159163 17.076735,19.680721 0 0 1 0.10387,-0.158131 17.076735,19.680721 0 0 1 0.10542,-0.156578 17.076735,19.680721 0 0 1 0.10645,-0.155545 17.076735,19.680721 0 0 1 0.10801,-0.154514 17.076735,19.680721 0 0 1 0.10955,-0.15296 17.076735,19.680721 0 0 1 0.11059,-0.15193 17.076735,19.680721 0 0 1 0.11214,-0.150379 17.076735,19.680721 0 0 1 0.11368,-0.149344 17.076735,19.680721 0 0 1 0.11473,-0.147796 17.076735,19.680721 0 0 1 0.11575,-0.146762 17.076735,19.680721 0 0 1 0.11731,-0.144692 17.076735,19.680721 0 0 1 0.11833,-0.144176 17.076735,19.680721 0 0 1 0.1199,-0.142111 17.076735,19.680721 0 0 1 0.12092,-0.141079 17.076735,19.680721 0 0 1 0.12247,-0.139525 17.076735,19.680721 0 0 1 0.12299,-0.138493 17.076735,19.680721 0 0 1 0.12506,-0.136425 17.076735,19.680721 0 0 1 0.12557,-0.135392 17.076735,19.680721 0 0 1 0.12713,-0.133842 17.076735,19.680721 0 0 1 0.12815,-0.132293 17.076735,19.680721 0 0 1 0.12919,-0.13074 17.076735,19.680721 0 0 1 0.13075,-0.12971 17.076735,19.680721 0 0 1 0.13125,-0.12764 17.076735,19.680721 0 0 1 0.13281,-0.12609 17.076735,19.680721 0 0 1 0.13384,-0.125058 17.076735,19.680721 0 0 1 0.13488,-0.122989 17.076735,19.680721 0 0 1 0.13591,-0.121439 17.076735,19.680721 0 0 1 0.13694,-0.120406 17.076735,19.680721 0 0 1 0.13798,-0.11834 17.076735,19.680721 0 0 1 0.13901,-0.116787 17.076735,19.680721 0 0 1 0.14004,-0.115239 17.076735,19.680721 0 0 1 0.14108,-0.113174 17.076735,19.680721 0 0 1 0.14211,-0.112135 17.076735,19.680721 0 0 1 0.14314,-0.110072 17.076735,19.680721 0 0 1 0.14418,-0.108521 17.076735,19.680721 0 0 1 0.14469,-0.106969 17.076735,19.680721 0 0 1 0.14573,-0.10542 17.076735,19.680721 0 0 1 0.14676,-0.103352 17.076735,19.680721 0 0 1 0.1478,-0.101803 17.076735,19.680721 0 0 1 0.14882,-0.100254 17.076735,19.680721 0 0 1 0.14935,-0.09818 17.076735,19.680721 0 0 1 0.14986,-0.09663 17.076735,19.680721 0 0 1 0.15141,-0.09509 17.076735,19.680721 0 0 1 0.15193,-0.09302 17.076735,19.680721 0 0 1 0.15245,-0.09147 17.076735,19.680721 0 0 1 0.15399,-0.0894 17.076735,19.680721 0 0 1 0.154,-0.08785 17.076735,19.680721 0 0 1 0.15503,-0.08578 17.076735,19.680721 0 0 1 0.15606,-0.08423 17.076735,19.680721 0 0 1 0.15658,-0.08268 17.076735,19.680721 0 0 1 0.15709,-0.0801 17.076735,19.680721 0 0 1 0.15814,-0.07906 17.076735,19.680721 0 0 1 0.15864,-0.077 17.076735,19.680721 0 0 1 0.15917,-0.07493 17.076735,19.680721 0 0 1 0.15968,-0.07286 17.076735,19.680721 0 0 1 0.16071,-0.07131 17.076735,19.680721 0 0 1 0.16123,-0.06976 17.076735,19.680721 0 0 1 0.16175,-0.06718 17.076735,19.680721 0 0 1 0.16226,-0.06615 17.076735,19.680721 0 0 1 0.1633,-0.06356 17.076735,19.680721 0 0 1 0.1633,-0.06201 17.076735,19.680721 0 0 1 0.16381,-0.05994 17.076735,19.680721 0 0 1 0.16485,-0.05788 17.076735,19.680721 0 0 1 0.16485,-0.05633 17.076735,19.680721 0 0 1 0.16536,-0.05426 17.076735,19.680721 0 0 1 0.16588,-0.05219 17.076735,19.680721 0 0 1 0.16692,-0.05064 17.076735,19.680721 0 0 1 0.16639,-0.04857 17.076735,19.680721 0 0 1 0.16744,-0.04651 17.076735,19.680721 0 0 1 0.16795,-0.04444 17.076735,19.680721 0 0 1 0.16794,-0.04238 17.076735,19.680721 0 0 1 0.16847,-0.04083 17.076735,19.680721 0 0 1 0.16846,-0.03876 17.076735,19.680721 0 0 1 0.1695,-0.03669 17.076735,19.680721 0 0 1 0.16899,-0.03462 17.076735,19.680721 0 0 1 0.17001,-0.03307 17.076735,19.680721 0 0 1 0.17001,-0.03101 17.076735,19.680721 0 0 1 0.17002,-0.02894 17.076735,19.680721 0 0 1 0.17053,-0.02687 17.076735,19.680721 0 0 1 0.17054,-0.02481 17.076735,19.680721 0 0 1 0.17104,-0.02273 17.076735,19.680721 0 0 1 0.17105,-0.02119 17.076735,19.680721 0 0 1 0.17157,-0.0186 17.076735,19.680721 0 0 1 0.17157,-0.01705 17.076735,19.680721 0 0 1 0.17156,-0.01499 17.076735,19.680721 0 0 1 0.17157,-0.01292 17.076735,19.680721 0 0 1 0.17156,-0.01137 17.076735,19.680721 0 0 1 0.17208,-0.0088 17.076735,19.680721 0 0 1 0.17209,-0.0067 17.076735,19.680721 0 0 1 0.17208,-0.0052 17.076735,19.680721 0 0 1 0.17208,-0.0031 17.076735,19.680721 0 0 1 0.17209,-10e-4 17.076735,19.680721 0 0 1 0.15141,10e-4 17.076735,19.680721 0 0 1 0.17208,0.0026 17.076735,19.680721 0 0 1 0.17208,0.0047 17.076735,19.680721 0 0 1 0.17208,0.0067 17.076735,19.680721 0 0 1 0.17209,0.0088 17.076735,19.680721 0 0 1 0.17156,0.01085 17.076735,19.680721 0 0 1 0.17209,0.01292 17.076735,19.680721 0 0 1 0.17156,0.01447 17.076735,19.680721 0 0 1 0.17105,0.01705 17.076735,19.680721 0 0 1 0.17157,0.01861 17.076735,19.680721 0 0 1 0.17105,0.02067 17.076735,19.680721 0 0 1 0.17104,0.02274 17.076735,19.680721 0 0 1 0.17054,0.02481 17.076735,19.680721 0 0 1 0.17053,0.02635 17.076735,19.680721 0 0 1 0.17053,0.02894 17.076735,19.680721 0 0 1 0.17002,0.03049 17.076735,19.680721 0 0 1 0.1695,0.03255 17.076735,19.680721 0 0 1 0.16949,0.03462 17.076735,19.680721 0 0 1 0.16898,0.03617 17.076735,19.680721 0 0 1 0.16899,0.03876 17.076735,19.680721 0 0 1 0.16846,0.04031 17.076735,19.680721 0 0 1 0.16795,0.04237 17.076735,19.680721 0 0 1 0.16795,0.04444 17.076735,19.680721 0 0 1 0.16743,0.04651 17.076735,19.680721 0 0 1 0.16692,0.04806 17.076735,19.680721 0 0 1 0.16639,0.05013 17.076735,19.680721 0 0 1 0.16589,0.05219 17.076735,19.680721 0 0 1 0.16588,0.05426 17.076735,19.680721 0 0 1 0.16485,0.05581 17.076735,19.680721 0 0 1 0.16484,0.05788 17.076735,19.680721 0 0 1 0.16382,0.05943 17.076735,19.680721 0 0 1 0.16381,0.06201 17.076735,19.680721 0 0 1 0.16278,0.06356 17.076735,19.680721 0 0 1 0.16227,0.06511 17.076735,19.680721 0 0 1 0.16174,0.0677 17.076735,19.680721 0 0 1 0.16175,0.06925 17.076735,19.680721 0 0 1 0.1602,0.0708 17.076735,19.680721 0 0 1 0.16019,0.07286 17.076735,19.680721 0 0 1 0.15917,0.07493 17.076735,19.680721 0 0 1 0.15916,0.077 17.076735,19.680721 0 0 1 0.15761,0.07803 17.076735,19.680721 0 0 1 0.15762,0.08062 17.076735,19.680721 0 0 1 0.15658,0.08217 17.076735,19.680721 0 0 1 0.15606,0.08371 17.076735,19.680721 0 0 1 0.15503,0.08578 17.076735,19.680721 0 0 1 0.15451,0.08785 17.076735,19.680721 0 0 1 0.15348,0.0894 17.076735,19.680721 0 0 1 0.15296,0.09095 17.076735,19.680721 0 0 1 0.15193,0.09302 17.076735,19.680721 0 0 1 0.1509,0.09457 17.076735,19.680721 0 0 1 0.15037,0.09663 17.076735,19.680721 0 0 1 0.14987,0.09767 17.076735,19.680721 0 0 1 0.14831,0.100254 17.076735,19.680721 0 0 1 0.14779,0.101285 17.076735,19.680721 0 0 1 0.14728,0.103354 17.076735,19.680721 0 0 1 0.14573,0.105418 17.076735,19.680721 0 0 1 0.14521,0.106455 17.076735,19.680721 0 0 1 0.14418,0.108519 17.076735,19.680721 0 0 1 0.14314,0.110072 17.076735,19.680721 0 0 1 0.14211,0.111619 17.076735,19.680721 0 0 1 0.14108,0.113173 17.076735,19.680721 0 0 1 0.14004,0.115237 17.076735,19.680721 0 0 1 0.13953,0.11679 17.076735,19.680721 0 0 1 0.13797,0.117821 17.076735,19.680721 0 0 1 0.13694,0.119891 17.076735,19.680721 0 0 1 0.13643,0.121438 17.076735,19.680721 0 0 1 0.13488,0.122992 17.076735,19.680721 0 0 1 0.13384,0.124539 17.076735,19.680721 0 0 1 0.1328,0.12609 17.076735,19.680721 0 0 1 0.13178,0.12764 17.076735,19.680721 0 0 1 0.13074,0.129194 17.076735,19.680721 0 0 1 0.12919,0.130741 17.076735,19.680721 0 0 1 0.12816,0.132292 17.076735,19.680721 0 0 1 0.12713,0.133323 17.076735,19.680721 0 0 1 0.12609,0.135393 17.076735,19.680721 0 0 1 0.12505,0.136427 17.076735,19.680721 0 0 1 0.12351,0.137975 17.076735,19.680721 0 0 1 0.12196,0.139525 17.076735,19.680721 0 0 1 0.12143,0.14056 17.076735,19.680721 0 0 1 0.11989,0.142629 17.076735,19.680721 0 0 1 0.11834,0.143661 17.076735,19.680721 0 0 1 0.11783,0.144693 17.076735,19.680721 0 0 1 0.11575,0.14676 17.076735,19.680721 0 0 1 0.11472,0.147278 17.076735,19.680721 0 0 1 0.11369,0.149344 17.076735,19.680721 0 0 1 0.11214,0.150379 17.076735,19.680721 0 0 1 0.1111,0.151413 17.076735,19.680721 0 0 1 0.10956,0.152961 17.076735,19.680721 0 0 1 0.108,0.153995 17.076735,19.680721 0 0 1 0.10697,0.155546 17.076735,19.680721 0 0 1 0.10542,0.15658 17.076735,19.680721 0 0 1 0.10439,0.158131 17.076735,19.680721 0 0 1 0.10283,0.159163 17.076735,19.680721 0 0 1 0.10129,0.160197 17.076735,19.680721 0 0 1 0.0997,0.161229 17.076735,19.680721 0 0 1 0.0987,0.162783 17.076735,19.680721 0 0 1 0.0971,0.163814 17.076735,19.680721 0 0 1 0.0956,0.164848 17.076735,19.680721 0 0 1 0.0941,0.165881 17.076735,19.680721 0 0 1 0.093,0.166915 17.076735,19.680721 0 0 1 0.0909,0.167947 17.076735,19.680721 0 0 1 0.0899,0.1695 17.076735,19.680721 0 0 1 0.0884,0.170016 17.076735,19.680721 0 0 1 0.0868,0.171048 17.076735,19.680721 0 0 1 0.0853,0.172598 17.076735,19.680721 0 0 1 0.0842,0.173117 17.076735,19.680721 0 0 1 0.0822,0.174149 17.076735,19.680721 0 0 1 0.0806,0.175183 17.076735,19.680721 0 0 1 0.0796,0.175702 17.076735,19.680721 0 0 1 0.0775,0.177249 17.076735,19.680721 0 0 1 0.076,0.177766 17.076735,19.680721 0 0 1 0.0749,0.1788 17.076735,19.680721 0 0 1 0.0729,0.179319 17.076735,19.680721 0 0 1 0.0713,0.18035 17.076735,19.680721 0 0 1 0.0703,0.181385 17.076735,19.680721 0 0 1 0.0682,0.181902 17.076735,19.680721 0 0 1 0.0667,0.182932 17.076735,19.680721 0 0 1 0.0651,0.183452 17.076735,19.680721 0 0 1 0.0636,0.184486 17.076735,19.680721 0 0 1 0.0615,0.185002 17.076735,19.680721 0 0 1 0.0605,0.185518 17.076735,19.680721 0 0 1 0.0584,0.186552 17.076735,19.680721 0 0 1 0.0574,0.187069 17.076735,19.680721 0 0 1 0.0553,0.1881 17.076735,19.680721 0 0 1 0.0537,0.188103 17.076735,19.680721 0 0 1 0.0522,0.189137 17.076735,19.680721 0 0 1 0.0501,0.189651 17.076735,19.680721 0 0 1 0.0486,0.190169 17.076735,19.680721 0 0 1 0.0475,0.190688 17.076735,19.680721 0 0 1 0.045,0.191201 17.076735,19.680721 0 0 1 0.0439,0.192238 17.076735,19.680721 0 0 1 0.0419,0.192236 17.076735,19.680721 0 0 1 0.0408,0.192752 17.076735,19.680721 0 0 1 0.0382,0.19327 17.076735,19.680721 0 0 1 0.0372,0.19327 17.076735,19.680721 0 0 1 0.0351,0.194305 17.076735,19.680721 0 0 1 0.0336,0.194302 17.076735,19.680721 0 0 1 0.032,0.195336 17.076735,19.680721 0 0 1 0.03,0.194821 17.076735,19.680721 0 0 1 0.0284,0.195852 17.076735,19.680721 0 0 1 0.0269,0.195856 17.076735,19.680721 0 0 1 0.0253,0.196371 17.076735,19.680721 0 0 1 0.0232,0.196368 17.076735,19.680721 0 0 1 0.0217,0.196887 17.076735,19.680721 0 0 1 0.0196,0.19689 17.076735,19.680721 0 0 1 0.0181,0.196887 17.076735,19.680721 0 0 1 0.0165,0.197403 17.076735,19.680721 0 0 1 0.015,0.197921 17.076735,19.680721 0 0 1 0.0129,0.197403 17.076735,19.680721 0 0 1 0.0114,0.197922 17.076735,19.680721 0 0 1 0.009,0.198438 17.076735,19.680721 0 0 1 0.008,0.197918 17.076735,19.680721 0 0 1 0.006,0.198438 17.076735,19.680721 0 0 1 0.004,0.197922 17.076735,19.680721 0 0 1 0.003,0.198437 17.076735,19.680721 0 0 1 0.001,0.198437 17.076735,19.680721 0 0 1 -5.3e-4,0.174668 17.076735,19.680721 0 0 1 -0.003,0.198437 17.076735,19.680721 0 0 1 -0.004,0.198438 17.076735,19.680721 0 0 1 -0.006,0.197919 17.076735,19.680721 0 0 1 -0.008,0.198437 17.076735,19.680721 0 0 1 -0.009,0.197922 17.076735,19.680721 0 0 1 -0.0109,0.197921 17.076735,19.680721 0 0 1 -0.0129,0.197919 17.076735,19.680721 0 0 1 -0.0145,0.197406 17.076735,19.680721 0 0 1 -0.0165,0.197403 17.076735,19.680721 0 0 1 -0.0176,0.197405 17.076735,19.680721 0 0 1 -0.0202,0.196888 17.076735,19.680721 0 0 1 -0.0212,0.196887 17.076735,19.680721 0 0 1 -0.0233,0.196368 17.076735,19.680721 0 0 1 -0.0248,0.196371 17.076735,19.680721 0 0 1 -0.0264,0.195855 17.076735,19.680721 0 0 1 -0.0284,0.195338 17.076735,19.680721 0 0 1 -0.03,0.195336 17.076735,19.680721 0 0 1 -0.0315,0.195337 17.076735,19.680721 0 0 1 -0.0336,0.194302 17.076735,19.680721 0 0 1 -0.0351,0.194305 17.076735,19.680721 0 0 1 -0.0367,0.193786 17.076735,19.680721 0 0 1 -0.0388,0.19327 17.076735,19.680721 0 0 1 -0.0398,0.192754 17.076735,19.680721 0 0 1 -0.0419,0.192236 17.076735,19.680721 0 0 1 -0.0439,0.19172 17.076735,19.680721 0 0 1 -0.045,0.19172 17.076735,19.680721 0 0 1 -0.047,0.190685 17.076735,19.680721 0 0 1 -0.0486,0.190169 17.076735,19.680721 0 0 1 -0.0501,0.189653 17.076735,19.680721 0 0 1 -0.0517,0.189135 17.076735,19.680721 0 0 1 -0.0537,0.188619 17.076735,19.680721 0 0 1 -0.0548,0.187587 17.076735,19.680721 0 0 1 -0.0568,0.187584 17.076735,19.680721 0 0 1 -0.0584,0.186553 17.076735,19.680721 0 0 1 -0.0605,0.185517 17.076735,19.680721 0 0 1 -0.0615,0.185002 17.076735,19.680721 0 0 1 -0.0636,0.184486 17.076735,19.680721 0 0 1 -0.0646,0.183968 17.076735,19.680721 0 0 1 -0.0667,0.182933 17.076735,19.680721 0 0 1 -0.0682,0.181901 17.076735,19.680721 0 0 1 -0.0698,0.181385 17.076735,19.680721 0 0 1 -0.0708,0.180351 17.076735,19.680721 0 0 1 -0.0729,0.179834 17.076735,19.680721 0 0 1 -0.0744,0.1788 17.076735,19.680721 0 0 1 -0.076,0.177766 17.076735,19.680721 0 0 1 -0.078,0.177252 17.076735,19.680721 0 0 1 -0.0791,0.176215 17.076735,19.680721 0 0 1 -0.0806,0.175184 17.076735,19.680721 0 0 1 -0.0816,0.174151 17.076735,19.680721 0 0 1 -0.0837,0.173114 17.076735,19.680721 0 0 1 -0.0853,0.172601 17.076735,19.680721 0 0 1 -0.0868,0.171048 17.076735,19.680721 0 0 1 -0.0879,0.170532 17.076735,19.680721 0 0 1 -0.0899,0.1695 17.076735,19.680721 0 0 1 -0.0909,0.167947 17.076735,19.680721 0 0 1 -0.0925,0.167431 17.076735,19.680721 0 0 1 -0.0941,0.165883 17.076735,19.680721 0 0 1 -0.0956,0.164846 17.076735,19.680721 0 0 1 -0.0971,0.163817 17.076735,19.680721 0 0 1 -0.0982,0.162779 17.076735,19.680721 0 0 1 -0.0904,0.146762 78.164984,73.323662 0 0 0 -28.98634,-20.636985 z"
         inkscape:export-xdpi="96"
         inkscape:export-ydpi="96" />
      <path
         id="path932-0"
         style="display:inline;opacity:0.92;mix-blend-mode:normal;fill:#f7c454;fill-opacity:1;fill-rule:evenodd;stroke:#000000;stroke-width:2.11667;stroke-linejoin:round;stroke-miterlimit:4;stroke-dasharray:none"
         d="m 179.60038,32.14798 a 20.626124,25.660104 0 0 1 20.58531,25.659931 20.626124,25.660104 0 0 1 -3.65042,14.574306 78.164984,73.323662 0 0 0 -5.07411,-6.505546 17.076735,19.680721 0 0 0 0.0904,-0.146762 17.076735,19.680721 0 0 0 0.0982,-0.162779 17.076735,19.680721 0 0 0 0.0971,-0.163817 17.076735,19.680721 0 0 0 0.0956,-0.164846 17.076735,19.680721 0 0 0 0.0941,-0.165883 17.076735,19.680721 0 0 0 0.0925,-0.167431 17.076735,19.680721 0 0 0 0.0909,-0.167947 17.076735,19.680721 0 0 0 0.0899,-0.1695 17.076735,19.680721 0 0 0 0.0879,-0.170532 17.076735,19.680721 0 0 0 0.0868,-0.171048 17.076735,19.680721 0 0 0 0.0853,-0.172601 17.076735,19.680721 0 0 0 0.0837,-0.173114 17.076735,19.680721 0 0 0 0.0816,-0.174151 17.076735,19.680721 0 0 0 0.0806,-0.175184 17.076735,19.680721 0 0 0 0.0791,-0.176215 17.076735,19.680721 0 0 0 0.078,-0.177252 17.076735,19.680721 0 0 0 0.076,-0.177766 17.076735,19.680721 0 0 0 0.0744,-0.1788 17.076735,19.680721 0 0 0 0.0729,-0.179835 17.076735,19.680721 0 0 0 0.0708,-0.18035 17.076735,19.680721 0 0 0 0.0698,-0.181385 17.076735,19.680721 0 0 0 0.0682,-0.181901 17.076735,19.680721 0 0 0 0.0667,-0.182933 17.076735,19.680721 0 0 0 0.0646,-0.183968 17.076735,19.680721 0 0 0 0.0636,-0.184486 17.076735,19.680721 0 0 0 0.0615,-0.185002 17.076735,19.680721 0 0 0 0.0605,-0.185517 17.076735,19.680721 0 0 0 0.0584,-0.186553 17.076735,19.680721 0 0 0 0.0568,-0.187584 17.076735,19.680721 0 0 0 0.0548,-0.187587 17.076735,19.680721 0 0 0 0.0537,-0.188619 17.076735,19.680721 0 0 0 0.0517,-0.189135 17.076735,19.680721 0 0 0 0.0501,-0.189653 17.076735,19.680721 0 0 0 0.0486,-0.190169 17.076735,19.680721 0 0 0 0.047,-0.190686 17.076735,19.680721 0 0 0 0.045,-0.191719 17.076735,19.680721 0 0 0 0.0439,-0.19172 17.076735,19.680721 0 0 0 0.0419,-0.192236 17.076735,19.680721 0 0 0 0.0398,-0.192754 17.076735,19.680721 0 0 0 0.0388,-0.19327 17.076735,19.680721 0 0 0 0.0367,-0.193786 17.076735,19.680721 0 0 0 0.0351,-0.194305 17.076735,19.680721 0 0 0 0.0336,-0.194302 17.076735,19.680721 0 0 0 0.0315,-0.195337 17.076735,19.680721 0 0 0 0.03,-0.195336 17.076735,19.680721 0 0 0 0.0284,-0.195338 17.076735,19.680721 0 0 0 0.0264,-0.195855 17.076735,19.680721 0 0 0 0.0248,-0.196371 17.076735,19.680721 0 0 0 0.0232,-0.196368 17.076735,19.680721 0 0 0 0.0212,-0.196887 17.076735,19.680721 0 0 0 0.0202,-0.196888 17.076735,19.680721 0 0 0 0.0176,-0.197405 17.076735,19.680721 0 0 0 0.0165,-0.197403 17.076735,19.680721 0 0 0 0.0145,-0.197406 17.076735,19.680721 0 0 0 0.0129,-0.197919 17.076735,19.680721 0 0 0 0.0109,-0.197921 17.076735,19.680721 0 0 0 0.009,-0.197922 17.076735,19.680721 0 0 0 0.008,-0.198437 17.076735,19.680721 0 0 0 0.006,-0.197919 17.076735,19.680721 0 0 0 0.004,-0.198438 17.076735,19.680721 0 0 0 0.003,-0.198437 17.076735,19.680721 0 0 0 5.3e-4,-0.174668 17.076735,19.680721 0 0 0 -0.001,-0.198437 17.076735,19.680721 0 0 0 -0.003,-0.198437 17.076735,19.680721 0 0 0 -0.004,-0.197922 17.076735,19.680721 0 0 0 -0.006,-0.198438 17.076735,19.680721 0 0 0 -0.008,-0.197918 17.076735,19.680721 0 0 0 -0.009,-0.198438 17.076735,19.680721 0 0 0 -0.0114,-0.197922 17.076735,19.680721 0 0 0 -0.0129,-0.197403 17.076735,19.680721 0 0 0 -0.015,-0.197921 17.076735,19.680721 0 0 0 -0.0165,-0.197403 17.076735,19.680721 0 0 0 -0.0181,-0.196887 17.076735,19.680721 0 0 0 -0.0196,-0.19689 17.076735,19.680721 0 0 0 -0.0217,-0.196887 17.076735,19.680721 0 0 0 -0.0233,-0.196368 17.076735,19.680721 0 0 0 -0.0253,-0.196371 17.076735,19.680721 0 0 0 -0.0269,-0.195856 17.076735,19.680721 0 0 0 -0.0284,-0.195852 17.076735,19.680721 0 0 0 -0.03,-0.194821 17.076735,19.680721 0 0 0 -0.032,-0.195336 17.076735,19.680721 0 0 0 -0.0336,-0.194302 17.076735,19.680721 0 0 0 -0.0351,-0.194305 17.076735,19.680721 0 0 0 -0.0372,-0.19327 17.076735,19.680721 0 0 0 -0.0382,-0.19327 17.076735,19.680721 0 0 0 -0.0408,-0.192752 17.076735,19.680721 0 0 0 -0.0419,-0.192236 17.076735,19.680721 0 0 0 -0.0439,-0.192238 17.076735,19.680721 0 0 0 -0.045,-0.191201 17.076735,19.680721 0 0 0 -0.0475,-0.190688 17.076735,19.680721 0 0 0 -0.0486,-0.190169 17.076735,19.680721 0 0 0 -0.0501,-0.189651 17.076735,19.680721 0 0 0 -0.0522,-0.189137 17.076735,19.680721 0 0 0 -0.0537,-0.188103 17.076735,19.680721 0 0 0 -0.0553,-0.1881 17.076735,19.680721 0 0 0 -0.0574,-0.187069 17.076735,19.680721 0 0 0 -0.0584,-0.186552 17.076735,19.680721 0 0 0 -0.0605,-0.185518 17.076735,19.680721 0 0 0 -0.0615,-0.185002 17.076735,19.680721 0 0 0 -0.0636,-0.184486 17.076735,19.680721 0 0 0 -0.0651,-0.183452 17.076735,19.680721 0 0 0 -0.0667,-0.182932 17.076735,19.680721 0 0 0 -0.0682,-0.181902 17.076735,19.680721 0 0 0 -0.0703,-0.181385 17.076735,19.680721 0 0 0 -0.0713,-0.18035 17.076735,19.680721 0 0 0 -0.0729,-0.179319 17.076735,19.680721 0 0 0 -0.0749,-0.1788 17.076735,19.680721 0 0 0 -0.076,-0.177766 17.076735,19.680721 0 0 0 -0.0775,-0.177249 17.076735,19.680721 0 0 0 -0.0796,-0.175702 17.076735,19.680721 0 0 0 -0.0806,-0.175183 17.076735,19.680721 0 0 0 -0.0822,-0.174149 17.076735,19.680721 0 0 0 -0.0842,-0.173117 17.076735,19.680721 0 0 0 -0.0853,-0.172598 17.076735,19.680721 0 0 0 -0.0868,-0.171048 17.076735,19.680721 0 0 0 -0.0884,-0.170016 17.076735,19.680721 0 0 0 -0.0899,-0.1695 17.076735,19.680721 0 0 0 -0.091,-0.167947 17.076735,19.680721 0 0 0 -0.093,-0.166915 17.076735,19.680721 0 0 0 -0.094,-0.165881 17.076735,19.680721 0 0 0 -0.0956,-0.164848 17.076735,19.680721 0 0 0 -0.0971,-0.163814 17.076735,19.680721 0 0 0 -0.0987,-0.162783 17.076735,19.680721 0 0 0 -0.0997,-0.161229 17.076735,19.680721 0 0 0 -0.10129,-0.160197 17.076735,19.680721 0 0 0 -0.10284,-0.159163 17.076735,19.680721 0 0 0 -0.10438,-0.15813 17.076735,19.680721 0 0 0 -0.10542,-0.156581 17.076735,19.680721 0 0 0 -0.10697,-0.155546 17.076735,19.680721 0 0 0 -0.10801,-0.153995 17.076735,19.680721 0 0 0 -0.10955,-0.152961 17.076735,19.680721 0 0 0 -0.1111,-0.151412 17.076735,19.680721 0 0 0 -0.11214,-0.15038 17.076735,19.680721 0 0 0 -0.11369,-0.149344 17.076735,19.680721 0 0 0 -0.11472,-0.147278 17.076735,19.680721 0 0 0 -0.11576,-0.14676 17.076735,19.680721 0 0 0 -0.11782,-0.144693 17.076735,19.680721 0 0 0 -0.11834,-0.143661 17.076735,19.680721 0 0 0 -0.11989,-0.142629 17.076735,19.680721 0 0 0 -0.12144,-0.14056 17.076735,19.680721 0 0 0 -0.12195,-0.139525 17.076735,19.680721 0 0 0 -0.12351,-0.137976 17.076735,19.680721 0 0 0 -0.12506,-0.136426 17.076735,19.680721 0 0 0 -0.12609,-0.135393 17.076735,19.680721 0 0 0 -0.12712,-0.133323 17.076735,19.680721 0 0 0 -0.12816,-0.132292 17.076735,19.680721 0 0 0 -0.12919,-0.130741 17.076735,19.680721 0 0 0 -0.13074,-0.129195 17.076735,19.680721 0 0 0 -0.13178,-0.127639 17.076735,19.680721 0 0 0 -0.1328,-0.12609 17.076735,19.680721 0 0 0 -0.13385,-0.12454 17.076735,19.680721 0 0 0 -0.13487,-0.122991 17.076735,19.680721 0 0 0 -0.13643,-0.121438 17.076735,19.680721 0 0 0 -0.13694,-0.119891 17.076735,19.680721 0 0 0 -0.13798,-0.117822 17.076735,19.680721 0 0 0 -0.13952,-0.11679 17.076735,19.680721 0 0 0 -0.14005,-0.115236 17.076735,19.680721 0 0 0 -0.14107,-0.113173 17.076735,19.680721 0 0 0 -0.14211,-0.11162 17.076735,19.680721 0 0 0 -0.14315,-0.110071 17.076735,19.680721 0 0 0 -0.14417,-0.108519 17.076735,19.680721 0 0 0 -0.14521,-0.106455 17.076735,19.680721 0 0 0 -0.14573,-0.105418 17.076735,19.680721 0 0 0 -0.14728,-0.103354 17.076735,19.680721 0 0 0 -0.1478,-0.101285 17.076735,19.680721 0 0 0 -0.14831,-0.100255 17.076735,19.680721 0 0 0 -0.14986,-0.09767 17.076735,19.680721 0 0 0 -0.15038,-0.09663 17.076735,19.680721 0 0 0 -0.15089,-0.09457 17.076735,19.680721 0 0 0 -0.15193,-0.09302 17.076735,19.680721 0 0 0 -0.15296,-0.09095 17.076735,19.680721 0 0 0 -0.15348,-0.0894 17.076735,19.680721 0 0 0 -0.15451,-0.08785 17.076735,19.680721 0 0 0 -0.15503,-0.08578 17.076735,19.680721 0 0 0 -0.15607,-0.08371 17.076735,19.680721 0 0 0 -0.15657,-0.08217 17.076735,19.680721 0 0 0 -0.15762,-0.08062 17.076735,19.680721 0 0 0 -0.15761,-0.07803 17.076735,19.680721 0 0 0 -0.15916,-0.077 17.076735,19.680721 0 0 0 -0.15917,-0.07493 17.076735,19.680721 0 0 0 -0.16019,-0.07286 17.076735,19.680721 0 0 0 -0.1602,-0.0708 17.076735,19.680721 0 0 0 -0.16175,-0.06925 17.076735,19.680721 0 0 0 -0.16175,-0.0677 17.076735,19.680721 0 0 0 -0.16226,-0.06511 17.076735,19.680721 0 0 0 -0.16278,-0.06356 17.076735,19.680721 0 0 0 -0.16382,-0.06201 17.076735,19.680721 0 0 0 -0.16381,-0.05943 17.076735,19.680721 0 0 0 -0.16485,-0.05788 17.076735,19.680721 0 0 0 -0.16484,-0.05581 17.076735,19.680721 0 0 0 -0.16588,-0.05426 17.076735,19.680721 0 0 0 -0.16589,-0.05219 17.076735,19.680721 0 0 0 -0.16639,-0.05013 17.076735,19.680721 0 0 0 -0.16692,-0.04806 17.076735,19.680721 0 0 0 -0.16743,-0.04651 17.076735,19.680721 0 0 0 -0.16795,-0.04444 17.076735,19.680721 0 0 0 -0.16795,-0.04237 17.076735,19.680721 0 0 0 -0.16847,-0.04031 17.076735,19.680721 0 0 0 -0.16898,-0.03876 17.076735,19.680721 0 0 0 -0.16898,-0.03617 17.076735,19.680721 0 0 0 -0.1695,-0.03462 17.076735,19.680721 0 0 0 -0.1695,-0.03255 17.076735,19.680721 0 0 0 -0.17001,-0.03049 17.076735,19.680721 0 0 0 -0.17053,-0.02894 17.076735,19.680721 0 0 0 -0.17054,-0.02635 17.076735,19.680721 0 0 0 -0.17053,-0.02481 17.076735,19.680721 0 0 0 -0.17104,-0.02274 17.076735,19.680721 0 0 0 -0.17106,-0.02067 17.076735,19.680721 0 0 0 -0.17156,-0.01861 17.076735,19.680721 0 0 0 -0.17105,-0.01705 17.076735,19.680721 0 0 0 -0.17157,-0.01447 17.076735,19.680721 0 0 0 -0.17208,-0.01292 17.076735,19.680721 0 0 0 -0.17156,-0.01085 17.076735,19.680721 0 0 0 -0.17209,-0.0088 17.076735,19.680721 0 0 0 -0.17208,-0.0067 17.076735,19.680721 0 0 0 -0.17208,-0.0047 17.076735,19.680721 0 0 0 -0.17208,-0.0026 17.076735,19.680721 0 0 0 -0.15141,-0.001 17.076735,19.680721 0 0 0 -0.17209,0.001 17.076735,19.680721 0 0 0 -0.17208,0.0031 17.076735,19.680721 0 0 0 -0.17208,0.0052 17.076735,19.680721 0 0 0 -0.17209,0.0067 17.076735,19.680721 0 0 0 -0.17208,0.0088 17.076735,19.680721 0 0 0 -0.17157,0.01137 17.076735,19.680721 0 0 0 -0.17156,0.01292 17.076735,19.680721 0 0 0 -0.17157,0.01499 17.076735,19.680721 0 0 0 -0.17156,0.01705 17.076735,19.680721 0 0 0 -0.17157,0.0186 17.076735,19.680721 0 0 0 -0.17105,0.02119 17.076735,19.680721 0 0 0 -0.17104,0.02273 17.076735,19.680721 0 0 0 -0.17054,0.02481 17.076735,19.680721 0 0 0 -0.17053,0.02687 17.076735,19.680721 0 0 0 -0.17002,0.02894 17.076735,19.680721 0 0 0 -0.17001,0.03101 17.076735,19.680721 0 0 0 -0.17002,0.03307 17.076735,19.680721 0 0 0 -0.16898,0.03462 17.076735,19.680721 0 0 0 -0.1695,0.03669 17.076735,19.680721 0 0 0 -0.16846,0.03876 17.076735,19.680721 0 0 0 -0.16847,0.04083 17.076735,19.680721 0 0 0 -0.16795,0.04238 17.076735,19.680721 0 0 0 -0.16795,0.04444 17.076735,19.680721 0 0 0 -0.16743,0.04651 17.076735,19.680721 0 0 0 -0.1664,0.04857 17.076735,19.680721 0 0 0 -0.16691,0.05064 17.076735,19.680721 0 0 0 -0.16588,0.05219 17.076735,19.680721 0 0 0 -0.16537,0.05426 17.076735,19.680721 0 0 0 -0.16484,0.05633 17.076735,19.680721 0 0 0 -0.16485,0.05788 17.076735,19.680721 0 0 0 -0.16381,0.05994 17.076735,19.680721 0 0 0 -0.1633,0.06201 17.076735,19.680721 0 0 0 -0.1633,0.06356 17.076735,19.680721 0 0 0 -0.16226,0.06615 17.076735,19.680721 0 0 0 -0.16175,0.06718 17.076735,19.680721 0 0 0 -0.16123,0.06976 17.076735,19.680721 0 0 0 -0.16071,0.07131 17.076735,19.680721 0 0 0 -0.15969,0.07286 17.076735,19.680721 0 0 0 -0.15916,0.07493 17.076735,19.680721 0 0 0 -0.15865,0.077 17.076735,19.680721 0 0 0 -0.15813,0.07906 17.076735,19.680721 0 0 0 -0.15709,0.0801 17.076735,19.680721 0 0 0 -0.15658,0.08268 17.076735,19.680721 0 0 0 -0.15607,0.08423 17.076735,19.680721 0 0 0 -0.15503,0.08578 17.076735,19.680721 0 0 0 -0.15399,0.08785 17.076735,19.680721 0 0 0 -0.154,0.0894 17.076735,19.680721 0 0 0 -0.15244,0.09147 17.076735,19.680721 0 0 0 -0.15193,0.09302 17.076735,19.680721 0 0 0 -0.15141,0.09509 17.076735,19.680721 0 0 0 -0.14986,0.09663 17.076735,19.680721 0 0 0 -0.14935,0.09818 17.076735,19.680721 0 0 0 -0.14883,0.100254 17.076735,19.680721 0 0 0 -0.14779,0.101803 17.076735,19.680721 0 0 0 -0.14676,0.103352 17.076735,19.680721 0 0 0 -0.14573,0.105421 17.076735,19.680721 0 0 0 -0.14469,0.106968 17.076735,19.680721 0 0 0 -0.14418,0.108521 17.076735,19.680721 0 0 0 -0.14314,0.110072 17.076735,19.680721 0 0 0 -0.14212,0.112136 17.076735,19.680721 0 0 0 -0.14107,0.113174 17.076735,19.680721 0 0 0 -0.14005,0.115239 17.076735,19.680721 0 0 0 -0.139,0.116787 17.076735,19.680721 0 0 0 -0.13798,0.11834 17.076735,19.680721 0 0 0 -0.13694,0.120406 17.076735,19.680721 0 0 0 -0.13591,0.121439 17.076735,19.680721 0 0 0 -0.13488,0.122988 17.076735,19.680721 0 0 0 -0.13384,0.125058 17.076735,19.680721 0 0 0 -0.13281,0.126091 17.076735,19.680721 0 0 0 -0.13126,0.12764 17.076735,19.680721 0 0 0 -0.13074,0.129709 17.076735,19.680721 0 0 0 -0.12919,0.130741 17.076735,19.680721 0 0 0 -0.12816,0.132293 17.076735,19.680721 0 0 0 -0.12712,0.133841 17.076735,19.680721 0 0 0 -0.12557,0.135393 17.076735,19.680721 0 0 0 -0.12506,0.136424 17.076735,19.680721 0 0 0 -0.12299,0.138493 17.076735,19.680721 0 0 0 -0.12247,0.139526 17.076735,19.680721 0 0 0 -0.12093,0.141079 17.076735,19.680721 0 0 0 -0.11989,0.14211 17.076735,19.680721 0 0 0 -0.11833,0.144176 17.076735,19.680721 0 0 0 -0.11731,0.144693 17.076735,19.680721 0 0 0 -0.11575,0.146763 17.076735,19.680721 0 0 0 -0.11473,0.147796 17.076735,19.680721 0 0 0 -0.11368,0.149344 17.076735,19.680721 0 0 0 -0.11214,0.150379 17.076735,19.680721 0 0 0 -0.11059,0.151929 17.076735,19.680721 0 0 0 -0.10955,0.152961 17.076735,19.680721 0 0 0 -0.10801,0.154514 17.076735,19.680721 0 0 0 -0.10645,0.155545 17.076735,19.680721 0 0 0 -0.10542,0.156578 17.076735,19.680721 0 0 0 -0.10387,0.158131 17.076735,19.680721 0 0 0 -0.10284,0.159163 17.076735,19.680721 0 0 0 -0.10128,0.160197 17.076735,19.680721 0 0 0 -0.0997,0.161748 17.076735,19.680721 0 0 0 -0.0982,0.162779 17.076735,19.680721 0 0 0 -0.0971,0.163815 17.076735,19.680721 0 0 0 -0.0951,0.164848 17.076735,19.680721 0 0 0 -0.094,0.166399 17.076735,19.680721 0 0 0 -0.093,0.166915 17.076735,19.680721 0 0 0 -0.091,0.168463 17.076735,19.680721 0 0 0 -0.0894,0.168984 17.076735,19.680721 0 0 0 -0.0884,0.170532 17.076735,19.680721 0 0 0 -0.0868,0.171048 17.076735,19.680721 0 0 0 -0.0853,0.172601 17.076735,19.680721 0 0 0 -0.0832,0.173114 17.076735,19.680721 0 0 0 -0.0822,0.174151 17.076735,19.680721 0 0 0 -0.0677,0.147794 78.164984,73.323662 0 0 0 -0.75655,-0.307991 20.626124,25.660104 0 0 1 17.84129,-12.783716 20.626124,25.660104 0 0 1 0.0408,0 z"
         inkscape:export-xdpi="96"
         inkscape:export-ydpi="96" />
      <path
         style="fill:none;stroke:#4b312d;stroke-width:1.5875;stroke-linecap:round;stroke-linejoin:miter;stroke-miterlimit:4;stroke-dasharray:none;stroke-opacity:1"
         d="m 81.98313,116.27474 c 0,0 -3.944085,-1.89751 -9.155733,-2.79281 -5.211649,-0.89529 -11.924117,-0.62622 -11.924117,-0.62622"
         id="path1840"
         sodipodi:nodetypes="czc"
         inkscape:export-xdpi="96"
         inkscape:export-ydpi="96" />
      <path
         style="display:inline;opacity:1;fill:none;stroke:#4b312d;stroke-width:1.5875;stroke-linecap:round;stroke-linejoin:miter;stroke-miterlimit:4;stroke-dasharray:none;stroke-opacity:1"
         d="m 81.762563,119.84277 c 0,0 -4.280464,-0.91323 -9.556199,-0.55344 -5.275735,0.3598 -11.735147,2.20524 -11.735147,2.20524"
         id="path1840-2"
         sodipodi:nodetypes="czc"
         inkscape:export-xdpi="96"
         inkscape:export-ydpi="96" />
      <path
         style="display:inline;opacity:1;fill:none;stroke:#4b312d;stroke-width:1.49996;stroke-linecap:round;stroke-linejoin:miter;stroke-miterlimit:4;stroke-dasharray:none;stroke-opacity:1"
         d="m 82.607378,123.76945 c 0,0 -4.375134,0.27055 -9.356751,1.87598 -4.981615,1.60544 -10.692364,4.77416 -10.692364,4.77416"
         id="path1840-2-3"
         sodipodi:nodetypes="czc"
         inkscape:export-xdpi="96"
         inkscape:export-ydpi="96" />
      <g
         id="g1920"
         transform="matrix(1.2653694,0,0,1.1239687,-34.938833,-16.19947)"
         inkscape:export-xdpi="96"
         inkscape:export-ydpi="96">
        <path
           style="display:inline;opacity:1;fill:none;stroke:#4b312d;stroke-width:1.5875;stroke-linecap:round;stroke-linejoin:miter;stroke-miterlimit:4;stroke-dasharray:none;stroke-opacity:1"
           d="m 132.82349,115.35156 c 0,0 3.94408,-1.89751 9.15573,-2.79281 5.21165,-0.89529 11.92411,-0.62622 11.92411,-0.62622"
           id="path1840-7"
           sodipodi:nodetypes="czc" />
        <path
           style="display:inline;opacity:1;fill:none;stroke:#4b312d;stroke-width:1.5875;stroke-linecap:round;stroke-linejoin:miter;stroke-miterlimit:4;stroke-dasharray:none;stroke-opacity:1"
           d="m 133.04405,118.91959 c 0,0 4.28047,-0.91323 9.5562,-0.55344 5.27574,0.3598 11.73515,2.20524 11.73515,2.20524"
           id="path1840-2-5"
           sodipodi:nodetypes="czc" />
        <path
           style="display:inline;opacity:1;fill:none;stroke:#4b312d;stroke-width:1.49996;stroke-linecap:round;stroke-linejoin:miter;stroke-miterlimit:4;stroke-dasharray:none;stroke-opacity:1"
           d="m 132.19924,122.84627 c 0,0 4.37513,0.27055 9.35675,1.87598 4.98161,1.60544 10.69236,4.77416 10.69236,4.77416"
           id="path1840-2-3-9"
           sodipodi:nodetypes="czc" />
      </g>
      <path
         style="display:inline;opacity:1;mix-blend-mode:normal;fill:none;fill-opacity:0.858824;stroke:#492c20;stroke-width:2.11667;stroke-linecap:round;stroke-linejoin:round;stroke-miterlimit:4;stroke-dasharray:none;stroke-opacity:0.988235"
         d="m 93.745375,128.20013 c 8.539205,8.07998 13.273625,-2.01291 12.293895,-4.35941"
         id="path1922-2"
         sodipodi:nodetypes="cc"
         inkscape:export-xdpi="96"
         inkscape:export-ydpi="96" />
      <path
         style="display:inline;opacity:1;mix-blend-mode:normal;fill:none;fill-opacity:0.858824;stroke:#492c20;stroke-width:2.11667;stroke-linecap:round;stroke-linejoin:round;stroke-miterlimit:4;stroke-dasharray:none;stroke-opacity:0.988235"
         d="m 118.86233,128.20013 c -8.5392,8.07998 -13.27362,-2.01291 -12.29389,-4.35941"
         id="path1922-2-2"
         sodipodi:nodetypes="cc"
         inkscape:export-xdpi="96"
         inkscape:export-ydpi="96" />
      <ellipse
         style="opacity:0.92;fill:#ffffff;fill-opacity:1;fill-rule:nonzero;stroke:none;stroke-width:2.11667;stroke-linecap:round;stroke-linejoin:round;stroke-miterlimit:4;stroke-dasharray:none;stroke-opacity:0.858824;paint-order:stroke fill markers"
         id="path2221"
         cx="103.3397"
         cy="110.49719"
         rx="4.470695"
         ry="2.7257566"
         inkscape:export-xdpi="96"
         inkscape:export-ydpi="96" />
    </g>
  </g>
</svg>
