<?xml version="1.0" encoding="UTF-8" standalone="no"?>
<svg
   xmlns:dc="http://purl.org/dc/elements/1.1/"
   xmlns:cc="http://creativecommons.org/ns#"
   xmlns:rdf="http://www.w3.org/1999/02/22-rdf-syntax-ns#"
   xmlns:svg="http://www.w3.org/2000/svg"
   xmlns="http://www.w3.org/2000/svg"
   xmlns:xlink="http://www.w3.org/1999/xlink"
   xmlns:sodipodi="http://sodipodi.sourceforge.net/DTD/sodipodi-0.dtd"
   xmlns:inkscape="http://www.inkscape.org/namespaces/inkscape"
   version="1.1"
   width="64"
   height="64"
   id="svg5157"
   inkscape:version="1.0.2 (394de47547, 2021-03-26)"
   sodipodi:docname="com.github.slawtul.hamster.svg">
  <metadata
     id="metadata46">
    <rdf:RDF>
      <cc:Work
         rdf:about="">
        <dc:format>image/svg+xml</dc:format>
        <dc:type
           rdf:resource="http://purl.org/dc/dcmitype/StillImage" />
        <dc:title />
      </cc:Work>
    </rdf:RDF>
  </metadata>
  <sodipodi:namedview
     pagecolor="#ffffff"
     bordercolor="#9bdb4d"
     borderopacity="1"
     objecttolerance="10"
     gridtolerance="10"
     guidetolerance="10"
     inkscape:pageopacity="0"
     inkscape:pageshadow="2"
     inkscape:window-width="3840"
     inkscape:window-height="2097"
     id="namedview29"
     showgrid="false"
     inkscape:zoom="13.807341"
     inkscape:cx="0.81653232"
     inkscape:cy="42.795189"
     inkscape:window-x="0"
     inkscape:window-y="30"
     inkscape:window-maximized="1"
     inkscape:current-layer="layer4"
     showguides="true"
     inkscape:object-paths="true"
     inkscape:snap-page="true"
     inkscape:snap-grids="false"
     inkscape:document-rotation="0"
     inkscape:guide-bbox="true">
    <inkscape:grid
       type="xygrid"
       id="grid4201"
       originx="0"
       snapvisiblegridlinesonly="true"
       visible="true"
       enabled="true"
       originy="0"
       spacingx="1" />
    <sodipodi:guide
       position="6.9451806,36.427217"
       orientation="1,0"
       id="guide908" />
    <sodipodi:guide
       position="57.017022,27.361053"
       orientation="1,0"
       id="guide910" />
    <sodipodi:guide
       position="-10.230625,58.177693"
       orientation="0,-1"
       id="guide912" />
    <sodipodi:guide
       position="-7.8282208,3.1694548"
       orientation="0,-1"
       id="guide914" />
    <sodipodi:guide
       position="32.000773,65.400778"
       orientation="1,0"
       id="guide916" />
    <sodipodi:guide
       position="-23.465778,60.523588"
       orientation="0,-1"
       id="guide1043" />
  </sodipodi:namedview>
  <defs
     id="defs5159">
    <linearGradient
       id="linearGradient3820-7-2-8-6">
      <stop
         id="stop3822-2-6-5-0"
         style="stop-color:#3d3d3d;stop-opacity:1"
         offset="0" />
      <stop
         id="stop3864-8-7-4-1"
         style="stop-color:#686868;stop-opacity:0.49803922"
         offset="0.5" />
      <stop
         id="stop3824-1-2-6-7"
         style="stop-color:#686868;stop-opacity:0"
         offset="1" />
    </linearGradient>
    <linearGradient
       id="linearGradient4806">
      <stop
         offset="0"
         style="stop-color:#ffffff;stop-opacity:1"
         id="stop4808" />
      <stop
         offset="0.42447853"
         style="stop-color:#ffffff;stop-opacity:0.23529412"
         id="stop4810" />
      <stop
         offset="0.82089913"
         style="stop-color:#ffffff;stop-opacity:0.15686275"
         id="stop4812" />
      <stop
         offset="1"
         style="stop-color:#ffffff;stop-opacity:0.39215687"
         id="stop4814" />
    </linearGradient>
    <linearGradient
       xlink:href="#linearGradient4806"
       id="linearGradient3118"
       gradientUnits="userSpaceOnUse"
       gradientTransform="matrix(4.16388,0,0,4.16388,-236.03265,-50.036246)"
       x1="71.204407"
       y1="15.369057"
       x2="71.204407"
       y2="40.495617" />
    <radialGradient
       xlink:href="#linearGradient3820-7-2-8-6"
       id="radialGradient3163"
       gradientUnits="userSpaceOnUse"
       gradientTransform="matrix(0.6869404,0,0,0.21461693,-4.02174,68.573331)"
       cx="99.157013"
       cy="186.17059"
       fx="99.157013"
       fy="186.17059"
       r="62.769119" />
    <radialGradient
       cx="7.4605465"
       cy="9.9571075"
       r="12.671875"
       fx="6.9303164"
       fy="9.9571075"
       id="radialGradient5521-1"
       xlink:href="#linearGradient2867-449-88-871-390-598-476-591-434-148-57-177-3-8-8-9"
       gradientUnits="userSpaceOnUse"
       gradientTransform="matrix(0,46.861858,-92.320077,0,985.84907,-380.50601)" />
    <linearGradient
       id="linearGradient2867-449-88-871-390-598-476-591-434-148-57-177-3-8-8-9">
      <stop
         offset="0"
         style="stop-color:#9bdb4d;stop-opacity:1"
         id="stop3750-8-9-0" />
      <stop
         offset="1"
         style="stop-color:#d1ff82;stop-opacity:1"
         id="stop3756-9-3-05" />
    </linearGradient>
    <linearGradient
       xlink:href="#linearGradient4806"
       id="linearGradient3118-3"
       gradientUnits="userSpaceOnUse"
       gradientTransform="matrix(4.16388,0,0,4.16388,-43.447904,-61.108816)"
       x1="71.204407"
       y1="15.369057"
       x2="71.204407"
       y2="40.495617" />
    <radialGradient
       cx="7.4605465"
       cy="9.9571075"
       r="12.671875"
       fx="6.9303164"
       fy="9.9571075"
       id="radialGradient5521-1-5"
       xlink:href="#linearGradient2867-449-88-871-390-598-476-591-434-148-57-177-3-8-8-9"
       gradientUnits="userSpaceOnUse"
       gradientTransform="matrix(0,46.861858,-92.320077,0,1178.4338,-391.57858)" />
    <radialGradient
       xlink:href="#linearGradient3820-7-2-8-6"
       id="radialGradient3163-2"
       gradientUnits="userSpaceOnUse"
       gradientTransform="matrix(0.6869404,0,0,0.21461693,188.56301,57.500761)"
       cx="99.157013"
       cy="186.17059"
       fx="99.157013"
       fy="186.17059"
       r="62.769119" />
    <clipPath
       clipPathUnits="userSpaceOnUse"
       id="clipPath925">
      <path
         inkscape:connector-curvature="0"
         d="m 99.053475,103.4609 c 8.715415,-8.868351 14.104475,-21.018879 14.104475,-34.436268 0,-27.149324 -22.008623,-49.156181 -49.157948,-49.156181 -27.149324,0 -49.157948,22.00525 -49.157948,49.156181 0,13.419156 5.390828,25.567917 14.106082,34.438038 l -4.447027,4.44526 c -2.452114,2.45227 -2.452114,6.42459 -0.0016,8.87686 1.224451,1.22622 2.833169,1.84005 4.438353,1.84005 1.605183,0 3.212456,-0.61383 4.436745,-1.83828 l 5.542158,-5.54039 c 7.348149,4.37731 15.907094,6.93657 25.083244,6.93657 9.176151,0 17.735096,-2.55926 25.086619,-6.93818 l 5.541996,5.54216 c 1.226218,1.22445 2.831401,1.83828 4.436746,1.83828 1.60535,0 3.21407,-0.61383 4.43852,-1.84005 2.4505,-2.45227 2.4505,-6.42459 -0.002,-8.87686 z m -35.05524,-5.520149 c -1.746392,0 -3.16137,1.418191 -3.16137,3.164739 v 4.26148 C 43.23109,103.84501 29.1777,89.791616 27.657338,72.187448 h 4.261641 c 1.746553,0 3.164744,-1.41819 3.164744,-3.162976 0,-1.746393 -1.418352,-3.162816 -3.164744,-3.162816 H 27.657338 C 29.1777,48.257488 43.23109,34.20233 60.836865,32.683735 v 4.263248 c 0,1.746553 1.414978,3.16137 3.16137,3.16137 1.746553,0 3.162977,-1.414817 3.162977,-3.16137 v -4.263248 c 17.605935,1.518595 31.657397,15.573592 33.179528,33.177921 h -4.263249 c -1.746553,0 -3.162976,1.416423 -3.162976,3.162816 0,1.744786 1.416423,3.162976 3.162976,3.162976 h 4.263249 C 98.820376,89.791616 84.768753,103.84501 67.162979,105.36697 v -4.25971 c 0,-1.748157 -1.416584,-3.166509 -3.164744,-3.166509 z"
         id="path927"
         style="fill:url(#linearGradient929);fill-opacity:1;stroke:#91e317;stroke-width:1;stroke-miterlimit:4;stroke-dasharray:none;stroke-opacity:0.66857144" />
    </clipPath>
    <linearGradient
       inkscape:collect="always"
       xlink:href="#linearGradient2867-449-88-871-390-598-476-591-434-148-57-177-3-8-8-9"
       id="linearGradient929"
       gradientUnits="userSpaceOnUse"
       x1="62.842052"
       y1="127.49673"
       x2="64.657951"
       y2="18.246727" />
    <clipPath
       clipPathUnits="userSpaceOnUse"
       id="clipPath959">
      <path
         style="fill:#ffe16b;fill-opacity:1;stroke:none;stroke-width:1;stroke-linecap:round;stroke-linejoin:round;stroke-miterlimit:4;stroke-dasharray:none;stroke-opacity:0.54857142"
         id="path961"
         d="m 111.2787,44.419312 c 1.12228,-2.700474 1.7464,-5.659429 1.7464,-8.762967 0.002,-12.633432 -10.2406,-22.875956 -22.874033,-22.875956 -5.076121,0 -9.749339,1.673459 -13.541408,4.47257 15.070124,3.671424 27.645881,13.728562 34.669041,27.166353 z"
         inkscape:connector-curvature="0" />
    </clipPath>
    <clipPath
       clipPathUnits="userSpaceOnUse"
       id="clipPath997">
      <path
         style="fill:#ffe16b;fill-opacity:1;stroke-width:0.09803922"
         id="path999"
         d="m 51.390346,17.249425 c -3.792231,-2.795577 -8.468822,-4.469036 -13.541569,-4.469036 -12.633432,0 -22.875796,10.242524 -22.875796,22.875796 0,3.105304 0.624113,6.064259 1.746553,8.762966 7.023161,-13.441164 19.59876,-23.496374 34.670812,-27.169726 z"
         inkscape:connector-curvature="0" />
    </clipPath>
  </defs>
  <g
     inkscape:groupmode="layer"
     id="layer4"
     inkscape:label="Layer">
    <path
       id="path2335"
       style="opacity:0.92;mix-blend-mode:normal;fill:#b1671f;fill-opacity:0.992157;fill-rule:evenodd;stroke:#000000;stroke-width:0.518012;stroke-linejoin:round;stroke-miterlimit:4;stroke-dasharray:none"
       d="m 22.140774,9.9539825 a 4.1791904,4.8164615 0 0 0 -0.01657,-0.036169 4.1791904,4.8164615 0 0 0 -0.02011,-0.04262 4.1791904,4.8164615 0 0 0 -0.02036,-0.042366 4.1791904,4.8164615 0 0 0 -0.02087,-0.042241 4.1791904,4.8164615 0 0 0 -0.02125,-0.041861 4.1791904,4.8164615 0 0 0 -0.02163,-0.041734 4.1791904,4.8164615 0 0 0 -0.02188,-0.041355 4.1791904,4.8164615 0 0 0 -0.02226,-0.041228 4.1791904,4.8164615 0 0 0 -0.02276,-0.040849 4.1791904,4.8164615 0 0 0 -0.02302,-0.040723 4.1791904,4.8164615 0 0 0 -0.02327,-0.040343 4.1791904,4.8164615 0 0 0 -0.02378,-0.04009 4.1791904,4.8164615 0 0 0 -0.02403,-0.039837 4.1791904,4.8164615 0 0 0 -0.02441,-0.039585 4.1791904,4.8164615 0 0 0 -0.02478,-0.039205 4.1791904,4.8164615 0 0 0 -0.02517,-0.038952 4.1791904,4.8164615 0 0 0 -0.02542,-0.038699 4.1791904,4.8164615 0 0 0 -0.0258,-0.038319 4.1791904,4.8164615 0 0 0 -0.02605,-0.038066 4.1791904,4.8164615 0 0 0 -0.02643,-0.037814 4.1791904,4.8164615 0 0 0 -0.02681,-0.037434 4.1791904,4.8164615 0 0 0 -0.02706,-0.037182 4.1791904,4.8164615 0 0 0 -0.02744,-0.036802 4.1791904,4.8164615 0 0 0 -0.02782,-0.036549 4.1791904,4.8164615 0 0 0 -0.02808,-0.03617 4.1791904,4.8164615 0 0 0 -0.02833,-0.035917 4.1791904,4.8164615 0 0 0 -0.02871,-0.035411 4.1791904,4.8164615 0 0 0 -0.02896,-0.035284 4.1791904,4.8164615 0 0 0 -0.02934,-0.034779 4.1791904,4.8164615 0 0 0 -0.02959,-0.034526 4.1791904,4.8164615 0 0 0 -0.02997,-0.034146 4.1791904,4.8164615 0 0 0 -0.0301,-0.033893 4.1791904,4.8164615 0 0 0 -0.03061,-0.033387 4.1791904,4.8164615 0 0 0 -0.03073,-0.033135 4.1791904,4.8164615 0 0 0 -0.03111,-0.032755 4.1791904,4.8164615 0 0 0 -0.03136,-0.032376 4.1791904,4.8164615 0 0 0 -0.03162,-0.031996 4.1791904,4.8164615 0 0 0 -0.032,-0.031744 4.1791904,4.8164615 0 0 0 -0.03212,-0.031237 4.1791904,4.8164615 0 0 0 -0.0325,-0.030858 4.1791904,4.8164615 0 0 0 -0.03276,-0.030605 4.1791904,4.8164615 0 0 0 -0.03301,-0.030099 4.1791904,4.8164615 0 0 0 -0.03326,-0.029719 4.1791904,4.8164615 0 0 0 -0.03351,-0.029467 4.1791904,4.8164615 0 0 0 -0.03377,-0.028961 4.1791904,4.8164615 0 0 0 -0.03402,-0.028581 4.1791904,4.8164615 0 0 0 -0.03427,-0.028202 4.1791904,4.8164615 0 0 0 -0.03453,-0.027697 4.1791904,4.8164615 0 0 0 -0.03478,-0.027443 4.1791904,4.8164615 0 0 0 -0.03503,-0.026938 4.1791904,4.8164615 0 0 0 -0.03528,-0.026558 4.1791904,4.8164615 0 0 0 -0.03541,-0.026178 4.1791904,4.8164615 0 0 0 -0.03566,-0.025799 4.1791904,4.8164615 0 0 0 -0.03592,-0.025293 4.1791904,4.8164615 0 0 0 -0.03617,-0.024914 4.1791904,4.8164615 0 0 0 -0.03642,-0.024535 4.1791904,4.8164615 0 0 0 -0.03655,-0.024028 4.1791904,4.8164615 0 0 0 -0.03668,-0.023648 4.1791904,4.8164615 0 0 0 -0.03706,-0.023271 4.1791904,4.8164615 0 0 0 -0.03718,-0.022765 4.1791904,4.8164615 0 0 0 -0.03731,-0.022385 4.1791904,4.8164615 0 0 0 -0.03769,-0.021879 4.1791904,4.8164615 0 0 0 -0.03769,-0.0215 4.1791904,4.8164615 0 0 0 -0.03794,-0.020993 4.1791904,4.8164615 0 0 0 -0.03819,-0.020614 4.1791904,4.8164615 0 0 0 -0.03832,-0.020234 4.1791904,4.8164615 0 0 0 -0.03845,-0.019603 4.1791904,4.8164615 0 0 0 -0.0387,-0.019348 4.1791904,4.8164615 0 0 0 -0.03883,-0.018844 4.1791904,4.8164615 0 0 0 -0.03895,-0.018338 4.1791904,4.8164615 0 0 0 -0.03908,-0.017831 4.1791904,4.8164615 0 0 0 -0.03933,-0.017452 4.1791904,4.8164615 0 0 0 -0.03946,-0.017072 4.1791904,4.8164615 0 0 0 -0.03958,-0.016441 4.1791904,4.8164615 0 0 0 -0.03971,-0.016189 4.1791904,4.8164615 0 0 0 -0.03996,-0.015555 4.1791904,4.8164615 0 0 0 -0.03996,-0.015176 4.1791904,4.8164615 0 0 0 -0.04009,-0.014669 4.1791904,4.8164615 0 0 0 -0.04034,-0.014165 4.1791904,4.8164615 0 0 0 -0.04034,-0.013786 4.1791904,4.8164615 0 0 0 -0.04047,-0.013279 4.1791904,4.8164615 0 0 0 -0.0406,-0.012773 4.1791904,4.8164615 0 0 0 -0.04085,-0.012393 4.1791904,4.8164615 0 0 0 -0.04072,-0.011887 4.1791904,4.8164615 0 0 0 -0.04097,-0.011382 4.1791904,4.8164615 0 0 0 -0.0411,-0.010876 4.1791904,4.8164615 0 0 0 -0.0411,-0.010372 4.1791904,4.8164615 0 0 0 -0.04123,-0.00999 4.1791904,4.8164615 0 0 0 -0.04123,-0.00949 4.1791904,4.8164615 0 0 0 -0.04148,-0.00898 4.1791904,4.8164615 0 0 0 -0.04135,-0.00847 4.1791904,4.8164615 0 0 0 -0.04161,-0.00809 4.1791904,4.8164615 0 0 0 -0.04161,-0.00759 4.1791904,4.8164615 0 0 0 -0.04161,-0.00708 4.1791904,4.8164615 0 0 0 -0.04173,-0.00658 4.1791904,4.8164615 0 0 0 -0.04173,-0.00607 4.1791904,4.8164615 0 0 0 -0.04186,-0.00556 4.1791904,4.8164615 0 0 0 -0.04186,-0.00519 4.1791904,4.8164615 0 0 0 -0.04199,-0.00455 4.1791904,4.8164615 0 0 0 -0.04199,-0.00417 4.1791904,4.8164615 0 0 0 -0.04199,-0.00367 4.1791904,4.8164615 0 0 0 -0.04199,-0.00316 4.1791904,4.8164615 0 0 0 -0.04199,-0.00278 4.1791904,4.8164615 0 0 0 -0.04211,-0.00215 4.1791904,4.8164615 0 0 0 -0.04211,-0.00164 4.1791904,4.8164615 0 0 0 -0.04211,-0.00127 4.1791904,4.8164615 0 0 0 -0.04211,-7.587e-4 4.1791904,4.8164615 0 0 0 -0.04211,-2.447e-4 4.1791904,4.8164615 0 0 0 -0.03705,2.447e-4 4.1791904,4.8164615 0 0 0 -0.04211,6.363e-4 4.1791904,4.8164615 0 0 0 -0.04211,0.00115 4.1791904,4.8164615 0 0 0 -0.04211,0.00164 4.1791904,4.8164615 0 0 0 -0.04211,0.00215 4.1791904,4.8164615 0 0 0 -0.04199,0.00266 4.1791904,4.8164615 0 0 0 -0.04211,0.00316 4.1791904,4.8164615 0 0 0 -0.04199,0.00354 4.1791904,4.8164615 0 0 0 -0.04186,0.00417 4.1791904,4.8164615 0 0 0 -0.04199,0.00455 4.1791904,4.8164615 0 0 0 -0.04186,0.00506 4.1791904,4.8164615 0 0 0 -0.04186,0.00557 4.1791904,4.8164615 0 0 0 -0.04173,0.00607 4.1791904,4.8164615 0 0 0 -0.04173,0.00645 4.1791904,4.8164615 0 0 0 -0.04173,0.00708 4.1791904,4.8164615 0 0 0 -0.04161,0.00746 4.1791904,4.8164615 0 0 0 -0.04148,0.00797 4.1791904,4.8164615 0 0 0 -0.04148,0.00847 4.1791904,4.8164615 0 0 0 -0.04136,0.00885 4.1791904,4.8164615 0 0 0 -0.04135,0.00949 4.1791904,4.8164615 0 0 0 -0.04123,0.00987 4.1791904,4.8164615 0 0 0 -0.0411,0.010369 4.1791904,4.8164615 0 0 0 -0.0411,0.010876 4.1791904,4.8164615 0 0 0 -0.04097,0.011382 4.1791904,4.8164615 0 0 0 -0.04085,0.011762 4.1791904,4.8164615 0 0 0 -0.04072,0.012268 4.1791904,4.8164615 0 0 0 -0.0406,0.012772 4.1791904,4.8164615 0 0 0 -0.0406,0.013279 4.1791904,4.8164615 0 0 0 -0.04034,0.013658 4.1791904,4.8164615 0 0 0 -0.04034,0.014165 4.1791904,4.8164615 0 0 0 -0.04009,0.014544 4.1791904,4.8164615 0 0 0 -0.04009,0.015176 4.1791904,4.8164615 0 0 0 -0.03984,0.015555 4.1791904,4.8164615 0 0 0 -0.03971,0.015934 4.1791904,4.8164615 0 0 0 -0.03958,0.016568 4.1791904,4.8164615 0 0 0 -0.03958,0.016947 4.1791904,4.8164615 0 0 0 -0.03921,0.017327 4.1791904,4.8164615 0 0 0 -0.0392,0.017831 4.1791904,4.8164615 0 0 0 -0.03895,0.018338 4.1791904,4.8164615 0 0 0 -0.03895,0.018844 4.1791904,4.8164615 0 0 0 -0.03857,0.019096 4.1791904,4.8164615 0 0 0 -0.03857,0.01973 4.1791904,4.8164615 0 0 0 -0.03832,0.020109 4.1791904,4.8164615 0 0 0 -0.03819,0.020486 4.1791904,4.8164615 0 0 0 -0.03794,0.020993 4.1791904,4.8164615 0 0 0 -0.03781,0.0215 4.1791904,4.8164615 0 0 0 -0.03756,0.021879 4.1791904,4.8164615 0 0 0 -0.03743,0.022258 4.1791904,4.8164615 0 0 0 -0.03718,0.022765 4.1791904,4.8164615 0 0 0 -0.03693,0.023144 4.1791904,4.8164615 0 0 0 -0.0368,0.023648 4.1791904,4.8164615 0 0 0 -0.03668,0.023903 4.1791904,4.8164615 0 0 0 -0.0363,0.024535 4.1791904,4.8164615 0 0 0 -0.03617,0.024787 4.1791904,4.8164615 0 0 0 -0.03604,0.025294 4.1791904,4.8164615 0 0 0 -0.03566,0.025799 4.1791904,4.8164615 0 0 0 -0.03554,0.026053 4.1791904,4.8164615 0 0 0 -0.03528,0.026558 4.1791904,4.8164615 0 0 0 -0.03503,0.026938 4.1791904,4.8164615 0 0 0 -0.03478,0.027317 4.1791904,4.8164615 0 0 0 -0.03452,0.027697 4.1791904,4.8164615 0 0 0 -0.03427,0.028202 4.1791904,4.8164615 0 0 0 -0.03415,0.028582 4.1791904,4.8164615 0 0 0 -0.03377,0.028834 4.1791904,4.8164615 0 0 0 -0.03351,0.029341 4.1791904,4.8164615 0 0 0 -0.03339,0.02972 4.1791904,4.8164615 0 0 0 -0.03301,0.0301 4.1791904,4.8164615 0 0 0 -0.03275,0.030478 4.1791904,4.8164615 0 0 0 -0.0325,0.030858 4.1791904,4.8164615 0 0 0 -0.03225,0.031237 4.1791904,4.8164615 0 0 0 -0.032,0.031618 4.1791904,4.8164615 0 0 0 -0.03162,0.031996 4.1791904,4.8164615 0 0 0 -0.03136,0.032376 4.1791904,4.8164615 0 0 0 -0.03111,0.032628 4.1791904,4.8164615 0 0 0 -0.03086,0.033135 4.1791904,4.8164615 0 0 0 -0.03061,0.033388 4.1791904,4.8164615 0 0 0 -0.03023,0.033767 4.1791904,4.8164615 0 0 0 -0.02985,0.034146 4.1791904,4.8164615 0 0 0 -0.02972,0.034399 4.1791904,4.8164615 0 0 0 -0.02934,0.034906 4.1791904,4.8164615 0 0 0 -0.02896,0.035158 4.1791904,4.8164615 0 0 0 -0.02884,0.035411 4.1791904,4.8164615 0 0 0 -0.02833,0.035917 4.1791904,4.8164615 0 0 0 -0.02808,0.036043 4.1791904,4.8164615 0 0 0 -0.02782,0.036549 4.1791904,4.8164615 0 0 0 -0.02744,0.036802 4.1791904,4.8164615 0 0 0 -0.02719,0.037055 4.1791904,4.8164615 0 0 0 -0.02681,0.037434 4.1791904,4.8164615 0 0 0 -0.02643,0.037687 4.1791904,4.8164615 0 0 0 -0.02618,0.038067 4.1791904,4.8164615 0 0 0 -0.0258,0.03832 4.1791904,4.8164615 0 0 0 -0.02555,0.038699 4.1791904,4.8164615 0 0 0 -0.02517,0.038952 4.1791904,4.8164615 0 0 0 -0.02479,0.039205 4.1791904,4.8164615 0 0 0 -0.02441,0.039458 4.1791904,4.8164615 0 0 0 -0.02415,0.039838 4.1791904,4.8164615 0 0 0 -0.02378,0.04009 4.1791904,4.8164615 0 0 0 -0.0234,0.040343 4.1791904,4.8164615 0 0 0 -0.02302,0.040596 4.1791904,4.8164615 0 0 0 -0.02276,0.040849 4.1791904,4.8164615 0 0 0 -0.02226,0.041102 4.1791904,4.8164615 0 0 0 -0.02201,0.041482 4.1791904,4.8164615 0 0 0 -0.02163,0.041608 4.1791904,4.8164615 0 0 0 -0.02125,0.041861 4.1791904,4.8164615 0 0 0 -0.02087,0.04224 4.1791904,4.8164615 0 0 0 -0.02061,0.042367 4.1791904,4.8164615 0 0 0 -0.02011,0.042619 4.1791904,4.8164615 0 0 0 -0.01973,0.042872 4.1791904,4.8164615 0 0 0 -0.01948,0.043 4.1791904,4.8164615 0 0 0 -0.01897,0.043378 4.1791904,4.8164615 0 0 0 -0.01859,0.0435 4.1791904,4.8164615 0 0 0 -0.01834,0.04376 4.1791904,4.8164615 0 0 0 -0.01783,0.04389 4.1791904,4.8164615 0 0 0 -0.01745,0.04414 4.1791904,4.8164615 0 0 0 -0.0172,0.04439 4.1791904,4.8164615 0 0 0 -0.0167,0.04452 4.1791904,4.8164615 0 0 0 -0.01631,0.04477 4.1791904,4.8164615 0 0 0 -0.01593,0.0449 4.1791904,4.8164615 0 0 0 -0.01556,0.04515 4.1791904,4.8164615 0 0 0 -0.01505,0.04528 4.1791904,4.8164615 0 0 0 -0.0148,0.0454 4.1791904,4.8164615 0 0 0 -0.01429,0.04565 4.1791904,4.8164615 0 0 0 -0.01404,0.04578 4.1791904,4.8164615 0 0 0 -0.01353,0.04603 4.1791904,4.8164615 0 0 0 -0.01315,0.04604 4.1791904,4.8164615 0 0 0 -0.01277,0.04629 4.1791904,4.8164615 0 0 0 -0.01227,0.04641 4.1791904,4.8164615 0 0 0 -0.01189,0.04654 4.1791904,4.8164615 0 0 0 -0.01163,0.04667 4.1791904,4.8164615 0 0 0 -0.011,0.04679 4.1791904,4.8164615 0 0 0 -0.01075,0.04705 4.1791904,4.8164615 0 0 0 -0.01024,0.04705 4.1791904,4.8164615 0 0 0 -0.01,0.04717 4.1791904,4.8164615 0 0 0 -0.0094,0.0473 4.1791904,4.8164615 0 0 0 -0.0091,0.0473 4.1791904,4.8164615 0 0 0 -0.0086,0.04755 4.1791904,4.8164615 0 0 0 -0.0082,0.04755 4.1791904,4.8164615 0 0 0 -0.0078,0.04781 4.1791904,4.8164615 0 0 0 -0.0073,0.04768 4.1791904,4.8164615 0 0 0 -0.007,0.04793 4.1791904,4.8164615 0 0 0 -0.0066,0.04793 4.1791904,4.8164615 0 0 0 -0.0062,0.04806 4.1791904,4.8164615 0 0 0 -0.0057,0.04806 4.1791904,4.8164615 0 0 0 -0.0053,0.04818 4.1791904,4.8164615 0 0 0 -0.0048,0.04819 4.1791904,4.8164615 0 0 0 -0.0044,0.04818 4.1791904,4.8164615 0 0 0 -0.004,0.04831 4.1791904,4.8164615 0 0 0 -0.0037,0.04844 4.1791904,4.8164615 0 0 0 -0.0032,0.04831 4.1791904,4.8164615 0 0 0 -0.0028,0.04844 4.1791904,4.8164615 0 0 0 -0.0023,0.04856 4.1791904,4.8164615 0 0 0 -0.0019,0.04844 4.1791904,4.8164615 0 0 0 -0.0015,0.04856 4.1791904,4.8164615 0 0 0 -0.001,0.04844 4.1791904,4.8164615 0 0 0 -6.36e-4,0.04856 4.1791904,4.8164615 0 0 0 -2.45e-4,0.04856 4.1791904,4.8164615 0 0 0 1.26e-4,0.04275 4.1791904,4.8164615 0 0 0 6.37e-4,0.04856 4.1791904,4.8164615 0 0 0 10e-4,0.04856 4.1791904,4.8164615 0 0 0 0.0014,0.04844 4.1791904,4.8164615 0 0 0 0.0019,0.04856 4.1791904,4.8164615 0 0 0 0.0023,0.04844 4.1791904,4.8164615 0 0 0 0.0027,0.04844 4.1791904,4.8164615 0 0 0 0.0032,0.04844 4.1791904,4.8164615 0 0 0 0.0035,0.04831 4.1791904,4.8164615 0 0 0 0.004,0.04831 4.1791904,4.8164615 0 0 0 0.0043,0.04831 4.1791904,4.8164615 0 0 0 0.0049,0.04819 4.1791904,4.8164615 0 0 0 0.0052,0.04818 4.1791904,4.8164615 0 0 0 0.0057,0.04806 4.1791904,4.8164615 0 0 0 0.0061,0.04806 4.1791904,4.8164615 0 0 0 0.0064,0.04793 4.1791904,4.8164615 0 0 0 0.007,0.0478 4.1791904,4.8164615 0 0 0 0.0073,0.04781 4.1791904,4.8164615 0 0 0 0.0077,0.04781 4.1791904,4.8164615 0 0 0 0.0082,0.04755 4.1791904,4.8164615 0 0 0 0.0086,0.04755 4.1791904,4.8164615 0 0 0 0.009,0.04743 4.1791904,4.8164615 0 0 0 0.0095,0.0473 4.1791904,4.8164615 0 0 0 0.0097,0.04717 4.1791904,4.8164615 0 0 0 0.01025,0.04705 4.1791904,4.8164615 0 0 0 0.01075,0.04692 4.1791904,4.8164615 0 0 0 0.011,0.04692 4.1791904,4.8164615 0 0 0 0.01151,0.04667 4.1791904,4.8164615 0 0 0 0.01189,0.04654 4.1791904,4.8164615 0 0 0 0.01227,0.04641 4.1791904,4.8164615 0 0 0 0.01265,0.04629 4.1791904,4.8164615 0 0 0 0.01315,0.04616 4.1791904,4.8164615 0 0 0 0.01341,0.04591 4.1791904,4.8164615 0 0 0 0.01391,0.04591 4.1791904,4.8164615 0 0 0 0.01429,0.04565 4.1791904,4.8164615 0 0 0 0.0148,0.0454 4.1791904,4.8164615 0 0 0 0.01505,0.04528 4.1791904,4.8164615 0 0 0 0.01555,0.04515 4.1791904,4.8164615 0 0 0 0.01581,0.04502 4.1791904,4.8164615 0 0 0 0.01632,0.04477 4.1791904,4.8164615 0 0 0 0.01669,0.04452 4.1791904,4.8164615 0 0 0 0.01707,0.04439 4.1791904,4.8164615 0 0 0 0.01733,0.04414 4.1791904,4.8164615 0 0 0 0.01783,0.04401 4.1791904,4.8164615 0 0 0 0.01821,0.04376 4.1791904,4.8164615 0 0 0 0.01859,0.0435 4.1791904,4.8164615 0 0 0 0.0191,0.04338 4.1791904,4.8164615 0 0 0 0.01935,0.04312 4.1791904,4.8164615 0 0 0 0.01973,0.04287 4.1791904,4.8164615 0 0 0 0.01998,0.04262 4.1791904,4.8164615 0 0 0 0.02049,0.04237 4.1791904,4.8164615 0 0 0 0.02087,0.04224 4.1791904,4.8164615 0 0 0 0.02125,0.04186 4.1791904,4.8164615 0 0 0 0.0215,0.04173 4.1791904,4.8164615 0 0 0 0.02201,0.04148 4.1791904,4.8164615 0 0 0 0.02226,0.0411 4.1791904,4.8164615 0 0 0 0.02264,0.04098 4.1791904,4.8164615 0 0 0 0.02302,0.0406 4.1791904,4.8164615 0 0 0 0.0234,0.04034 4.1791904,4.8164615 0 0 0 0.02377,0.04009 4.1791904,4.8164615 0 0 0 0.02403,0.03984 4.1791904,4.8164615 0 0 0 0.02213,0.03592 19.129321,17.944495 0 0 1 7.093829,-5.0504878 z"
       inkscape:export-xdpi="96"
       inkscape:export-ydpi="96" />
    <path
       id="path932"
       style="opacity:0.92;mix-blend-mode:normal;fill:#f7c454;fill-opacity:1;fill-rule:evenodd;stroke:#000000;stroke-width:0.518012;stroke-linejoin:round;stroke-miterlimit:4;stroke-dasharray:none"
       d="m 17.949634,6.7500634 a 5.0478299,6.2797955 0 0 0 -5.03784,6.2797556 5.0478299,6.2797955 0 0 0 0.893367,3.566768 19.129311,17.944495 0 0 1 1.241787,-1.592101 4.1791882,4.8164615 0 0 1 -0.02213,-0.03592 4.1791882,4.8164615 0 0 1 -0.02403,-0.03984 4.1791882,4.8164615 0 0 1 -0.02377,-0.04009 4.1791882,4.8164615 0 0 1 -0.0234,-0.04034 4.1791882,4.8164615 0 0 1 -0.02302,-0.0406 4.1791882,4.8164615 0 0 1 -0.02264,-0.04098 4.1791882,4.8164615 0 0 1 -0.02226,-0.0411 4.1791882,4.8164615 0 0 1 -0.02201,-0.04148 4.1791882,4.8164615 0 0 1 -0.0215,-0.04173 4.1791882,4.8164615 0 0 1 -0.02125,-0.04186 4.1791882,4.8164615 0 0 1 -0.02087,-0.04224 4.1791882,4.8164615 0 0 1 -0.02049,-0.04237 4.1791882,4.8164615 0 0 1 -0.01998,-0.04262 4.1791882,4.8164615 0 0 1 -0.01973,-0.04287 4.1791882,4.8164615 0 0 1 -0.01935,-0.04312 4.1791882,4.8164615 0 0 1 -0.0191,-0.04338 4.1791882,4.8164615 0 0 1 -0.01859,-0.0435 4.1791882,4.8164615 0 0 1 -0.01821,-0.04376 4.1791882,4.8164615 0 0 1 -0.01783,-0.04401 4.1791882,4.8164615 0 0 1 -0.01733,-0.04414 4.1791882,4.8164615 0 0 1 -0.01707,-0.04439 4.1791882,4.8164615 0 0 1 -0.01669,-0.04452 4.1791882,4.8164615 0 0 1 -0.01632,-0.04477 4.1791882,4.8164615 0 0 1 -0.01581,-0.04502 4.1791882,4.8164615 0 0 1 -0.01555,-0.04515 4.1791882,4.8164615 0 0 1 -0.01505,-0.04528 4.1791882,4.8164615 0 0 1 -0.0148,-0.0454 4.1791882,4.8164615 0 0 1 -0.01429,-0.04565 4.1791882,4.8164615 0 0 1 -0.01391,-0.04591 4.1791882,4.8164615 0 0 1 -0.01341,-0.04591 4.1791882,4.8164615 0 0 1 -0.01315,-0.04616 4.1791882,4.8164615 0 0 1 -0.01265,-0.04629 4.1791882,4.8164615 0 0 1 -0.01227,-0.04641 4.1791882,4.8164615 0 0 1 -0.01189,-0.04654 4.1791882,4.8164615 0 0 1 -0.01151,-0.04667 4.1791882,4.8164615 0 0 1 -0.011,-0.04692 4.1791882,4.8164615 0 0 1 -0.01075,-0.04692 4.1791882,4.8164615 0 0 1 -0.01025,-0.04705 4.1791882,4.8164615 0 0 1 -0.0097,-0.04717 4.1791882,4.8164615 0 0 1 -0.0095,-0.0473 4.1791882,4.8164615 0 0 1 -0.009,-0.04743 4.1791882,4.8164615 0 0 1 -0.0086,-0.04755 4.1791882,4.8164615 0 0 1 -0.0082,-0.04755 4.1791882,4.8164615 0 0 1 -0.0077,-0.04781 4.1791882,4.8164615 0 0 1 -0.0073,-0.04781 4.1791882,4.8164615 0 0 1 -0.007,-0.0478 4.1791882,4.8164615 0 0 1 -0.0064,-0.04793 4.1791882,4.8164615 0 0 1 -0.0061,-0.04806 4.1791882,4.8164615 0 0 1 -0.0057,-0.04806 4.1791882,4.8164615 0 0 1 -0.0052,-0.04818 4.1791882,4.8164615 0 0 1 -0.0049,-0.04819 4.1791882,4.8164615 0 0 1 -0.0043,-0.04831 4.1791882,4.8164615 0 0 1 -0.004,-0.04831 4.1791882,4.8164615 0 0 1 -0.0035,-0.04831 4.1791882,4.8164615 0 0 1 -0.0032,-0.04844 4.1791882,4.8164615 0 0 1 -0.0027,-0.04844 4.1791882,4.8164615 0 0 1 -0.0023,-0.04844 4.1791882,4.8164615 0 0 1 -0.0019,-0.04856 4.1791882,4.8164615 0 0 1 -0.0014,-0.04844 4.1791882,4.8164615 0 0 1 -10e-4,-0.04856 4.1791882,4.8164615 0 0 1 -6.37e-4,-0.04856 4.1791882,4.8164615 0 0 1 -1.26e-4,-0.04275 4.1791882,4.8164615 0 0 1 2.45e-4,-0.04856 4.1791882,4.8164615 0 0 1 6.36e-4,-0.04856 4.1791882,4.8164615 0 0 1 0.001,-0.04844 4.1791882,4.8164615 0 0 1 0.0015,-0.04856 4.1791882,4.8164615 0 0 1 0.0019,-0.04844 4.1791882,4.8164615 0 0 1 0.0023,-0.04856 4.1791882,4.8164615 0 0 1 0.0028,-0.04844 4.1791882,4.8164615 0 0 1 0.0032,-0.04831 4.1791882,4.8164615 0 0 1 0.0037,-0.04844 4.1791882,4.8164615 0 0 1 0.004,-0.04831 4.1791882,4.8164615 0 0 1 0.0044,-0.04818 4.1791882,4.8164615 0 0 1 0.0048,-0.04819 4.1791882,4.8164615 0 0 1 0.0053,-0.04818 4.1791882,4.8164615 0 0 1 0.0057,-0.04806 4.1791882,4.8164615 0 0 1 0.0062,-0.04806 4.1791882,4.8164615 0 0 1 0.0066,-0.04793 4.1791882,4.8164615 0 0 1 0.007,-0.04793 4.1791882,4.8164615 0 0 1 0.0073,-0.04768 4.1791882,4.8164615 0 0 1 0.0078,-0.04781 4.1791882,4.8164615 0 0 1 0.0082,-0.04755 4.1791882,4.8164615 0 0 1 0.0086,-0.04755 4.1791882,4.8164615 0 0 1 0.0091,-0.0473 4.1791882,4.8164615 0 0 1 0.0094,-0.0473 4.1791882,4.8164615 0 0 1 0.01,-0.04717 4.1791882,4.8164615 0 0 1 0.01024,-0.04705 4.1791882,4.8164615 0 0 1 0.01075,-0.04705 4.1791882,4.8164615 0 0 1 0.011,-0.04679 4.1791882,4.8164615 0 0 1 0.01163,-0.04667 4.1791882,4.8164615 0 0 1 0.01189,-0.04654 4.1791882,4.8164615 0 0 1 0.01227,-0.04641 4.1791882,4.8164615 0 0 1 0.01277,-0.04629 4.1791882,4.8164615 0 0 1 0.01315,-0.04603 4.1791882,4.8164615 0 0 1 0.01353,-0.04603 4.1791882,4.8164615 0 0 1 0.01404,-0.04578 4.1791882,4.8164615 0 0 1 0.01429,-0.04565 4.1791882,4.8164615 0 0 1 0.0148,-0.0454 4.1791882,4.8164615 0 0 1 0.01505,-0.04528 4.1791882,4.8164615 0 0 1 0.01556,-0.04515 4.1791882,4.8164615 0 0 1 0.01593,-0.0449 4.1791882,4.8164615 0 0 1 0.01631,-0.04477 4.1791882,4.8164615 0 0 1 0.0167,-0.04452 4.1791882,4.8164615 0 0 1 0.0172,-0.04439 4.1791882,4.8164615 0 0 1 0.01745,-0.04414 4.1791882,4.8164615 0 0 1 0.01783,-0.04388 4.1791882,4.8164615 0 0 1 0.01834,-0.04376 4.1791882,4.8164615 0 0 1 0.01859,-0.0435 4.1791882,4.8164615 0 0 1 0.01897,-0.043378 4.1791882,4.8164615 0 0 1 0.01948,-0.043 4.1791882,4.8164615 0 0 1 0.01973,-0.042872 4.1791882,4.8164615 0 0 1 0.02011,-0.042619 4.1791882,4.8164615 0 0 1 0.02061,-0.042367 4.1791882,4.8164615 0 0 1 0.02087,-0.04224 4.1791882,4.8164615 0 0 1 0.02125,-0.041861 4.1791882,4.8164615 0 0 1 0.02163,-0.041608 4.1791882,4.8164615 0 0 1 0.02201,-0.041482 4.1791882,4.8164615 0 0 1 0.02226,-0.041102 4.1791882,4.8164615 0 0 1 0.02276,-0.040849 4.1791882,4.8164615 0 0 1 0.02302,-0.040596 4.1791882,4.8164615 0 0 1 0.0234,-0.040343 4.1791882,4.8164615 0 0 1 0.02378,-0.04009 4.1791882,4.8164615 0 0 1 0.02415,-0.039838 4.1791882,4.8164615 0 0 1 0.02441,-0.039458 4.1791882,4.8164615 0 0 1 0.02479,-0.039205 4.1791882,4.8164615 0 0 1 0.02517,-0.038952 4.1791882,4.8164615 0 0 1 0.02555,-0.038699 4.1791882,4.8164615 0 0 1 0.0258,-0.03832 4.1791882,4.8164615 0 0 1 0.02618,-0.038067 4.1791882,4.8164615 0 0 1 0.02643,-0.037687 4.1791882,4.8164615 0 0 1 0.02681,-0.037434 4.1791882,4.8164615 0 0 1 0.02719,-0.037055 4.1791882,4.8164615 0 0 1 0.02744,-0.036802 4.1791882,4.8164615 0 0 1 0.02782,-0.036549 4.1791882,4.8164615 0 0 1 0.02808,-0.036043 4.1791882,4.8164615 0 0 1 0.02833,-0.035917 4.1791882,4.8164615 0 0 1 0.02884,-0.035411 4.1791882,4.8164615 0 0 1 0.02896,-0.035158 4.1791882,4.8164615 0 0 1 0.02934,-0.034906 4.1791882,4.8164615 0 0 1 0.02972,-0.034399 4.1791882,4.8164615 0 0 1 0.02985,-0.034146 4.1791882,4.8164615 0 0 1 0.03022,-0.033767 4.1791882,4.8164615 0 0 1 0.03061,-0.033388 4.1791882,4.8164615 0 0 1 0.03086,-0.033135 4.1791882,4.8164615 0 0 1 0.03111,-0.032628 4.1791882,4.8164615 0 0 1 0.03136,-0.032376 4.1791882,4.8164615 0 0 1 0.03162,-0.031996 4.1791882,4.8164615 0 0 1 0.032,-0.031618 4.1791882,4.8164615 0 0 1 0.03225,-0.031237 4.1791882,4.8164615 0 0 1 0.0325,-0.030858 4.1791882,4.8164615 0 0 1 0.03275,-0.030478 4.1791882,4.8164615 0 0 1 0.03301,-0.0301 4.1791882,4.8164615 0 0 1 0.03339,-0.02972 4.1791882,4.8164615 0 0 1 0.03351,-0.029341 4.1791882,4.8164615 0 0 1 0.03377,-0.028834 4.1791882,4.8164615 0 0 1 0.03415,-0.028582 4.1791882,4.8164615 0 0 1 0.03427,-0.028202 4.1791882,4.8164615 0 0 1 0.03453,-0.027697 4.1791882,4.8164615 0 0 1 0.03478,-0.027317 4.1791882,4.8164615 0 0 1 0.03503,-0.026938 4.1791882,4.8164615 0 0 1 0.03528,-0.026558 4.1791882,4.8164615 0 0 1 0.03554,-0.026053 4.1791882,4.8164615 0 0 1 0.03566,-0.025799 4.1791882,4.8164615 0 0 1 0.03604,-0.025294 4.1791882,4.8164615 0 0 1 0.03617,-0.024787 4.1791882,4.8164615 0 0 1 0.0363,-0.024535 4.1791882,4.8164615 0 0 1 0.03668,-0.023903 4.1791882,4.8164615 0 0 1 0.0368,-0.023648 4.1791882,4.8164615 0 0 1 0.03693,-0.023144 4.1791882,4.8164615 0 0 1 0.03718,-0.022765 4.1791882,4.8164615 0 0 1 0.03743,-0.022258 4.1791882,4.8164615 0 0 1 0.03756,-0.021879 4.1791882,4.8164615 0 0 1 0.03781,-0.0215 4.1791882,4.8164615 0 0 1 0.03794,-0.020993 4.1791882,4.8164615 0 0 1 0.03819,-0.020486 4.1791882,4.8164615 0 0 1 0.03832,-0.020109 4.1791882,4.8164615 0 0 1 0.03857,-0.01973 4.1791882,4.8164615 0 0 1 0.03857,-0.019096 4.1791882,4.8164615 0 0 1 0.03895,-0.018844 4.1791882,4.8164615 0 0 1 0.03895,-0.018338 4.1791882,4.8164615 0 0 1 0.0392,-0.017831 4.1791882,4.8164615 0 0 1 0.03921,-0.017327 4.1791882,4.8164615 0 0 1 0.03958,-0.016947 4.1791882,4.8164615 0 0 1 0.03958,-0.016568 4.1791882,4.8164615 0 0 1 0.03971,-0.015934 4.1791882,4.8164615 0 0 1 0.03984,-0.015555 4.1791882,4.8164615 0 0 1 0.04009,-0.015176 4.1791882,4.8164615 0 0 1 0.04009,-0.014544 4.1791882,4.8164615 0 0 1 0.04034,-0.014165 4.1791882,4.8164615 0 0 1 0.04034,-0.013658 4.1791882,4.8164615 0 0 1 0.04059,-0.013279 4.1791882,4.8164615 0 0 1 0.0406,-0.012772 4.1791882,4.8164615 0 0 1 0.04072,-0.012268 4.1791882,4.8164615 0 0 1 0.04085,-0.011762 4.1791882,4.8164615 0 0 1 0.04098,-0.011382 4.1791882,4.8164615 0 0 1 0.0411,-0.010876 4.1791882,4.8164615 0 0 1 0.0411,-0.010369 4.1791882,4.8164615 0 0 1 0.04123,-0.00987 4.1791882,4.8164615 0 0 1 0.04135,-0.00949 4.1791882,4.8164615 0 0 1 0.04135,-0.00885 4.1791882,4.8164615 0 0 1 0.04148,-0.00847 4.1791882,4.8164615 0 0 1 0.04148,-0.00797 4.1791882,4.8164615 0 0 1 0.04161,-0.00746 4.1791882,4.8164615 0 0 1 0.04174,-0.00708 4.1791882,4.8164615 0 0 1 0.04173,-0.00645 4.1791882,4.8164615 0 0 1 0.04173,-0.00607 4.1791882,4.8164615 0 0 1 0.04186,-0.00557 4.1791882,4.8164615 0 0 1 0.04186,-0.00506 4.1791882,4.8164615 0 0 1 0.04199,-0.00455 4.1791882,4.8164615 0 0 1 0.04186,-0.00417 4.1791882,4.8164615 0 0 1 0.04199,-0.00354 4.1791882,4.8164615 0 0 1 0.04211,-0.00316 4.1791882,4.8164615 0 0 1 0.04199,-0.00266 4.1791882,4.8164615 0 0 1 0.04211,-0.00215 4.1791882,4.8164615 0 0 1 0.04211,-0.00164 4.1791882,4.8164615 0 0 1 0.04211,-0.00115 4.1791882,4.8164615 0 0 1 0.04211,-6.363e-4 4.1791882,4.8164615 0 0 1 0.03705,-2.447e-4 4.1791882,4.8164615 0 0 1 0.04211,2.447e-4 4.1791882,4.8164615 0 0 1 0.04211,7.587e-4 4.1791882,4.8164615 0 0 1 0.04211,0.00127 4.1791882,4.8164615 0 0 1 0.04211,0.00164 4.1791882,4.8164615 0 0 1 0.04211,0.00215 4.1791882,4.8164615 0 0 1 0.04199,0.00278 4.1791882,4.8164615 0 0 1 0.04199,0.00316 4.1791882,4.8164615 0 0 1 0.04199,0.00367 4.1791882,4.8164615 0 0 1 0.04199,0.00417 4.1791882,4.8164615 0 0 1 0.04199,0.00455 4.1791882,4.8164615 0 0 1 0.04186,0.00519 4.1791882,4.8164615 0 0 1 0.04186,0.00556 4.1791882,4.8164615 0 0 1 0.04173,0.00607 4.1791882,4.8164615 0 0 1 0.04173,0.00658 4.1791882,4.8164615 0 0 1 0.04161,0.00708 4.1791882,4.8164615 0 0 1 0.04161,0.00759 4.1791882,4.8164615 0 0 1 0.04161,0.00809 4.1791882,4.8164615 0 0 1 0.04135,0.00847 4.1791882,4.8164615 0 0 1 0.04148,0.00898 4.1791882,4.8164615 0 0 1 0.04123,0.00949 4.1791882,4.8164615 0 0 1 0.04123,0.00999 4.1791882,4.8164615 0 0 1 0.0411,0.010372 4.1791882,4.8164615 0 0 1 0.0411,0.010876 4.1791882,4.8164615 0 0 1 0.04097,0.011382 4.1791882,4.8164615 0 0 1 0.04072,0.011887 4.1791882,4.8164615 0 0 1 0.04085,0.012393 4.1791882,4.8164615 0 0 1 0.0406,0.012773 4.1791882,4.8164615 0 0 1 0.04047,0.013279 4.1791882,4.8164615 0 0 1 0.04034,0.013786 4.1791882,4.8164615 0 0 1 0.04034,0.014165 4.1791882,4.8164615 0 0 1 0.04009,0.014669 4.1791882,4.8164615 0 0 1 0.03996,0.015176 4.1791882,4.8164615 0 0 1 0.03996,0.015555 4.1791882,4.8164615 0 0 1 0.03971,0.016189 4.1791882,4.8164615 0 0 1 0.03958,0.016441 4.1791882,4.8164615 0 0 1 0.03946,0.017072 4.1791882,4.8164615 0 0 1 0.03933,0.017452 4.1791882,4.8164615 0 0 1 0.03908,0.017831 4.1791882,4.8164615 0 0 1 0.03895,0.018338 4.1791882,4.8164615 0 0 1 0.03882,0.018844 4.1791882,4.8164615 0 0 1 0.0387,0.019348 4.1791882,4.8164615 0 0 1 0.03845,0.019603 4.1791882,4.8164615 0 0 1 0.03832,0.020234 4.1791882,4.8164615 0 0 1 0.03819,0.020614 4.1791882,4.8164615 0 0 1 0.03794,0.020993 4.1791882,4.8164615 0 0 1 0.03769,0.0215 4.1791882,4.8164615 0 0 1 0.03769,0.021879 4.1791882,4.8164615 0 0 1 0.03731,0.022385 4.1791882,4.8164615 0 0 1 0.03718,0.022765 4.1791882,4.8164615 0 0 1 0.03705,0.023271 4.1791882,4.8164615 0 0 1 0.03668,0.023648 4.1791882,4.8164615 0 0 1 0.03655,0.024028 4.1791882,4.8164615 0 0 1 0.03642,0.024535 4.1791882,4.8164615 0 0 1 0.03617,0.024914 4.1791882,4.8164615 0 0 1 0.03592,0.025293 4.1791882,4.8164615 0 0 1 0.03566,0.025799 4.1791882,4.8164615 0 0 1 0.03541,0.026178 4.1791882,4.8164615 0 0 1 0.03528,0.026558 4.1791882,4.8164615 0 0 1 0.03503,0.026938 4.1791882,4.8164615 0 0 1 0.03478,0.027443 4.1791882,4.8164615 0 0 1 0.03452,0.027697 4.1791882,4.8164615 0 0 1 0.03427,0.028202 4.1791882,4.8164615 0 0 1 0.03402,0.028581 4.1791882,4.8164615 0 0 1 0.03377,0.028961 4.1791882,4.8164615 0 0 1 0.03351,0.029467 4.1791882,4.8164615 0 0 1 0.03326,0.029719 4.1791882,4.8164615 0 0 1 0.03301,0.030099 4.1791882,4.8164615 0 0 1 0.03276,0.030605 4.1791882,4.8164615 0 0 1 0.0325,0.030858 4.1791882,4.8164615 0 0 1 0.03212,0.031237 4.1791882,4.8164615 0 0 1 0.032,0.031744 4.1791882,4.8164615 0 0 1 0.03162,0.031996 4.1791882,4.8164615 0 0 1 0.03136,0.032376 4.1791882,4.8164615 0 0 1 0.03111,0.032755 4.1791882,4.8164615 0 0 1 0.03073,0.033135 4.1791882,4.8164615 0 0 1 0.03061,0.033387 4.1791882,4.8164615 0 0 1 0.0301,0.033893 4.1791882,4.8164615 0 0 1 0.02997,0.034146 4.1791882,4.8164615 0 0 1 0.02959,0.034526 4.1791882,4.8164615 0 0 1 0.02934,0.034779 4.1791882,4.8164615 0 0 1 0.02896,0.035284 4.1791882,4.8164615 0 0 1 0.02871,0.035411 4.1791882,4.8164615 0 0 1 0.02833,0.035917 4.1791882,4.8164615 0 0 1 0.02808,0.03617 4.1791882,4.8164615 0 0 1 0.02782,0.036549 4.1791882,4.8164615 0 0 1 0.02744,0.036802 4.1791882,4.8164615 0 0 1 0.02706,0.037182 4.1791882,4.8164615 0 0 1 0.02681,0.037434 4.1791882,4.8164615 0 0 1 0.02643,0.037814 4.1791882,4.8164615 0 0 1 0.02605,0.038066 4.1791882,4.8164615 0 0 1 0.0258,0.038319 4.1791882,4.8164615 0 0 1 0.02542,0.038699 4.1791882,4.8164615 0 0 1 0.02517,0.038952 4.1791882,4.8164615 0 0 1 0.02479,0.039205 4.1791882,4.8164615 0 0 1 0.02441,0.039585 4.1791882,4.8164615 0 0 1 0.02403,0.039837 4.1791882,4.8164615 0 0 1 0.02378,0.04009 4.1791882,4.8164615 0 0 1 0.02327,0.040343 4.1791882,4.8164615 0 0 1 0.02302,0.040723 4.1791882,4.8164615 0 0 1 0.02276,0.040849 4.1791882,4.8164615 0 0 1 0.02226,0.041228 4.1791882,4.8164615 0 0 1 0.02188,0.041355 4.1791882,4.8164615 0 0 1 0.02163,0.041734 4.1791882,4.8164615 0 0 1 0.02125,0.041861 4.1791882,4.8164615 0 0 1 0.02087,0.042241 4.1791882,4.8164615 0 0 1 0.02036,0.042366 4.1791882,4.8164615 0 0 1 0.02011,0.04262 4.1791882,4.8164615 0 0 1 0.01657,0.036169 19.129311,17.944495 0 0 1 0.185149,-0.075375 5.0478299,6.2797955 0 0 0 -4.366298,-3.128558 5.0478299,6.2797955 0 0 0 -0.01,0 z"
       inkscape:export-xdpi="96"
       inkscape:export-ydpi="96" />
    <path
       id="path861-6-7-6-9"
       style="display:inline;opacity:1;mix-blend-mode:normal;fill:#f5b32c;fill-opacity:0.932561;fill-rule:evenodd;stroke:#000000;stroke-width:0.518012;stroke-miterlimit:4;stroke-dasharray:none;stroke-opacity:1"
       d="m 30.374159,9.1563829 a 19.129313,17.944497 0 0 0 -19.115844,17.9444841 19.129313,17.944497 0 0 0 0.826974,5.21869 c -0.559105,1.244134 -1.098835,2.459132 -1.625237,3.607875 -0.9878152,2.211047 -1.5010066,4.636093 -1.5010457,7.093066 4.9e-6,8.983475 2.6540467,15.355773 10.8318327,16.667305 0.67,0.107451 5.659554,0.582384 5.659554,0.582384 6.071187,0.256587 4.366814,0.219261 6.715433,0.219295 1.702462,-1.2e-5 7.492919,-0.08182 8.660386,-0.357526 5.513574,-1.313319 13.869043,-10.245797 14.079396,-19.038192 -1e-5,-2.492557 -0.385225,-4.960855 -1.133783,-7.264813 -1.49808,-4.744437 -3.152136,-8.760933 -5.102592,-12.010746 -1.9e-5,-3.2e-5 1.7e-5,-6.6e-5 0,-1.3e-4 A 19.129313,17.944497 0 0 0 30.387567,9.1563795 a 19.129313,17.944497 0 0 0 -0.01341,0 z"
       inkscape:export-xdpi="96"
       inkscape:export-ydpi="96" />
    <path
       id="path1123"
       style="display:inline;opacity:0.92;mix-blend-mode:normal;fill:#ffffff;fill-opacity:0.988235;fill-rule:evenodd;stroke:none;stroke-width:0.523766;stroke-miterlimit:4;stroke-dasharray:none;stroke-opacity:1"
       d="m 20.265578,12.12847 a 7.1350779,8.5769285 53.268459 0 0 -0.0032,0.02925 7.1350779,8.5769285 53.268459 0 0 -0.006,0.05862 7.1350779,8.5769285 53.268459 0 0 -0.0056,0.05861 7.1350779,8.5769285 53.268459 0 0 -0.0051,0.05861 7.1350779,8.5769285 53.268459 0 0 -0.0046,0.0586 7.1350779,8.5769285 53.268459 0 0 -0.0042,0.05847 7.1350779,8.5769285 53.268459 0 0 -0.0036,0.05847 7.1350779,8.5769285 53.268459 0 0 -0.0031,0.05846 7.1350779,8.5769285 53.268459 0 0 -0.0028,0.05833 7.1350779,8.5769285 53.268459 0 0 -0.0023,0.05833 7.1350779,8.5769285 53.268459 0 0 -0.0018,0.0582 7.1350779,8.5769285 53.268459 0 0 -0.0013,0.05819 7.1350779,8.5769285 53.268459 0 0 -8.32e-4,0.05806 7.1350779,8.5769285 53.268459 0 0 -3.43e-4,0.05793 7.1350779,8.5769285 53.268459 0 0 9e-5,0.05805 7.1350779,8.5769285 53.268459 0 0 6.36e-4,0.05779 7.1350779,8.5769285 53.268459 0 0 0.0011,0.05779 7.1350779,8.5769285 53.268459 0 0 0.0016,0.05766 7.1350779,8.5769285 53.268459 0 0 0.0021,0.05765 7.1350779,8.5769285 53.268459 0 0 0.0026,0.05739 7.1350779,8.5769285 53.268459 0 0 0.0031,0.05739 7.1350779,8.5769285 53.268459 0 0 0.0034,0.05738 7.1350779,8.5769285 53.268459 0 0 0.004,0.05713 7.1350779,8.5769285 53.268459 0 0 0.0043,0.05712 7.1350779,8.5769285 53.268459 0 0 0.0048,0.05699 7.1350779,8.5769285 53.268459 0 0 0.0054,0.05686 7.1350779,8.5769285 53.268459 0 0 0.0058,0.05673 7.1350779,8.5769285 53.268459 0 0 0.0064,0.0566 7.1350779,8.5769285 53.268459 0 0 0.0067,0.05647 7.1350779,8.5769285 53.268459 0 0 0.0073,0.05633 7.1350779,8.5769285 53.268459 0 0 0.0077,0.0562 7.1350779,8.5769285 53.268459 0 0 0.0082,0.0562 7.1350779,8.5769285 53.268459 0 0 0.0086,0.05594 7.1350779,8.5769285 53.268459 0 0 0.0091,0.05581 7.1350779,8.5769285 53.268459 0 0 0.0096,0.05568 7.1350779,8.5769285 53.268459 0 0 0.01,0.05542 7.1350779,8.5769285 53.268459 0 0 0.01053,0.05541 7.1350779,8.5769285 53.268459 0 0 0.01104,0.05516 7.1350779,8.5769285 53.268459 0 0 0.01143,0.05515 7.1350779,8.5769285 53.268459 0 0 0.01192,0.0549 7.1350779,8.5769285 53.268459 0 0 0.01246,0.05464 7.1350779,8.5769285 53.268459 0 0 0.01285,0.05463 7.1350779,8.5769285 53.268459 0 0 0.01337,0.05437 7.1350779,8.5769285 53.268459 0 0 0.01376,0.05424 7.1350779,8.5769285 53.268459 0 0 0.01427,0.05399 7.1350779,8.5769285 53.268459 0 0 0.01467,0.05385 7.1350779,8.5769285 53.268459 0 0 0.01518,0.05372 7.1350779,8.5769285 53.268459 0 0 0.01569,0.05346 7.1350779,8.5769285 53.268459 0 0 0.01608,0.05334 7.1350779,8.5769285 53.268459 0 0 0.01657,0.05308 7.1350779,8.5769285 53.268459 0 0 0.01697,0.05295 7.1350779,8.5769285 53.268459 0 0 0.01748,0.05269 7.1350779,8.5769285 53.268459 0 0 0.01799,0.05256 7.1350779,8.5769285 53.268459 0 0 0.01826,0.0523 7.1350779,8.5769285 53.268459 0 0 0.0189,0.05204 7.1350779,8.5769285 53.268459 0 0 0.01929,0.05191 7.1350779,8.5769285 53.268459 0 0 0.01966,0.05165 7.1350779,8.5769285 53.268459 0 0 0.02017,0.0514 7.1350779,8.5769285 53.268459 0 0 0.02071,0.05126 7.1350779,8.5769285 53.268459 0 0 0.02108,0.05101 7.1350779,8.5769285 53.268459 0 0 0.02147,0.05075 7.1350779,8.5769285 53.268459 0 0 0.02199,0.05062 7.1350779,8.5769285 53.268459 0 0 0.02238,0.05024 7.1350779,8.5769285 53.268459 0 0 0.02289,0.05011 7.1350779,8.5769285 53.268459 0 0 0.02329,0.04985 7.1350779,8.5769285 53.268459 0 0 0.0238,0.04959 7.1350779,8.5769285 53.268459 0 0 0.02417,0.04946 7.1350779,8.5769285 53.268459 0 0 0.02455,0.04908 7.1350779,8.5769285 53.268459 0 0 0.02506,0.04882 7.1350779,8.5769285 53.268459 0 0 0.02546,0.04869 7.1350779,8.5769285 53.268459 0 0 0.02597,0.0483 7.1350779,8.5769285 53.268459 0 0 0.02623,0.04805 7.1350779,8.5769285 53.268459 0 0 0.02687,0.04791 7.1350779,8.5769285 53.268459 0 0 0.02713,0.04753 7.1350779,8.5769285 53.268459 0 0 0.02764,0.04727 7.1350779,8.5769285 53.268459 0 0 0.02802,0.04714 7.1350779,8.5769285 53.268459 0 0 0.02854,0.04676 7.1350779,8.5769285 53.268459 0 0 0.0288,0.04638 7.1350779,8.5769285 53.268459 0 0 0.02931,0.04625 7.1350779,8.5769285 53.268459 0 0 0.02983,0.04599 7.1350779,8.5769285 53.268459 0 0 0.03008,0.0456 7.1350779,8.5769285 53.268459 0 0 0.03059,0.04535 7.1350779,8.5769285 53.268459 0 0 0.03098,0.04509 7.1350779,8.5769285 53.268459 0 0 0.03136,0.04471 7.1350779,8.5769285 53.268459 0 0 0.03175,0.04458 7.1350779,8.5769285 53.268459 0 0 0.03226,0.04419 7.1350779,8.5769285 53.268459 0 0 0.03252,0.04381 7.1350779,8.5769285 53.268459 0 0 0.03303,0.04368 7.1350779,8.5769285 53.268459 0 0 0.03341,0.04317 7.1350779,8.5769285 53.268459 0 0 0.0338,0.04304 7.1350779,8.5769285 53.268459 0 0 0.03419,0.04265 7.1350779,8.5769285 53.268459 0 0 0.03457,0.0424 7.1350779,8.5769285 53.268459 0 0 0.03509,0.04201 7.1350779,8.5769285 53.268459 0 0 0.03534,0.04176 7.1350779,8.5769285 53.268459 0 0 0.03572,0.04137 7.1350779,8.5769285 53.268459 0 0 0.03624,0.04112 7.1350779,8.5769285 53.268459 0 0 0.03649,0.04073 7.1350779,8.5769285 53.268459 0 0 0.03688,0.04035 7.1350779,8.5769285 53.268459 0 0 0.03739,0.04009 7.1350779,8.5769285 53.268459 0 0 0.03765,0.03984 7.1350779,8.5769285 53.268459 0 0 0.03804,0.03945 7.1350779,8.5769285 53.268459 0 0 0.03841,0.03907 7.1350779,8.5769285 53.268459 0 0 0.0388,0.03881 7.1350779,8.5769285 53.268459 0 0 0.03918,0.03843 7.1350779,8.5769285 53.268459 0 0 0.03957,0.03805 7.1350779,8.5769285 53.268459 0 0 0.03995,0.03766 7.1350779,8.5769285 53.268459 0 0 0.04021,0.03741 7.1350779,8.5769285 53.268459 0 0 0.04059,0.03702 7.1350779,8.5769285 53.268459 0 0 0.04098,0.03677 7.1350779,8.5769285 53.268459 0 0 0.04136,0.03626 7.1350779,8.5769285 53.268459 0 0 0.04175,0.036 7.1350779,8.5769285 53.268459 0 0 0.042,0.03562 7.1350779,8.5769285 53.268459 0 0 0.04238,0.03524 7.1350779,8.5769285 53.268459 0 0 0.04277,0.03498 7.1350779,8.5769285 53.268459 0 0 0.04302,0.03447 7.1350779,8.5769285 53.268459 0 0 0.04354,0.03421 7.1350779,8.5769285 53.268459 0 0 0.04366,0.0337 7.1350779,8.5769285 53.268459 0 0 0.04418,0.03345 7.1350779,8.5769285 53.268459 0 0 0.04443,0.03306 7.1350779,8.5769285 53.268459 0 0 0.04469,0.03268 7.1350779,8.5769285 53.268459 0 0 0.04507,0.0323 7.1350779,8.5769285 53.268459 0 0 0.04545,0.03192 7.1350779,8.5769285 53.268459 0 0 0.04571,0.03153 7.1350779,8.5769285 53.268459 0 0 0.04609,0.03115 7.1350779,8.5769285 53.268459 0 0 0.04635,0.03077 7.1350779,8.5769285 53.268459 0 0 0.0466,0.03051 7.1350779,8.5769285 53.268459 0 0 0.04699,0.03 7.1350779,8.5769285 53.268459 0 0 0.04737,0.02962 7.1350779,8.5769285 53.268459 0 0 0.04762,0.02911 7.1350779,8.5769285 53.268459 0 0 0.04788,0.02885 7.1350779,8.5769285 53.268459 0 0 0.04826,0.02847 7.1350779,8.5769285 53.268459 0 0 0.04839,0.02809 7.1350779,8.5769285 53.268459 0 0 0.0489,0.02758 7.1350779,8.5769285 53.268459 0 0 0.04902,0.02733 7.1350779,8.5769285 53.268459 0 0 0.04941,0.02682 7.1350779,8.5769285 53.268459 0 0 0.04966,0.02643 7.1350779,8.5769285 53.268459 0 0 0.04992,0.02605 7.1350779,8.5769285 53.268459 0 0 0.0503,0.02567 7.1350779,8.5769285 53.268459 0 0 0.05043,0.02516 7.1350779,8.5769285 53.268459 0 0 0.05081,0.02491 7.1350779,8.5769285 53.268459 0 0 0.05106,0.02439 7.1350779,8.5769285 53.268459 0 0 0.05132,0.02401 7.1350779,8.5769285 53.268459 0 0 0.05157,0.02351 7.1350779,8.5769285 53.268459 0 0 0.05183,0.02325 7.1350779,8.5769285 53.268459 0 0 0.05209,0.02274 7.1350779,8.5769285 53.268459 0 0 0.05234,0.02236 7.1350779,8.5769285 53.268459 0 0 0.05259,0.02186 7.1350779,8.5769285 53.268459 0 0 0.05297,0.02159 7.1350779,8.5769285 53.268459 0 0 0.0531,0.02109 7.1350779,8.5769285 53.268459 0 0 0.05335,0.02058 7.1350779,8.5769285 53.268459 0 0 0.05362,0.02032 7.1350779,8.5769285 53.268459 0 0 0.05373,0.01982 7.1350779,8.5769285 53.268459 0 0 0.05412,0.01931 7.1350779,8.5769285 53.268459 0 0 0.05424,0.01905 7.1350779,8.5769285 53.268459 0 0 0.0545,0.01854 7.1350779,8.5769285 53.268459 0 0 0.05475,0.01804 7.1350779,8.5769285 53.268459 0 0 0.05501,0.01765 7.1350779,8.5769285 53.268459 0 0 2.42e-4,1.24e-4 7.1350779,8.5769285 53.268459 0 0 0.05513,0.01727 7.1350779,8.5769285 53.268459 0 0 0.05538,0.01676 7.1350779,8.5769285 53.268459 0 0 0.05564,0.01638 7.1350779,8.5769285 53.268459 0 0 0.05589,0.016 7.1350779,8.5769285 53.268459 0 0 0.05602,0.01549 7.1350779,8.5769285 53.268459 0 0 0.05614,0.01511 7.1350779,8.5769285 53.268459 0 0 0.05652,0.0146 7.1350779,8.5769285 53.268459 0 0 0.05652,0.01422 7.1350779,8.5769285 53.268459 0 0 0.05691,0.01371 7.1350779,8.5769285 53.268459 0 0 0.0569,0.01334 7.1350779,8.5769285 53.268459 0 0 0.05728,0.01295 7.1350779,8.5769285 53.268459 0 0 0.05728,0.01244 7.1350779,8.5769285 53.268459 0 0 0.05766,0.01194 7.1350779,8.5769285 53.268459 0 0 0.05765,0.01168 7.1350779,8.5769285 53.268459 0 0 0.05792,0.01104 7.1350779,8.5769285 53.268459 0 0 0.05803,0.01067 7.1350779,8.5769285 53.268459 0 0 0.05829,0.01029 7.1350779,8.5769285 53.268459 0 0 0.05828,0.0098 7.1350779,8.5769285 53.268459 0 0 0.05854,0.0094 7.1350779,8.5769285 53.268459 0 0 0.05879,0.0089 7.1350779,8.5769285 53.268459 0 0 0.05879,0.0084 7.1350779,8.5769285 53.268459 0 0 0.05905,0.008 7.1350779,8.5769285 53.268459 0 0 0.05916,0.0076 7.1350779,8.5769285 53.268459 0 0 0.0593,0.0071 7.1350779,8.5769285 53.268459 0 0 0.05941,0.0066 7.1350779,8.5769285 53.268459 0 0 0.05954,0.0062 7.1350779,8.5769285 53.268459 0 0 0.05966,0.0058 7.1350779,8.5769285 53.268459 0 0 0.05979,0.0053 7.1350779,8.5769285 53.268459 0 0 0.05992,0.0048 7.1350779,8.5769285 53.268459 0 0 0.06004,0.0044 7.1350779,8.5769285 53.268459 0 0 0.06016,0.0039 7.1350779,8.5769285 53.268459 0 0 0.06029,0.0035 7.1350779,8.5769285 53.268459 0 0 0.06042,0.0031 7.1350779,8.5769285 53.268459 0 0 0.06053,0.0025 7.1350779,8.5769285 53.268459 0 0 0.06054,0.0022 7.1350779,8.5769285 53.268459 0 0 0.06079,0.0018 7.1350779,8.5769285 53.268459 0 0 0.06078,0.0013 7.1350779,8.5769285 53.268459 0 0 0.06078,7.83e-4 7.1350779,8.5769285 53.268459 0 0 0.06103,3.92e-4 7.1350779,8.5769285 53.268459 0 0 0.06102,-1.04e-4 7.1350779,8.5769285 53.268459 0 0 0.06116,-5.14e-4 7.1350779,8.5769285 53.268459 0 0 0.06127,-10e-4 7.1350779,8.5769285 53.268459 0 0 0.06127,-0.0014 7.1350779,8.5769285 53.268459 0 0 0.06127,-0.0019 7.1350779,8.5769285 53.268459 0 0 0.06152,-0.0024 7.1350779,8.5769285 53.268459 0 0 0.06139,-0.0028 7.1350779,8.5769285 53.268459 0 0 0.06164,-0.0033 7.1350779,8.5769285 53.268459 0 0 0.0615,-0.0037 7.1350779,8.5769285 53.268459 0 0 0.06163,-0.0042 7.1350779,8.5769285 53.268459 0 0 0.06177,-0.0045 7.1350779,8.5769285 53.268459 0 0 0.06175,-0.0051 7.1350779,8.5769285 53.268459 0 0 0.06175,-0.0054 7.1350779,8.5769285 53.268459 0 0 0.06187,-0.0059 7.1350779,8.5769285 53.268459 0 0 0.06187,-0.0064 7.1350779,8.5769285 53.268459 0 0 0.06186,-0.0068 7.1350779,8.5769285 53.268459 0 0 0.06186,-0.0073 7.1350779,8.5769285 53.268459 0 0 0.06198,-0.0077 7.1350779,8.5769285 53.268459 0 0 0.06199,-0.0081 7.1350779,8.5769285 53.268459 0 0 0.06197,-0.0087 7.1350779,8.5769285 53.268459 0 0 0.06197,-0.009 7.1350779,8.5769285 53.268459 0 0 0.06196,-0.0096 7.1350779,8.5769285 53.268459 0 0 0.06196,-0.0099 7.1350779,8.5769285 53.268459 0 0 0.06195,-0.01049 7.1350779,8.5769285 53.268459 0 0 0.06208,-0.01075 7.1350779,8.5769285 53.268459 0 0 0.06195,-0.01138 7.1350779,8.5769285 53.268459 0 0 0.06195,-0.01163 7.1350779,8.5769285 53.268459 0 0 0.06194,-0.01227 7.1350779,8.5769285 53.268459 0 0 0.06193,-0.01252 7.1350779,8.5769285 53.268459 0 0 0.06193,-0.01315 7.1350779,8.5769285 53.268459 0 0 0.06192,-0.0134 7.1350779,8.5769285 53.268459 0 0 0.06192,-0.01404 7.1350779,8.5769285 53.268459 0 0 0.06179,-0.01429 7.1350779,8.5769285 53.268459 0 0 0.06178,-0.01479 7.1350779,8.5769285 53.268459 0 0 0.06178,-0.0153 7.1350779,8.5769285 53.268459 0 0 0.06177,-0.01568 7.1350779,8.5769285 53.268459 0 0 0.06164,-0.01606 7.1350779,8.5769285 53.268459 0 0 0.06163,-0.01656 7.1350779,8.5769285 53.268459 0 0 0.06163,-0.01694 7.1350779,8.5769285 53.268459 0 0 0.0615,-0.01745 7.1350779,8.5769285 53.268459 0 0 0.06136,-0.01782 7.1350779,8.5769285 53.268459 0 0 0.06149,-0.01833 7.1350779,8.5769285 53.268459 0 0 0.06122,-0.01871 7.1350779,8.5769285 53.268459 0 0 0.06135,-0.01909 7.1350779,8.5769285 53.268459 0 0 0.06109,-0.01959 7.1350779,8.5769285 53.268459 0 0 0.06107,-0.01997 7.1350779,8.5769285 53.268459 0 0 0.06108,-0.02035 7.1350779,8.5769285 53.268459 0 0 0.06094,-0.02086 7.1350779,8.5769285 53.268459 0 0 0.06082,-0.02123 7.1350779,8.5769285 53.268459 0 0 0.06067,-0.02161 7.1350779,8.5769285 53.268459 0 0 0.06067,-0.02212 7.1350779,8.5769285 53.268459 0 0 0.06054,-0.0225 7.1350779,8.5769285 53.268459 0 0 0.06041,-0.02287 7.1350779,8.5769285 53.268459 0 0 0.0604,-0.02338 7.1350779,8.5769285 53.268459 0 0 0.06027,-0.02376 7.1350779,8.5769285 53.268459 0 0 0.06,-0.02414 7.1350779,8.5769285 53.268459 0 0 0.06,-0.02451 7.1350779,8.5769285 53.268459 0 0 0.05987,-0.02502 7.1350779,8.5769285 53.268459 0 0 0.05974,-0.0254 7.1350779,8.5769285 53.268459 0 0 0.05973,-0.02577 7.1350779,8.5769285 53.268459 0 0 0.05947,-0.02615 7.1350779,8.5769285 53.268459 0 0 0.05933,-0.02666 7.1350779,8.5769285 53.268459 0 0 0.0592,-0.02703 7.1350779,8.5769285 53.268459 0 0 0.05907,-0.02741 7.1350779,8.5769285 53.268459 0 0 0.05894,-0.02779 7.1350779,8.5769285 53.268459 0 0 0.05879,-0.02817 7.1350779,8.5769285 53.268459 0 0 0.05854,-0.02855 7.1350779,8.5769285 53.268459 0 0 0.05853,-0.02905 7.1350779,8.5769285 53.268459 0 0 0.05827,-0.0293 7.1350779,8.5769285 53.268459 0 0 0.05814,-0.02981 7.1350779,8.5769285 53.268459 0 0 0.058,-0.03006 7.1350779,8.5769285 53.268459 0 0 0.05774,-0.03056 7.1350779,8.5769285 53.268459 0 0 0.05761,-0.03094 7.1350779,8.5769285 53.268459 0 0 0.05748,-0.03132 7.1350779,8.5769285 53.268459 0 0 0.05734,-0.0317 7.1350779,8.5769285 53.268459 0 0 0.05708,-0.03207 7.1350779,8.5769285 53.268459 0 0 0.05682,-0.03245 7.1350779,8.5769285 53.268459 0 0 0.05668,-0.03283 7.1350779,8.5769285 53.268459 0 0 0.05655,-0.03321 7.1350779,8.5769285 53.268459 0 0 0.05642,-0.03358 7.1350779,8.5769285 53.268459 0 0 0.05602,-0.03383 7.1350779,8.5769285 53.268459 0 0 0.05589,-0.03434 7.1350779,8.5769285 53.268459 0 0 0.05576,-0.03471 7.1350779,8.5769285 53.268459 0 0 0.05549,-0.03497 7.1350779,8.5769285 53.268459 0 0 0.05524,-0.03547 7.1350779,8.5769285 53.268459 0 0 0.0551,-0.03572 7.1350779,8.5769285 53.268459 0 0 0.05484,-0.0361 7.1350779,8.5769285 53.268459 0 0 0.0547,-0.03647 7.1350779,8.5769285 53.268459 0 0 0.05432,-0.03672 7.1350779,8.5769285 53.268459 0 0 0.05417,-0.03723 7.1350779,8.5769285 53.268459 0 0 0.05392,-0.03748 7.1350779,8.5769285 53.268459 0 0 0.05379,-0.03786 7.1350779,8.5769285 53.268459 0 0 0.0534,-0.03823 7.1350779,8.5769285 53.268459 0 0 0.05326,-0.03861 7.1350779,8.5769285 53.268459 0 0 0.053,-0.03886 7.1350779,8.5769285 53.268459 0 0 0.05274,-0.03924 7.1350779,8.5769285 53.268459 0 0 0.05248,-0.03949 7.1350779,8.5769285 53.268459 0 0 0.05221,-0.03986 7.1350779,8.5769285 53.268459 0 0 0.05195,-0.04024 7.1350779,8.5769285 53.268459 0 0 0.05168,-0.04062 7.1350779,8.5769285 53.268459 0 0 0.05143,-0.04087 7.1350779,8.5769285 53.268459 0 0 0.05117,-0.04124 7.1350779,8.5769285 53.268459 0 0 0.0509,-0.0415 7.1350779,8.5769285 53.268459 0 0 0.05065,-0.04175 7.1350779,8.5769285 53.268459 0 0 0.05037,-0.04225 7.1350779,8.5769285 53.268459 0 0 0.05012,-0.04237 7.1350779,8.5769285 53.268459 0 0 0.04973,-0.04288 7.1350779,8.5769285 53.268459 0 0 0.04959,-0.043 7.1350779,8.5769285 53.268459 0 0 0.04921,-0.0435 7.1350779,8.5769285 53.268459 0 0 0.04894,-0.04362 7.1350779,8.5769285 53.268459 0 0 0.04868,-0.044 7.1350779,8.5769285 53.268459 0 0 0.04829,-0.04425 7.1350779,8.5769285 53.268459 0 0 0.04803,-0.04463 7.1350779,8.5769285 53.268459 0 0 0.04777,-0.04488 7.1350779,8.5769285 53.268459 0 0 0.04751,-0.04525 7.1350779,8.5769285 53.268459 0 0 0.04711,-0.04538 7.1350779,8.5769285 53.268459 0 0 0.04685,-0.04575 7.1350779,8.5769285 53.268459 0 0 0.04646,-0.04613 7.1350779,8.5769285 53.268459 0 0 0.0462,-0.04625 7.1350779,8.5769285 53.268459 0 0 0.04581,-0.04663 7.1350779,8.5769285 53.268459 0 0 0.04555,-0.04688 7.1350779,8.5769285 53.268459 0 0 0.04529,-0.04713 7.1350779,8.5769285 53.268459 0 0 0.0449,-0.04738 7.1350779,8.5769285 53.268459 0 0 0.04463,-0.04763 7.1350779,8.5769285 53.268459 0 0 0.04425,-0.04788 7.1350779,8.5769285 53.268459 0 0 0.04385,-0.04825 7.1350779,8.5769285 53.268459 0 0 0.04359,-0.0485 7.1350779,8.5769285 53.268459 0 0 0.04321,-0.04863 7.1350779,8.5769285 53.268459 0 0 0.04294,-0.049 7.1350779,8.5769285 53.268459 0 0 0.04255,-0.04912 7.1350779,8.5769285 53.268459 0 0 0.04229,-0.0495 7.1350779,8.5769285 53.268459 0 0 0.04177,-0.04975 7.1350779,8.5769285 53.268459 0 0 0.0415,-0.04987 7.1350779,8.5769285 53.268459 0 0 0.04112,-0.05025 7.1350779,8.5769285 53.268459 0 0 0.04086,-0.05037 7.1350779,8.5769285 53.268459 0 0 0.04047,-0.05062 7.1350779,8.5769285 53.268459 0 0 0.04008,-0.05087 7.1350779,8.5769285 53.268459 0 0 0.03968,-0.05112 7.1350779,8.5769285 53.268459 0 0 0.0393,-0.05124 7.1350779,8.5769285 53.268459 0 0 0.03903,-0.05162 7.1350779,8.5769285 53.268459 0 0 0.03864,-0.05174 7.1350779,8.5769285 53.268459 0 0 0.03813,-0.05186 7.1350779,8.5769285 53.268459 0 0 0.03787,-0.05224 7.1350779,8.5769285 53.268459 0 0 0.03748,-0.05236 7.1350779,8.5769285 53.268459 0 0 0.03721,-0.05261 7.1350779,8.5769285 53.268459 0 0 0.03669,-0.05273 7.1350779,8.5769285 53.268459 0 0 0.03631,-0.05298 7.1350779,8.5769285 53.268459 0 0 0.03591,-0.05323 7.1350779,8.5769285 53.268459 0 0 0.03566,-0.05336 7.1350779,8.5769285 53.268459 0 0 0.03513,-0.0536 7.1350779,8.5769285 53.268459 0 0 0.03474,-0.05373 7.1350779,8.5769285 53.268459 0 0 0.03436,-0.05385 7.1350779,8.5769285 53.268459 0 0 0.0341,-0.0541 7.1350779,8.5769285 53.268459 0 0 0.03357,-0.05435 7.1350779,8.5769285 53.268459 0 0 0.03319,-0.05447 7.1350779,8.5769285 53.268459 0 0 0.0328,-0.05459 7.1350779,8.5769285 53.268459 0 0 0.03228,-0.05484 7.1350779,8.5769285 53.268459 0 0 0.03202,-0.05496 7.1350779,8.5769285 53.268459 0 0 0.03163,-0.05508 7.1350779,8.5769285 53.268459 0 0 0.03111,-0.05521 7.1350779,8.5769285 53.268459 0 0 0.03072,-0.05546 7.1350779,8.5769285 53.268459 0 0 0.03032,-0.05558 7.1350779,8.5769285 53.268459 0 0 0.02994,-0.0557 7.1350779,8.5769285 53.268459 0 0 0.02955,-0.05595 7.1350779,8.5769285 53.268459 0 0 0.02903,-0.05594 7.1350779,8.5769285 53.268459 0 0 0.02877,-0.05619 7.1350779,8.5769285 53.268459 0 1 0,-1.26e-4 7.1350779,8.5769285 53.268459 0 0 0.02825,-0.05632 7.1350779,8.5769285 53.268459 0 0 0.02786,-0.05644 7.1350779,8.5769285 53.268459 0 0 0.02734,-0.05656 7.1350779,8.5769285 53.268459 0 0 0.02696,-0.05668 7.1350779,8.5769285 53.268459 0 0 0.02657,-0.05668 7.1350779,8.5769285 53.268459 0 0 0.02618,-0.05693 7.1350779,8.5769285 53.268459 0 0 0.02566,-0.05705 7.1350779,8.5769285 53.268459 0 0 0.02515,-0.05704 7.1350779,8.5769285 53.268459 0 0 0.02486,-0.05729 7.1350779,8.5769285 53.268459 0 0 0.02437,-0.05729 7.1350779,8.5769285 53.268459 0 0 0.02396,-0.05741 7.1350779,8.5769285 53.268459 0 0 0.02345,-0.05753 7.1350779,8.5769285 53.268459 0 0 0.02308,-0.05765 7.1350779,8.5769285 53.268459 0 0 0.02254,-0.05777 7.1350779,8.5769285 53.268459 0 0 0.02215,-0.05777 7.1350779,8.5769285 53.268459 0 0 0.02178,-0.05789 7.1350779,8.5769285 53.268459 0 0 0.02124,-0.05789 7.1350779,8.5769285 53.268459 0 0 0.02088,-0.05814 7.1350779,8.5769285 53.268459 0 0 0.02036,-0.05813 7.1350779,8.5769285 53.268459 0 0 0.01995,-0.05813 7.1350779,8.5769285 53.268459 0 0 0.01946,-0.05825 7.1350779,8.5769285 53.268459 0 0 0.01902,-0.05837 7.1350779,8.5769285 53.268459 0 0 0.01865,-0.05837 7.1350779,8.5769285 53.268459 0 0 0.01813,-0.05836 7.1350779,8.5769285 53.268459 0 0 0.01762,-0.05848 7.1350779,8.5769285 53.268459 0 0 0.01723,-0.05861 7.1350779,8.5769285 53.268459 0 0 0.01671,-0.05847 7.1350779,8.5769285 53.268459 0 0 0.01632,-0.05872 7.1350779,8.5769285 53.268459 0 0 0.01581,-0.05859 7.1350779,8.5769285 53.268459 0 0 0.01539,-0.05871 7.1350779,8.5769285 53.268459 0 0 0.01488,-0.05871 7.1350779,8.5769285 53.268459 0 0 0.01437,-0.0587 7.1350779,8.5769285 53.268459 0 0 0.01402,-0.05883 7.1350779,8.5769285 53.268459 0 0 0.01358,-0.05882 7.1350779,8.5769285 53.268459 0 0 0.01297,-0.05882 7.1350779,8.5769285 53.268459 0 0 0.01273,-0.05881 7.1350779,8.5769285 53.268459 0 0 0.01209,-0.05893 7.1350779,8.5769285 53.268459 0 0 0.01167,-0.0588 7.1350779,8.5769285 53.268459 0 0 0.01128,-0.0588 7.1350779,8.5769285 53.268459 0 0 0.01065,-0.05892 7.1350779,8.5769285 53.268459 0 0 0.01035,-0.05879 7.1350779,8.5769285 53.268459 0 0 0.0097,-0.05891 7.1350779,8.5769285 53.268459 0 0 0.0093,-0.05891 7.1350779,8.5769285 53.268459 0 0 0.0088,-0.05877 7.1350779,8.5769285 53.268459 0 0 0.0084,-0.05877 7.1350779,8.5769285 53.268459 0 0 0.0079,-0.05889 7.1350779,8.5769285 53.268459 0 0 0.0074,-0.05876 7.1350779,8.5769285 53.268459 0 0 0.007,-0.05876 7.1350779,8.5769285 53.268459 0 0 0.0065,-0.05862 7.1350779,8.5769285 53.268459 0 0 0.006,-0.05875 7.1350779,8.5769285 53.268459 0 0 0.0056,-0.05861 7.1350779,8.5769285 53.268459 0 0 0.0051,-0.05861 7.1350779,8.5769285 53.268459 0 0 0.0046,-0.05861 7.1350779,8.5769285 53.268459 0 0 0.0042,-0.05847 7.1350779,8.5769285 53.268459 0 0 0.0036,-0.05847 7.1350779,8.5769285 53.268459 0 0 0.0034,-0.05846 7.1350779,8.5769285 53.268459 0 0 0.0026,-0.05833 7.1350779,8.5769285 53.268459 0 0 0.0022,-0.0582 7.1350779,8.5769285 53.268459 0 0 0.0022,-0.05832 7.1350779,8.5769285 53.268459 0 0 0.0015,-0.05806 7.1350779,8.5769285 53.268459 0 0 9.79e-4,-0.05819 7.1350779,8.5769285 53.268459 0 0 2.44e-4,-0.053 17.94451,19.556519 89.458251 0 0 -6.059752,-0.8189008 17.94451,19.556519 89.458251 0 0 -0.0137,1.493e-4 17.94451,19.556519 89.458251 0 0 -10.063367,2.6830315 z"
       inkscape:export-xdpi="96"
       inkscape:export-ydpi="96" />
    <path
       id="path861-6-7"
       style="display:inline;opacity:0.92;mix-blend-mode:normal;fill:#ffffff;fill-opacity:1;fill-rule:evenodd;stroke:none;stroke-width:0.518012;stroke-miterlimit:4;stroke-dasharray:none;stroke-opacity:1"
       d="m 31.135663,23.463405 a 9.1154373,8.7286853 0 0 0 -5.668535,1.90789 7.9502955,7.6129781 0 0 0 -4.560552,-1.377105 7.9502955,7.6129781 0 0 0 -7.950265,7.612975 7.9502955,7.6129781 0 0 0 3.34115,6.202986 15.998635,14.904868 0 0 0 -4.057211,9.919115 15.998635,14.904868 0 0 0 5.484778,11.234379 c 0.655977,0.201877 1.355107,0.364028 2.100755,0.483613 0.669999,0.107451 5.659555,0.582384 5.659555,0.582384 6.071187,0.256587 4.366816,0.219261 6.715436,0.219295 0.903501,-7e-6 2.956837,-0.02342 4.861039,-0.08625 a 15.998635,14.904868 0 0 0 7.17565,-12.433418 15.998635,14.904868 0 0 0 -5.262954,-11.050873 9.1154373,8.7286853 0 0 0 1.296168,-4.486316 9.1154373,8.7286853 0 0 0 -9.115539,-8.728672 9.1154373,8.7286853 0 0 0 -0.01948,0 z"
       inkscape:export-xdpi="96"
       inkscape:export-ydpi="96" />
    <ellipse
       style="opacity:0.92;mix-blend-mode:normal;fill:#3c211c;fill-opacity:1;fill-rule:evenodd;stroke:none;stroke-width:0.479162;stroke-linejoin:round;stroke-miterlimit:4;stroke-dasharray:none;stroke-opacity:1"
       id="path1091"
       cx="25.012783"
       cy="26.731285"
       rx="3.1216474"
       ry="2.6050358"
       inkscape:export-xdpi="96"
       inkscape:export-ydpi="96" />
    <ellipse
       style="opacity:0.92;mix-blend-mode:normal;fill:#3c211c;fill-opacity:1;fill-rule:evenodd;stroke:none;stroke-width:0.24473"
       id="path2302"
       cx="18.866243"
       cy="22.677784"
       rx="2.2663012"
       ry="2.5900583"
       inkscape:export-xdpi="96"
       inkscape:export-ydpi="96" />
    <ellipse
       style="opacity:0.92;mix-blend-mode:normal;fill:#3c211c;fill-opacity:1;fill-rule:evenodd;stroke:none;stroke-width:0.255802"
       id="path2302-3"
       cx="32.817024"
       cy="22.494789"
       rx="2.4812851"
       ry="2.584523"
       inkscape:export-xdpi="96"
       inkscape:export-ydpi="96" />
    <circle
       style="opacity:0.92;mix-blend-mode:normal;fill:#ffffff;fill-opacity:1;fill-rule:evenodd;stroke:none;stroke-width:0.24473"
       id="path2339"
       cx="18.393534"
       cy="21.718634"
       r="0.97127193"
       inkscape:export-xdpi="96"
       inkscape:export-ydpi="96" />
    <circle
       style="display:inline;opacity:0.92;mix-blend-mode:normal;fill:#ffffff;fill-opacity:1;fill-rule:evenodd;stroke:none;stroke-width:0.24473"
       id="path2339-6"
       cx="31.932707"
       cy="21.570145"
       r="0.97127193"
       inkscape:export-xdpi="96"
       inkscape:export-ydpi="96" />
    <path
       id="path2335-92"
       style="display:inline;opacity:0.92;mix-blend-mode:normal;fill:#b1671f;fill-opacity:0.992157;fill-rule:evenodd;stroke:#000000;stroke-width:0.518012;stroke-linejoin:round;stroke-miterlimit:4;stroke-dasharray:none"
       d="m 38.603826,9.9792929 a 4.1791882,4.8164615 0 0 1 0.01657,-0.036169 4.1791882,4.8164615 0 0 1 0.02012,-0.04262 4.1791882,4.8164615 0 0 1 0.02036,-0.042366 4.1791882,4.8164615 0 0 1 0.02087,-0.042241 4.1791882,4.8164615 0 0 1 0.02124,-0.041861 4.1791882,4.8164615 0 0 1 0.02163,-0.041734 4.1791882,4.8164615 0 0 1 0.02188,-0.041355 4.1791882,4.8164615 0 0 1 0.02225,-0.041228 4.1791882,4.8164615 0 0 1 0.02276,-0.040849 4.1791882,4.8164615 0 0 1 0.02303,-0.040723 4.1791882,4.8164615 0 0 1 0.02327,-0.040343 4.1791882,4.8164615 0 0 1 0.02376,-0.04009 4.1791882,4.8164615 0 0 1 0.02403,-0.039837 4.1791882,4.8164615 0 0 1 0.0244,-0.039584 4.1791882,4.8164615 0 0 1 0.02478,-0.039205 4.1791882,4.8164615 0 0 1 0.02517,-0.038952 4.1791882,4.8164615 0 0 1 0.02542,-0.038699 4.1791882,4.8164615 0 0 1 0.0258,-0.038319 4.1791882,4.8164615 0 0 1 0.02605,-0.038066 4.1791882,4.8164615 0 0 1 0.02643,-0.037814 4.1791882,4.8164615 0 0 1 0.02681,-0.037434 4.1791882,4.8164615 0 0 1 0.02707,-0.037182 4.1791882,4.8164615 0 0 1 0.02744,-0.036802 4.1791882,4.8164615 0 0 1 0.02782,-0.036549 4.1791882,4.8164615 0 0 1 0.02808,-0.03617 4.1791882,4.8164615 0 0 1 0.02833,-0.035917 4.1791882,4.8164615 0 0 1 0.02871,-0.03541 4.1791882,4.8164615 0 0 1 0.02896,-0.035284 4.1791882,4.8164615 0 0 1 0.02934,-0.034779 4.1791882,4.8164615 0 0 1 0.02959,-0.034526 4.1791882,4.8164615 0 0 1 0.02997,-0.034146 4.1791882,4.8164615 0 0 1 0.0301,-0.033893 4.1791882,4.8164615 0 0 1 0.03061,-0.033387 4.1791882,4.8164615 0 0 1 0.03073,-0.033135 4.1791882,4.8164615 0 0 1 0.03111,-0.032755 4.1791882,4.8164615 0 0 1 0.03136,-0.032376 4.1791882,4.8164615 0 0 1 0.03162,-0.031996 4.1791882,4.8164615 0 0 1 0.032,-0.031744 4.1791882,4.8164615 0 0 1 0.03212,-0.031237 4.1791882,4.8164615 0 0 1 0.0325,-0.030858 4.1791882,4.8164615 0 0 1 0.03275,-0.030605 4.1791882,4.8164615 0 0 1 0.03301,-0.030099 4.1791882,4.8164615 0 0 1 0.03326,-0.02972 4.1791882,4.8164615 0 0 1 0.03351,-0.029467 4.1791882,4.8164615 0 0 1 0.03377,-0.028961 4.1791882,4.8164615 0 0 1 0.03402,-0.028581 4.1791882,4.8164615 0 0 1 0.03427,-0.028202 4.1791882,4.8164615 0 0 1 0.03453,-0.027697 4.1791882,4.8164615 0 0 1 0.03478,-0.027443 4.1791882,4.8164615 0 0 1 0.03503,-0.026938 4.1791882,4.8164615 0 0 1 0.03529,-0.026558 4.1791882,4.8164615 0 0 1 0.03541,-0.026179 4.1791882,4.8164615 0 0 1 0.03566,-0.025799 4.1791882,4.8164615 0 0 1 0.03592,-0.025293 4.1791882,4.8164615 0 0 1 0.03617,-0.024914 4.1791882,4.8164615 0 0 1 0.03642,-0.024535 4.1791882,4.8164615 0 0 1 0.03655,-0.024027 4.1791882,4.8164615 0 0 1 0.03668,-0.023648 4.1791882,4.8164615 0 0 1 0.03706,-0.023271 4.1791882,4.8164615 0 0 1 0.03718,-0.022765 4.1791882,4.8164615 0 0 1 0.03731,-0.022386 4.1791882,4.8164615 0 0 1 0.03769,-0.021879 4.1791882,4.8164615 0 0 1 0.03769,-0.0215 4.1791882,4.8164615 0 0 1 0.03794,-0.020993 4.1791882,4.8164615 0 0 1 0.03819,-0.020614 4.1791882,4.8164615 0 0 1 0.03832,-0.020234 4.1791882,4.8164615 0 0 1 0.03844,-0.019603 4.1791882,4.8164615 0 0 1 0.0387,-0.019348 4.1791882,4.8164615 0 0 1 0.03882,-0.018844 4.1791882,4.8164615 0 0 1 0.03895,-0.018338 4.1791882,4.8164615 0 0 1 0.03908,-0.017831 4.1791882,4.8164615 0 0 1 0.03933,-0.017452 4.1791882,4.8164615 0 0 1 0.03946,-0.017072 4.1791882,4.8164615 0 0 1 0.03959,-0.016441 4.1791882,4.8164615 0 0 1 0.03971,-0.016189 4.1791882,4.8164615 0 0 1 0.03997,-0.015555 4.1791882,4.8164615 0 0 1 0.03996,-0.015176 4.1791882,4.8164615 0 0 1 0.04009,-0.014669 4.1791882,4.8164615 0 0 1 0.04034,-0.014165 4.1791882,4.8164615 0 0 1 0.04034,-0.013786 4.1791882,4.8164615 0 0 1 0.04047,-0.013279 4.1791882,4.8164615 0 0 1 0.0406,-0.012772 4.1791882,4.8164615 0 0 1 0.04085,-0.012393 4.1791882,4.8164615 0 0 1 0.04072,-0.011887 4.1791882,4.8164615 0 0 1 0.04098,-0.011382 4.1791882,4.8164615 0 0 1 0.0411,-0.010876 4.1791882,4.8164615 0 0 1 0.0411,-0.010372 4.1791882,4.8164615 0 0 1 0.04123,-0.00999 4.1791882,4.8164615 0 0 1 0.04123,-0.00949 4.1791882,4.8164615 0 0 1 0.04148,-0.00898 4.1791882,4.8164615 0 0 1 0.04136,-0.00847 4.1791882,4.8164615 0 0 1 0.04161,-0.00809 4.1791882,4.8164615 0 0 1 0.04161,-0.00759 4.1791882,4.8164615 0 0 1 0.04161,-0.00708 4.1791882,4.8164615 0 0 1 0.04173,-0.00658 4.1791882,4.8164615 0 0 1 0.04174,-0.00607 4.1791882,4.8164615 0 0 1 0.04186,-0.00556 4.1791882,4.8164615 0 0 1 0.04186,-0.00519 4.1791882,4.8164615 0 0 1 0.04199,-0.00455 4.1791882,4.8164615 0 0 1 0.04199,-0.00417 4.1791882,4.8164615 0 0 1 0.04199,-0.00367 4.1791882,4.8164615 0 0 1 0.04199,-0.00316 4.1791882,4.8164615 0 0 1 0.04199,-0.00278 4.1791882,4.8164615 0 0 1 0.04211,-0.00215 4.1791882,4.8164615 0 0 1 0.04212,-0.00164 4.1791882,4.8164615 0 0 1 0.04211,-0.00127 4.1791882,4.8164615 0 0 1 0.04211,-7.587e-4 4.1791882,4.8164615 0 0 1 0.04211,-2.447e-4 4.1791882,4.8164615 0 0 1 0.03706,2.447e-4 4.1791882,4.8164615 0 0 1 0.04211,6.363e-4 4.1791882,4.8164615 0 0 1 0.04211,0.00115 4.1791882,4.8164615 0 0 1 0.04211,0.00164 4.1791882,4.8164615 0 0 1 0.04212,0.00215 4.1791882,4.8164615 0 0 1 0.04199,0.00266 4.1791882,4.8164615 0 0 1 0.04211,0.00316 4.1791882,4.8164615 0 0 1 0.04199,0.00354 4.1791882,4.8164615 0 0 1 0.04186,0.00417 4.1791882,4.8164615 0 0 1 0.04199,0.00455 4.1791882,4.8164615 0 0 1 0.04186,0.00506 4.1791882,4.8164615 0 0 1 0.04186,0.00557 4.1791882,4.8164615 0 0 1 0.04174,0.00607 4.1791882,4.8164615 0 0 1 0.04173,0.00645 4.1791882,4.8164615 0 0 1 0.04173,0.00708 4.1791882,4.8164615 0 0 1 0.04161,0.00746 4.1791882,4.8164615 0 0 1 0.04148,0.00797 4.1791882,4.8164615 0 0 1 0.04148,0.00847 4.1791882,4.8164615 0 0 1 0.04135,0.00885 4.1791882,4.8164615 0 0 1 0.04136,0.00949 4.1791882,4.8164615 0 0 1 0.04123,0.00987 4.1791882,4.8164615 0 0 1 0.0411,0.010369 4.1791882,4.8164615 0 0 1 0.0411,0.010876 4.1791882,4.8164615 0 0 1 0.04098,0.011382 4.1791882,4.8164615 0 0 1 0.04085,0.011762 4.1791882,4.8164615 0 0 1 0.04072,0.012268 4.1791882,4.8164615 0 0 1 0.0406,0.012772 4.1791882,4.8164615 0 0 1 0.0406,0.013279 4.1791882,4.8164615 0 0 1 0.04034,0.013658 4.1791882,4.8164615 0 0 1 0.04034,0.014165 4.1791882,4.8164615 0 0 1 0.04009,0.014544 4.1791882,4.8164615 0 0 1 0.04009,0.015176 4.1791882,4.8164615 0 0 1 0.03984,0.015555 4.1791882,4.8164615 0 0 1 0.03971,0.015934 4.1791882,4.8164615 0 0 1 0.03958,0.016568 4.1791882,4.8164615 0 0 1 0.03959,0.016948 4.1791882,4.8164615 0 0 1 0.0392,0.017327 4.1791882,4.8164615 0 0 1 0.0392,0.017831 4.1791882,4.8164615 0 0 1 0.03895,0.018338 4.1791882,4.8164615 0 0 1 0.03895,0.018844 4.1791882,4.8164615 0 0 1 0.03857,0.019096 4.1791882,4.8164615 0 0 1 0.03858,0.01973 4.1791882,4.8164615 0 0 1 0.03832,0.020109 4.1791882,4.8164615 0 0 1 0.03819,0.020486 4.1791882,4.8164615 0 0 1 0.03794,0.020993 4.1791882,4.8164615 0 0 1 0.03781,0.0215 4.1791882,4.8164615 0 0 1 0.03756,0.021879 4.1791882,4.8164615 0 0 1 0.03743,0.022258 4.1791882,4.8164615 0 0 1 0.03718,0.022765 4.1791882,4.8164615 0 0 1 0.03693,0.023144 4.1791882,4.8164615 0 0 1 0.0368,0.023648 4.1791882,4.8164615 0 0 1 0.03668,0.023903 4.1791882,4.8164615 0 0 1 0.0363,0.024535 4.1791882,4.8164615 0 0 1 0.03617,0.024788 4.1791882,4.8164615 0 0 1 0.03604,0.025294 4.1791882,4.8164615 0 0 1 0.03567,0.025799 4.1791882,4.8164615 0 0 1 0.03554,0.026053 4.1791882,4.8164615 0 0 1 0.03529,0.026558 4.1791882,4.8164615 0 0 1 0.03503,0.026938 4.1791882,4.8164615 0 0 1 0.03478,0.027317 4.1791882,4.8164615 0 0 1 0.03453,0.027697 4.1791882,4.8164615 0 0 1 0.03427,0.028202 4.1791882,4.8164615 0 0 1 0.03415,0.028582 4.1791882,4.8164615 0 0 1 0.03377,0.028834 4.1791882,4.8164615 0 0 1 0.03351,0.029341 4.1791882,4.8164615 0 0 1 0.03339,0.029719 4.1791882,4.8164615 0 0 1 0.03301,0.0301 4.1791882,4.8164615 0 0 1 0.03275,0.030478 4.1791882,4.8164615 0 0 1 0.0325,0.030858 4.1791882,4.8164615 0 0 1 0.03225,0.031237 4.1791882,4.8164615 0 0 1 0.032,0.031618 4.1791882,4.8164615 0 0 1 0.03162,0.031996 4.1791882,4.8164615 0 0 1 0.03136,0.032376 4.1791882,4.8164615 0 0 1 0.03111,0.032628 4.1791882,4.8164615 0 0 1 0.03086,0.033135 4.1791882,4.8164615 0 0 1 0.0306,0.033388 4.1791882,4.8164615 0 0 1 0.03023,0.033767 4.1791882,4.8164615 0 0 1 0.02985,0.034146 4.1791882,4.8164615 0 0 1 0.02972,0.034399 4.1791882,4.8164615 0 0 1 0.02934,0.034906 4.1791882,4.8164615 0 0 1 0.02896,0.035158 4.1791882,4.8164615 0 0 1 0.02884,0.035411 4.1791882,4.8164615 0 0 1 0.02833,0.035917 4.1791882,4.8164615 0 0 1 0.02808,0.036043 4.1791882,4.8164615 0 0 1 0.02782,0.036549 4.1791882,4.8164615 0 0 1 0.02744,0.036802 4.1791882,4.8164615 0 0 1 0.02719,0.037055 4.1791882,4.8164615 0 0 1 0.02681,0.037434 4.1791882,4.8164615 0 0 1 0.02643,0.037687 4.1791882,4.8164615 0 0 1 0.02618,0.038067 4.1791882,4.8164615 0 0 1 0.0258,0.03832 4.1791882,4.8164615 0 0 1 0.02555,0.038699 4.1791882,4.8164615 0 0 1 0.02517,0.038952 4.1791882,4.8164615 0 0 1 0.02479,0.039205 4.1791882,4.8164615 0 0 1 0.0244,0.039458 4.1791882,4.8164615 0 0 1 0.02415,0.039838 4.1791882,4.8164615 0 0 1 0.02376,0.04009 4.1791882,4.8164615 0 0 1 0.0234,0.040343 4.1791882,4.8164615 0 0 1 0.02303,0.040596 4.1791882,4.8164615 0 0 1 0.02276,0.040849 4.1791882,4.8164615 0 0 1 0.02225,0.041102 4.1791882,4.8164615 0 0 1 0.022,0.041482 4.1791882,4.8164615 0 0 1 0.02163,0.041608 4.1791882,4.8164615 0 0 1 0.02124,0.041861 4.1791882,4.8164615 0 0 1 0.02087,0.04224 4.1791882,4.8164615 0 0 1 0.02061,0.042367 4.1791882,4.8164615 0 0 1 0.02012,0.042619 4.1791882,4.8164615 0 0 1 0.01973,0.042873 4.1791882,4.8164615 0 0 1 0.01948,0.043 4.1791882,4.8164615 0 0 1 0.01897,0.04338 4.1791882,4.8164615 0 0 1 0.0186,0.04351 4.1791882,4.8164615 0 0 1 0.01833,0.04376 4.1791882,4.8164615 0 0 1 0.01784,0.04389 4.1791882,4.8164615 0 0 1 0.01745,0.04414 4.1791882,4.8164615 0 0 1 0.01721,0.04439 4.1791882,4.8164615 0 0 1 0.01669,0.04452 4.1791882,4.8164615 0 0 1 0.01632,0.04477 4.1791882,4.8164615 0 0 1 0.01593,0.0449 4.1791882,4.8164615 0 0 1 0.01556,0.04515 4.1791882,4.8164615 0 0 1 0.01505,0.04528 4.1791882,4.8164615 0 0 1 0.01481,0.0454 4.1791882,4.8164615 0 0 1 0.01429,0.04565 4.1791882,4.8164615 0 0 1 0.01405,0.04578 4.1791882,4.8164615 0 0 1 0.01353,0.04603 4.1791882,4.8164615 0 0 1 0.01314,0.04603 4.1791882,4.8164615 0 0 1 0.01277,0.04629 4.1791882,4.8164615 0 0 1 0.01226,0.04641 4.1791882,4.8164615 0 0 1 0.01189,0.04654 4.1791882,4.8164615 0 0 1 0.01162,0.04667 4.1791882,4.8164615 0 0 1 0.01101,0.04679 4.1791882,4.8164615 0 0 1 0.01074,0.04705 4.1791882,4.8164615 0 0 1 0.01025,0.04705 4.1791882,4.8164615 0 0 1 0.01,0.04717 4.1791882,4.8164615 0 0 1 0.0093,0.0473 4.1791882,4.8164615 0 0 1 0.0091,0.0473 4.1791882,4.8164615 0 0 1 0.0086,0.04755 4.1791882,4.8164615 0 0 1 0.0082,0.04755 4.1791882,4.8164615 0 0 1 0.0078,0.0478 4.1791882,4.8164615 0 0 1 0.0073,0.04768 4.1791882,4.8164615 0 0 1 0.007,0.04793 4.1791882,4.8164615 0 0 1 0.0066,0.04793 4.1791882,4.8164615 0 0 1 0.0062,0.04806 4.1791882,4.8164615 0 0 1 0.0057,0.04806 4.1791882,4.8164615 0 0 1 0.0053,0.04818 4.1791882,4.8164615 0 0 1 0.0048,0.04819 4.1791882,4.8164615 0 0 1 0.0044,0.04819 4.1791882,4.8164615 0 0 1 0.004,0.04831 4.1791882,4.8164615 0 0 1 0.0037,0.04844 4.1791882,4.8164615 0 0 1 0.0032,0.04831 4.1791882,4.8164615 0 0 1 0.0028,0.04844 4.1791882,4.8164615 0 0 1 0.0022,0.04856 4.1791882,4.8164615 0 0 1 0.002,0.04844 4.1791882,4.8164615 0 0 1 0.0015,0.04856 4.1791882,4.8164615 0 0 1 9.79e-4,0.04844 4.1791882,4.8164615 0 0 1 7.34e-4,0.04856 4.1791882,4.8164615 0 0 1 2.44e-4,0.04856 4.1791882,4.8164615 0 0 1 -1.29e-4,0.04275 4.1791882,4.8164615 0 0 1 -7.34e-4,0.04856 4.1791882,4.8164615 0 0 1 -9.79e-4,0.04856 4.1791882,4.8164615 0 0 1 -0.0015,0.04844 4.1791882,4.8164615 0 0 1 -0.002,0.04856 4.1791882,4.8164615 0 0 1 -0.0022,0.04844 4.1791882,4.8164615 0 0 1 -0.0027,0.04844 4.1791882,4.8164615 0 0 1 -0.0032,0.04844 4.1791882,4.8164615 0 0 1 -0.0035,0.04831 4.1791882,4.8164615 0 0 1 -0.004,0.04831 4.1791882,4.8164615 0 0 1 -0.0043,0.04831 4.1791882,4.8164615 0 0 1 -0.0049,0.04818 4.1791882,4.8164615 0 0 1 -0.0052,0.04818 4.1791882,4.8164615 0 0 1 -0.0057,0.04806 4.1791882,4.8164615 0 0 1 -0.0061,0.04806 4.1791882,4.8164615 0 0 1 -0.0065,0.04793 4.1791882,4.8164615 0 0 1 -0.0069,0.04781 4.1791882,4.8164615 0 0 1 -0.0073,0.04781 4.1791882,4.8164615 0 0 1 -0.0077,0.0478 4.1791882,4.8164615 0 0 1 -0.0082,0.04755 4.1791882,4.8164615 0 0 1 -0.0086,0.04755 4.1791882,4.8164615 0 0 1 -0.009,0.04743 4.1791882,4.8164615 0 0 1 -0.0095,0.0473 4.1791882,4.8164615 0 0 1 -0.0097,0.04717 4.1791882,4.8164615 0 0 1 -0.01025,0.04705 4.1791882,4.8164615 0 0 1 -0.01074,0.04692 4.1791882,4.8164615 0 0 1 -0.01101,0.04692 4.1791882,4.8164615 0 0 1 -0.0115,0.04667 4.1791882,4.8164615 0 0 1 -0.01189,0.04654 4.1791882,4.8164615 0 0 1 -0.01226,0.04641 4.1791882,4.8164615 0 0 1 -0.01265,0.04629 4.1791882,4.8164615 0 0 1 -0.01314,0.04616 4.1791882,4.8164615 0 0 1 -0.01341,0.04591 4.1791882,4.8164615 0 0 1 -0.0139,0.04591 4.1791882,4.8164615 0 0 1 -0.01429,0.04565 4.1791882,4.8164615 0 0 1 -0.01481,0.0454 4.1791882,4.8164615 0 0 1 -0.01505,0.04528 4.1791882,4.8164615 0 0 1 -0.01556,0.04515 4.1791882,4.8164615 0 0 1 -0.01581,0.04502 4.1791882,4.8164615 0 0 1 -0.01632,0.04477 4.1791882,4.8164615 0 0 1 -0.01669,0.04452 4.1791882,4.8164615 0 0 1 -0.01708,0.04439 4.1791882,4.8164615 0 0 1 -0.01733,0.04414 4.1791882,4.8164615 0 0 1 -0.01784,0.04401 4.1791882,4.8164615 0 0 1 -0.01821,0.04376 4.1791882,4.8164615 0 0 1 -0.0186,0.0435 4.1791882,4.8164615 0 0 1 -0.01909,0.04338 4.1791882,4.8164615 0 0 1 -0.01936,0.04312 4.1791882,4.8164615 0 0 1 -0.01972,0.04287 4.1791882,4.8164615 0 0 1 -0.01997,0.04262 4.1791882,4.8164615 0 0 1 -0.02048,0.04237 4.1791882,4.8164615 0 0 1 -0.02087,0.04224 4.1791882,4.8164615 0 0 1 -0.02124,0.04186 4.1791882,4.8164615 0 0 1 -0.02151,0.04173 4.1791882,4.8164615 0 0 1 -0.022,0.04148 4.1791882,4.8164615 0 0 1 -0.02225,0.0411 4.1791882,4.8164615 0 0 1 -0.02264,0.04097 4.1791882,4.8164615 0 0 1 -0.02303,0.0406 4.1791882,4.8164615 0 0 1 -0.0234,0.04034 4.1791882,4.8164615 0 0 1 -0.02376,0.04009 4.1791882,4.8164615 0 0 1 -0.02403,0.03984 4.1791882,4.8164615 0 0 1 -0.02212,0.03592 19.129311,17.944495 0 0 0 -7.093825,-5.0504871 z"
       inkscape:export-xdpi="96"
       inkscape:export-ydpi="96" />
    <path
       id="path932-0"
       style="display:inline;opacity:0.92;mix-blend-mode:normal;fill:#f7c454;fill-opacity:1;fill-rule:evenodd;stroke:#000000;stroke-width:0.518012;stroke-linejoin:round;stroke-miterlimit:4;stroke-dasharray:none"
       d="m 42.794966,6.7753741 a 5.0478299,6.2797955 0 0 1 5.037842,6.2797549 5.0478299,6.2797955 0 0 1 -0.893368,3.566769 19.129311,17.944495 0 0 0 -1.241786,-1.592102 4.1791882,4.8164615 0 0 0 0.02212,-0.03592 4.1791882,4.8164615 0 0 0 0.02403,-0.03984 4.1791882,4.8164615 0 0 0 0.02376,-0.04009 4.1791882,4.8164615 0 0 0 0.0234,-0.04034 4.1791882,4.8164615 0 0 0 0.02303,-0.0406 4.1791882,4.8164615 0 0 0 0.02264,-0.04097 4.1791882,4.8164615 0 0 0 0.02225,-0.0411 4.1791882,4.8164615 0 0 0 0.022,-0.04148 4.1791882,4.8164615 0 0 0 0.02151,-0.04173 4.1791882,4.8164615 0 0 0 0.02124,-0.04186 4.1791882,4.8164615 0 0 0 0.02088,-0.04224 4.1791882,4.8164615 0 0 0 0.02048,-0.04237 4.1791882,4.8164615 0 0 0 0.01997,-0.04262 4.1791882,4.8164615 0 0 0 0.01973,-0.04287 4.1791882,4.8164615 0 0 0 0.01936,-0.04312 4.1791882,4.8164615 0 0 0 0.01909,-0.04338 4.1791882,4.8164615 0 0 0 0.0186,-0.0435 4.1791882,4.8164615 0 0 0 0.01821,-0.04376 4.1791882,4.8164615 0 0 0 0.01784,-0.04401 4.1791882,4.8164615 0 0 0 0.01733,-0.04414 4.1791882,4.8164615 0 0 0 0.01708,-0.04439 4.1791882,4.8164615 0 0 0 0.01669,-0.04452 4.1791882,4.8164615 0 0 0 0.01632,-0.04477 4.1791882,4.8164615 0 0 0 0.01581,-0.04502 4.1791882,4.8164615 0 0 0 0.01557,-0.04515 4.1791882,4.8164615 0 0 0 0.01505,-0.04528 4.1791882,4.8164615 0 0 0 0.01481,-0.0454 4.1791882,4.8164615 0 0 0 0.01429,-0.04565 4.1791882,4.8164615 0 0 0 0.0139,-0.04591 4.1791882,4.8164615 0 0 0 0.01341,-0.04591 4.1791882,4.8164615 0 0 0 0.01314,-0.04616 4.1791882,4.8164615 0 0 0 0.01265,-0.04629 4.1791882,4.8164615 0 0 0 0.01226,-0.04641 4.1791882,4.8164615 0 0 0 0.01189,-0.04654 4.1791882,4.8164615 0 0 0 0.0115,-0.04667 4.1791882,4.8164615 0 0 0 0.01101,-0.04692 4.1791882,4.8164615 0 0 0 0.01074,-0.04692 4.1791882,4.8164615 0 0 0 0.01025,-0.04705 4.1791882,4.8164615 0 0 0 0.0097,-0.04717 4.1791882,4.8164615 0 0 0 0.0095,-0.0473 4.1791882,4.8164615 0 0 0 0.009,-0.04743 4.1791882,4.8164615 0 0 0 0.0086,-0.04755 4.1791882,4.8164615 0 0 0 0.0082,-0.04755 4.1791882,4.8164615 0 0 0 0.0077,-0.0478 4.1791882,4.8164615 0 0 0 0.0073,-0.04781 4.1791882,4.8164615 0 0 0 0.007,-0.04781 4.1791882,4.8164615 0 0 0 0.0065,-0.04793 4.1791882,4.8164615 0 0 0 0.0061,-0.04806 4.1791882,4.8164615 0 0 0 0.0057,-0.04806 4.1791882,4.8164615 0 0 0 0.0052,-0.04818 4.1791882,4.8164615 0 0 0 0.0049,-0.04818 4.1791882,4.8164615 0 0 0 0.0043,-0.04831 4.1791882,4.8164615 0 0 0 0.004,-0.04831 4.1791882,4.8164615 0 0 0 0.0035,-0.04831 4.1791882,4.8164615 0 0 0 0.0032,-0.04844 4.1791882,4.8164615 0 0 0 0.0027,-0.04844 4.1791882,4.8164615 0 0 0 0.0022,-0.04844 4.1791882,4.8164615 0 0 0 0.002,-0.04856 4.1791882,4.8164615 0 0 0 0.0015,-0.04844 4.1791882,4.8164615 0 0 0 9.79e-4,-0.04856 4.1791882,4.8164615 0 0 0 7.34e-4,-0.04856 4.1791882,4.8164615 0 0 0 1.3e-4,-0.04275 4.1791882,4.8164615 0 0 0 -2.45e-4,-0.04856 4.1791882,4.8164615 0 0 0 -7.34e-4,-0.04856 4.1791882,4.8164615 0 0 0 -9.79e-4,-0.04844 4.1791882,4.8164615 0 0 0 -0.0015,-0.04856 4.1791882,4.8164615 0 0 0 -0.002,-0.04844 4.1791882,4.8164615 0 0 0 -0.0022,-0.04856 4.1791882,4.8164615 0 0 0 -0.0028,-0.04844 4.1791882,4.8164615 0 0 0 -0.0032,-0.04831 4.1791882,4.8164615 0 0 0 -0.0037,-0.04844 4.1791882,4.8164615 0 0 0 -0.004,-0.04831 4.1791882,4.8164615 0 0 0 -0.0044,-0.04819 4.1791882,4.8164615 0 0 0 -0.0048,-0.04819 4.1791882,4.8164615 0 0 0 -0.0053,-0.04818 4.1791882,4.8164615 0 0 0 -0.0057,-0.04806 4.1791882,4.8164615 0 0 0 -0.0062,-0.04806 4.1791882,4.8164615 0 0 0 -0.0066,-0.04793 4.1791882,4.8164615 0 0 0 -0.007,-0.04793 4.1791882,4.8164615 0 0 0 -0.0073,-0.04768 4.1791882,4.8164615 0 0 0 -0.0078,-0.0478 4.1791882,4.8164615 0 0 0 -0.0082,-0.04755 4.1791882,4.8164615 0 0 0 -0.0086,-0.04755 4.1791882,4.8164615 0 0 0 -0.0091,-0.0473 4.1791882,4.8164615 0 0 0 -0.0093,-0.0473 4.1791882,4.8164615 0 0 0 -0.01,-0.04717 4.1791882,4.8164615 0 0 0 -0.01025,-0.04705 4.1791882,4.8164615 0 0 0 -0.01074,-0.04705 4.1791882,4.8164615 0 0 0 -0.01101,-0.04679 4.1791882,4.8164615 0 0 0 -0.01163,-0.04667 4.1791882,4.8164615 0 0 0 -0.01189,-0.04654 4.1791882,4.8164615 0 0 0 -0.01226,-0.04641 4.1791882,4.8164615 0 0 0 -0.01277,-0.04629 4.1791882,4.8164615 0 0 0 -0.01314,-0.04603 4.1791882,4.8164615 0 0 0 -0.01353,-0.04603 4.1791882,4.8164615 0 0 0 -0.01405,-0.04578 4.1791882,4.8164615 0 0 0 -0.01429,-0.04565 4.1791882,4.8164615 0 0 0 -0.01481,-0.0454 4.1791882,4.8164615 0 0 0 -0.01505,-0.04528 4.1791882,4.8164615 0 0 0 -0.01556,-0.04515 4.1791882,4.8164615 0 0 0 -0.01593,-0.0449 4.1791882,4.8164615 0 0 0 -0.01632,-0.04477 4.1791882,4.8164615 0 0 0 -0.01669,-0.04452 4.1791882,4.8164615 0 0 0 -0.0172,-0.04439 4.1791882,4.8164615 0 0 0 -0.01745,-0.04414 4.1791882,4.8164615 0 0 0 -0.01784,-0.04388 4.1791882,4.8164615 0 0 0 -0.01833,-0.04376 4.1791882,4.8164615 0 0 0 -0.0186,-0.0435 4.1791882,4.8164615 0 0 0 -0.01897,-0.04338 4.1791882,4.8164615 0 0 0 -0.01948,-0.043 4.1791882,4.8164615 0 0 0 -0.01973,-0.042873 4.1791882,4.8164615 0 0 0 -0.02012,-0.042619 4.1791882,4.8164615 0 0 0 -0.02061,-0.042367 4.1791882,4.8164615 0 0 0 -0.02088,-0.04224 4.1791882,4.8164615 0 0 0 -0.02124,-0.041861 4.1791882,4.8164615 0 0 0 -0.02163,-0.041608 4.1791882,4.8164615 0 0 0 -0.022,-0.041482 4.1791882,4.8164615 0 0 0 -0.02227,-0.041102 4.1791882,4.8164615 0 0 0 -0.02276,-0.040849 4.1791882,4.8164615 0 0 0 -0.023,-0.040596 4.1791882,4.8164615 0 0 0 -0.0234,-0.040343 4.1791882,4.8164615 0 0 0 -0.02376,-0.04009 4.1791882,4.8164615 0 0 0 -0.02416,-0.039838 4.1791882,4.8164615 0 0 0 -0.0244,-0.039458 4.1791882,4.8164615 0 0 0 -0.02479,-0.039205 4.1791882,4.8164615 0 0 0 -0.02517,-0.038952 4.1791882,4.8164615 0 0 0 -0.02555,-0.038699 4.1791882,4.8164615 0 0 0 -0.0258,-0.03832 4.1791882,4.8164615 0 0 0 -0.02618,-0.038067 4.1791882,4.8164615 0 0 0 -0.02643,-0.037687 4.1791882,4.8164615 0 0 0 -0.02681,-0.037434 4.1791882,4.8164615 0 0 0 -0.02719,-0.037055 4.1791882,4.8164615 0 0 0 -0.02744,-0.036802 4.1791882,4.8164615 0 0 0 -0.02782,-0.036549 4.1791882,4.8164615 0 0 0 -0.02808,-0.036043 4.1791882,4.8164615 0 0 0 -0.02833,-0.035917 4.1791882,4.8164615 0 0 0 -0.02883,-0.035411 4.1791882,4.8164615 0 0 0 -0.02896,-0.035158 4.1791882,4.8164615 0 0 0 -0.02934,-0.034906 4.1791882,4.8164615 0 0 0 -0.02972,-0.034399 4.1791882,4.8164615 0 0 0 -0.02985,-0.034146 4.1791882,4.8164615 0 0 0 -0.03023,-0.033767 4.1791882,4.8164615 0 0 0 -0.03061,-0.033387 4.1791882,4.8164615 0 0 0 -0.03086,-0.033135 4.1791882,4.8164615 0 0 0 -0.03111,-0.032628 4.1791882,4.8164615 0 0 0 -0.03137,-0.032376 4.1791882,4.8164615 0 0 0 -0.03162,-0.031996 4.1791882,4.8164615 0 0 0 -0.032,-0.031618 4.1791882,4.8164615 0 0 0 -0.03225,-0.031237 4.1791882,4.8164615 0 0 0 -0.0325,-0.030858 4.1791882,4.8164615 0 0 0 -0.03276,-0.030479 4.1791882,4.8164615 0 0 0 -0.03301,-0.0301 4.1791882,4.8164615 0 0 0 -0.03339,-0.029719 4.1791882,4.8164615 0 0 0 -0.03351,-0.029341 4.1791882,4.8164615 0 0 0 -0.03377,-0.028835 4.1791882,4.8164615 0 0 0 -0.03414,-0.028582 4.1791882,4.8164615 0 0 0 -0.03428,-0.028202 4.1791882,4.8164615 0 0 0 -0.03452,-0.027697 4.1791882,4.8164615 0 0 0 -0.03478,-0.027317 4.1791882,4.8164615 0 0 0 -0.03503,-0.026938 4.1791882,4.8164615 0 0 0 -0.03528,-0.026558 4.1791882,4.8164615 0 0 0 -0.03554,-0.026053 4.1791882,4.8164615 0 0 0 -0.03566,-0.025799 4.1791882,4.8164615 0 0 0 -0.03604,-0.025294 4.1791882,4.8164615 0 0 0 -0.03617,-0.024788 4.1791882,4.8164615 0 0 0 -0.0363,-0.024535 4.1791882,4.8164615 0 0 0 -0.03668,-0.023903 4.1791882,4.8164615 0 0 0 -0.0368,-0.023648 4.1791882,4.8164615 0 0 0 -0.03693,-0.023144 4.1791882,4.8164615 0 0 0 -0.03718,-0.022765 4.1791882,4.8164615 0 0 0 -0.03743,-0.022258 4.1791882,4.8164615 0 0 0 -0.03756,-0.021879 4.1791882,4.8164615 0 0 0 -0.03781,-0.0215 4.1791882,4.8164615 0 0 0 -0.03794,-0.020993 4.1791882,4.8164615 0 0 0 -0.0382,-0.020486 4.1791882,4.8164615 0 0 0 -0.03832,-0.02011 4.1791882,4.8164615 0 0 0 -0.03857,-0.01973 4.1791882,4.8164615 0 0 0 -0.03857,-0.019096 4.1791882,4.8164615 0 0 0 -0.03895,-0.018844 4.1791882,4.8164615 0 0 0 -0.03895,-0.018338 4.1791882,4.8164615 0 0 0 -0.0392,-0.017831 4.1791882,4.8164615 0 0 0 -0.03921,-0.017327 4.1791882,4.8164615 0 0 0 -0.03959,-0.016947 4.1791882,4.8164615 0 0 0 -0.03959,-0.016568 4.1791882,4.8164615 0 0 0 -0.03971,-0.015934 4.1791882,4.8164615 0 0 0 -0.03984,-0.015555 4.1791882,4.8164615 0 0 0 -0.04009,-0.015176 4.1791882,4.8164615 0 0 0 -0.04009,-0.014544 4.1791882,4.8164615 0 0 0 -0.04034,-0.014165 4.1791882,4.8164615 0 0 0 -0.04034,-0.013658 4.1791882,4.8164615 0 0 0 -0.0406,-0.013279 4.1791882,4.8164615 0 0 0 -0.0406,-0.012772 4.1791882,4.8164615 0 0 0 -0.04072,-0.012268 4.1791882,4.8164615 0 0 0 -0.04085,-0.011762 4.1791882,4.8164615 0 0 0 -0.04098,-0.011382 4.1791882,4.8164615 0 0 0 -0.0411,-0.010876 4.1791882,4.8164615 0 0 0 -0.0411,-0.010369 4.1791882,4.8164615 0 0 0 -0.04123,-0.00987 4.1791882,4.8164615 0 0 0 -0.04136,-0.00949 4.1791882,4.8164615 0 0 0 -0.04135,-0.00885 4.1791882,4.8164615 0 0 0 -0.04148,-0.00847 4.1791882,4.8164615 0 0 0 -0.04148,-0.00797 4.1791882,4.8164615 0 0 0 -0.04161,-0.00746 4.1791882,4.8164615 0 0 0 -0.04173,-0.00708 4.1791882,4.8164615 0 0 0 -0.04174,-0.00645 4.1791882,4.8164615 0 0 0 -0.04173,-0.00607 4.1791882,4.8164615 0 0 0 -0.04186,-0.00557 4.1791882,4.8164615 0 0 0 -0.04186,-0.00506 4.1791882,4.8164615 0 0 0 -0.04199,-0.00455 4.1791882,4.8164615 0 0 0 -0.04186,-0.00417 4.1791882,4.8164615 0 0 0 -0.04199,-0.00354 4.1791882,4.8164615 0 0 0 -0.04211,-0.00316 4.1791882,4.8164615 0 0 0 -0.04199,-0.00266 4.1791882,4.8164615 0 0 0 -0.04212,-0.00215 4.1791882,4.8164615 0 0 0 -0.04211,-0.00164 4.1791882,4.8164615 0 0 0 -0.04211,-0.00115 4.1791882,4.8164615 0 0 0 -0.04211,-6.363e-4 4.1791882,4.8164615 0 0 0 -0.03705,-2.448e-4 4.1791882,4.8164615 0 0 0 -0.04212,2.448e-4 4.1791882,4.8164615 0 0 0 -0.04211,7.586e-4 4.1791882,4.8164615 0 0 0 -0.04211,0.00127 4.1791882,4.8164615 0 0 0 -0.04212,0.00164 4.1791882,4.8164615 0 0 0 -0.04211,0.00215 4.1791882,4.8164615 0 0 0 -0.04199,0.00278 4.1791882,4.8164615 0 0 0 -0.04199,0.00316 4.1791882,4.8164615 0 0 0 -0.04199,0.00367 4.1791882,4.8164615 0 0 0 -0.04199,0.00417 4.1791882,4.8164615 0 0 0 -0.04199,0.00455 4.1791882,4.8164615 0 0 0 -0.04186,0.00519 4.1791882,4.8164615 0 0 0 -0.04186,0.00556 4.1791882,4.8164615 0 0 0 -0.04174,0.00607 4.1791882,4.8164615 0 0 0 -0.04173,0.00658 4.1791882,4.8164615 0 0 0 -0.04161,0.00708 4.1791882,4.8164615 0 0 0 -0.04161,0.00759 4.1791882,4.8164615 0 0 0 -0.04161,0.00809 4.1791882,4.8164615 0 0 0 -0.04136,0.00847 4.1791882,4.8164615 0 0 0 -0.04148,0.00898 4.1791882,4.8164615 0 0 0 -0.04123,0.00949 4.1791882,4.8164615 0 0 0 -0.04123,0.00999 4.1791882,4.8164615 0 0 0 -0.0411,0.010372 4.1791882,4.8164615 0 0 0 -0.0411,0.010876 4.1791882,4.8164615 0 0 0 -0.04097,0.011382 4.1791882,4.8164615 0 0 0 -0.04072,0.011887 4.1791882,4.8164615 0 0 0 -0.04085,0.012393 4.1791882,4.8164615 0 0 0 -0.0406,0.012772 4.1791882,4.8164615 0 0 0 -0.04047,0.013279 4.1791882,4.8164615 0 0 0 -0.04034,0.013786 4.1791882,4.8164615 0 0 0 -0.04034,0.014165 4.1791882,4.8164615 0 0 0 -0.04009,0.014669 4.1791882,4.8164615 0 0 0 -0.03996,0.015176 4.1791882,4.8164615 0 0 0 -0.03996,0.015555 4.1791882,4.8164615 0 0 0 -0.03971,0.016189 4.1791882,4.8164615 0 0 0 -0.03958,0.016441 4.1791882,4.8164615 0 0 0 -0.03946,0.017072 4.1791882,4.8164615 0 0 0 -0.03933,0.017452 4.1791882,4.8164615 0 0 0 -0.03908,0.017831 4.1791882,4.8164615 0 0 0 -0.03895,0.018338 4.1791882,4.8164615 0 0 0 -0.03883,0.018844 4.1791882,4.8164615 0 0 0 -0.0387,0.019348 4.1791882,4.8164615 0 0 0 -0.03845,0.019603 4.1791882,4.8164615 0 0 0 -0.03832,0.020234 4.1791882,4.8164615 0 0 0 -0.03819,0.020614 4.1791882,4.8164615 0 0 0 -0.03794,0.020993 4.1791882,4.8164615 0 0 0 -0.03769,0.0215 4.1791882,4.8164615 0 0 0 -0.03769,0.021879 4.1791882,4.8164615 0 0 0 -0.03731,0.022385 4.1791882,4.8164615 0 0 0 -0.03718,0.022765 4.1791882,4.8164615 0 0 0 -0.03705,0.023271 4.1791882,4.8164615 0 0 0 -0.03668,0.023648 4.1791882,4.8164615 0 0 0 -0.03655,0.024028 4.1791882,4.8164615 0 0 0 -0.03642,0.024535 4.1791882,4.8164615 0 0 0 -0.03617,0.024914 4.1791882,4.8164615 0 0 0 -0.03592,0.025293 4.1791882,4.8164615 0 0 0 -0.03567,0.0258 4.1791882,4.8164615 0 0 0 -0.03541,0.026178 4.1791882,4.8164615 0 0 0 -0.03528,0.026558 4.1791882,4.8164615 0 0 0 -0.03503,0.026938 4.1791882,4.8164615 0 0 0 -0.03478,0.027443 4.1791882,4.8164615 0 0 0 -0.03452,0.027697 4.1791882,4.8164615 0 0 0 -0.03427,0.028202 4.1791882,4.8164615 0 0 0 -0.03402,0.028581 4.1791882,4.8164615 0 0 0 -0.03377,0.028961 4.1791882,4.8164615 0 0 0 -0.03351,0.029467 4.1791882,4.8164615 0 0 0 -0.03326,0.02972 4.1791882,4.8164615 0 0 0 -0.03301,0.030099 4.1791882,4.8164615 0 0 0 -0.03276,0.030605 4.1791882,4.8164615 0 0 0 -0.0325,0.030858 4.1791882,4.8164615 0 0 0 -0.03212,0.031237 4.1791882,4.8164615 0 0 0 -0.032,0.031744 4.1791882,4.8164615 0 0 0 -0.03162,0.031996 4.1791882,4.8164615 0 0 0 -0.03137,0.032376 4.1791882,4.8164615 0 0 0 -0.03111,0.032755 4.1791882,4.8164615 0 0 0 -0.03073,0.033135 4.1791882,4.8164615 0 0 0 -0.03061,0.033387 4.1791882,4.8164615 0 0 0 -0.0301,0.033893 4.1791882,4.8164615 0 0 0 -0.02997,0.034146 4.1791882,4.8164615 0 0 0 -0.02959,0.034526 4.1791882,4.8164615 0 0 0 -0.02934,0.034778 4.1791882,4.8164615 0 0 0 -0.02896,0.035284 4.1791882,4.8164615 0 0 0 -0.02871,0.035411 4.1791882,4.8164615 0 0 0 -0.02833,0.035917 4.1791882,4.8164615 0 0 0 -0.02808,0.03617 4.1791882,4.8164615 0 0 0 -0.02782,0.036549 4.1791882,4.8164615 0 0 0 -0.02744,0.036802 4.1791882,4.8164615 0 0 0 -0.02707,0.037182 4.1791882,4.8164615 0 0 0 -0.02681,0.037434 4.1791882,4.8164615 0 0 0 -0.02643,0.037814 4.1791882,4.8164615 0 0 0 -0.02605,0.038067 4.1791882,4.8164615 0 0 0 -0.0258,0.038319 4.1791882,4.8164615 0 0 0 -0.02542,0.038699 4.1791882,4.8164615 0 0 0 -0.02517,0.038952 4.1791882,4.8164615 0 0 0 -0.02479,0.039205 4.1791882,4.8164615 0 0 0 -0.0244,0.039585 4.1791882,4.8164615 0 0 0 -0.02403,0.039837 4.1791882,4.8164615 0 0 0 -0.02376,0.04009 4.1791882,4.8164615 0 0 0 -0.02327,0.040343 4.1791882,4.8164615 0 0 0 -0.023,0.040723 4.1791882,4.8164615 0 0 0 -0.02276,0.040849 4.1791882,4.8164615 0 0 0 -0.02227,0.041228 4.1791882,4.8164615 0 0 0 -0.02188,0.041355 4.1791882,4.8164615 0 0 0 -0.02163,0.041734 4.1791882,4.8164615 0 0 0 -0.02124,0.041861 4.1791882,4.8164615 0 0 0 -0.02088,0.042241 4.1791882,4.8164615 0 0 0 -0.02036,0.042366 4.1791882,4.8164615 0 0 0 -0.02012,0.04262 4.1791882,4.8164615 0 0 0 -0.01657,0.03617 19.129311,17.944495 0 0 0 -0.185151,-0.075375 5.0478299,6.2797955 0 0 1 4.366298,-3.128558 5.0478299,6.2797955 0 0 1 0.01,0 z"
       inkscape:export-xdpi="96"
       inkscape:export-ydpi="96" />
    <path
       style="fill:none;stroke:#4b312d;stroke-width:0.388509;stroke-linecap:round;stroke-linejoin:miter;stroke-miterlimit:4;stroke-dasharray:none;stroke-opacity:1"
       d="m 18.905103,27.363712 c 0,0 -0.965235,-0.464377 -2.240682,-0.683484 -1.275446,-0.219104 -2.918188,-0.153255 -2.918188,-0.153255"
       id="path1840"
       sodipodi:nodetypes="czc"
       inkscape:export-xdpi="96"
       inkscape:export-ydpi="96" />
    <path
       style="display:inline;fill:none;stroke:#4b312d;stroke-width:0.388509;stroke-linecap:round;stroke-linejoin:miter;stroke-miterlimit:4;stroke-dasharray:none;stroke-opacity:1"
       d="m 18.851124,28.236916 c 0,0 -1.047558,-0.223495 -2.338688,-0.135443 -1.29113,0.08805 -2.871942,0.539688 -2.871942,0.539688"
       id="path1840-2"
       sodipodi:nodetypes="czc"
       inkscape:export-xdpi="96"
       inkscape:export-ydpi="96" />
    <path
       style="display:inline;fill:none;stroke:#4b312d;stroke-width:0.367085;stroke-linecap:round;stroke-linejoin:miter;stroke-miterlimit:4;stroke-dasharray:none;stroke-opacity:1"
       d="m 19.057875,29.197892 c 0,0 -1.070726,0.06621 -2.289877,0.459109 -1.21915,0.392899 -2.616741,1.168379 -2.616741,1.168379"
       id="path1840-2-3"
       sodipodi:nodetypes="czc"
       inkscape:export-xdpi="96"
       inkscape:export-ydpi="96" />
    <g
       id="g1920"
       transform="matrix(0.30967376,0,0,0.27506878,-9.7092006,-5.056694)"
       inkscape:export-xdpi="96"
       inkscape:export-ydpi="96">
      <path
         style="display:inline;opacity:1;fill:none;stroke:#4b312d;stroke-width:1.5875;stroke-linecap:round;stroke-linejoin:miter;stroke-miterlimit:4;stroke-dasharray:none;stroke-opacity:1"
         d="m 132.82349,115.35156 c 0,0 3.94408,-1.89751 9.15573,-2.79281 5.21165,-0.89529 11.92411,-0.62622 11.92411,-0.62622"
         id="path1840-7"
         sodipodi:nodetypes="czc" />
      <path
         style="display:inline;opacity:1;fill:none;stroke:#4b312d;stroke-width:1.5875;stroke-linecap:round;stroke-linejoin:miter;stroke-miterlimit:4;stroke-dasharray:none;stroke-opacity:1"
         d="m 133.04405,118.91959 c 0,0 4.28047,-0.91323 9.5562,-0.55344 5.27574,0.3598 11.73515,2.20524 11.73515,2.20524"
         id="path1840-2-5"
         sodipodi:nodetypes="czc" />
      <path
         style="display:inline;opacity:1;fill:none;stroke:#4b312d;stroke-width:1.49996;stroke-linecap:round;stroke-linejoin:miter;stroke-miterlimit:4;stroke-dasharray:none;stroke-opacity:1"
         d="m 132.19924,122.84627 c 0,0 4.37513,0.27055 9.35675,1.87598 4.98161,1.60544 10.69236,4.77416 10.69236,4.77416"
         id="path1840-2-3-9"
         sodipodi:nodetypes="czc" />
    </g>
    <path
       style="display:inline;mix-blend-mode:normal;fill:none;fill-opacity:0.858824;stroke:#492c20;stroke-width:0.518012;stroke-linecap:round;stroke-linejoin:round;stroke-miterlimit:4;stroke-dasharray:none;stroke-opacity:0.988235"
       d="m 21.783677,30.282212 c 2.089799,1.977413 3.248453,-0.492619 3.008684,-1.066878"
       id="path1922-2"
       sodipodi:nodetypes="cc"
       inkscape:export-xdpi="96"
       inkscape:export-ydpi="96" />
    <path
       style="display:inline;mix-blend-mode:normal;fill:none;fill-opacity:0.858824;stroke:#492c20;stroke-width:0.518012;stroke-linecap:round;stroke-linejoin:round;stroke-miterlimit:4;stroke-dasharray:none;stroke-opacity:0.988235"
       d="m 27.930547,30.282212 c -2.089798,1.977413 -3.248452,-0.492619 -3.008683,-1.066878"
       id="path1922-2-2"
       sodipodi:nodetypes="cc"
       inkscape:export-xdpi="96"
       inkscape:export-ydpi="96" />
    <ellipse
       style="opacity:0.92;fill:#ffffff;fill-opacity:1;fill-rule:nonzero;stroke:none;stroke-width:0.518012;stroke-linecap:round;stroke-linejoin:round;stroke-miterlimit:4;stroke-dasharray:none;stroke-opacity:0.858824;paint-order:stroke fill markers"
       id="path2221"
       cx="24.131695"
       cy="25.949772"
       rx="1.0941129"
       ry="0.6670742"
       inkscape:export-xdpi="96"
       inkscape:export-ydpi="96" />
  </g>
</svg>
